
<?xml-stylesheet href="css/stylesheet.css" type="text/css"?>
<svg class="crocodoc-1VEYgr crocodoc-page-svg" version="1.1"
    xmlns="http://www.w3.org/2000/svg"
    xmlns:xlink="http://www.w3.org/1999/xlink"
    xml:space="preserve" width="612pt" height="792pt" viewBox="0 0 612 792">
<defs>

</defs>
<path d="M558.27 124.09 l-501.72 0 l0 -23.33 l501.72 0 l0 23.33 z " style="fill:#d3d2d2;"/><text class="f100" font-size="21.00" style="fill:#a7a5a6"><tspan x="95.51" y="46.78" textLength="145.09" style="fill:#444141">touch gesture </tspan>
<tspan x="240.60" y="46.78" textLength="157.48">reference guide</tspan></text><text class="f100" font-size="10.00" style="fill:#231f20"><tspan x="65.56" y="244.19" textLength="27.39">Scroll</tspan></text><path d="M57.03 32.57 c0 8.69 7.04 15.73 15.73 15.73 c8.69 0 15.73 -7.04 15.73 -15.73 c0 -5.62 -2.95 -10.55 -7.38 -13.33 l-16.69 0 c-4.43 2.78 -7.38 7.71 -7.38 13.33 " style="fill:#ffffff;"/><path d="M57.03 32.57 c0 8.69 7.04 15.73 15.73 15.73 c8.69 0 15.73 -7.04 15.73 -15.73 c0 -5.62 -2.95 -10.55 -7.38 -13.33 l-16.69 0 c-4.43 2.78 -7.38 7.71 -7.38 13.33 z " style="stroke:#7b7979;stroke-width:1.00;"/><path d="M84.21 32.57 c0 6.32 -5.13 11.45 -11.45 11.45 c-6.32 0 -11.45 -5.13 -11.45 -11.45 c0 -6.32 5.13 -11.45 11.45 -11.45 c6.32 0 11.45 5.13 11.45 11.45 " style="fill:#ffffff;"/><path d="M84.21 32.57 c0 6.32 -5.13 11.45 -11.45 11.45 c-6.32 0 -11.45 -5.13 -11.45 -11.45 c0 -6.32 5.13 -11.45 11.45 -11.45 c6.32 0 11.45 5.13 11.45 11.45 z " style="stroke:#4f4c4d;stroke-width:1.50;"/><path d="M79.96 32.57 c0 3.97 -3.22 7.2 -7.19 7.2 c-3.97 0 -7.2 -3.22 -7.2 -7.2 c0 -3.97 3.22 -7.2 7.2 -7.2 c3.97 0 7.19 3.22 7.19 7.2 " style="fill:#ffffff;"/><path d="M79.96 32.57 c0 3.97 -3.22 7.2 -7.19 7.2 c-3.97 0 -7.2 -3.22 -7.2 -7.2 c0 -3.97 3.22 -7.2 7.2 -7.2 c3.97 0 7.19 3.22 7.19 7.2 z " style="stroke:#231f20;stroke-width:2.00;"/><path d="M56.86 52.78 l28.09 0 c-0.01 -0.72 -0.4 -1.4 -1.07 -1.77 c-0.96 -0.53 -2.14 -0.21 -2.73 0.69 c-0.25 -0.49 -0.54 -0.97 -0.85 -1.45 l0.47 -0.86 c0.72 -1.31 0.36 -2.89 -0.81 -3.53 c-0.98 -0.54 -2.21 -0.24 -3.01 0.64 c-0.45 -0.37 -0.89 -0.72 -1.34 -1.04 l0.22 -0.4 c0.72 -1.31 0.36 -2.89 -0.81 -3.53 c-1.17 -0.64 -2.7 -0.1 -3.42 1.21 l-0.24 0.44 c-0.52 -0.19 -1.04 -0.35 -1.56 -0.47 l4.81 -8.74 c0.72 -1.31 0.36 -2.89 -0.81 -3.53 c-1.17 -0.64 -2.7 -0.1 -3.42 1.21 l-6.74 12.26 c-0.67 0.92 -1.38 1.29 -2.12 1.09 c-2.23 -2.43 -4.45 -4.29 -5.86 -3.88 c-1.8 0.52 -1.36 3.39 -0.29 5.96 l1.48 5.72 z " style="stroke:#231f20;stroke-width:1.00;"/><path d="M89.55 53.17 l-33.54 0 l0 -33.54 l33.54 0 l0 33.54 z " style="stroke:#4f4c4d;stroke-width:0.30;"/><path d="M56.86 53.02 l28.09 0 c-0.01 -0.72 -0.4 -1.4 -1.07 -1.77 c-0.96 -0.53 -2.14 -0.21 -2.73 0.69 c-0.25 -0.49 -0.54 -0.97 -0.85 -1.45 l0.47 -0.86 c0.72 -1.31 0.36 -2.89 -0.81 -3.53 c-0.98 -0.54 -2.21 -0.24 -3.01 0.64 c-0.45 -0.37 -0.89 -0.72 -1.34 -1.04 l0.22 -0.4 c0.72 -1.31 0.36 -2.89 -0.81 -3.53 c-1.17 -0.64 -2.7 -0.1 -3.42 1.21 l-0.24 0.44 c-0.52 -0.19 -1.04 -0.35 -1.56 -0.47 l4.81 -8.74 c0.72 -1.31 0.36 -2.89 -0.81 -3.53 c-1.17 -0.64 -2.7 -0.1 -3.42 1.21 l-6.74 12.26 c-0.67 0.92 -1.38 1.29 -2.12 1.09 c-2.23 -2.43 -4.45 -4.29 -5.86 -3.88 c-1.8 0.52 -1.36 3.39 -0.29 5.96 l1.48 5.72 z " style="fill:#231f20;"/><path d="M89.78 19.51 l-33.19 0 l0 -0.81 l33.19 0 l0 0.81 z " style="fill:#ffffff;"/><text class="f89" font-size="22.00" style="fill:#7b7979"><tspan x="539.35" y="48.71" textLength="18.92">&#59905;</tspan></text><path d="M56 53.28 l502.3 0 " style="stroke:#231f20;stroke-width:0.30;"/><text class="f98" font-size="8.00" style="fill:#656263"><tspan x="56.56" y="735.09" textLength="198.42">Supporting materials for this guide can be found online:</tspan>
<tspan x="56.56" y="747.09" textLength="145.73" class="f100" font-size="10.00" style="fill:#231f20">http://www.lukew.com/touch/ </tspan></text><path d="M56.56 100.66 l501.71 0 " style="stroke:#868484;stroke-width:0.25;"/><text class="f98" font-size="11.00" style="fill:#918f8f"><tspan x="65.56" y="140.73" textLength="54.4">user action</tspan>
<tspan x="170.86" y="140.73" textLength="36.87">gesture</tspan></text><path d="M56.56 149.97 l501.72 0 " style="stroke:#b2b1b1;stroke-width:1.50;"/><text class="f98" font-size="10.00" style="fill:#231f20"><tspan x="353.50" y="140.73" textLength="54.8" font-size="11.00" style="fill:#918f8f">description</tspan>
<tspan x="65.56" y="117.19" textLength="126.07" class="f100" dx="0,0.75,0.75,0.75,0.75,0.75,0.75,0.75,0.75,0.75,0.75,0.75,0.75,0.75,0.75,0.75,0.75,0.75,0.75">NAVIGATING ACTIONS </tspan>
<tspan x="192.38" y="117.19" textLength="49.64">(continued)</tspan></text><path d="M56.56 124.24 l501.71 0 " style="stroke:#868484;stroke-width:0.25;"/><path d="M170.98 296.16 l387.3 0 " style="stroke:#a7a5a6;stroke-width:0.25;stroke-dasharray:2.0,2.0;"/><path d="M56.56 710.15 l501.72 0 " style="stroke:#231f20;stroke-width:0.25;"/><text class="f98" font-size="10.00" style="fill:#444141"><tspan x="354.01" y="319.46" textLength="166.11">Move two fingers up or down across </tspan>
<tspan x="354.01" y="331.46" textLength="32.96">surface</tspan></text><text class="f98" font-size="10.00" style="fill:#444141"><tspan x="213.86" y="394.02" textLength="24.63">press</tspan>
<tspan x="354.01" y="393.76" textLength="162.79">Touch scrollbar for extended period </tspan>
<tspan x="354.01" y="405.76" textLength="30.75">of time</tspan></text><text class="f98" font-size="10.00" style="fill:#444141"><tspan x="224.86" y="465.02" textLength="17.96">flick</tspan>
<tspan x="354.01" y="464.76" textLength="170.95">Quickly brush surface with fingertip in </tspan>
<tspan x="354.01" y="476.76" textLength="137.6">the direction you want to scroll</tspan></text><text class="f100" font-size="10.00" style="fill:#231f20"><tspan x="65.56" y="176.13" textLength="18.34">Pan</tspan></text><path d="M56.56 221.88 l501.71 0 " style="stroke:#a7a5a6;stroke-width:0.25;"/><text class="f98" font-size="10.00" style="fill:#444141"><tspan x="353.85" y="176.09" textLength="161.16">Move fingers and palm of one hand </tspan>
<tspan x="353.85" y="188.09" textLength="156.67">over surface without losing contact</tspan></text><text class="f98" font-size="10.00" style="fill:#444141"><tspan x="232.86" y="320.13" textLength="68.69">two-finger drag</tspan></text><path d="M189.74 387.78 c0 2.8 -2.27 5.07 -5.07 5.07 c-2.8 0 -5.06 -2.27 -5.06 -5.07 c0 -2.8 2.27 -5.07 5.06 -5.07 c2.8 0 5.07 2.27 5.07 5.07 " style="fill:#231f20;"/><path d="M189.74 387.78 c0 2.8 -2.27 5.07 -5.07 5.07 c-2.8 0 -5.06 -2.27 -5.06 -5.07 c0 -2.8 2.27 -5.07 5.06 -5.07 c2.8 0 5.07 2.27 5.07 5.07 z " style="stroke:#231f20;stroke-width:1.00;"/><path d="M210.21 410.3 l0 -5.68 c0 -1.4 -1.13 -2.54 -2.53 -2.54 c-1.1 0 -2.04 0.7 -2.39 1.69 c-0.6 -0.41 -1.24 -0.8 -1.91 -1.15 l0 -2.33 c0 -1.84 -1.33 -3.33 -2.96 -3.33 c-1.64 0 -2.97 1.49 -2.97 3.33 l0 0.25 c-0.66 -0.13 -1.31 -0.23 -1.96 -0.3 l0 -2.87 c0 -1.84 -1.33 -3.33 -2.96 -3.33 c-1.64 0 -2.96 1.49 -2.96 3.33 l0 2.93 c-0.68 0.1 -1.33 0.24 -1.96 0.41 l0 -12.26 c0 -1.84 -1.33 -3.33 -2.96 -3.33 c-1.64 0 -2.97 1.49 -2.97 3.33 l0 17.19 c-0.18 1.38 -0.72 2.21 -1.64 2.43 c-3.84 -1.3 -7.34 -1.98 -8.61 -0.71 c-1.63 1.63 0.54 4.46 3.22 6.59 l8.47 9 c2.21 3.23 5.59 4.52 9.51 4.88 c0.19 0.03 0.38 0.04 0.55 0.05 c0.67 0.05 1.35 0.07 2.05 0.07 c1.85 0.01 13.67 0.8 15 -15.95 c0.08 -0.57 0.07 -1.13 -0.02 -1.69 " style="fill:#ffffff;"/><path d="M210.21 410.3 l0 -5.68 c0 -1.4 -1.13 -2.54 -2.53 -2.54 c-1.1 0 -2.04 0.7 -2.39 1.69 c-0.6 -0.41 -1.24 -0.8 -1.91 -1.15 l0 -2.33 c0 -1.84 -1.33 -3.33 -2.96 -3.33 c-1.64 0 -2.97 1.49 -2.97 3.33 l0 0.25 c-0.66 -0.13 -1.31 -0.23 -1.96 -0.3 l0 -2.87 c0 -1.84 -1.33 -3.33 -2.96 -3.33 c-1.64 0 -2.96 1.49 -2.96 3.33 l0 2.93 c-0.68 0.1 -1.33 0.24 -1.96 0.41 l0 -12.26 c0 -1.84 -1.33 -3.33 -2.96 -3.33 c-1.64 0 -2.97 1.49 -2.97 3.33 l0 17.19 c-0.18 1.38 -0.72 2.21 -1.64 2.43 c-3.84 -1.3 -7.34 -1.98 -8.61 -0.71 c-1.63 1.63 0.54 4.46 3.22 6.59 l8.47 9 c2.21 3.23 5.59 4.52 9.51 4.88 c0.19 0.03 0.38 0.04 0.55 0.05 c0.67 0.05 1.35 0.07 2.05 0.07 c1.85 0.01 13.67 0.8 15 -15.95 c0.08 -0.57 0.07 -1.13 -0.02 -1.69 z " style="stroke:#231f20;stroke-width:1.00;"/><path d="M192.46 547.85 c0 3.93 -3.19 7.11 -7.11 7.11 c-3.93 0 -7.11 -3.18 -7.11 -7.11 c0 -3.93 3.18 -7.11 7.11 -7.11 c3.93 0 7.11 3.18 7.11 7.11 z " style="stroke:#231f20;stroke-width:2.00;"/><path d="M211.71 571.66 l0 -5.89 c0 -1.46 -1.18 -2.64 -2.63 -2.64 c-1.14 0 -2.11 0.73 -2.48 1.75 c-0.63 -0.43 -1.29 -0.83 -1.98 -1.2 l0 -2.42 c0 -1.91 -1.38 -3.46 -3.08 -3.46 c-1.7 0 -3.08 1.55 -3.08 3.46 l0 0.25 c-0.68 -0.13 -1.36 -0.24 -2.03 -0.31 l0 -2.98 c0 -1.91 -1.38 -3.45 -3.08 -3.45 c-1.7 0 -3.08 1.54 -3.08 3.45 l0 3.04 c-0.7 0.11 -1.38 0.25 -2.03 0.43 l0 -12.73 c0 -1.91 -1.38 -3.46 -3.08 -3.46 c-1.7 0 -3.08 1.55 -3.08 3.46 l0 17.85 c-0.19 1.44 -0.74 2.29 -1.7 2.52 c-3.98 -1.35 -7.62 -2.06 -8.94 -0.74 c-1.7 1.69 0.56 4.63 3.35 6.84 l8.79 9.34 c2.29 3.35 5.81 4.69 9.87 5.07 c0.2 0.03 0.39 0.04 0.57 0.05 c0.7 0.05 1.41 0.07 2.13 0.08 c1.92 0 14.19 0.82 15.58 -16.55 c0.08 -0.59 0.07 -1.18 -0.02 -1.76 " style="fill:#ffffff;"/><path d="M211.71 571.66 l0 -5.89 c0 -1.46 -1.18 -2.64 -2.63 -2.64 c-1.14 0 -2.11 0.73 -2.48 1.75 c-0.63 -0.43 -1.29 -0.83 -1.98 -1.2 l0 -2.42 c0 -1.91 -1.38 -3.46 -3.08 -3.46 c-1.7 0 -3.08 1.55 -3.08 3.46 l0 0.25 c-0.68 -0.13 -1.36 -0.24 -2.03 -0.31 l0 -2.98 c0 -1.91 -1.38 -3.45 -3.08 -3.45 c-1.7 0 -3.08 1.54 -3.08 3.45 l0 3.04 c-0.7 0.11 -1.38 0.25 -2.03 0.43 l0 -12.73 c0 -1.91 -1.38 -3.46 -3.08 -3.46 c-1.7 0 -3.08 1.55 -3.08 3.46 l0 17.85 c-0.19 1.44 -0.74 2.29 -1.7 2.52 c-3.98 -1.35 -7.62 -2.06 -8.94 -0.74 c-1.7 1.69 0.56 4.63 3.35 6.84 l8.79 9.34 c2.29 3.35 5.81 4.69 9.87 5.07 c0.2 0.03 0.39 0.04 0.57 0.05 c0.7 0.05 1.41 0.07 2.13 0.08 c1.92 0 14.19 0.82 15.58 -16.55 c0.08 -0.59 0.07 -1.18 -0.02 -1.76 z " style="stroke:#231f20;stroke-width:1.00;"/><text class="f98" font-size="10.00" style="fill:#444141"><tspan x="354.01" y="554.58" textLength="182.03">Briefly touch surface with fingertip when </tspan>
<tspan x="354.01" y="566.58" textLength="94.81">a scroll is in progress</tspan>
<tspan x="213.86" y="555.25" textLength="14.45">tap</tspan></text><text class="f98" font-size="10.00" style="fill:#444141"><tspan x="270.86" y="244.27" textLength="20.37">drag</tspan></text><path d="M246.13 238.5 l-4.13 -3.47 l0 1.41 l-53.28 0 l0 4.1 l53.28 0 l0 1.41 l4.13 -3.47 z " style="fill:#231f20;"/><path d="M246.13 238.5 l-4.13 -3.47 l0 1.41 l-53.28 0 l0 4.1 l53.28 0 l0 1.41 l4.13 -3.47 z " style="stroke:#231f20;stroke-width:1.00;"/><path d="M210.72 266.62 l1.11 -5.79 c0.27 -1.43 -0.66 -2.81 -2.09 -3.09 c-1.13 -0.22 -2.22 0.32 -2.77 1.25 c-0.53 -0.54 -1.11 -1.05 -1.72 -1.55 l0.46 -2.38 c0.36 -1.87 -0.71 -3.65 -2.37 -3.97 c-1.67 -0.32 -3.31 0.94 -3.67 2.81 l-0.05 0.25 c-0.65 -0.26 -1.29 -0.49 -1.94 -0.69 l0.56 -2.92 c0.36 -1.87 -0.71 -3.65 -2.38 -3.97 c-1.67 -0.32 -3.31 0.94 -3.67 2.81 l-0.57 2.99 c-0.71 -0.03 -1.4 -0.01 -2.08 0.04 l2.39 -12.51 c0.36 -1.87 -0.7 -3.65 -2.37 -3.97 c-1.67 -0.32 -3.31 0.94 -3.67 2.81 l-3.36 17.53 c-0.45 1.38 -1.16 2.11 -2.14 2.15 c-3.66 -2.08 -7.09 -3.45 -8.64 -2.41 c-1.98 1.34 -0.32 4.65 2 7.35 l6.88 10.83 c1.62 3.72 4.82 5.7 8.74 6.84 c0.19 0.06 0.38 0.12 0.55 0.15 c0.68 0.18 1.37 0.34 2.07 0.47 c1.89 0.37 13.78 3.48 18.41 -13.33 c0.19 -0.56 0.29 -1.14 0.31 -1.73 " style="fill:#ffffff;"/><path d="M210.72 266.62 l1.11 -5.79 c0.27 -1.43 -0.66 -2.81 -2.09 -3.09 c-1.13 -0.22 -2.22 0.32 -2.77 1.25 c-0.53 -0.54 -1.11 -1.05 -1.72 -1.55 l0.46 -2.38 c0.36 -1.87 -0.71 -3.65 -2.37 -3.97 c-1.67 -0.32 -3.31 0.94 -3.67 2.81 l-0.05 0.25 c-0.65 -0.26 -1.29 -0.49 -1.94 -0.69 l0.56 -2.92 c0.36 -1.87 -0.71 -3.65 -2.38 -3.97 c-1.67 -0.32 -3.31 0.94 -3.67 2.81 l-0.57 2.99 c-0.71 -0.03 -1.4 -0.01 -2.08 0.04 l2.39 -12.51 c0.36 -1.87 -0.7 -3.65 -2.37 -3.97 c-1.67 -0.32 -3.31 0.94 -3.67 2.81 l-3.36 17.53 c-0.45 1.38 -1.16 2.11 -2.14 2.15 c-3.66 -2.08 -7.09 -3.45 -8.64 -2.41 c-1.98 1.34 -0.32 4.65 2 7.35 l6.88 10.83 c1.62 3.72 4.82 5.7 8.74 6.84 c0.19 0.06 0.38 0.12 0.55 0.15 c0.68 0.18 1.37 0.34 2.07 0.47 c1.89 0.37 13.78 3.48 18.41 -13.33 c0.19 -0.56 0.29 -1.14 0.31 -1.73 z " style="stroke:#231f20;stroke-width:1.00;"/><path d="M256.75 266.62 l1.11 -5.79 c0.27 -1.43 -0.66 -2.81 -2.09 -3.09 c-1.13 -0.22 -2.22 0.32 -2.77 1.25 c-0.53 -0.54 -1.11 -1.05 -1.72 -1.55 l0.45 -2.38 c0.36 -1.87 -0.7 -3.65 -2.37 -3.97 c-1.67 -0.32 -3.31 0.94 -3.67 2.81 l-0.04 0.25 c-0.65 -0.26 -1.29 -0.49 -1.94 -0.69 l0.56 -2.92 c0.36 -1.87 -0.71 -3.65 -2.38 -3.97 c-1.67 -0.32 -3.31 0.94 -3.67 2.81 l-0.57 2.99 c-0.71 -0.03 -1.4 -0.01 -2.08 0.04 l2.4 -12.51 c0.36 -1.87 -0.71 -3.65 -2.37 -3.97 c-1.67 -0.32 -3.31 0.94 -3.67 2.81 l-3.36 17.53 c-0.45 1.38 -1.16 2.11 -2.15 2.15 c-3.66 -2.08 -7.1 -3.45 -8.64 -2.41 c-1.99 1.34 -0.32 4.65 2 7.35 l6.88 10.83 c1.62 3.72 4.82 5.7 8.74 6.83 c0.19 0.06 0.38 0.12 0.55 0.15 c0.67 0.18 1.37 0.34 2.07 0.47 c1.89 0.37 13.78 3.48 18.41 -13.33 c0.19 -0.56 0.29 -1.14 0.31 -1.73 " style="fill:#ffffff;"/><path d="M256.75 266.62 l1.11 -5.79 c0.27 -1.43 -0.66 -2.81 -2.09 -3.09 c-1.13 -0.22 -2.22 0.32 -2.77 1.25 c-0.53 -0.54 -1.11 -1.05 -1.72 -1.55 l0.45 -2.38 c0.36 -1.87 -0.7 -3.65 -2.37 -3.97 c-1.67 -0.32 -3.31 0.94 -3.67 2.81 l-0.04 0.25 c-0.65 -0.26 -1.29 -0.49 -1.94 -0.69 l0.56 -2.92 c0.36 -1.87 -0.71 -3.65 -2.38 -3.97 c-1.67 -0.32 -3.31 0.94 -3.67 2.81 l-0.57 2.99 c-0.71 -0.03 -1.4 -0.01 -2.08 0.04 l2.4 -12.51 c0.36 -1.87 -0.71 -3.65 -2.37 -3.97 c-1.67 -0.32 -3.31 0.94 -3.67 2.81 l-3.36 17.53 c-0.45 1.38 -1.16 2.11 -2.15 2.15 c-3.66 -2.08 -7.1 -3.45 -8.64 -2.41 c-1.99 1.34 -0.32 4.65 2 7.35 l6.88 10.83 c1.62 3.72 4.82 5.7 8.74 6.83 c0.19 0.06 0.38 0.12 0.55 0.15 c0.67 0.18 1.37 0.34 2.07 0.47 c1.89 0.37 13.78 3.48 18.41 -13.33 c0.19 -0.56 0.29 -1.14 0.31 -1.73 z " style="stroke:#231f20;stroke-width:1.00;"/><text class="f98" font-size="10.00" style="fill:#444141"><tspan x="354.01" y="243.81" textLength="166.11">Move fingertip over scrollbar without </tspan>
<tspan x="354.01" y="255.81" textLength="62.97">losing contact</tspan></text><path d="M215.99 356.14 l4.74 -5.64 l-1.93 0 l0 -28.96 l0 -5.45 l1.93 0 l-4.74 -5.64 l-4.74 5.64 l1.93 0 l0 28.96 l0 5.46 l-1.93 0 l4.74 5.64 z " style="fill:#231f20;"/><path d="M215.99 356.14 l4.74 -5.64 l-1.93 0 l0 -28.96 l0 -5.45 l1.93 0 l-4.74 -5.64 l-4.74 5.64 l1.93 0 l0 28.96 l0 5.46 l-1.93 0 l4.74 5.64 z " style="stroke:#231f20;stroke-width:1.00;"/><path d="M187.92 313.77 l9.04 -1.27 c1.52 -0.21 2.92 0.84 3.13 2.35 c0.21 1.52 -0.84 2.92 -2.36 3.13 l-1.84 0.26 c0.49 0.54 0.96 1.13 1.4 1.74 l5.4 -0.76 c1.98 -0.28 3.8 0.93 4.04 2.7 c0.25 1.77 -1.16 3.43 -3.14 3.71 l-3.14 0.44 c0.24 0.69 0.44 1.38 0.62 2.07 l15.9 -2.23 c1.98 -0.28 3.8 0.93 4.04 2.7 c0.25 1.77 -1.16 3.43 -3.15 3.71 l-15.96 2.24 c-0.01 0.75 -0.06 1.47 -0.16 2.18 l13.26 -1.86 c1.98 -0.28 3.8 0.93 4.05 2.7 c0.25 1.77 -1.16 3.43 -3.15 3.71 l-18.56 2.61 c-0.21 0.06 -0.39 0.12 -0.57 0.19 c-0.04 0.95 -0.26 1.89 -0.64 2.74 c-1.44 3.29 -10.78 2.98 -13.03 1.38 c-1.55 -1.1 -2.84 -2.04 -3.92 -2.88 c-5.23 -2.16 -7.2 -6.98 -8.02 -12.68 c-0.29 -2 -2.94 -14.65 14.95 -18.63 c0.59 -0.17 1.19 -0.24 1.81 -0.23 " style="fill:#ffffff;"/><path d="M187.92 313.77 l9.04 -1.27 c1.52 -0.21 2.92 0.84 3.13 2.35 c0.21 1.52 -0.84 2.92 -2.36 3.13 l-1.84 0.26 c0.49 0.54 0.96 1.13 1.4 1.74 l5.4 -0.76 c1.98 -0.28 3.8 0.93 4.04 2.7 c0.25 1.77 -1.16 3.43 -3.14 3.71 l-3.14 0.44 c0.24 0.69 0.44 1.38 0.62 2.07 l15.9 -2.23 c1.98 -0.28 3.8 0.93 4.04 2.7 c0.25 1.77 -1.16 3.43 -3.15 3.71 l-15.96 2.24 c-0.01 0.75 -0.06 1.47 -0.16 2.18 l13.26 -1.86 c1.98 -0.28 3.8 0.93 4.05 2.7 c0.25 1.77 -1.16 3.43 -3.15 3.71 l-18.56 2.61 c-0.21 0.06 -0.39 0.12 -0.57 0.19 c-0.04 0.95 -0.26 1.89 -0.64 2.74 c-1.44 3.29 -10.78 2.98 -13.03 1.38 c-1.55 -1.1 -2.84 -2.04 -3.92 -2.88 c-5.23 -2.16 -7.2 -6.98 -8.02 -12.68 c-0.29 -2 -2.94 -14.65 14.95 -18.63 c0.59 -0.17 1.19 -0.24 1.81 -0.23 z " style="stroke:#231f20;stroke-width:1.00;"/><path d="M170.98 369.76 l387.3 0 " style="stroke:#a7a5a6;stroke-width:0.25;stroke-dasharray:2.0,2.0;"/><path d="M56.56 440.95 l501.71 0 " style="stroke:#a7a5a6;stroke-width:0.25;"/><text class="f100" font-size="10.00" style="fill:#231f20"><tspan x="65.56" y="465.09" textLength="54.05">Scroll (fast)</tspan></text><path d="M208.72 518.55 l3.06 -3.64 l-1.25 0 l0 -47.03 l-3.62 0 l0 47.03 l-1.25 0 l3.06 3.64 z " style="fill:#231f20;"/><path d="M208.72 518.55 l3.06 -3.64 l-1.25 0 l0 -47.03 l-3.62 0 l0 47.03 l-1.25 0 l3.06 3.64 z " style="stroke:#231f20;stroke-width:1.00;"/><path d="M206.21 493.81 l-10.57 -3.82 c0.35 -0.49 0.67 -1.01 0.97 -1.56 l2.52 0.91 c1.58 0.57 3.28 -0.11 3.79 -1.52 c0.51 -1.41 -0.36 -3.02 -1.94 -3.59 l-2.47 -0.89 c0.13 -0.58 0.25 -1.17 0.35 -1.78 l0.21 0.08 c1.58 0.57 3.28 -0.11 3.79 -1.52 c0.51 -1.41 -0.36 -3.02 -1.94 -3.59 l-2.01 -0.73 c-0.1 -0.69 -0.23 -1.36 -0.4 -2 c0.81 0 1.55 -0.43 1.98 -1.14 l-25.02 0 c-0.52 1.04 -0.79 1.9 -0.93 2.27 c-0.22 0.6 -0.41 1.2 -0.58 1.79 c-0.05 0.15 -0.09 0.31 -0.13 0.49 c-0.91 3.49 -0.85 6.81 1.25 9.72 l5.11 10.1 c1 2.98 2.76 5.73 4.67 4.83 c1.49 -0.7 2 -3.93 2.06 -7.62 c0.49 -0.75 1.37 -0.95 2.62 -0.68 l14.82 5.36 c1.58 0.57 3.28 -0.1 3.79 -1.52 c0.51 -1.41 -0.36 -3.02 -1.94 -3.59 " style="fill:#ffffff;"/><path d="M206.21 493.81 l-10.57 -3.82 c0.35 -0.49 0.67 -1.01 0.97 -1.56 l2.52 0.91 c1.58 0.57 3.28 -0.11 3.79 -1.52 c0.51 -1.41 -0.36 -3.02 -1.94 -3.59 l-2.47 -0.89 c0.13 -0.58 0.25 -1.17 0.35 -1.78 l0.21 0.08 c1.58 0.57 3.28 -0.11 3.79 -1.52 c0.51 -1.41 -0.36 -3.02 -1.94 -3.59 l-2.01 -0.73 c-0.1 -0.69 -0.23 -1.36 -0.4 -2 c0.81 0 1.55 -0.43 1.98 -1.14 l-25.02 0 c-0.52 1.04 -0.79 1.9 -0.93 2.27 c-0.22 0.6 -0.41 1.2 -0.58 1.79 c-0.05 0.15 -0.09 0.31 -0.13 0.49 c-0.91 3.49 -0.85 6.81 1.25 9.72 l5.11 10.1 c1 2.98 2.76 5.73 4.67 4.83 c1.49 -0.7 2 -3.93 2.06 -7.62 c0.49 -0.75 1.37 -0.95 2.62 -0.68 l14.82 5.36 c1.58 0.57 3.28 -0.1 3.79 -1.52 c0.51 -1.41 -0.36 -3.02 -1.94 -3.59 z " style="stroke:#231f20;stroke-width:1.00;"/><path d="M183.32 453.27 l4.99 -1.46 c1.24 -0.36 2.53 0.35 2.89 1.58 c0.28 0.97 -0.1 1.97 -0.87 2.53 c0.52 0.42 1.02 0.89 1.5 1.38 l2.05 -0.6 c1.62 -0.47 3.27 0.31 3.69 1.75 c0.42 1.44 -0.55 2.99 -2.16 3.46 l-0.21 0.06 c0.28 0.55 0.53 1.1 0.77 1.64 l2.52 -0.73 c1.62 -0.48 3.27 0.31 3.69 1.75 c0.42 1.44 -0.55 2.99 -2.16 3.46 l-2.58 0.75 c0.08 0.62 0.13 1.23 0.13 1.83 l10.79 -3.15 c1.62 -0.47 3.27 0.31 3.69 1.75 c0.42 1.44 -0.55 2.99 -2.16 3.46 l-15.13 4.42 c-1.17 0.51 -1.76 1.2 -1.71 2.07 c2.13 3.04 3.63 5.94 2.84 7.39 c-1.01 1.86 -4.06 0.67 -6.62 -1.15 l-10.09 -5.14 c-3.41 -1.11 -5.41 -3.76 -6.74 -7.11 c-0.07 -0.16 -0.13 -0.32 -0.18 -0.48 c-0.21 -0.58 -0.41 -1.17 -0.59 -1.78 c-0.48 -1.63 -4.21 -11.82 10.17 -17.29 c0.48 -0.22 0.98 -0.35 1.5 -0.42 " style="fill:#ffffff;"/><path d="M183.32 453.27 l4.99 -1.46 c1.24 -0.36 2.53 0.35 2.89 1.58 c0.28 0.97 -0.1 1.97 -0.87 2.53 c0.52 0.42 1.02 0.89 1.5 1.38 l2.05 -0.6 c1.62 -0.47 3.27 0.31 3.69 1.75 c0.42 1.44 -0.55 2.99 -2.16 3.46 l-0.21 0.06 c0.28 0.55 0.53 1.1 0.77 1.64 l2.52 -0.73 c1.62 -0.48 3.27 0.31 3.69 1.75 c0.42 1.44 -0.55 2.99 -2.16 3.46 l-2.58 0.75 c0.08 0.62 0.13 1.23 0.13 1.83 l10.79 -3.15 c1.62 -0.47 3.27 0.31 3.69 1.75 c0.42 1.44 -0.55 2.99 -2.16 3.46 l-15.13 4.42 c-1.17 0.51 -1.76 1.2 -1.71 2.07 c2.13 3.04 3.63 5.94 2.84 7.39 c-1.01 1.86 -4.06 0.67 -6.62 -1.15 l-10.09 -5.14 c-3.41 -1.11 -5.41 -3.76 -6.74 -7.11 c-0.07 -0.16 -0.13 -0.32 -0.18 -0.48 c-0.21 -0.58 -0.41 -1.17 -0.59 -1.78 c-0.48 -1.63 -4.21 -11.82 10.17 -17.29 c0.48 -0.22 0.98 -0.35 1.5 -0.42 z " style="stroke:#231f20;stroke-width:1.00;"/><path d="M56.56 531.06 l501.71 0 " style="stroke:#a7a5a6;stroke-width:0.25;"/><text class="f100" font-size="10.00" style="fill:#231f20"><tspan x="65.56" y="554.66" textLength="54.05">Scroll (fast)</tspan></text><text class="f98" font-size="10.00" style="fill:#444141"><tspan x="354.01" y="627.57" textLength="166.11">Move fingertip over scrollbar without </tspan>
<tspan x="354.01" y="639.57" textLength="62.97">losing contact</tspan></text><path d="M56.56 604.06 l501.71 0 " style="stroke:#a7a5a6;stroke-width:0.25;"/><text class="f98" font-size="10.00" style="fill:#231f20"><tspan x="65.56" y="627.66" textLength="28.16" class="f100">Scrub</tspan>
<tspan x="270.86" y="627.56" textLength="20.37" style="fill:#444141">drag</tspan></text><path d="M246.13 621.8 l-4.13 -3.47 l0 1.42 l-53.28 0 l0 4.1 l53.28 0 l0 1.41 l4.13 -3.47 z " style="fill:#231f20;"/><path d="M246.13 621.8 l-4.13 -3.47 l0 1.42 l-53.28 0 l0 4.1 l53.28 0 l0 1.41 l4.13 -3.47 z " style="stroke:#231f20;stroke-width:1.00;"/><path d="M210.72 649.91 l1.11 -5.79 c0.27 -1.43 -0.66 -2.81 -2.09 -3.09 c-1.13 -0.22 -2.22 0.32 -2.77 1.25 c-0.53 -0.54 -1.11 -1.05 -1.72 -1.55 l0.46 -2.38 c0.36 -1.87 -0.71 -3.65 -2.37 -3.97 c-1.67 -0.32 -3.31 0.94 -3.67 2.81 l-0.05 0.25 c-0.65 -0.26 -1.29 -0.49 -1.94 -0.69 l0.56 -2.92 c0.36 -1.87 -0.71 -3.65 -2.38 -3.97 c-1.67 -0.32 -3.31 0.94 -3.67 2.81 l-0.57 2.99 c-0.71 -0.03 -1.4 -0.01 -2.08 0.04 l2.39 -12.51 c0.36 -1.87 -0.7 -3.65 -2.37 -3.97 c-1.67 -0.32 -3.31 0.94 -3.67 2.81 l-3.36 17.53 c-0.45 1.38 -1.16 2.11 -2.14 2.15 c-3.66 -2.08 -7.09 -3.45 -8.64 -2.41 c-1.98 1.34 -0.32 4.65 2 7.35 l6.88 10.83 c1.62 3.72 4.82 5.7 8.74 6.84 c0.19 0.06 0.38 0.12 0.55 0.15 c0.68 0.18 1.37 0.34 2.07 0.47 c1.89 0.37 13.78 3.48 18.41 -13.33 c0.19 -0.56 0.29 -1.14 0.31 -1.73 " style="fill:#ffffff;"/><path d="M210.72 649.91 l1.11 -5.79 c0.27 -1.43 -0.66 -2.81 -2.09 -3.09 c-1.13 -0.22 -2.22 0.32 -2.77 1.25 c-0.53 -0.54 -1.11 -1.05 -1.72 -1.55 l0.46 -2.38 c0.36 -1.87 -0.71 -3.65 -2.37 -3.97 c-1.67 -0.32 -3.31 0.94 -3.67 2.81 l-0.05 0.25 c-0.65 -0.26 -1.29 -0.49 -1.94 -0.69 l0.56 -2.92 c0.36 -1.87 -0.71 -3.65 -2.38 -3.97 c-1.67 -0.32 -3.31 0.94 -3.67 2.81 l-0.57 2.99 c-0.71 -0.03 -1.4 -0.01 -2.08 0.04 l2.39 -12.51 c0.36 -1.87 -0.7 -3.65 -2.37 -3.97 c-1.67 -0.32 -3.31 0.94 -3.67 2.81 l-3.36 17.53 c-0.45 1.38 -1.16 2.11 -2.14 2.15 c-3.66 -2.08 -7.09 -3.45 -8.64 -2.41 c-1.98 1.34 -0.32 4.65 2 7.35 l6.88 10.83 c1.62 3.72 4.82 5.7 8.74 6.84 c0.19 0.06 0.38 0.12 0.55 0.15 c0.68 0.18 1.37 0.34 2.07 0.47 c1.89 0.37 13.78 3.48 18.41 -13.33 c0.19 -0.56 0.29 -1.14 0.31 -1.73 z " style="stroke:#231f20;stroke-width:1.00;"/><path d="M256.75 649.91 l1.11 -5.79 c0.27 -1.43 -0.66 -2.81 -2.09 -3.09 c-1.13 -0.22 -2.22 0.32 -2.77 1.25 c-0.53 -0.54 -1.11 -1.05 -1.72 -1.55 l0.45 -2.38 c0.36 -1.87 -0.7 -3.65 -2.37 -3.97 c-1.67 -0.32 -3.31 0.94 -3.67 2.81 l-0.04 0.25 c-0.65 -0.26 -1.29 -0.49 -1.94 -0.69 l0.56 -2.92 c0.36 -1.87 -0.71 -3.65 -2.38 -3.97 c-1.67 -0.32 -3.31 0.94 -3.67 2.81 l-0.57 2.99 c-0.71 -0.03 -1.4 -0.01 -2.08 0.04 l2.4 -12.51 c0.36 -1.87 -0.71 -3.65 -2.37 -3.97 c-1.67 -0.32 -3.31 0.94 -3.67 2.81 l-3.36 17.53 c-0.45 1.38 -1.16 2.11 -2.15 2.15 c-3.66 -2.08 -7.1 -3.45 -8.64 -2.41 c-1.99 1.34 -0.32 4.65 2 7.35 l6.88 10.83 c1.62 3.72 4.82 5.7 8.74 6.83 c0.19 0.07 0.38 0.12 0.55 0.15 c0.67 0.18 1.37 0.34 2.07 0.48 c1.89 0.37 13.78 3.48 18.41 -13.33 c0.19 -0.56 0.29 -1.14 0.31 -1.73 " style="fill:#ffffff;"/><path d="M256.75 649.91 l1.11 -5.79 c0.27 -1.43 -0.66 -2.81 -2.09 -3.09 c-1.13 -0.22 -2.22 0.32 -2.77 1.25 c-0.53 -0.54 -1.11 -1.05 -1.72 -1.55 l0.45 -2.38 c0.36 -1.87 -0.7 -3.65 -2.37 -3.97 c-1.67 -0.32 -3.31 0.94 -3.67 2.81 l-0.04 0.25 c-0.65 -0.26 -1.29 -0.49 -1.94 -0.69 l0.56 -2.92 c0.36 -1.87 -0.71 -3.65 -2.38 -3.97 c-1.67 -0.32 -3.31 0.94 -3.67 2.81 l-0.57 2.99 c-0.71 -0.03 -1.4 -0.01 -2.08 0.04 l2.4 -12.51 c0.36 -1.87 -0.71 -3.65 -2.37 -3.97 c-1.67 -0.32 -3.31 0.94 -3.67 2.81 l-3.36 17.53 c-0.45 1.38 -1.16 2.11 -2.15 2.15 c-3.66 -2.08 -7.1 -3.45 -8.64 -2.41 c-1.99 1.34 -0.32 4.65 2 7.35 l6.88 10.83 c1.62 3.72 4.82 5.7 8.74 6.83 c0.19 0.07 0.38 0.12 0.55 0.15 c0.67 0.18 1.37 0.34 2.07 0.48 c1.89 0.37 13.78 3.48 18.41 -13.33 c0.19 -0.56 0.29 -1.14 0.31 -1.73 z " style="stroke:#231f20;stroke-width:1.00;"/><path d="M188.82 184.19 l4.89 0 l35.83 0 l0 1.41 l4.13 -3.47 l-4.13 -3.47 l0 1.42 l-35.83 0 l-4.89 0 l-13.83 0 l0 -1.42 l-4.13 3.47 l4.13 3.47 l0 -1.41 l13.83 0 z " style="fill:#231f20;"/><path d="M188.82 184.19 l4.89 0 l35.83 0 l0 1.41 l4.13 -3.47 l-4.13 -3.47 l0 1.42 l-35.83 0 l-4.89 0 l-13.83 0 l0 -1.42 l-4.13 3.47 l4.13 3.47 l0 -1.41 l13.83 0 z " style="stroke:#231f20;stroke-width:1.00;"/><path d="M219.59 190.76 l0.33 -12.41 c0.04 -1.36 -1.03 -2.49 -2.39 -2.53 c-1.36 -0.04 -2.49 1.04 -2.53 2.39 l-0.16 5.96 c-0.53 -0.38 -1.09 -0.73 -1.68 -1.06 l0.37 -13.78 c0.05 -1.78 -1.2 -3.25 -2.79 -3.3 c-1.58 -0.04 -2.91 1.36 -2.96 3.14 l-0.32 11.75 c-0.63 -0.14 -1.26 -0.25 -1.89 -0.34 l0.38 -14.25 c0.05 -1.78 -1.2 -3.26 -2.79 -3.3 c-1.59 -0.04 -2.91 1.37 -2.96 3.15 l-0.39 14.31 c-0.66 0.08 -1.29 0.21 -1.91 0.36 l0.32 -11.88 c0.05 -1.78 -1.2 -3.26 -2.78 -3.3 c-1.59 -0.04 -2.91 1.36 -2.96 3.14 l-0.45 16.63 c-0.21 1.34 -0.75 2.13 -1.65 2.32 c-0.12 0.03 -0.24 0.03 -0.36 0.03 c-3.87 -1.5 -7.54 -2.4 -8.88 -1.14 c-1.63 1.53 0.41 4.33 2.95 6.47 l7.97 8.94 c0.58 0.43 1.12 0.81 1.64 1.18 c2.55 3.09 6.47 4.05 10.88 4.18 c1.79 0.06 13.22 1.13 14.95 -15.05 c0.09 -0.54 0.09 -1.08 0.02 -1.61 " style="fill:#ffffff;"/><path d="M219.59 190.76 l0.33 -12.41 c0.04 -1.36 -1.03 -2.49 -2.39 -2.53 c-1.36 -0.04 -2.49 1.04 -2.53 2.39 l-0.16 5.96 c-0.53 -0.38 -1.09 -0.73 -1.68 -1.06 l0.37 -13.78 c0.05 -1.78 -1.2 -3.25 -2.79 -3.3 c-1.58 -0.04 -2.91 1.36 -2.96 3.14 l-0.32 11.75 c-0.63 -0.14 -1.26 -0.25 -1.89 -0.34 l0.38 -14.25 c0.05 -1.78 -1.2 -3.26 -2.79 -3.3 c-1.59 -0.04 -2.91 1.37 -2.96 3.15 l-0.39 14.31 c-0.66 0.08 -1.29 0.21 -1.91 0.36 l0.32 -11.88 c0.05 -1.78 -1.2 -3.26 -2.78 -3.3 c-1.59 -0.04 -2.91 1.36 -2.96 3.14 l-0.45 16.63 c-0.21 1.34 -0.75 2.13 -1.65 2.32 c-0.12 0.03 -0.24 0.03 -0.36 0.03 c-3.87 -1.5 -7.54 -2.4 -8.88 -1.14 c-1.63 1.53 0.41 4.33 2.95 6.47 l7.97 8.94 c0.58 0.43 1.12 0.81 1.64 1.18 c2.55 3.09 6.47 4.05 10.88 4.18 c1.79 0.06 13.22 1.13 14.95 -15.05 c0.09 -0.54 0.09 -1.08 0.02 -1.61 z " style="stroke:#231f20;stroke-width:1.00;"/><text class="f98" font-size="10.00" style="fill:#444141"><tspan x="245.66" y="176.08" textLength="45.57">drag hand</tspan></text>
</svg>
