
<?xml-stylesheet href="css/stylesheet.css" type="text/css"?>
<svg class="crocodoc-1VEYgr crocodoc-page-svg" version="1.1"
    xmlns="http://www.w3.org/2000/svg"
    xmlns:xlink="http://www.w3.org/1999/xlink"
    xml:space="preserve" width="612pt" height="792pt" viewBox="0 0 612 792">
<defs>

</defs>
<text class="f317" font-size="11.00" style="fill:#231f20"><tspan x="56.56" y="232.60" textLength="19.76">Tap</tspan>
<tspan x="191.75" y="232.60" textLength="57.23">Double tap</tspan>
<tspan x="326.94" y="232.60" textLength="25.47">Drag</tspan>
<tspan x="462.13" y="232.60" textLength="24.83">Flick</tspan></text><text class="f317" font-size="11.00" style="fill:#231f20"><tspan x="56.57" y="381.32" textLength="29.53">Pinch</tspan>
<tspan x="191.54" y="381.32" textLength="37.49">Spread</tspan>
<tspan x="326.94" y="381.32" textLength="29.74">Press</tspan>
<tspan x="462.13" y="381.32" textLength="72.32">Press and tap</tspan></text><text class="f317" font-size="11.00" style="fill:#231f20"><tspan x="56.57" y="539.48" textLength="79.45">Press and drag</tspan>
<tspan x="269.22" y="539.48" textLength="35.04">Rotate</tspan></text><path d="M67.92 419.83 c-0.6 3.02 -3.61 4.99 -6.72 4.41 c-3.11 -0.58 -5.14 -3.51 -4.54 -6.53 c0.6 -3.02 3.61 -4.99 6.72 -4.41 c3.11 0.59 5.14 3.5 4.54 6.52 " style="fill:#211d1d;"/><path d="M67.92 419.83 c-0.6 3.02 -3.61 4.99 -6.72 4.41 c-3.11 -0.58 -5.14 -3.51 -4.54 -6.53 c0.6 -3.02 3.61 -4.99 6.72 -4.41 c3.11 0.59 5.14 3.5 4.54 6.52 z " style="stroke:#211d1d;stroke-width:1.00;"/><path d="M86.5 396.28 c-0.6 3.02 -3.61 4.99 -6.72 4.41 c-3.11 -0.59 -5.14 -3.51 -4.54 -6.53 c0.6 -3.02 3.61 -4.99 6.72 -4.41 c3.11 0.59 5.14 3.51 4.54 6.53 " style="fill:#211d1d;"/><path d="M86.5 396.28 c-0.6 3.02 -3.61 4.99 -6.72 4.41 c-3.11 -0.59 -5.14 -3.51 -4.54 -6.53 c0.6 -3.02 3.61 -4.99 6.72 -4.41 c3.11 0.59 5.14 3.51 4.54 6.53 z " style="stroke:#211d1d;stroke-width:1.00;"/><path d="M88.58 411.14 c0.15 1.72 -2.03 3.31 -4.87 3.55 c-2.84 0.24 -5.27 -0.96 -5.43 -2.68 c-0.16 -1.72 2.02 -3.31 4.87 -3.55 c2.84 -0.24 5.28 0.96 5.43 2.68 " style="fill:#ffffff;"/><path d="M88.58 411.14 c0.15 1.72 -2.03 3.31 -4.87 3.55 c-2.84 0.24 -5.27 -0.96 -5.43 -2.68 c-0.16 -1.72 2.02 -3.31 4.87 -3.55 c2.84 -0.24 5.28 0.96 5.43 2.68 z " style="stroke:#211d1d;stroke-width:1.00;"/><path d="M98.88 416.55 c-0.39 -0.06 -0.77 -0.05 -1.13 0.03 c0.42 -1.62 -0.4 -3.34 -2.02 -4.04 c-0.9 -0.39 -1.88 -0.39 -2.74 -0.07 l-0.06 -2.14 c-0.02 -0.67 -1.07 -1.67 -2.3 -2.63 l1.16 -4 c0.53 -1.82 -5 -7.87 -5 -7.87 c-1.22 -1.8 -3.84 -2.61 -5.88 -1.79 c-2.03 0.82 -2.69 2.94 -1.48 4.74 l3.63 5.4 c0 0 -2.97 12.79 -4.96 14.67 c-1.63 1.53 -6.8 -0.29 -7.51 -0.69 c-4.09 -1.44 -7.82 -2.19 -9.24 -0.88 c-1.86 1.72 0.49 4.82 3.42 7.19 l5.85 6.31 c-0.49 8.24 4.65 11.94 11.41 14.2 c1.94 0.65 11.12 8.52 18.53 -8.12 c0.97 -5.59 0.58 -17.12 0.58 -17.12 c0.27 -1.49 -0.75 -2.91 -2.28 -3.18 " style="fill:#ffffff;"/><path d="M98.88 416.55 c-0.39 -0.06 -0.77 -0.05 -1.13 0.03 c0.42 -1.62 -0.4 -3.34 -2.02 -4.04 c-0.9 -0.39 -1.88 -0.39 -2.74 -0.07 l-0.06 -2.14 c-0.02 -0.67 -1.07 -1.67 -2.3 -2.63 l1.16 -4 c0.53 -1.82 -5 -7.87 -5 -7.87 c-1.22 -1.8 -3.84 -2.61 -5.88 -1.79 c-2.03 0.82 -2.69 2.94 -1.48 4.74 l3.63 5.4 c0 0 -2.97 12.79 -4.96 14.67 c-1.63 1.53 -6.8 -0.29 -7.51 -0.69 c-4.09 -1.44 -7.82 -2.19 -9.24 -0.88 c-1.86 1.72 0.49 4.82 3.42 7.19 l5.85 6.31 c-0.49 8.24 4.65 11.94 11.41 14.2 c1.94 0.65 11.12 8.52 18.53 -8.12 c0.97 -5.59 0.58 -17.12 0.58 -17.12 c0.27 -1.49 -0.75 -2.91 -2.28 -3.18 z " style="stroke:#211d1d;stroke-width:1.00;"/><path d="M123.27 418.87 c-0.6 3.02 -3.61 4.99 -6.72 4.41 c-3.11 -0.59 -5.14 -3.51 -4.54 -6.53 c0.6 -3.02 3.61 -4.99 6.72 -4.41 c3.11 0.59 5.14 3.51 4.54 6.52 " style="fill:#211d1d;"/><path d="M123.27 418.87 c-0.6 3.02 -3.61 4.99 -6.72 4.41 c-3.11 -0.59 -5.14 -3.51 -4.54 -6.53 c0.6 -3.02 3.61 -4.99 6.72 -4.41 c3.11 0.59 5.14 3.51 4.54 6.52 z " style="stroke:#211d1d;stroke-width:1.00;"/><path d="M124.34 410.08 c-0.6 3.02 -3.61 4.99 -6.72 4.41 c-3.11 -0.59 -5.14 -3.51 -4.54 -6.53 c0.6 -3.02 3.61 -4.99 6.72 -4.41 c3.11 0.59 5.14 3.51 4.54 6.53 " style="fill:#211d1d;"/><path d="M124.34 410.08 c-0.6 3.02 -3.61 4.99 -6.72 4.41 c-3.11 -0.59 -5.14 -3.51 -4.54 -6.53 c0.6 -3.02 3.61 -4.99 6.72 -4.41 c3.11 0.59 5.14 3.51 4.54 6.53 z " style="stroke:#211d1d;stroke-width:1.00;"/><path d="M138.11 417.45 c0.81 1.27 0.04 3.15 -1.72 4.21 c-1.76 1.06 -3.84 0.88 -4.65 -0.39 c-0.81 -1.27 -0.04 -3.15 1.72 -4.21 c1.76 -1.05 3.84 -0.88 4.65 0.39 " style="fill:#ffffff;"/><path d="M138.11 417.45 c0.81 1.27 0.04 3.15 -1.72 4.21 c-1.76 1.06 -3.84 0.88 -4.65 -0.39 c-0.81 -1.27 -0.04 -3.15 1.72 -4.21 c1.76 -1.05 3.84 -0.88 4.65 0.39 z " style="stroke:#211d1d;stroke-width:1.00;"/><path d="M156.6 418.57 c-0.52 -0.26 -1.08 -0.35 -1.61 -0.29 c0.63 -1.59 0 -3.43 -1.57 -4.29 c-0.88 -0.48 -1.88 -0.57 -2.78 -0.31 c-0.25 -0.14 -0.61 -0.25 -1.02 -0.36 c-0.45 -0.87 -1.66 -3.95 -2.7 -4.21 c-0.55 -0.14 -4.7 0.44 -7.17 2.52 l-4.3 -4.68 c-0.76 -1.74 -12.39 -1.11 -12.39 -1.11 c-2.11 -0.67 -4.68 0.3 -5.74 2.17 c-1.06 1.87 -0.21 3.93 1.9 4.6 l8.9 0.22 l2.21 2.62 l-1.62 6.52 c-4.88 -7.93 -8.74 -7.74 -10.95 -6.27 c-2.12 1.41 -0.31 4.84 2.19 7.63 l6 9.88 c0.2 0.2 0.78 2.17 0.97 2.36 c1.34 7.3 7.9 9.43 14.61 10.5 c2.03 0.32 12.45 6.57 16.85 -11.05 c-0.02 -4.64 -0.46 -8.15 -1.59 -10.85 l1.01 -1.9 c0.71 -1.35 0.17 -3 -1.22 -3.69 " style="fill:#ffffff;"/><path d="M156.6 418.57 c-0.52 -0.26 -1.08 -0.35 -1.61 -0.29 c0.63 -1.59 0 -3.43 -1.57 -4.29 c-0.88 -0.48 -1.88 -0.57 -2.78 -0.31 c-0.25 -0.14 -0.61 -0.25 -1.02 -0.36 c-0.45 -0.87 -1.66 -3.95 -2.7 -4.21 c-0.55 -0.14 -4.7 0.44 -7.17 2.52 l-4.3 -4.68 c-0.76 -1.74 -12.39 -1.11 -12.39 -1.11 c-2.11 -0.67 -4.68 0.3 -5.74 2.17 c-1.06 1.87 -0.21 3.93 1.9 4.6 l8.9 0.22 l2.21 2.62 l-1.62 6.52 c-4.88 -7.93 -8.74 -7.74 -10.95 -6.27 c-2.12 1.41 -0.31 4.84 2.19 7.63 l6 9.88 c0.2 0.2 0.78 2.17 0.97 2.36 c1.34 7.3 7.9 9.43 14.61 10.5 c2.03 0.32 12.45 6.57 16.85 -11.05 c-0.02 -4.64 -0.46 -8.15 -1.59 -10.85 l1.01 -1.9 c0.71 -1.35 0.17 -3 -1.22 -3.69 z " style="stroke:#211d1d;stroke-width:1.00;"/><path d="M349.02 400.41 c0 3.27 -2.65 5.93 -5.93 5.93 c-3.27 0 -5.93 -2.65 -5.93 -5.93 c0 -3.27 2.65 -5.93 5.93 -5.93 c3.27 0 5.93 2.65 5.93 5.93 " style="fill:#211d1d;"/><path d="M349.02 400.41 c0 3.27 -2.65 5.93 -5.93 5.93 c-3.27 0 -5.93 -2.65 -5.93 -5.93 c0 -3.27 2.65 -5.93 5.93 -5.93 c3.27 0 5.93 2.65 5.93 5.93 z " style="stroke:#211d1d;stroke-width:1.00;"/><path d="M372.97 426.75 l0 -6.64 c0 -1.64 -1.33 -2.97 -2.97 -2.97 c-1.29 0 -2.38 0.82 -2.79 1.97 c-0.7 -0.48 -1.45 -0.93 -2.23 -1.34 l0 -2.73 c0 -2.15 -1.55 -3.89 -3.47 -3.89 c-1.92 0 -3.47 1.74 -3.47 3.89 l0 0.29 c-0.77 -0.15 -1.53 -0.26 -2.29 -0.35 l0 -3.36 c0 -2.15 -1.55 -3.89 -3.47 -3.89 c-1.92 0 -3.47 1.74 -3.47 3.89 l0 3.43 c-0.79 0.12 -1.55 0.29 -2.29 0.49 l0 -14.35 c0 -2.15 -1.55 -3.89 -3.47 -3.89 c-1.92 0 -3.47 1.74 -3.47 3.89 l0 20.12 c-0.21 1.62 -0.84 2.58 -1.92 2.84 c-4.49 -1.52 -8.58 -2.32 -10.08 -0.83 c-1.91 1.9 0.64 5.21 3.77 7.7 l9.91 10.53 c2.58 3.78 6.54 5.29 11.13 5.71 c0.23 0.03 0.44 0.05 0.64 0.05 c0.78 0.05 1.58 0.08 2.4 0.08 c2.16 0.01 15.99 0.93 17.55 -18.66 c0.09 -0.66 0.08 -1.33 -0.03 -1.98 " style="fill:#ffffff;"/><path d="M372.97 426.75 l0 -6.64 c0 -1.64 -1.33 -2.97 -2.97 -2.97 c-1.29 0 -2.38 0.82 -2.79 1.97 c-0.7 -0.48 -1.45 -0.93 -2.23 -1.34 l0 -2.73 c0 -2.15 -1.55 -3.89 -3.47 -3.89 c-1.92 0 -3.47 1.74 -3.47 3.89 l0 0.29 c-0.77 -0.15 -1.53 -0.26 -2.29 -0.35 l0 -3.36 c0 -2.15 -1.55 -3.89 -3.47 -3.89 c-1.92 0 -3.47 1.74 -3.47 3.89 l0 3.43 c-0.79 0.12 -1.55 0.29 -2.29 0.49 l0 -14.35 c0 -2.15 -1.55 -3.89 -3.47 -3.89 c-1.92 0 -3.47 1.74 -3.47 3.89 l0 20.12 c-0.21 1.62 -0.84 2.58 -1.92 2.84 c-4.49 -1.52 -8.58 -2.32 -10.08 -0.83 c-1.91 1.9 0.64 5.21 3.77 7.7 l9.91 10.53 c2.58 3.78 6.54 5.29 11.13 5.71 c0.23 0.03 0.44 0.05 0.64 0.05 c0.78 0.05 1.58 0.08 2.4 0.08 c2.16 0.01 15.99 0.93 17.55 -18.66 c0.09 -0.66 0.08 -1.33 -0.03 -1.98 z " style="stroke:#211d1d;stroke-width:1.00;"/><path d="M215.47 252.61 c0 3.94 -3.19 7.13 -7.13 7.13 c-3.94 0 -7.13 -3.2 -7.13 -7.13 c0 -3.94 3.19 -7.13 7.13 -7.13 c3.94 0 7.13 3.2 7.13 7.13 z " style="stroke:#211d1d;stroke-width:1.00;"/><path d="M219.49 252.61 c0 6.16 -4.99 11.15 -11.15 11.15 c-6.16 0 -11.15 -5 -11.15 -11.15 c0 -6.16 4.99 -11.15 11.15 -11.15 c6.16 0 11.15 4.99 11.15 11.15 z " style="stroke:#211d1d;stroke-width:2.00;"/><path d="M239.32 280.06 l0 -6.89 c0 -1.71 -1.38 -3.09 -3.08 -3.09 c-1.34 0 -2.47 0.86 -2.9 2.05 c-0.73 -0.5 -1.51 -0.97 -2.32 -1.4 l0 -2.83 c0 -2.23 -1.61 -4.04 -3.6 -4.04 c-1.99 0 -3.6 1.81 -3.6 4.04 l0 0.3 c-0.8 -0.15 -1.59 -0.27 -2.38 -0.37 l0 -3.48 c0 -2.23 -1.61 -4.04 -3.6 -4.04 c-1.99 0 -3.6 1.81 -3.6 4.04 l0 3.56 c-0.82 0.13 -1.61 0.3 -2.38 0.51 l0 -14.89 c0 -2.23 -1.61 -4.04 -3.6 -4.04 c-1.99 0 -3.6 1.81 -3.6 4.04 l0 20.88 c-0.22 1.68 -0.87 2.68 -1.99 2.95 c-4.66 -1.58 -8.91 -2.41 -10.46 -0.86 c-1.99 1.98 0.66 5.41 3.92 8 l10.29 10.93 c2.68 3.92 6.79 5.49 11.55 5.93 c0.24 0.03 0.46 0.05 0.67 0.06 c0.82 0.06 1.65 0.09 2.49 0.09 c2.25 0.01 16.6 0.96 18.22 -19.37 c0.1 -0.69 0.09 -1.38 -0.03 -2.06 " style="fill:#ffffff;"/><path d="M239.32 280.06 l0 -6.89 c0 -1.71 -1.38 -3.09 -3.08 -3.09 c-1.34 0 -2.47 0.86 -2.9 2.05 c-0.73 -0.5 -1.51 -0.97 -2.32 -1.4 l0 -2.83 c0 -2.23 -1.61 -4.04 -3.6 -4.04 c-1.99 0 -3.6 1.81 -3.6 4.04 l0 0.3 c-0.8 -0.15 -1.59 -0.27 -2.38 -0.37 l0 -3.48 c0 -2.23 -1.61 -4.04 -3.6 -4.04 c-1.99 0 -3.6 1.81 -3.6 4.04 l0 3.56 c-0.82 0.13 -1.61 0.3 -2.38 0.51 l0 -14.89 c0 -2.23 -1.61 -4.04 -3.6 -4.04 c-1.99 0 -3.6 1.81 -3.6 4.04 l0 20.88 c-0.22 1.68 -0.87 2.68 -1.99 2.95 c-4.66 -1.58 -8.91 -2.41 -10.46 -0.86 c-1.99 1.98 0.66 5.41 3.92 8 l10.29 10.93 c2.68 3.92 6.79 5.49 11.55 5.93 c0.24 0.03 0.46 0.05 0.67 0.06 c0.82 0.06 1.65 0.09 2.49 0.09 c2.25 0.01 16.6 0.96 18.22 -19.37 c0.1 -0.69 0.09 -1.38 -0.03 -2.06 z " style="stroke:#211d1d;stroke-width:1.00;"/><path d="M373.56 283.34 l1.3 -6.77 c0.32 -1.67 -0.77 -3.29 -2.44 -3.61 c-1.32 -0.25 -2.59 0.38 -3.23 1.47 c-0.62 -0.63 -1.3 -1.23 -2.01 -1.81 l0.53 -2.78 c0.42 -2.19 -0.83 -4.27 -2.78 -4.64 c-1.95 -0.38 -3.88 1.1 -4.3 3.29 l-0.06 0.29 c-0.76 -0.3 -1.51 -0.57 -2.26 -0.81 l0.65 -3.42 c0.42 -2.19 -0.83 -4.27 -2.78 -4.65 c-1.95 -0.37 -3.88 1.1 -4.29 3.29 l-0.67 3.5 c-0.83 -0.03 -1.64 -0.01 -2.43 0.05 l2.8 -14.63 c0.42 -2.19 -0.82 -4.27 -2.78 -4.65 c-1.95 -0.37 -3.88 1.1 -4.3 3.29 l-3.93 20.51 c-0.53 1.61 -1.36 2.47 -2.51 2.52 c-4.28 -2.43 -8.3 -4.04 -10.11 -2.81 c-2.32 1.57 -0.37 5.44 2.34 8.6 l8.05 12.67 c1.9 4.36 5.64 6.67 10.23 8 c0.23 0.07 0.44 0.13 0.65 0.18 c0.79 0.21 1.6 0.39 2.43 0.56 c2.21 0.43 16.13 4.07 21.54 -15.6 c0.22 -0.66 0.34 -1.34 0.36 -2.03 z " style="stroke:#211d1d;stroke-width:1.00;"/><path d="M414.99 250.45 l-4.83 -4.06 l0 1.66 l-62.33 0 l0 4.8 l62.33 0 l0 1.66 l4.83 -4.06 z " style="fill:#110f0d;"/><path d="M373.56 283.34 l1.3 -6.77 c0.32 -1.67 -0.77 -3.29 -2.44 -3.61 c-1.32 -0.25 -2.59 0.38 -3.23 1.47 c-0.62 -0.63 -1.3 -1.23 -2.01 -1.81 l0.53 -2.78 c0.42 -2.19 -0.83 -4.27 -2.78 -4.64 c-1.95 -0.38 -3.88 1.1 -4.3 3.29 l-0.06 0.29 c-0.76 -0.3 -1.51 -0.57 -2.26 -0.81 l0.65 -3.42 c0.42 -2.19 -0.83 -4.27 -2.78 -4.65 c-1.95 -0.37 -3.88 1.1 -4.29 3.29 l-0.67 3.5 c-0.83 -0.03 -1.64 -0.01 -2.43 0.05 l2.8 -14.63 c0.42 -2.19 -0.82 -4.27 -2.78 -4.65 c-1.95 -0.37 -3.88 1.1 -4.3 3.29 l-3.93 20.51 c-0.53 1.61 -1.36 2.47 -2.51 2.52 c-4.28 -2.43 -8.3 -4.04 -10.11 -2.81 c-2.32 1.57 -0.37 5.44 2.34 8.6 l8.05 12.67 c1.9 4.36 5.64 6.67 10.23 8 c0.23 0.07 0.44 0.13 0.65 0.18 c0.79 0.21 1.6 0.39 2.43 0.56 c2.21 0.43 16.13 4.07 21.54 -15.6 c0.22 -0.66 0.34 -1.34 0.36 -2.03 " style="fill:#ffffff;"/><path d="M427.42 283.34 l1.3 -6.77 c0.32 -1.67 -0.78 -3.29 -2.45 -3.61 c-1.32 -0.25 -2.59 0.38 -3.23 1.47 c-0.62 -0.63 -1.3 -1.23 -2.01 -1.81 l0.53 -2.78 c0.42 -2.19 -0.83 -4.27 -2.78 -4.64 c-1.95 -0.38 -3.88 1.1 -4.3 3.29 l-0.05 0.29 c-0.76 -0.3 -1.51 -0.57 -2.26 -0.81 l0.65 -3.42 c0.42 -2.19 -0.82 -4.27 -2.78 -4.65 c-1.95 -0.37 -3.88 1.1 -4.29 3.29 l-0.67 3.5 c-0.83 -0.03 -1.64 -0.01 -2.43 0.05 l2.8 -14.63 c0.42 -2.19 -0.82 -4.27 -2.78 -4.65 c-1.95 -0.37 -3.88 1.1 -4.3 3.29 l-3.93 20.51 c-0.53 1.61 -1.36 2.47 -2.51 2.52 c-4.28 -2.43 -8.3 -4.04 -10.11 -2.81 c-2.32 1.57 -0.37 5.44 2.34 8.6 l8.05 12.67 c1.9 4.36 5.64 6.67 10.23 8 c0.23 0.08 0.44 0.14 0.65 0.18 c0.79 0.21 1.6 0.39 2.43 0.56 c2.21 0.43 16.13 4.07 21.54 -15.6 c0.22 -0.66 0.34 -1.34 0.36 -2.03 " style="fill:#ffffff;"/><path d="M427.42 283.34 l1.3 -6.77 c0.32 -1.67 -0.78 -3.29 -2.45 -3.61 c-1.32 -0.25 -2.59 0.38 -3.23 1.47 c-0.62 -0.63 -1.3 -1.23 -2.01 -1.81 l0.53 -2.78 c0.42 -2.19 -0.83 -4.27 -2.78 -4.64 c-1.95 -0.38 -3.88 1.1 -4.3 3.29 l-0.05 0.29 c-0.76 -0.3 -1.51 -0.57 -2.26 -0.81 l0.65 -3.42 c0.42 -2.19 -0.82 -4.27 -2.78 -4.65 c-1.95 -0.37 -3.88 1.1 -4.29 3.29 l-0.67 3.5 c-0.83 -0.03 -1.64 -0.01 -2.43 0.05 l2.8 -14.63 c0.42 -2.19 -0.82 -4.27 -2.78 -4.65 c-1.95 -0.37 -3.88 1.1 -4.3 3.29 l-3.93 20.51 c-0.53 1.61 -1.36 2.47 -2.51 2.52 c-4.28 -2.43 -8.3 -4.04 -10.11 -2.81 c-2.32 1.57 -0.37 5.44 2.34 8.6 l8.05 12.67 c1.9 4.36 5.64 6.67 10.23 8 c0.23 0.08 0.44 0.14 0.65 0.18 c0.79 0.21 1.6 0.39 2.43 0.56 c2.21 0.43 16.13 4.07 21.54 -15.6 c0.22 -0.66 0.34 -1.34 0.36 -2.03 z " style="stroke:#211d1d;stroke-width:1.00;"/><path d="M527.88 282.58 c-1.02 -0.87 -2.44 -0.95 -3.54 -0.31 c-0.23 -0.85 -0.52 -1.71 -0.86 -2.56 l1.83 -2.16 c1.44 -1.7 1.38 -4.13 -0.14 -5.41 c-1.52 -1.29 -3.92 -0.95 -5.36 0.75 l-0.19 0.23 c-0.51 -0.63 -1.04 -1.24 -1.57 -1.82 l2.25 -2.66 c1.44 -1.7 1.38 -4.13 -0.14 -5.41 c-1.52 -1.28 -3.92 -0.95 -5.36 0.75 l-2.3 2.72 c-0.71 -0.43 -1.42 -0.82 -2.14 -1.15 l9.63 -11.37 c1.44 -1.7 1.38 -4.13 -0.13 -5.41 c-1.52 -1.28 -3.92 -0.95 -5.36 0.76 l-13.5 15.93 c-1.04 0.95 -2 1.33 -2.89 1.14 l0 27.33 l-5.03 0 c0.21 0.23 0.43 0.46 0.65 0.68 c0.16 0.18 0.31 0.33 0.47 0.48 c0.58 0.57 1.2 1.13 1.84 1.68 c1.71 1.46 12.05 11.47 26.42 -2.99 c0.52 -0.46 0.96 -1 1.31 -1.59 l4.46 -5.26 c1.1 -1.3 0.94 -3.25 -0.35 -4.35 z " style="stroke:#211d1d;stroke-width:1.00;"/><path d="M550.17 249.36 l-4.83 -4.06 l0 1.66 l-62.33 0 l0 4.8 l62.33 0 l0 1.66 l4.83 -4.06 z " style="fill:#110f0d;"/><path d="M527.88 282.58 c-1.02 -0.87 -2.44 -0.95 -3.54 -0.31 c-0.23 -0.85 -0.52 -1.71 -0.86 -2.56 l1.83 -2.16 c1.44 -1.7 1.38 -4.13 -0.14 -5.41 c-1.52 -1.29 -3.92 -0.95 -5.36 0.75 l-0.19 0.23 c-0.51 -0.63 -1.04 -1.24 -1.57 -1.82 l2.25 -2.66 c1.44 -1.7 1.38 -4.13 -0.14 -5.41 c-1.52 -1.28 -3.92 -0.95 -5.36 0.75 l-2.3 2.72 c-0.71 -0.43 -1.42 -0.82 -2.14 -1.15 l9.63 -11.37 c1.44 -1.7 1.38 -4.13 -0.13 -5.41 c-1.52 -1.28 -3.92 -0.95 -5.36 0.76 l-13.5 15.93 c-1.04 0.95 -2 1.33 -2.89 1.14 l0 27.33 l-5.03 0 c0.21 0.23 0.43 0.46 0.65 0.68 c0.16 0.18 0.31 0.33 0.47 0.48 c0.58 0.57 1.2 1.13 1.84 1.68 c1.71 1.46 12.05 11.47 26.42 -2.99 c0.52 -0.46 0.96 -1 1.31 -1.59 l4.46 -5.26 c1.1 -1.3 0.94 -3.25 -0.35 -4.35 " style="fill:#ffffff;"/><path d="M508.74 282.25 l1.3 -6.77 c0.32 -1.68 -0.78 -3.29 -2.45 -3.61 c-1.32 -0.25 -2.59 0.38 -3.23 1.47 c-0.62 -0.63 -1.3 -1.23 -2.01 -1.81 l0.53 -2.78 c0.42 -2.19 -0.83 -4.27 -2.78 -4.64 c-1.95 -0.38 -3.88 1.1 -4.3 3.29 l-0.06 0.29 c-0.76 -0.3 -1.51 -0.57 -2.26 -0.81 l0.65 -3.42 c0.42 -2.19 -0.82 -4.27 -2.78 -4.64 c-1.95 -0.37 -3.88 1.1 -4.29 3.29 l-0.67 3.49 c-0.83 -0.03 -1.64 -0.01 -2.43 0.05 l2.8 -14.63 c0.42 -2.19 -0.82 -4.27 -2.78 -4.65 c-1.95 -0.37 -3.88 1.1 -4.3 3.29 l-3.93 20.51 c-0.53 1.61 -1.36 2.47 -2.51 2.52 c-4.28 -2.43 -8.3 -4.04 -10.11 -2.81 c-2.32 1.57 -0.37 5.44 2.34 8.6 l8.05 12.67 c1.89 4.36 5.64 6.67 10.23 8 c0.23 0.07 0.44 0.13 0.65 0.18 c0.79 0.21 1.6 0.4 2.43 0.56 c2.21 0.43 16.13 4.07 21.54 -15.59 c0.22 -0.66 0.34 -1.34 0.36 -2.03 " style="fill:#ffffff;"/><path d="M508.74 282.25 l1.3 -6.77 c0.32 -1.68 -0.78 -3.29 -2.45 -3.61 c-1.32 -0.25 -2.59 0.38 -3.23 1.47 c-0.62 -0.63 -1.3 -1.23 -2.01 -1.81 l0.53 -2.78 c0.42 -2.19 -0.83 -4.27 -2.78 -4.64 c-1.95 -0.38 -3.88 1.1 -4.3 3.29 l-0.06 0.29 c-0.76 -0.3 -1.51 -0.57 -2.26 -0.81 l0.65 -3.42 c0.42 -2.19 -0.82 -4.27 -2.78 -4.64 c-1.95 -0.37 -3.88 1.1 -4.29 3.29 l-0.67 3.49 c-0.83 -0.03 -1.64 -0.01 -2.43 0.05 l2.8 -14.63 c0.42 -2.19 -0.82 -4.27 -2.78 -4.65 c-1.95 -0.37 -3.88 1.1 -4.3 3.29 l-3.93 20.51 c-0.53 1.61 -1.36 2.47 -2.51 2.52 c-4.28 -2.43 -8.3 -4.04 -10.11 -2.81 c-2.32 1.57 -0.37 5.44 2.34 8.6 l8.05 12.67 c1.89 4.36 5.64 6.67 10.23 8 c0.23 0.07 0.44 0.13 0.65 0.18 c0.79 0.21 1.6 0.4 2.43 0.56 c2.21 0.43 16.13 4.07 21.54 -15.59 c0.22 -0.66 0.34 -1.34 0.36 -2.03 z " style="stroke:#211d1d;stroke-width:1.00;"/><path d="M259.45 419.83 c-0.6 3.02 -3.61 4.99 -6.72 4.41 c-3.11 -0.58 -5.14 -3.51 -4.54 -6.53 c0.6 -3.02 3.61 -4.99 6.72 -4.41 c3.11 0.59 5.14 3.5 4.54 6.52 " style="fill:#211d1d;"/><path d="M259.45 419.83 c-0.6 3.02 -3.61 4.99 -6.72 4.41 c-3.11 -0.58 -5.14 -3.51 -4.54 -6.53 c0.6 -3.02 3.61 -4.99 6.72 -4.41 c3.11 0.59 5.14 3.5 4.54 6.52 z " style="stroke:#211d1d;stroke-width:1.00;"/><path d="M278.03 396.28 c-0.6 3.02 -3.61 4.99 -6.72 4.41 c-3.11 -0.59 -5.14 -3.51 -4.54 -6.53 c0.6 -3.02 3.61 -4.99 6.72 -4.41 c3.11 0.59 5.14 3.51 4.54 6.53 " style="fill:#211d1d;"/><path d="M278.03 396.28 c-0.6 3.02 -3.61 4.99 -6.72 4.41 c-3.11 -0.59 -5.14 -3.51 -4.54 -6.53 c0.6 -3.02 3.61 -4.99 6.72 -4.41 c3.11 0.59 5.14 3.51 4.54 6.53 z " style="stroke:#211d1d;stroke-width:1.00;"/><path d="M280.11 411.14 c0.15 1.72 -2.03 3.31 -4.87 3.55 c-2.84 0.24 -5.27 -0.96 -5.43 -2.68 c-0.15 -1.72 2.02 -3.31 4.87 -3.55 c2.84 -0.24 5.28 0.96 5.43 2.68 " style="fill:#ffffff;"/><path d="M280.11 411.14 c0.15 1.72 -2.03 3.31 -4.87 3.55 c-2.84 0.24 -5.27 -0.96 -5.43 -2.68 c-0.15 -1.72 2.02 -3.31 4.87 -3.55 c2.84 -0.24 5.28 0.96 5.43 2.68 z " style="stroke:#211d1d;stroke-width:1.00;"/><path d="M290.41 416.55 c-0.39 -0.06 -0.77 -0.05 -1.13 0.03 c0.42 -1.62 -0.4 -3.34 -2.02 -4.04 c-0.9 -0.39 -1.88 -0.39 -2.74 -0.07 l-0.06 -2.14 c-0.02 -0.67 -1.07 -1.67 -2.3 -2.63 l1.16 -4 c0.53 -1.82 -5 -7.87 -5 -7.87 c-1.21 -1.8 -3.84 -2.61 -5.88 -1.79 c-2.03 0.82 -2.69 2.94 -1.48 4.74 l3.63 5.4 c0 0 -2.97 12.79 -4.96 14.67 c-1.63 1.53 -6.8 -0.29 -7.51 -0.69 c-4.09 -1.44 -7.82 -2.19 -9.24 -0.88 c-1.86 1.72 0.49 4.82 3.42 7.19 l5.85 6.31 c-0.49 8.24 4.65 11.94 11.41 14.2 c1.94 0.65 11.12 8.52 18.53 -8.12 c0.97 -5.59 0.58 -17.12 0.58 -17.12 c0.27 -1.5 -0.75 -2.92 -2.28 -3.18 " style="fill:#ffffff;"/><path d="M290.41 416.55 c-0.39 -0.06 -0.77 -0.05 -1.13 0.03 c0.42 -1.62 -0.4 -3.34 -2.02 -4.04 c-0.9 -0.39 -1.88 -0.39 -2.74 -0.07 l-0.06 -2.14 c-0.02 -0.67 -1.07 -1.67 -2.3 -2.63 l1.16 -4 c0.53 -1.82 -5 -7.87 -5 -7.87 c-1.21 -1.8 -3.84 -2.61 -5.88 -1.79 c-2.03 0.82 -2.69 2.94 -1.48 4.74 l3.63 5.4 c0 0 -2.97 12.79 -4.96 14.67 c-1.63 1.53 -6.8 -0.29 -7.51 -0.69 c-4.09 -1.44 -7.82 -2.19 -9.24 -0.88 c-1.86 1.72 0.49 4.82 3.42 7.19 l5.85 6.31 c-0.49 8.24 4.65 11.94 11.41 14.2 c1.94 0.65 11.12 8.52 18.53 -8.12 c0.97 -5.59 0.58 -17.12 0.58 -17.12 c0.27 -1.5 -0.75 -2.92 -2.28 -3.18 z " style="stroke:#211d1d;stroke-width:1.00;"/><path d="M202.89 418.87 c-0.6 3.02 -3.61 4.99 -6.72 4.41 c-3.11 -0.59 -5.14 -3.51 -4.54 -6.53 c0.6 -3.02 3.61 -4.99 6.72 -4.41 c3.11 0.59 5.14 3.51 4.54 6.52 " style="fill:#211d1d;"/><path d="M202.89 418.87 c-0.6 3.02 -3.61 4.99 -6.72 4.41 c-3.11 -0.59 -5.14 -3.51 -4.54 -6.53 c0.6 -3.02 3.61 -4.99 6.72 -4.41 c3.11 0.59 5.14 3.51 4.54 6.52 z " style="stroke:#211d1d;stroke-width:1.00;"/><path d="M203.96 410.08 c-0.6 3.02 -3.61 4.99 -6.72 4.41 c-3.11 -0.59 -5.14 -3.51 -4.54 -6.53 c0.6 -3.02 3.61 -4.99 6.72 -4.41 c3.11 0.59 5.14 3.51 4.54 6.53 " style="fill:#211d1d;"/><path d="M203.96 410.08 c-0.6 3.02 -3.61 4.99 -6.72 4.41 c-3.11 -0.59 -5.14 -3.51 -4.54 -6.53 c0.6 -3.02 3.61 -4.99 6.72 -4.41 c3.11 0.59 5.14 3.51 4.54 6.53 z " style="stroke:#211d1d;stroke-width:1.00;"/><path d="M217.73 417.45 c0.81 1.27 0.04 3.15 -1.72 4.21 c-1.76 1.06 -3.84 0.88 -4.65 -0.39 c-0.81 -1.27 -0.04 -3.15 1.72 -4.21 c1.76 -1.05 3.84 -0.88 4.65 0.39 " style="fill:#ffffff;"/><path d="M217.73 417.45 c0.81 1.27 0.04 3.15 -1.72 4.21 c-1.76 1.06 -3.84 0.88 -4.65 -0.39 c-0.81 -1.27 -0.04 -3.15 1.72 -4.21 c1.76 -1.05 3.84 -0.88 4.65 0.39 z " style="stroke:#211d1d;stroke-width:1.00;"/><path d="M236.22 418.57 c-0.52 -0.26 -1.08 -0.35 -1.61 -0.29 c0.63 -1.59 0 -3.43 -1.57 -4.29 c-0.88 -0.48 -1.88 -0.57 -2.78 -0.31 c-0.25 -0.14 -0.61 -0.25 -1.02 -0.36 c-0.46 -0.87 -1.66 -3.95 -2.71 -4.21 c-0.55 -0.14 -4.7 0.44 -7.17 2.52 l-4.3 -4.68 c-0.76 -1.74 -12.39 -1.11 -12.39 -1.11 c-2.11 -0.67 -4.68 0.3 -5.74 2.17 c-1.06 1.87 -0.21 3.93 1.9 4.6 l8.91 0.22 l2.21 2.62 l-1.62 6.52 c-4.88 -7.93 -8.74 -7.74 -10.95 -6.27 c-2.11 1.41 -0.31 4.84 2.19 7.63 l6 9.88 c0.2 0.2 0.78 2.17 0.97 2.36 c1.34 7.3 7.9 9.43 14.61 10.5 c2.03 0.32 12.45 6.57 16.85 -11.05 c-0.02 -4.64 -0.46 -8.15 -1.59 -10.85 l1.01 -1.9 c0.71 -1.35 0.17 -3 -1.22 -3.69 " style="fill:#ffffff;"/><path d="M236.22 418.57 c-0.52 -0.26 -1.08 -0.35 -1.61 -0.29 c0.63 -1.59 0 -3.43 -1.57 -4.29 c-0.88 -0.48 -1.88 -0.57 -2.78 -0.31 c-0.25 -0.14 -0.61 -0.25 -1.02 -0.36 c-0.46 -0.87 -1.66 -3.95 -2.71 -4.21 c-0.55 -0.14 -4.7 0.44 -7.17 2.52 l-4.3 -4.68 c-0.76 -1.74 -12.39 -1.11 -12.39 -1.11 c-2.11 -0.67 -4.68 0.3 -5.74 2.17 c-1.06 1.87 -0.21 3.93 1.9 4.6 l8.91 0.22 l2.21 2.62 l-1.62 6.52 c-4.88 -7.93 -8.74 -7.74 -10.95 -6.27 c-2.11 1.41 -0.31 4.84 2.19 7.63 l6 9.88 c0.2 0.2 0.78 2.17 0.97 2.36 c1.34 7.3 7.9 9.43 14.61 10.5 c2.03 0.32 12.45 6.57 16.85 -11.05 c-0.02 -4.64 -0.46 -8.15 -1.59 -10.85 l1.01 -1.9 c0.71 -1.35 0.17 -3 -1.22 -3.69 z " style="stroke:#211d1d;stroke-width:1.00;"/><path d="M484.2 400.41 c0 3.27 -2.65 5.93 -5.93 5.93 c-3.27 0 -5.93 -2.65 -5.93 -5.93 c0 -3.27 2.65 -5.93 5.93 -5.93 c3.28 0 5.93 2.65 5.93 5.93 " style="fill:#211d1d;"/><path d="M484.2 400.41 c0 3.27 -2.65 5.93 -5.93 5.93 c-3.27 0 -5.93 -2.65 -5.93 -5.93 c0 -3.27 2.65 -5.93 5.93 -5.93 c3.28 0 5.93 2.65 5.93 5.93 z " style="stroke:#211d1d;stroke-width:1.00;"/><path d="M495.35 394.71 c0 3.83 -3.1 6.93 -6.93 6.93 c-3.83 0 -6.93 -3.1 -6.93 -6.93 c0 -3.82 3.1 -6.93 6.93 -6.93 c3.83 0 6.93 3.1 6.93 6.93 " style="fill:#ffffff;"/><path d="M495.35 394.71 c0 3.83 -3.1 6.93 -6.93 6.93 c-3.83 0 -6.93 -3.1 -6.93 -6.93 c0 -3.82 3.1 -6.93 6.93 -6.93 c3.83 0 6.93 3.1 6.93 6.93 z " style="stroke:#211d1d;stroke-width:1.00;"/><path d="M508.15 426.75 l0 -6.64 c0 -1.64 -1.33 -3.97 -2.97 -3.97 c-1.29 0 -2.38 0.82 -2.79 1.97 l-1.23 -0.34 l0 -2.73 c0 -2.15 -1.55 -3.89 -3.47 -3.89 c-1.91 0 -3.47 1.74 -3.47 3.89 l0 0.29 c-0.77 -0.15 -1.53 -0.26 -2.29 -0.35 l0 -18.36 c0 -2.15 -1.55 -3.89 -3.47 -3.89 c-1.92 0 -3.47 1.74 -3.47 3.89 l0 18.43 c-0.79 0.12 -2.55 0.29 -3.29 0.49 l0 -14.35 c0 -2.15 -1.55 -3.89 -3.47 -3.89 c-1.92 0 -3.47 1.74 -3.47 3.89 l0 20.12 c-0.21 1.62 -0.84 2.58 -1.92 2.84 c-4.49 -1.52 -8.58 -2.32 -10.08 -0.83 c-1.91 1.9 0.63 5.21 3.77 7.7 l9.91 10.53 c2.58 3.78 6.54 5.29 11.13 5.71 c0.23 0.03 0.44 0.05 0.65 0.05 c0.78 0.05 1.58 0.08 2.4 0.08 c2.16 0.01 15.99 0.93 17.55 -18.66 c0.09 -0.66 0.08 -1.33 -0.03 -1.98 " style="fill:#ffffff;"/><path d="M508.15 426.75 l0 -6.64 c0 -1.64 -1.33 -3.97 -2.97 -3.97 c-1.29 0 -2.38 0.82 -2.79 1.97 l-1.23 -0.34 l0 -2.73 c0 -2.15 -1.55 -3.89 -3.47 -3.89 c-1.91 0 -3.47 1.74 -3.47 3.89 l0 0.29 c-0.77 -0.15 -1.53 -0.26 -2.29 -0.35 l0 -18.36 c0 -2.15 -1.55 -3.89 -3.47 -3.89 c-1.92 0 -3.47 1.74 -3.47 3.89 l0 18.43 c-0.79 0.12 -2.55 0.29 -3.29 0.49 l0 -14.35 c0 -2.15 -1.55 -3.89 -3.47 -3.89 c-1.92 0 -3.47 1.74 -3.47 3.89 l0 20.12 c-0.21 1.62 -0.84 2.58 -1.92 2.84 c-4.49 -1.52 -8.58 -2.32 -10.08 -0.83 c-1.91 1.9 0.63 5.21 3.77 7.7 l9.91 10.53 c2.58 3.78 6.54 5.29 11.13 5.71 c0.23 0.03 0.44 0.05 0.65 0.05 c0.78 0.05 1.58 0.08 2.4 0.08 c2.16 0.01 15.99 0.93 17.55 -18.66 c0.09 -0.66 0.08 -1.33 -0.03 -1.98 z " style="stroke:#211d1d;stroke-width:1.00;"/><path d="M68.46 584.37 c0 3.29 -2.66 5.95 -5.95 5.95 c-3.28 0 -5.95 -2.66 -5.95 -5.95 c0 -3.28 2.66 -5.95 5.95 -5.95 c3.29 0 5.95 2.66 5.95 5.95 " style="fill:#211d1d;"/><path d="M68.46 584.37 c0 3.29 -2.66 5.95 -5.95 5.95 c-3.28 0 -5.95 -2.66 -5.95 -5.95 c0 -3.28 2.66 -5.95 5.95 -5.95 c3.29 0 5.95 2.66 5.95 5.95 z " style="stroke:#211d1d;stroke-width:1.00;"/><path d="M94.05 560.42 l-4.83 -4.06 l0 1.65 l-21.9 0 l0 4.8 l21.9 0 l0 1.66 l4.83 -4.06 z " style="fill:#110f0d;"/><path d="M71.4 585.46 c-3.24 -0.51 -2.69 4.04 0.64 4.04 c8.08 0 9.69 -15.9 9.69 -15.9 c-1.02 0.34 -2 0.75 -2.91 1.21 l-5.78 -15.57 c-0.82 -2.2 -3.07 -3.4 -5.04 -2.67 c-1.96 0.73 -2.89 3.11 -2.07 5.31 l6.78 18.27 c0.55 2.89 0.16 4.68 -1.31 5.31 " style="fill:#ffffff;"/><path d="M71.4 585.46 c-3.24 -0.51 -2.69 4.04 0.64 4.04 c8.08 0 9.69 -15.9 9.69 -15.9 c-1.02 0.34 -2 0.75 -2.91 1.21 l-5.78 -15.57 c-0.82 -2.2 -3.07 -3.4 -5.04 -2.67 c-1.96 0.73 -2.89 3.11 -2.07 5.31 l6.78 18.27 c0.55 2.89 0.16 4.68 -1.31 5.31 z " style="stroke:#211d1d;stroke-width:1.00;stroke-dasharray:2.0,2.0;"/><path d="M109.39 583.84 l0 -6.75 c0 -1.79 -1.45 -3.25 -3.24 -3.25 c-1.79 0 -3.24 1.45 -3.24 3.25 c-0.34 -0.02 -0.69 -0.22 -1.05 -0.42 l0 -3.33 c0 -2.35 -1.7 -4.25 -3.79 -4.25 c-2.09 0 -3.79 1.9 -3.79 4.25 l0 0.52 c-0.09 -0.02 -0.19 -0.04 -0.28 -0.06 c-0.34 -0.07 -0.68 -0.12 -1.02 -0.18 l0 -3.02 c0 -2.35 -1.7 -4.25 -3.79 -4.25 c-2.09 0 -3.79 1.9 -3.79 4.25 l0 2.68 c-0.73 0.07 -0.85 0.16 -1.54 0.28 l3.55 -12.77 c0.73 -2.23 -0.3 -4.57 -2.29 -5.22 c-1.99 -0.64 -4.19 0.64 -4.92 2.88 l-4.76 17.09 l-2.1 7.68 c-0.16 0.08 -1.54 0.15 -1.72 0.19 c-4.91 -1.67 -9.38 -2.53 -11.01 -0.91 c-2.09 2.08 0.69 5.7 4.12 8.42 l10.83 11.51 c2.82 4.13 7.15 5.78 12.16 6.24 c0.24 0.03 0.48 0.05 0.7 0.06 c0.86 0.06 1.73 0.09 2.62 0.09 c2.36 0.01 17.48 1.02 19.19 -20.39 c0.22 -1.56 -0.1 -3.12 -0.83 -4.61 " style="fill:#ffffff;"/><path d="M109.39 583.84 l0 -6.75 c0 -1.79 -1.45 -3.25 -3.24 -3.25 c-1.79 0 -3.24 1.45 -3.24 3.25 c-0.34 -0.02 -0.69 -0.22 -1.05 -0.42 l0 -3.33 c0 -2.35 -1.7 -4.25 -3.79 -4.25 c-2.09 0 -3.79 1.9 -3.79 4.25 l0 0.52 c-0.09 -0.02 -0.19 -0.04 -0.28 -0.06 c-0.34 -0.07 -0.68 -0.12 -1.02 -0.18 l0 -3.02 c0 -2.35 -1.7 -4.25 -3.79 -4.25 c-2.09 0 -3.79 1.9 -3.79 4.25 l0 2.68 c-0.73 0.07 -0.85 0.16 -1.54 0.28 l3.55 -12.77 c0.73 -2.23 -0.3 -4.57 -2.29 -5.22 c-1.99 -0.64 -4.19 0.64 -4.92 2.88 l-4.76 17.09 l-2.1 7.68 c-0.16 0.08 -1.54 0.15 -1.72 0.19 c-4.91 -1.67 -9.38 -2.53 -11.01 -0.91 c-2.09 2.08 0.69 5.7 4.12 8.42 l10.83 11.51 c2.82 4.13 7.15 5.78 12.16 6.24 c0.24 0.03 0.48 0.05 0.7 0.06 c0.86 0.06 1.73 0.09 2.62 0.09 c2.36 0.01 17.48 1.02 19.19 -20.39 c0.22 -1.56 -0.1 -3.12 -0.83 -4.61 z " style="stroke:#211d1d;stroke-width:1.00;"/><path d="M195.81 584.23 l0 -5.72 l0 -16.18 l1.66 0 l-4.05 -4.83 l-4.06 4.83 l1.66 0 l0 16.18 l0 5.72 l0 16.18 l-1.66 0 l4.06 4.83 l4.06 -4.83 l-1.66 0 l0 -16.18 z " style="fill:#110f0d;"/><path d="M233.28 572.15 l-5.16 -5.13 c-1.24 -1.23 -3.24 -1.22 -4.46 0.01 c-1.23 1.23 -1.22 3.23 0.02 4.46 l1.11 1.11 c-0.65 0.18 -1.3 0.39 -1.95 0.63 l-2.53 -2.4 c-1.66 -1.57 -4.14 -1.64 -5.53 -0.16 c-1.4 1.48 -1.19 3.95 0.47 5.52 l0.79 0.74 c-0.51 0.38 -0.99 0.76 -1.46 1.16 l-2.81 -2.65 c-1.66 -1.57 -4.13 -1.64 -5.53 -0.17 c-1.4 1.48 -1.19 3.95 0.47 5.52 l2.86 2.71 c-0.48 0.7 -0.91 1.41 -1.29 2.12 l-11.07 -10.48 c-1.66 -1.57 -4.14 -1.64 -5.53 -0.17 c-1.4 1.48 -1.19 3.95 0.47 5.52 l15.52 14.69 c1.1 1.35 1.38 2.53 0.79 3.55 c-4.45 2.35 -8.05 4.93 -8 7.17 c0.07 2.86 4.48 3.32 8.7 2.72 l15.36 0.04 c4.8 0.76 8.85 -1.19 12.53 -4.41 c0.19 -0.15 0.36 -0.3 0.51 -0.46 c0.62 -0.56 1.22 -1.16 1.81 -1.79 c1.59 -1.67 12.39 -11.66 -1.57 -27.16 c-1.09 -1.37 -2.66 -2.24 -4.5 -2.68 " style="fill:#ffffff;"/><path d="M233.28 572.15 l-5.16 -5.13 c-1.24 -1.23 -3.24 -1.22 -4.46 0.01 c-1.23 1.23 -1.22 3.23 0.02 4.46 l1.11 1.11 c-0.65 0.18 -1.3 0.39 -1.95 0.63 l-2.53 -2.4 c-1.66 -1.57 -4.14 -1.64 -5.53 -0.16 c-1.4 1.48 -1.19 3.95 0.47 5.52 l0.79 0.74 c-0.51 0.38 -0.99 0.76 -1.46 1.16 l-2.81 -2.65 c-1.66 -1.57 -4.13 -1.64 -5.53 -0.17 c-1.4 1.48 -1.19 3.95 0.47 5.52 l2.86 2.71 c-0.48 0.7 -0.91 1.41 -1.29 2.12 l-11.07 -10.48 c-1.66 -1.57 -4.14 -1.64 -5.53 -0.17 c-1.4 1.48 -1.19 3.95 0.47 5.52 l15.52 14.69 c1.1 1.35 1.38 2.53 0.79 3.55 c-4.45 2.35 -8.05 4.93 -8 7.17 c0.07 2.86 4.48 3.32 8.7 2.72 l15.36 0.04 c4.8 0.76 8.85 -1.19 12.53 -4.41 c0.19 -0.15 0.36 -0.3 0.51 -0.46 c0.62 -0.56 1.22 -1.16 1.81 -1.79 c1.59 -1.67 12.39 -11.66 -1.57 -27.16 c-1.09 -1.37 -2.66 -2.24 -4.5 -2.68 z " style="stroke:#211d1d;stroke-width:1.00;"/><path d="M173.01 558.66 c0 3.29 -2.66 5.95 -5.95 5.95 c-3.29 0 -5.95 -2.66 -5.95 -5.95 c0 -3.29 2.66 -5.95 5.95 -5.95 c3.29 0 5.95 2.66 5.95 5.95 " style="fill:#211d1d;"/><path d="M173.01 558.66 c0 3.29 -2.66 5.95 -5.95 5.95 c-3.29 0 -5.95 -2.66 -5.95 -5.95 c0 -3.29 2.66 -5.95 5.95 -5.95 c3.29 0 5.95 2.66 5.95 5.95 z " style="stroke:#211d1d;stroke-width:1.00;"/><path d="M136.65 583.89 l-0.16 -7.27 c-0.04 -1.75 1.34 -3.19 3.08 -3.23 c1.74 -0.04 3.18 1.34 3.22 3.09 l0.04 1.57 c0.57 -0.35 1.17 -0.67 1.79 -0.98 l0 -3.48 c0 -2.28 1.66 -4.13 3.69 -4.13 c2.03 0 3.68 1.86 3.68 4.14 l0 1.08 c0.62 -0.11 1.24 -0.19 1.85 -0.27 l0 -3.86 c0 -2.29 1.66 -4.13 3.69 -4.13 c2.03 0 3.68 1.86 3.68 4.14 l0 3.94 c0.84 0.13 1.65 0.3 2.43 0.52 l0.02 -15.24 c0 -2.28 1.65 -4.13 3.69 -4.13 c2.03 0 3.68 1.86 3.68 4.14 l-0.02 21.37 c0.22 1.72 0.89 2.74 2.03 3.02 c4.77 -1.61 9.12 -2.45 10.7 -0.87 c2.03 2.02 -0.68 5.53 -4.02 8.18 l-10.54 11.17 c-2.75 4.01 -6.96 5.61 -11.82 6.06 c-0.24 0.03 -0.47 0.05 -0.68 0.05 c-0.83 0.06 -1.68 0.09 -2.55 0.09 c-2.3 0 -16.99 0.97 -18.62 -19.84 c-0.25 -1.74 0.2 -3.47 1.15 -5.11 " style="fill:#ffffff;"/><path d="M136.65 583.89 l-0.16 -7.27 c-0.04 -1.75 1.34 -3.19 3.08 -3.23 c1.74 -0.04 3.18 1.34 3.22 3.09 l0.04 1.57 c0.57 -0.35 1.17 -0.67 1.79 -0.98 l0 -3.48 c0 -2.28 1.66 -4.13 3.69 -4.13 c2.03 0 3.68 1.86 3.68 4.14 l0 1.08 c0.62 -0.11 1.24 -0.19 1.85 -0.27 l0 -3.86 c0 -2.29 1.66 -4.13 3.69 -4.13 c2.03 0 3.68 1.86 3.68 4.14 l0 3.94 c0.84 0.13 1.65 0.3 2.43 0.52 l0.02 -15.24 c0 -2.28 1.65 -4.13 3.69 -4.13 c2.03 0 3.68 1.86 3.68 4.14 l-0.02 21.37 c0.22 1.72 0.89 2.74 2.03 3.02 c4.77 -1.61 9.12 -2.45 10.7 -0.87 c2.03 2.02 -0.68 5.53 -4.02 8.18 l-10.54 11.17 c-2.75 4.01 -6.96 5.61 -11.82 6.06 c-0.24 0.03 -0.47 0.05 -0.68 0.05 c-0.83 0.06 -1.68 0.09 -2.55 0.09 c-2.3 0 -16.99 0.97 -18.62 -19.84 c-0.25 -1.74 0.2 -3.47 1.15 -5.11 z " style="stroke:#211d1d;stroke-width:1.00;"/><text class="f316" font-size="8.00" style="fill:#110f0d"><tspan x="116.28" y="587.40" textLength="11.56">OR</tspan></text><path d="M543.12 556.15 c-0.61 0.54 -1.29 1.01 -2.06 1.38 c-4.72 2.32 -10.43 0.38 -12.75 -4.35 c-2.32 -4.72 -0.38 -10.43 4.34 -12.76 c4.37 -2.15 9.56 -0.63 12.16 3.34 l-2.39 1.17 l8.15 2.77 l2.78 -8.15 l-1.81 0.89 c-4.44 -7.66 -14.11 -10.69 -22.18 -6.72 c-8.42 4.14 -11.88 14.32 -7.75 22.74 c4.14 8.42 14.32 11.88 22.74 7.74 c0.75 -0.37 1.45 -0.8 2.12 -1.26 l-3.35 -6.81 z " style="fill:#211d1d;"/><path d="M543.12 556.15 c-0.61 0.54 -1.29 1.01 -2.06 1.38 c-4.72 2.32 -10.43 0.38 -12.75 -4.35 c-2.32 -4.72 -0.38 -10.43 4.34 -12.76 c4.37 -2.15 9.56 -0.63 12.16 3.34 l-2.39 1.17 l8.15 2.77 l2.78 -8.15 l-1.81 0.89 c-4.44 -7.66 -14.11 -10.69 -22.18 -6.72 c-8.42 4.14 -11.88 14.32 -7.75 22.74 c4.14 8.42 14.32 11.88 22.74 7.74 c0.75 -0.37 1.45 -0.8 2.12 -1.26 l-3.35 -6.81 z " style="stroke:#211d1d;stroke-width:1.00;"/><path d="M564.59 584.61 l0.17 -7.07 c0.04 -1.7 -1.3 -3.1 -2.99 -3.14 c-1.69 -0.04 -3.1 1.3 -3.14 3 l-0.04 1.52 c-0.56 -0.34 -1.14 -0.66 -1.74 -0.95 l0 -3.39 c0 -2.22 -1.6 -4.02 -3.58 -4.02 c-1.98 0 -3.58 1.8 -3.58 4.02 l0 1.05 c-0.6 -0.11 -1.2 -0.19 -1.8 -0.26 l0 -17.28 c0 -2.22 -1.6 -4.02 -3.58 -4.02 c-1.98 0 -3.58 1.8 -3.58 4.02 l0 17.35 c-0.81 0.13 -1.6 0.29 -2.36 0.5 l0 -14.81 c0 -2.22 -1.6 -4.02 -3.58 -4.02 c-1.98 0 -3.58 1.8 -3.58 4.02 l0 20.77 c-0.22 1.67 -0.87 2.66 -1.98 2.93 c-4.63 -1.57 -8.86 -2.39 -10.4 -0.86 c-1.98 1.97 0.65 5.38 3.89 7.96 l10.23 10.87 c2.67 3.9 6.76 5.46 11.49 5.9 c0.23 0.03 0.46 0.05 0.66 0.05 c0.81 0.06 1.64 0.09 2.48 0.09 c2.24 0.01 16.51 0.96 18.13 -19.26 c0.24 -1.69 -0.19 -3.38 -1.11 -4.97 " style="fill:#ffffff;"/><path d="M564.59 584.61 l0.17 -7.07 c0.04 -1.7 -1.3 -3.1 -2.99 -3.14 c-1.69 -0.04 -3.1 1.3 -3.14 3 l-0.04 1.52 c-0.56 -0.34 -1.14 -0.66 -1.74 -0.95 l0 -3.39 c0 -2.22 -1.6 -4.02 -3.58 -4.02 c-1.98 0 -3.58 1.8 -3.58 4.02 l0 1.05 c-0.6 -0.11 -1.2 -0.19 -1.8 -0.26 l0 -17.28 c0 -2.22 -1.6 -4.02 -3.58 -4.02 c-1.98 0 -3.58 1.8 -3.58 4.02 l0 17.35 c-0.81 0.13 -1.6 0.29 -2.36 0.5 l0 -14.81 c0 -2.22 -1.6 -4.02 -3.58 -4.02 c-1.98 0 -3.58 1.8 -3.58 4.02 l0 20.77 c-0.22 1.67 -0.87 2.66 -1.98 2.93 c-4.63 -1.57 -8.86 -2.39 -10.4 -0.86 c-1.98 1.97 0.65 5.38 3.89 7.96 l10.23 10.87 c2.67 3.9 6.76 5.46 11.49 5.9 c0.23 0.03 0.46 0.05 0.66 0.05 c0.81 0.06 1.64 0.09 2.48 0.09 c2.24 0.01 16.51 0.96 18.13 -19.26 c0.24 -1.69 -0.19 -3.38 -1.11 -4.97 z " style="stroke:#211d1d;stroke-width:1.00;"/><text class="f316" font-size="8.00" style="fill:#110f0d"><tspan x="382.12" y="587.40" textLength="11.56">OR</tspan>
<tspan x="500.27" y="587.40" textLength="11.56">OR</tspan></text><path d="M469.37 560.07 c0 3.62 -2.93 6.55 -6.55 6.55 c-3.62 0 -6.55 -2.93 -6.55 -6.55 c0 -3.62 2.93 -6.55 6.55 -6.55 c3.62 0 6.55 2.93 6.55 6.55 " style="fill:#211d1d;"/><path d="M469.37 560.07 c0 3.62 -2.93 6.55 -6.55 6.55 c-3.62 0 -6.55 -2.93 -6.55 -6.55 c0 -3.62 2.93 -6.55 6.55 -6.55 c3.62 0 6.55 2.93 6.55 6.55 z " style="stroke:#211d1d;stroke-width:1.00;"/><path d="M492.85 584.61 l0.17 -7.07 c0.04 -1.7 -1.3 -3.1 -2.99 -3.14 c-1.69 -0.04 -3.1 1.3 -3.14 3 l-0.03 1.52 c-0.56 -0.34 -1.14 -0.66 -1.74 -0.95 l0 -3.39 c0 -2.22 -1.6 -4.02 -3.58 -4.02 c-1.98 0 -3.58 1.8 -3.58 4.02 l0 1.05 c-0.6 -0.11 -1.2 -0.19 -1.8 -0.26 l0 -3.76 c0 -2.22 -1.6 -4.02 -3.58 -4.02 c-1.98 0 -3.58 1.8 -3.58 4.02 l0 3.83 c-0.81 0.13 -1.6 0.29 -2.36 0.5 l0 -14.81 c0 -2.22 -1.6 -4.02 -3.58 -4.02 c-1.98 0 -3.58 1.8 -3.58 4.02 l0 20.77 c-0.22 1.67 -0.87 2.66 -1.98 2.93 c-4.64 -1.57 -8.87 -2.39 -10.41 -0.86 c-1.97 1.97 0.65 5.38 3.9 7.96 l10.23 10.87 c2.67 3.9 6.76 5.46 11.49 5.9 c0.23 0.03 0.45 0.05 0.66 0.05 c0.81 0.06 1.63 0.09 2.47 0.09 c2.24 0.01 16.51 0.96 18.13 -19.26 c0.24 -1.69 -0.19 -3.38 -1.11 -4.97 " style="fill:#ffffff;"/><path d="M492.85 584.61 l0.17 -7.07 c0.04 -1.7 -1.3 -3.1 -2.99 -3.14 c-1.69 -0.04 -3.1 1.3 -3.14 3 l-0.03 1.52 c-0.56 -0.34 -1.14 -0.66 -1.74 -0.95 l0 -3.39 c0 -2.22 -1.6 -4.02 -3.58 -4.02 c-1.98 0 -3.58 1.8 -3.58 4.02 l0 1.05 c-0.6 -0.11 -1.2 -0.19 -1.8 -0.26 l0 -3.76 c0 -2.22 -1.6 -4.02 -3.58 -4.02 c-1.98 0 -3.58 1.8 -3.58 4.02 l0 3.83 c-0.81 0.13 -1.6 0.29 -2.36 0.5 l0 -14.81 c0 -2.22 -1.6 -4.02 -3.58 -4.02 c-1.98 0 -3.58 1.8 -3.58 4.02 l0 20.77 c-0.22 1.67 -0.87 2.66 -1.98 2.93 c-4.64 -1.57 -8.87 -2.39 -10.41 -0.86 c-1.97 1.97 0.65 5.38 3.9 7.96 l10.23 10.87 c2.67 3.9 6.76 5.46 11.49 5.9 c0.23 0.03 0.45 0.05 0.66 0.05 c0.81 0.06 1.63 0.09 2.47 0.09 c2.24 0.01 16.51 0.96 18.13 -19.26 c0.24 -1.69 -0.19 -3.38 -1.11 -4.97 z " style="stroke:#211d1d;stroke-width:1.00;"/><path d="M448.3 563.4 c-0.47 -1.47 -0.73 -3.03 -0.73 -4.65 c0 -8.42 6.83 -15.25 15.25 -15.25 c6.12 0 11.38 3.61 13.81 8.82 l-1.38 0.35 l4.97 3.57 l2.66 -5.51 l-1.51 0.38 c-3 -7.29 -10.17 -12.42 -18.55 -12.42 c-11.08 0 -20.06 8.98 -20.06 20.06 c0 1.6 0.19 3.16 0.55 4.65 l5 0 z " style="fill:#110f0d;"/><path d="M407.63 565.74 l3.77 -5.98 c0.9 -1.44 2.8 -1.87 4.23 -0.96 c1.43 0.9 1.86 2.8 0.96 4.23 l-0.81 1.29 c0.65 0.03 1.31 0.08 1.98 0.17 l1.87 -2.82 c1.23 -1.85 3.56 -2.46 5.21 -1.37 c1.65 1.1 1.99 3.48 0.76 5.33 l-0.58 0.88 c0.56 0.25 1.11 0.51 1.64 0.77 l2.08 -3.13 c1.23 -1.85 3.56 -2.46 5.2 -1.37 c1.65 1.09 1.99 3.48 0.76 5.33 l-2.12 3.19 c0.61 0.55 1.17 1.13 1.69 1.73 l8.19 -12.34 c1.23 -1.85 3.56 -2.46 5.21 -1.37 c1.65 1.09 1.99 3.48 0.76 5.33 l-11.48 17.3 c-0.74 1.52 -0.75 2.7 0.03 3.54 c4.73 1.26 8.71 2.91 9.14 5.04 c0.56 2.73 -3.52 4.12 -7.64 4.48 l-14.54 3.4 c-4.38 1.78 -8.65 0.81 -12.83 -1.44 c-0.21 -0.1 -0.41 -0.21 -0.58 -0.32 c-0.7 -0.4 -1.41 -0.83 -2.11 -1.3 c-1.87 -1.23 -14.29 -8.33 -4.45 -26.07 c0.74 -1.54 2.03 -2.71 3.68 -3.52 " style="fill:#ffffff;"/><path d="M407.63 565.74 l3.77 -5.98 c0.9 -1.44 2.8 -1.87 4.23 -0.96 c1.43 0.9 1.86 2.8 0.96 4.23 l-0.81 1.29 c0.65 0.03 1.31 0.08 1.98 0.17 l1.87 -2.82 c1.23 -1.85 3.56 -2.46 5.21 -1.37 c1.65 1.1 1.99 3.48 0.76 5.33 l-0.58 0.88 c0.56 0.25 1.11 0.51 1.64 0.77 l2.08 -3.13 c1.23 -1.85 3.56 -2.46 5.2 -1.37 c1.65 1.09 1.99 3.48 0.76 5.33 l-2.12 3.19 c0.61 0.55 1.17 1.13 1.69 1.73 l8.19 -12.34 c1.23 -1.85 3.56 -2.46 5.21 -1.37 c1.65 1.09 1.99 3.48 0.76 5.33 l-11.48 17.3 c-0.74 1.52 -0.75 2.7 0.03 3.54 c4.73 1.26 8.71 2.91 9.14 5.04 c0.56 2.73 -3.52 4.12 -7.64 4.48 l-14.54 3.4 c-4.38 1.78 -8.65 0.81 -12.83 -1.44 c-0.21 -0.1 -0.41 -0.21 -0.58 -0.32 c-0.7 -0.4 -1.41 -0.83 -2.11 -1.3 c-1.87 -1.23 -14.29 -8.33 -4.45 -26.07 c0.74 -1.54 2.03 -2.71 3.68 -3.52 z " style="stroke:#211d1d;stroke-width:1.00;"/><path d="M343.1 553.18 c-4.14 -6.39 -11.81 -9.98 -19.67 -8.48 c-7.84 1.5 -13.63 7.63 -15.14 15.06 l5.05 -0.97 c1.67 -4.76 5.7 -8.52 10.97 -9.53 c5.75 -1.1 11.34 1.39 14.56 5.9 l-1.24 0.58 l5.32 2.5 l1.5 -5.71 l-1.35 0.64 z " style="fill:#110f0d;"/><path d="M335.38 573.87 l0 -3.71 c-5.61 1.92 -11.56 0.27 -15.44 -3.72 l1.16 -0.76 l-5.72 -1.7 l-0.69 5.92 l1.27 -0.84 c5.1 5.75 13.33 8.17 21.04 5.49 c0.59 -0.2 1.16 -0.44 1.71 -0.69 l-3.33 0 z " style="fill:#110f0d;"/><path d="M371.28 578.82 l-2.91 -5.91 c-0.7 -1.41 -2.41 -2 -3.82 -1.3 c-1.41 0.7 -2 2.41 -1.3 3.82 l0.63 1.27 c-0.61 -0.04 -1.23 -0.05 -1.85 -0.04 l-1.46 -2.8 c-0.96 -1.83 -3.06 -2.63 -4.69 -1.77 c-1.63 0.85 -2.18 3.03 -1.22 4.86 l0.45 0.87 c-0.54 0.17 -1.07 0.36 -1.6 0.56 l-1.62 -3.1 c-0.95 -1.83 -3.05 -2.62 -4.69 -1.77 c-1.63 0.85 -2.18 3.03 -1.22 4.86 l1.65 3.16 c-0.62 0.46 -1.2 0.94 -1.73 1.44 l-6.39 -12.22 c-0.96 -1.83 -3.06 -2.63 -4.69 -1.77 c-1.63 0.85 -2.18 3.03 -1.22 4.86 l8.96 17.14 c0.54 1.48 0.43 2.57 -0.37 3.27 c-4.5 0.7 -8.35 1.85 -8.96 3.78 c-0.78 2.48 2.86 4.16 6.65 4.89 l13.13 4.55 c3.89 2.07 7.93 1.59 12.02 -0.09 c0.21 -0.07 0.4 -0.15 0.57 -0.24 c0.69 -0.3 1.39 -0.63 2.08 -1 c1.85 -0.96 14.04 -6.33 6.65 -23.71 c-0.53 -1.5 -1.62 -2.7 -3.06 -3.62 " style="fill:#ffffff;"/><path d="M371.28 578.82 l-2.91 -5.91 c-0.7 -1.41 -2.41 -2 -3.82 -1.3 c-1.41 0.7 -2 2.41 -1.3 3.82 l0.63 1.27 c-0.61 -0.04 -1.23 -0.05 -1.85 -0.04 l-1.46 -2.8 c-0.96 -1.83 -3.06 -2.63 -4.69 -1.77 c-1.63 0.85 -2.18 3.03 -1.22 4.86 l0.45 0.87 c-0.54 0.17 -1.07 0.36 -1.6 0.56 l-1.62 -3.1 c-0.95 -1.83 -3.05 -2.62 -4.69 -1.77 c-1.63 0.85 -2.18 3.03 -1.22 4.86 l1.65 3.16 c-0.62 0.46 -1.2 0.94 -1.73 1.44 l-6.39 -12.22 c-0.96 -1.83 -3.06 -2.63 -4.69 -1.77 c-1.63 0.85 -2.18 3.03 -1.22 4.86 l8.96 17.14 c0.54 1.48 0.43 2.57 -0.37 3.27 c-4.5 0.7 -8.35 1.85 -8.96 3.78 c-0.78 2.48 2.86 4.16 6.65 4.89 l13.13 4.55 c3.89 2.07 7.93 1.59 12.02 -0.09 c0.21 -0.07 0.4 -0.15 0.57 -0.24 c0.69 -0.3 1.39 -0.63 2.08 -1 c1.85 -0.96 14.04 -6.33 6.65 -23.71 c-0.53 -1.5 -1.62 -2.7 -3.06 -3.62 z " style="stroke:#211d1d;stroke-width:1.00;"/><path d="M276.04 558.9 l3.48 -5.59 c0.83 -1.34 2.59 -1.75 3.93 -0.92 c1.34 0.83 1.75 2.6 0.91 3.94 l-0.75 1.2 c0.61 0.02 1.22 0.07 1.84 0.14 l1.73 -2.64 c1.13 -1.73 3.3 -2.31 4.84 -1.3 c1.54 1.01 1.87 3.23 0.74 4.96 l-0.54 0.82 c0.52 0.23 1.03 0.47 1.53 0.71 l1.92 -2.93 c1.13 -1.73 3.3 -2.31 4.84 -1.3 c1.54 1.01 1.87 3.23 0.74 4.96 l-1.96 2.98 c0.57 0.52 1.1 1.05 1.58 1.6 l7.56 -11.54 c1.13 -1.73 3.3 -2.31 4.84 -1.3 c1.54 1.01 1.87 3.23 0.74 4.96 l-10.61 16.17 c-0.68 1.42 -0.69 2.52 0.05 3.29 c4.41 1.14 8.12 2.66 8.54 4.65 c0.53 2.54 -3.26 3.86 -7.1 4.2 l-13.52 3.24 c-4.07 1.67 -8.05 0.8 -11.96 -1.27 c-0.2 -0.1 -0.38 -0.19 -0.54 -0.3 c-0.66 -0.37 -1.32 -0.77 -1.97 -1.2 c-1.75 -1.14 -13.35 -7.68 -4.28 -24.25 c0.68 -1.44 1.87 -2.53 3.4 -3.3 " style="fill:#ffffff;"/><path d="M276.04 558.9 l3.48 -5.59 c0.83 -1.34 2.59 -1.75 3.93 -0.92 c1.34 0.83 1.75 2.6 0.91 3.94 l-0.75 1.2 c0.61 0.02 1.22 0.07 1.84 0.14 l1.73 -2.64 c1.13 -1.73 3.3 -2.31 4.84 -1.3 c1.54 1.01 1.87 3.23 0.74 4.96 l-0.54 0.82 c0.52 0.23 1.03 0.47 1.53 0.71 l1.92 -2.93 c1.13 -1.73 3.3 -2.31 4.84 -1.3 c1.54 1.01 1.87 3.23 0.74 4.96 l-1.96 2.98 c0.57 0.52 1.1 1.05 1.58 1.6 l7.56 -11.54 c1.13 -1.73 3.3 -2.31 4.84 -1.3 c1.54 1.01 1.87 3.23 0.74 4.96 l-10.61 16.17 c-0.68 1.42 -0.69 2.52 0.05 3.29 c4.41 1.14 8.12 2.66 8.54 4.65 c0.53 2.54 -3.26 3.86 -7.1 4.2 l-13.52 3.24 c-4.07 1.67 -8.05 0.8 -11.96 -1.27 c-0.2 -0.1 -0.38 -0.19 -0.54 -0.3 c-0.66 -0.37 -1.32 -0.77 -1.97 -1.2 c-1.75 -1.14 -13.35 -7.68 -4.28 -24.25 c0.68 -1.44 1.87 -2.53 3.4 -3.3 z " style="stroke:#211d1d;stroke-width:1.00;"/><path d="M81.82 252.21 c0 4.59 -3.73 8.32 -8.32 8.32 c-4.6 0 -8.32 -3.73 -8.32 -8.32 c0 -4.6 3.72 -8.32 8.32 -8.32 c4.59 0 8.32 3.73 8.32 8.32 z " style="stroke:#211d1d;stroke-width:2.00;"/><path d="M104.35 280.06 l0 -6.89 c0 -1.71 -1.38 -3.09 -3.08 -3.09 c-1.34 0 -2.47 0.86 -2.9 2.05 c-0.73 -0.5 -1.51 -0.97 -2.32 -1.4 l0 -2.83 c0 -2.23 -1.61 -4.04 -3.6 -4.04 c-1.99 0 -3.6 1.81 -3.6 4.04 l0 0.3 c-0.8 -0.15 -1.59 -0.27 -2.38 -0.37 l0 -3.48 c0 -2.23 -1.61 -4.04 -3.6 -4.04 c-1.99 0 -3.6 1.81 -3.6 4.04 l0 3.56 c-0.82 0.13 -1.61 0.3 -2.38 0.51 l0 -14.89 c0 -2.23 -1.61 -4.04 -3.6 -4.04 c-1.99 0 -3.6 1.81 -3.6 4.04 l0 20.88 c-0.22 1.68 -0.87 2.68 -1.99 2.95 c-4.66 -1.58 -8.91 -2.41 -10.46 -0.86 c-1.99 1.98 0.66 5.41 3.91 8 l10.29 10.93 c2.68 3.92 6.79 5.49 11.55 5.93 c0.23 0.03 0.46 0.05 0.67 0.06 c0.81 0.06 1.65 0.09 2.49 0.09 c2.25 0.01 16.6 0.96 18.22 -19.37 c0.1 -0.69 0.08 -1.38 -0.03 -2.06 " style="fill:#ffffff;"/><path d="M104.35 280.06 l0 -6.89 c0 -1.71 -1.38 -3.09 -3.08 -3.09 c-1.34 0 -2.47 0.86 -2.9 2.05 c-0.73 -0.5 -1.51 -0.97 -2.32 -1.4 l0 -2.83 c0 -2.23 -1.61 -4.04 -3.6 -4.04 c-1.99 0 -3.6 1.81 -3.6 4.04 l0 0.3 c-0.8 -0.15 -1.59 -0.27 -2.38 -0.37 l0 -3.48 c0 -2.23 -1.61 -4.04 -3.6 -4.04 c-1.99 0 -3.6 1.81 -3.6 4.04 l0 3.56 c-0.82 0.13 -1.61 0.3 -2.38 0.51 l0 -14.89 c0 -2.23 -1.61 -4.04 -3.6 -4.04 c-1.99 0 -3.6 1.81 -3.6 4.04 l0 20.88 c-0.22 1.68 -0.87 2.68 -1.99 2.95 c-4.66 -1.58 -8.91 -2.41 -10.46 -0.86 c-1.99 1.98 0.66 5.41 3.91 8 l10.29 10.93 c2.68 3.92 6.79 5.49 11.55 5.93 c0.23 0.03 0.46 0.05 0.67 0.06 c0.81 0.06 1.65 0.09 2.49 0.09 c2.25 0.01 16.6 0.96 18.22 -19.37 c0.1 -0.69 0.08 -1.38 -0.03 -2.06 z " style="stroke:#211d1d;stroke-width:1.00;"/><path d="M141.13 81.45 c0 23.84 -19.33 43.17 -43.17 43.17 c-23.84 0 -43.17 -19.33 -43.17 -43.17 c0 -23.84 19.33 -43.17 43.17 -43.17 c23.84 0 43.17 19.33 43.17 43.17 z " style="stroke:#918f8f;stroke-width:1.00;"/><path d="M129.26 81.45 c0 17.29 -14.01 31.3 -31.3 31.3 c-17.29 0 -31.3 -14.01 -31.3 -31.3 c0 -17.29 14.02 -31.3 31.3 -31.3 c17.29 0 31.3 14.01 31.3 31.3 z " style="stroke:#656263;stroke-width:2.50;"/><path d="M117.63 81.45 c0 10.87 -8.81 19.67 -19.67 19.67 c-10.86 0 -19.68 -8.81 -19.68 -19.67 c0 -10.87 8.81 -19.67 19.68 -19.67 c10.87 0 19.67 8.81 19.67 19.67 z " style="stroke:#393536;stroke-width:4.00;"/><path d="M55.95 136.7 l75.9 0 c-0.04 -1.96 -1.08 -3.84 -2.92 -4.84 c-2.61 -1.44 -5.86 -0.58 -7.46 1.89 c-0.69 -1.33 -1.46 -2.66 -2.31 -3.95 l1.3 -2.36 c1.97 -3.58 0.98 -7.91 -2.21 -9.66 c-2.68 -1.47 -6.05 -0.66 -8.23 1.74 c-1.22 -1.02 -2.44 -1.96 -3.67 -2.83 l0.6 -1.09 c1.97 -3.58 0.98 -7.91 -2.21 -9.67 c-3.19 -1.75 -7.38 -0.28 -9.35 3.3 l-0.66 1.21 c-1.43 -0.52 -2.85 -0.95 -4.26 -1.28 l13.16 -23.9 c1.97 -3.58 0.98 -7.91 -2.21 -9.67 c-3.19 -1.76 -7.38 -0.28 -9.35 3.31 l-18.44 33.51 c-1.84 2.51 -3.76 3.53 -5.8 2.97 c-6.08 -6.65 -12.18 -11.73 -16.03 -10.62 c-4.93 1.42 -3.72 9.26 -0.78 16.3 l4.94 15.65 z " style="fill:#231f20;"/><path d="M55.95 136.7 l75.9 0 c-0.04 -1.96 -1.08 -3.84 -2.92 -4.84 c-2.61 -1.44 -5.86 -0.58 -7.46 1.89 c-0.69 -1.33 -1.46 -2.66 -2.31 -3.95 l1.3 -2.36 c1.97 -3.58 0.98 -7.91 -2.21 -9.66 c-2.68 -1.47 -6.05 -0.66 -8.23 1.74 c-1.22 -1.02 -2.44 -1.96 -3.67 -2.83 l0.6 -1.09 c1.97 -3.58 0.98 -7.91 -2.21 -9.67 c-3.19 -1.75 -7.38 -0.28 -9.35 3.3 l-0.66 1.21 c-1.43 -0.52 -2.85 -0.95 -4.26 -1.28 l13.16 -23.9 c1.97 -3.58 0.98 -7.91 -2.21 -9.67 c-3.19 -1.76 -7.38 -0.28 -9.35 3.31 l-18.44 33.51 c-1.84 2.51 -3.76 3.53 -5.8 2.97 c-6.08 -6.65 -12.18 -11.73 -16.03 -10.62 c-4.93 1.42 -3.72 9.26 -0.78 16.3 l4.94 15.65 z " style="stroke:#231f20;stroke-width:1.00;"/><text class="f317" font-size="32.40" style="fill:#231f20" transform="matrix(1,0,0,1.0406,0,0)"><tspan x="120.01" y="98.72" textLength="228.03">Touch Gesture</tspan></text><text class="f316" font-size="9.45" style="fill:#231f20"><tspan x="357.45" y="95.41" textLength="172.6" class="f317" font-size="13.95" dx="0,2.79,2.79,2.79,2.79,2.79,2.79,2.79,2.79,2.79,2.79,2.79,2.79,2.79,2.79">REFERENCE GUIDE</tspan>
<tspan x="357.45" y="111.37" textLength="215.44">By Craig Villamor, Dan Willis, and Luke Wroblewski</tspan>
<tspan x="357.45" y="125.37" textLength="116.95">Last updated April 15, 2010</tspan></text><text class="f318" font-size="14.00" style="fill:#231f20"><tspan x="56.56" y="188.93" textLength="147.7" class="f317" dx="0,1.4,1.4,1.4,1.4,1.4,1.4,1.4,1.4,1.4,1.4,1.4,1.4,1.4,1.4">CORE GESTURES  </tspan>
<tspan x="205.66" y="188.93" textLength="252.81">Basic gestures for most touch commands</tspan></text><path d="M0 137.32 l612 0 " style="stroke:#231f20;stroke-width:0.25;"/><text class="f316" font-size="11.00" style="fill:#7b7979"><tspan x="56.56" y="629.85" textLength="167.24">Press surface with one finger and </tspan>
<tspan x="56.56" y="643.05" textLength="164.0">move second finger over surface </tspan>
<tspan x="56.56" y="656.25" textLength="108.58">without losing contact</tspan></text><text class="f316" font-size="11.00" style="fill:#7b7979"><tspan x="462.12" y="467.86" textLength="93.49">Press surface with </tspan>
<tspan x="462.12" y="481.06" textLength="106.55">one finger and briefly </tspan>
<tspan x="462.12" y="494.26" textLength="93.71">touch surface with </tspan>
<tspan x="462.12" y="507.46" textLength="67.02">second finger</tspan>
<tspan x="326.94" y="467.86" textLength="89.43">Touch surface for </tspan>
<tspan x="326.94" y="481.06" textLength="83.53">extended period </tspan>
<tspan x="326.94" y="494.26" textLength="33.82">of time</tspan></text><text class="f316" font-size="11.00" style="fill:#7b7979"><tspan x="56.57" y="322.85" textLength="104.09">Briefly touch surface </tspan>
<tspan x="56.57" y="336.05" textLength="63.55">with fingertip</tspan>
<tspan x="191.54" y="322.85" textLength="110.22">Rapidly touch surface </tspan>
<tspan x="191.54" y="336.05" textLength="92.66">twice with fingertip</tspan>
<tspan x="326.94" y="322.85" textLength="97.99">Move fingertip over </tspan>
<tspan x="326.94" y="336.05" textLength="78.63">surface without </tspan>
<tspan x="326.94" y="349.25" textLength="69.27">losing contact</tspan>
<tspan x="462.12" y="322.85" textLength="109.82">Quickly brush surface </tspan>
<tspan x="462.12" y="336.05" textLength="63.55">with fingertip</tspan></text><text class="f316" font-size="11.00" style="fill:#7b7979"><tspan x="56.56" y="467.86" textLength="96.56">Touch surface with </tspan>
<tspan x="56.56" y="481.06" textLength="107.15">two fingers and bring </tspan>
<tspan x="56.56" y="494.26" textLength="101.87">them closer together</tspan>
<tspan x="191.53" y="467.86" textLength="96.56">Touch surface with </tspan>
<tspan x="191.53" y="481.06" textLength="79.04">two fingers and </tspan>
<tspan x="191.53" y="494.26" textLength="83.56">move them apart</tspan></text><text class="f316" font-size="11.00" style="fill:#7b7979"><tspan x="269.21" y="629.85" textLength="153.99">Touch surface with two fingers </tspan>
<tspan x="269.21" y="643.05" textLength="151.8">and move them in a clockwise </tspan>
<tspan x="269.21" y="656.25" textLength="144.83">or counterclockwise direction</tspan></text><path d="M56.56 203.32 l522.74 0 " style="stroke:#7b7979;stroke-width:0.30;stroke-dasharray:2.0,2.0;"/><path d="M556.32 715.27 l-498.76 0 l0 -18 l498.76 0 l0 18 z " style="fill:#5a5758;"/><path d="M556.28 716.07 c0 2.21 -1.79 4 -4 4 l-490.71 0 c-2.21 0 -4 -1.79 -4 -4 l0 -8.27 c0 -2.21 1.79 -4 4 -4 l490.71 0 c2.21 0 4 1.79 4 4 l0 8.27 z " style="fill:#5a5758;"/><text class="f316" font-size="10.50" style="fill:#ffffff"><tspan x="72.74" y="712.22" textLength="272.29" style="fill:#d3d2d2">Supporting materials for this guide can be found online at:</tspan>
<tspan x="345.02" y="712.22" textLength="9.17" font-size="11.00">   </tspan>
<tspan x="354.19" y="712.22" textLength="174.88" class="f317" font-size="12.00">http://www.lukew.com/touch/ </tspan></text><text class="f316" font-size="8.00" style="fill:#7b7979" transform="matrix(1,0,0,1.0089,0,0)"><tspan x="57.56" y="729.02" textLength="407.78">This work is licensed under the Creative Commons Attribution-Noncommercial-Share Alike 3.0 Unported License. </tspan>
<tspan x="57.56" y="738.53" textLength="308.18">To view a copy of this license, visit http://creativecommons.org/licenses/by-nc-sa/3.0/</tspan></text><path d="M0 697.24 l612 0 " style="stroke:#231f20;stroke-width:0.25;"/>
</svg>
