
<?xml-stylesheet href="css/stylesheet.css" type="text/css"?>
<svg class="crocodoc-1VEYgr crocodoc-page-svg" version="1.1"
    xmlns="http://www.w3.org/2000/svg"
    xmlns:xlink="http://www.w3.org/1999/xlink"
    xml:space="preserve" width="612pt" height="792pt" viewBox="0 0 612 792">
<defs>

</defs>
<path d="M558.27 124.09 l-501.72 0 l0 -23.33 l501.72 0 l0 23.33 z " style="fill:#d3d2d2;"/><text class="f317" font-size="21.00" style="fill:#a7a5a6"><tspan x="95.51" y="46.78" textLength="145.09" style="fill:#444141">touch gesture </tspan>
<tspan x="240.60" y="46.78" textLength="157.48">reference guide</tspan></text><text class="f317" font-size="10.00" style="fill:#231f20"><tspan x="65.56" y="169.39" textLength="33.7">Accept</tspan></text><path d="M57.03 32.57 c0 8.69 7.04 15.73 15.73 15.73 c8.69 0 15.73 -7.04 15.73 -15.73 c0 -5.62 -2.95 -10.55 -7.38 -13.33 l-16.69 0 c-4.43 2.78 -7.38 7.71 -7.38 13.33 " style="fill:#ffffff;"/><path d="M57.03 32.57 c0 8.69 7.04 15.73 15.73 15.73 c8.69 0 15.73 -7.04 15.73 -15.73 c0 -5.62 -2.95 -10.55 -7.38 -13.33 l-16.69 0 c-4.43 2.78 -7.38 7.71 -7.38 13.33 z " style="stroke:#7b7979;stroke-width:1.00;"/><path d="M84.21 32.57 c0 6.32 -5.13 11.45 -11.45 11.45 c-6.32 0 -11.45 -5.13 -11.45 -11.45 c0 -6.32 5.13 -11.45 11.45 -11.45 c6.32 0 11.45 5.13 11.45 11.45 " style="fill:#ffffff;"/><path d="M84.21 32.57 c0 6.32 -5.13 11.45 -11.45 11.45 c-6.32 0 -11.45 -5.13 -11.45 -11.45 c0 -6.32 5.13 -11.45 11.45 -11.45 c6.32 0 11.45 5.13 11.45 11.45 z " style="stroke:#4f4c4d;stroke-width:1.50;"/><path d="M79.96 32.57 c0 3.97 -3.22 7.2 -7.19 7.2 c-3.97 0 -7.2 -3.22 -7.2 -7.2 c0 -3.97 3.22 -7.2 7.2 -7.2 c3.97 0 7.19 3.22 7.19 7.2 " style="fill:#ffffff;"/><path d="M79.96 32.57 c0 3.97 -3.22 7.2 -7.19 7.2 c-3.97 0 -7.2 -3.22 -7.2 -7.2 c0 -3.97 3.22 -7.2 7.2 -7.2 c3.97 0 7.19 3.22 7.19 7.2 z " style="stroke:#231f20;stroke-width:2.00;"/><path d="M56.86 52.78 l28.09 0 c-0.01 -0.72 -0.39 -1.4 -1.07 -1.77 c-0.96 -0.53 -2.14 -0.21 -2.73 0.69 c-0.25 -0.49 -0.53 -0.97 -0.85 -1.45 l0.48 -0.86 c0.72 -1.31 0.36 -2.89 -0.81 -3.53 c-0.98 -0.54 -2.21 -0.24 -3.01 0.64 c-0.44 -0.37 -0.89 -0.72 -1.34 -1.04 l0.22 -0.4 c0.72 -1.31 0.36 -2.89 -0.81 -3.53 c-1.17 -0.64 -2.7 -0.1 -3.42 1.21 l-0.24 0.44 c-0.52 -0.19 -1.04 -0.35 -1.56 -0.47 l4.81 -8.74 c0.72 -1.31 0.36 -2.89 -0.81 -3.53 c-1.17 -0.64 -2.7 -0.1 -3.42 1.21 l-6.74 12.26 c-0.67 0.92 -1.38 1.29 -2.12 1.09 c-2.23 -2.43 -4.45 -4.29 -5.86 -3.88 c-1.8 0.52 -1.36 3.39 -0.29 5.96 l1.48 5.72 z " style="stroke:#231f20;stroke-width:1.00;"/><path d="M89.55 53.17 l-33.54 0 l0 -33.54 l33.54 0 l0 33.54 z " style="stroke:#4f4c4d;stroke-width:0.30;"/><path d="M56.86 53.02 l28.09 0 c-0.01 -0.72 -0.39 -1.4 -1.07 -1.77 c-0.96 -0.53 -2.14 -0.21 -2.73 0.69 c-0.25 -0.49 -0.53 -0.97 -0.85 -1.45 l0.48 -0.86 c0.72 -1.31 0.36 -2.89 -0.81 -3.53 c-0.98 -0.54 -2.21 -0.24 -3.01 0.64 c-0.44 -0.37 -0.89 -0.72 -1.34 -1.04 l0.22 -0.4 c0.72 -1.31 0.36 -2.89 -0.81 -3.53 c-1.17 -0.64 -2.7 -0.1 -3.42 1.21 l-0.24 0.44 c-0.52 -0.19 -1.04 -0.35 -1.56 -0.47 l4.81 -8.74 c0.72 -1.31 0.36 -2.89 -0.81 -3.53 c-1.17 -0.64 -2.7 -0.1 -3.42 1.21 l-6.74 12.26 c-0.67 0.92 -1.38 1.29 -2.12 1.09 c-2.23 -2.43 -4.45 -4.29 -5.86 -3.88 c-1.8 0.52 -1.36 3.39 -0.29 5.96 l1.48 5.72 z " style="fill:#231f20;"/><path d="M89.78 19.51 l-33.19 0 l0 -0.81 l33.19 0 l0 0.81 z " style="fill:#ffffff;"/><text class="f89" font-size="22.00" style="fill:#7b7979"><tspan x="539.35" y="48.71" textLength="18.92">&#59906;</tspan></text><path d="M56 53.28 l502.3 0 " style="stroke:#231f20;stroke-width:0.30;"/><text class="f316" font-size="8.00" style="fill:#656263"><tspan x="56.56" y="735.09" textLength="198.42">Supporting materials for this guide can be found online:</tspan>
<tspan x="56.56" y="747.09" textLength="145.73" class="f317" font-size="10.00" style="fill:#231f20">http://www.lukew.com/touch/ </tspan></text><path d="M56.56 100.66 l501.71 0 " style="stroke:#868484;stroke-width:0.25;"/><text class="f316" font-size="11.00" style="fill:#918f8f"><tspan x="65.56" y="140.73" textLength="54.4">user action</tspan>
<tspan x="170.86" y="140.73" textLength="36.87">gesture</tspan></text><path d="M56.56 149.97 l501.72 0 " style="stroke:#b2b1b1;stroke-width:1.50;"/><text class="f317" font-size="10.00" style="fill:#231f20"><tspan x="65.56" y="117.19" textLength="107.15" dx="0,0.75,0.75,0.75,0.75,0.75,0.75,0.75,0.75,0.75,0.75,0.75,0.75,0.75,0.75">DRAWING ACTIONS</tspan></text><path d="M56.56 124.24 l501.71 0 " style="stroke:#868484;stroke-width:0.25;"/><path d="M56.56 710.15 l501.72 0 " style="stroke:#231f20;stroke-width:0.25;"/><text class="f316" font-size="10.00" style="fill:#444141"><tspan x="170.86" y="199.36" textLength="167.77">Draw a slash on surface with fingertip</tspan>
<tspan x="170.86" y="229.22" textLength="208.35">Draw a question mark on surface with fingertip</tspan>
<tspan x="170.86" y="259.08" textLength="164.81">Draw an &#8220;X&#8221; on surface with fingertip</tspan>
<tspan x="65.56" y="259.00" textLength="30.74" class="f317" style="fill:#231f20">Reject</tspan>
<tspan x="170.86" y="288.94" textLength="184.45">Scratch out area on surface with fingertip</tspan></text><text class="f316" font-size="10.00" style="fill:#444141"><tspan x="170.86" y="169.50" textLength="193.9">Draw a checkmark on surface with fingertip</tspan></text><text class="f317" font-size="10.00" style="fill:#231f20"><tspan x="65.56" y="229.13" textLength="39.99">Get help</tspan></text><text class="f317" font-size="10.00" style="fill:#231f20"><tspan x="65.56" y="288.87" textLength="25.56">Undo</tspan></text><text class="f317" font-size="10.00" style="fill:#231f20"><tspan x="65.56" y="199.26" textLength="16.86">Cut</tspan></text><path d="M56.56 300.15 l501.71 0 " style="stroke:#a7a5a6;stroke-width:0.25;"/><path d="M56.56 270.15 l501.71 0 " style="stroke:#a7a5a6;stroke-width:0.25;"/><path d="M56.56 210.15 l501.71 0 " style="stroke:#a7a5a6;stroke-width:0.25;"/><path d="M56.56 180.15 l501.71 0 " style="stroke:#a7a5a6;stroke-width:0.25;"/><path d="M56.56 240.15 l501.71 0 " style="stroke:#a7a5a6;stroke-width:0.25;"/>
</svg>
