
<?xml-stylesheet href="css/stylesheet.css" type="text/css"?>
<svg class="crocodoc-1VEYgr crocodoc-page-svg" version="1.1"
    xmlns="http://www.w3.org/2000/svg"
    xmlns:xlink="http://www.w3.org/1999/xlink"
    xml:space="preserve" width="612pt" height="792pt" viewBox="0 0 612 792">
<defs>

</defs>
<path d="M558.27 124.09 l-501.72 0 l0 -23.33 l501.72 0 l0 23.33 z " style="fill:#d3d2d2;"/><text class="f100" font-size="21.00" style="fill:#a7a5a6"><tspan x="95.51" y="46.78" textLength="145.09" style="fill:#444141">touch gesture </tspan>
<tspan x="240.60" y="46.78" textLength="157.48">reference guide</tspan></text><text class="f100" font-size="10.00" style="fill:#231f20"><tspan x="270.86" y="174.42" textLength="30.93" class="f98" style="fill:#444141">spread</tspan>
<tspan x="65.56" y="174.39" textLength="55.0">Adjust view</tspan>
<tspan x="65.56" y="186.39" textLength="50.73">(zoom out)</tspan></text><text class="f100" font-size="10.00" style="fill:#231f20"><tspan x="65.56" y="313.22" textLength="91.03" dx="0,0.01,0.01,0.01,0.01,0.01,0.01,0.01,0.01,0.01,0.01,0.01,0.01,0.01,0.01,0.01">Display commands</tspan></text><path d="M57.03 32.57 c0 8.69 7.04 15.73 15.73 15.73 c8.69 0 15.73 -7.04 15.73 -15.73 c0 -5.62 -2.95 -10.55 -7.38 -13.33 l-16.69 0 c-4.43 2.78 -7.38 7.71 -7.38 13.33 " style="fill:#ffffff;"/><path d="M57.03 32.57 c0 8.69 7.04 15.73 15.73 15.73 c8.69 0 15.73 -7.04 15.73 -15.73 c0 -5.62 -2.95 -10.55 -7.38 -13.33 l-16.69 0 c-4.43 2.78 -7.38 7.71 -7.38 13.33 z " style="stroke:#7b7979;stroke-width:1.00;"/><path d="M84.21 32.57 c0 6.32 -5.13 11.45 -11.45 11.45 c-6.32 0 -11.45 -5.13 -11.45 -11.45 c0 -6.32 5.13 -11.45 11.45 -11.45 c6.32 0 11.45 5.13 11.45 11.45 " style="fill:#ffffff;"/><path d="M84.21 32.57 c0 6.32 -5.13 11.45 -11.45 11.45 c-6.32 0 -11.45 -5.13 -11.45 -11.45 c0 -6.32 5.13 -11.45 11.45 -11.45 c6.32 0 11.45 5.13 11.45 11.45 z " style="stroke:#4f4c4d;stroke-width:1.50;"/><path d="M79.96 32.57 c0 3.97 -3.22 7.2 -7.19 7.2 c-3.97 0 -7.2 -3.22 -7.2 -7.2 c0 -3.97 3.22 -7.2 7.2 -7.2 c3.97 0 7.19 3.22 7.19 7.2 " style="fill:#ffffff;"/><path d="M79.96 32.57 c0 3.97 -3.22 7.2 -7.19 7.2 c-3.97 0 -7.2 -3.22 -7.2 -7.2 c0 -3.97 3.22 -7.2 7.2 -7.2 c3.97 0 7.19 3.22 7.19 7.2 z " style="stroke:#231f20;stroke-width:2.00;"/><path d="M56.86 52.78 l28.09 0 c-0.01 -0.72 -0.4 -1.4 -1.07 -1.77 c-0.96 -0.53 -2.14 -0.21 -2.73 0.69 c-0.25 -0.49 -0.54 -0.97 -0.85 -1.45 l0.47 -0.86 c0.72 -1.31 0.36 -2.89 -0.81 -3.53 c-0.98 -0.54 -2.21 -0.24 -3.01 0.64 c-0.45 -0.37 -0.89 -0.72 -1.34 -1.04 l0.22 -0.4 c0.72 -1.31 0.36 -2.89 -0.81 -3.53 c-1.17 -0.64 -2.7 -0.1 -3.42 1.21 l-0.24 0.44 c-0.52 -0.19 -1.04 -0.35 -1.56 -0.47 l4.81 -8.74 c0.72 -1.31 0.36 -2.89 -0.81 -3.53 c-1.17 -0.64 -2.7 -0.1 -3.42 1.21 l-6.74 12.26 c-0.67 0.92 -1.38 1.29 -2.12 1.09 c-2.23 -2.43 -4.45 -4.29 -5.86 -3.88 c-1.8 0.52 -1.36 3.39 -0.29 5.96 l1.48 5.72 z " style="stroke:#231f20;stroke-width:1.00;"/><path d="M89.55 53.17 l-33.54 0 l0 -33.54 l33.54 0 l0 33.54 z " style="stroke:#4f4c4d;stroke-width:0.30;"/><path d="M56.86 53.02 l28.09 0 c-0.01 -0.72 -0.4 -1.4 -1.07 -1.77 c-0.96 -0.53 -2.14 -0.21 -2.73 0.69 c-0.25 -0.49 -0.54 -0.97 -0.85 -1.45 l0.47 -0.86 c0.72 -1.31 0.36 -2.89 -0.81 -3.53 c-0.98 -0.54 -2.21 -0.24 -3.01 0.64 c-0.45 -0.37 -0.89 -0.72 -1.34 -1.04 l0.22 -0.4 c0.72 -1.31 0.36 -2.89 -0.81 -3.53 c-1.17 -0.64 -2.7 -0.1 -3.42 1.21 l-0.24 0.44 c-0.52 -0.19 -1.04 -0.35 -1.56 -0.47 l4.81 -8.74 c0.72 -1.31 0.36 -2.89 -0.81 -3.53 c-1.17 -0.64 -2.7 -0.1 -3.42 1.21 l-6.74 12.26 c-0.67 0.92 -1.38 1.29 -2.12 1.09 c-2.23 -2.43 -4.45 -4.29 -5.86 -3.88 c-1.8 0.52 -1.36 3.39 -0.29 5.96 l1.48 5.72 z " style="fill:#231f20;"/><path d="M89.78 19.51 l-33.19 0 l0 -0.81 l33.19 0 l0 0.81 z " style="fill:#ffffff;"/><text class="f89" font-size="22.00" style="fill:#7b7979"><tspan x="539.35" y="48.71" textLength="18.92">&#59904;</tspan></text><path d="M56 53.28 l502.3 0 " style="stroke:#231f20;stroke-width:0.30;"/><text class="f98" font-size="8.00" style="fill:#656263"><tspan x="56.56" y="735.09" textLength="198.42">Supporting materials for this guide can be found online:</tspan>
<tspan x="56.56" y="747.09" textLength="145.73" class="f100" font-size="10.00" style="fill:#231f20">http://www.lukew.com/touch/ </tspan></text><path d="M56.56 100.66 l501.71 0 " style="stroke:#868484;stroke-width:0.25;"/><text class="f98" font-size="11.00" style="fill:#918f8f"><tspan x="65.56" y="140.73" textLength="54.4">user action</tspan>
<tspan x="170.86" y="140.73" textLength="36.87">gesture</tspan></text><path d="M56.56 149.97 l501.72 0 " style="stroke:#b2b1b1;stroke-width:1.50;"/><text class="f98" font-size="10.00" style="fill:#231f20"><tspan x="353.50" y="140.73" textLength="54.8" font-size="11.00" style="fill:#918f8f">description</tspan>
<tspan x="65.56" y="117.19" textLength="126.07" class="f100" dx="0,0.75,0.75,0.75,0.75,0.75,0.75,0.75,0.75,0.75,0.75,0.75,0.75,0.75,0.75,0.75,0.75,0.75,0.75">NAVIGATING ACTIONS </tspan>
<tspan x="192.38" y="117.19" textLength="49.64">(continued)</tspan></text><path d="M56.56 124.24 l501.71 0 " style="stroke:#868484;stroke-width:0.25;"/><path d="M170.98 220.36 l387.3 0 " style="stroke:#a7a5a6;stroke-width:0.25;stroke-dasharray:2.0,2.0;"/><path d="M56.56 290.76 l501.72 0 " style="stroke:#a7a5a6;stroke-width:0.25;"/><path d="M56.56 710.15 l501.72 0 " style="stroke:#231f20;stroke-width:0.25;"/><text class="f98" font-size="10.00" style="fill:#444141"><tspan x="354.01" y="173.96" textLength="159.63">Touch surface with two fingers and </tspan>
<tspan x="354.01" y="185.96" textLength="75.96">move them apart</tspan></text><text class="f98" font-size="10.00" style="fill:#444141"><tspan x="354.01" y="243.66" textLength="184.44">Rapidly touch surface twice with fingertip</tspan></text><text class="f98" font-size="10.00" style="fill:#444141"><tspan x="213.86" y="313.22" textLength="24.63">press</tspan></text><path d="M170.98 356.15 l387.3 0 " style="stroke:#a7a5a6;stroke-width:0.25;stroke-dasharray:2.0,2.0;"/><text class="f98" font-size="10.00" style="fill:#444141"><tspan x="354.01" y="312.96" textLength="157.24">Touch surface for extended period </tspan>
<tspan x="354.01" y="324.96" textLength="30.75">of time</tspan></text><text class="f98" font-size="10.00" style="fill:#444141"><tspan x="213.86" y="380.22" textLength="61.5">press and tap</tspan>
<tspan x="354.01" y="379.96" textLength="181.85">Press surface with one finger and briefly </tspan>
<tspan x="354.01" y="391.96" textLength="146.12">touch surface with second finger</tspan></text><text class="f98" font-size="10.00" style="fill:#231f20"><tspan x="226.86" y="583.62" textLength="68.69" style="fill:#444141">two-finger drag</tspan>
<tspan x="65.56" y="583.59" textLength="83.15" class="f100">Move through list</tspan></text><path d="M56.56 560.56 l501.71 0 " style="stroke:#a7a5a6;stroke-width:0.25;"/><text class="f98" font-size="10.00" style="fill:#444141"><tspan x="353.85" y="583.57" textLength="147.99">Move to previous/next item in list</tspan></text><text class="f98" font-size="10.00" style="fill:#444141"><tspan x="452.63" y="654.49" textLength="26.11">rotate</tspan></text><path d="M413.54 656 c-0.52 0.46 -1.11 0.86 -1.76 1.18 c-4.04 1.98 -8.92 0.32 -10.9 -3.71 c-1.98 -4.04 -0.32 -8.92 3.71 -10.9 c3.73 -1.84 8.17 -0.54 10.39 2.85 l-2.04 1 l6.96 2.37 l2.38 -6.96 l-1.55 0.76 c-3.79 -6.55 -12.06 -9.13 -18.96 -5.74 c-7.19 3.54 -10.16 12.24 -6.62 19.43 c3.54 7.19 12.24 10.16 19.44 6.62 c0.64 -0.32 1.24 -0.68 1.81 -1.08 l-2.86 -5.82 z " style="fill:#231f20;"/><path d="M413.54 656 c-0.52 0.46 -1.11 0.86 -1.76 1.18 c-4.04 1.98 -8.92 0.32 -10.9 -3.71 c-1.98 -4.04 -0.32 -8.92 3.71 -10.9 c3.73 -1.84 8.17 -0.54 10.39 2.85 l-2.04 1 l6.96 2.37 l2.38 -6.96 l-1.55 0.76 c-3.79 -6.55 -12.06 -9.13 -18.96 -5.74 c-7.19 3.54 -10.16 12.24 -6.62 19.43 c3.54 7.19 12.24 10.16 19.44 6.62 c0.64 -0.32 1.24 -0.68 1.81 -1.08 l-2.86 -5.82 z " style="stroke:#231f20;stroke-width:1.00;"/><path d="M431.89 680.32 l0.14 -6.04 c0.04 -1.45 -1.11 -2.65 -2.56 -2.68 c-1.45 -0.04 -2.65 1.11 -2.68 2.56 l-0.03 1.3 c-0.48 -0.29 -0.98 -0.56 -1.49 -0.82 l0 -2.89 c0 -1.9 -1.37 -3.44 -3.06 -3.44 c-1.69 0 -3.06 1.54 -3.06 3.44 l0 0.9 c-0.52 -0.09 -1.03 -0.16 -1.54 -0.22 l0 -14.77 c0 -1.9 -1.37 -3.43 -3.06 -3.43 c-1.69 0 -3.06 1.54 -3.06 3.43 l0 14.83 c-0.69 0.11 -1.37 0.25 -2.02 0.43 l0 -12.66 c0 -1.9 -1.37 -3.44 -3.06 -3.44 c-1.69 0 -3.06 1.54 -3.06 3.44 l0 17.75 c-0.19 1.43 -0.74 2.28 -1.69 2.51 c-3.96 -1.34 -7.58 -2.04 -8.89 -0.73 c-1.69 1.68 0.56 4.6 3.33 6.8 l8.75 9.29 c2.28 3.34 5.77 4.67 9.82 5.04 c0.2 0.03 0.39 0.04 0.57 0.05 c0.69 0.05 1.4 0.07 2.12 0.07 c1.91 0.01 14.11 0.82 15.49 -16.46 c0.2 -1.44 -0.16 -2.89 -0.95 -4.25 " style="fill:#ffffff;"/><path d="M431.89 680.32 l0.14 -6.04 c0.04 -1.45 -1.11 -2.65 -2.56 -2.68 c-1.45 -0.04 -2.65 1.11 -2.68 2.56 l-0.03 1.3 c-0.48 -0.29 -0.98 -0.56 -1.49 -0.82 l0 -2.89 c0 -1.9 -1.37 -3.44 -3.06 -3.44 c-1.69 0 -3.06 1.54 -3.06 3.44 l0 0.9 c-0.52 -0.09 -1.03 -0.16 -1.54 -0.22 l0 -14.77 c0 -1.9 -1.37 -3.43 -3.06 -3.43 c-1.69 0 -3.06 1.54 -3.06 3.43 l0 14.83 c-0.69 0.11 -1.37 0.25 -2.02 0.43 l0 -12.66 c0 -1.9 -1.37 -3.44 -3.06 -3.44 c-1.69 0 -3.06 1.54 -3.06 3.44 l0 17.75 c-0.19 1.43 -0.74 2.28 -1.69 2.51 c-3.96 -1.34 -7.58 -2.04 -8.89 -0.73 c-1.69 1.68 0.56 4.6 3.33 6.8 l8.75 9.29 c2.28 3.34 5.77 4.67 9.82 5.04 c0.2 0.03 0.39 0.04 0.57 0.05 c0.69 0.05 1.4 0.07 2.12 0.07 c1.91 0.01 14.11 0.82 15.49 -16.46 c0.2 -1.44 -0.16 -2.89 -0.95 -4.25 z " style="stroke:#231f20;stroke-width:1.00;"/><text class="f98" font-size="8.00" style="fill:#231f20"><tspan x="266.51" y="674.04" textLength="11.56">OR</tspan>
<tspan x="373.48" y="674.04" textLength="11.56">OR</tspan></text><path d="M344.52 659.35 c0 3.09 -2.51 5.6 -5.6 5.6 c-3.09 0 -5.6 -2.51 -5.6 -5.6 c0 -3.1 2.51 -5.6 5.6 -5.6 c3.09 0 5.6 2.51 5.6 5.6 " style="fill:#231f20;"/><path d="M344.52 659.35 c0 3.09 -2.51 5.6 -5.6 5.6 c-3.09 0 -5.6 -2.51 -5.6 -5.6 c0 -3.1 2.51 -5.6 5.6 -5.6 c3.09 0 5.6 2.51 5.6 5.6 z " style="stroke:#231f20;stroke-width:1.00;"/><path d="M364.59 680.32 l0.14 -6.04 c0.04 -1.45 -1.11 -2.65 -2.56 -2.68 c-1.45 -0.04 -2.65 1.11 -2.68 2.56 l-0.03 1.3 c-0.48 -0.29 -0.98 -0.56 -1.49 -0.82 l0 -2.89 c0 -1.9 -1.37 -3.44 -3.06 -3.44 c-1.69 0 -3.06 1.54 -3.06 3.44 l0 0.9 c-0.52 -0.09 -1.03 -0.16 -1.54 -0.22 l0 -3.21 c0 -1.9 -1.37 -3.44 -3.06 -3.44 c-1.69 0 -3.06 1.54 -3.06 3.44 l0 3.27 c-0.69 0.11 -1.37 0.25 -2.02 0.43 l0 -12.66 c0 -1.9 -1.37 -3.44 -3.06 -3.44 c-1.69 0 -3.06 1.54 -3.06 3.44 l0 17.75 c-0.19 1.43 -0.74 2.28 -1.69 2.51 c-3.96 -1.34 -7.58 -2.04 -8.89 -0.73 c-1.69 1.68 0.56 4.6 3.33 6.8 l8.75 9.29 c2.28 3.34 5.78 4.67 9.82 5.04 c0.2 0.03 0.39 0.04 0.57 0.05 c0.69 0.05 1.4 0.07 2.12 0.07 c1.91 0.01 14.11 0.82 15.49 -16.46 c0.2 -1.44 -0.16 -2.89 -0.95 -4.25 " style="fill:#ffffff;"/><path d="M364.59 680.32 l0.14 -6.04 c0.04 -1.45 -1.11 -2.65 -2.56 -2.68 c-1.45 -0.04 -2.65 1.11 -2.68 2.56 l-0.03 1.3 c-0.48 -0.29 -0.98 -0.56 -1.49 -0.82 l0 -2.89 c0 -1.9 -1.37 -3.44 -3.06 -3.44 c-1.69 0 -3.06 1.54 -3.06 3.44 l0 0.9 c-0.52 -0.09 -1.03 -0.16 -1.54 -0.22 l0 -3.21 c0 -1.9 -1.37 -3.44 -3.06 -3.44 c-1.69 0 -3.06 1.54 -3.06 3.44 l0 3.27 c-0.69 0.11 -1.37 0.25 -2.02 0.43 l0 -12.66 c0 -1.9 -1.37 -3.44 -3.06 -3.44 c-1.69 0 -3.06 1.54 -3.06 3.44 l0 17.75 c-0.19 1.43 -0.74 2.28 -1.69 2.51 c-3.96 -1.34 -7.58 -2.04 -8.89 -0.73 c-1.69 1.68 0.56 4.6 3.33 6.8 l8.75 9.29 c2.28 3.34 5.78 4.67 9.82 5.04 c0.2 0.03 0.39 0.04 0.57 0.05 c0.69 0.05 1.4 0.07 2.12 0.07 c1.91 0.01 14.11 0.82 15.49 -16.46 c0.2 -1.44 -0.16 -2.89 -0.95 -4.25 z " style="stroke:#231f20;stroke-width:1.00;"/><path d="M326.51 662.2 c-0.4 -1.25 -0.63 -2.59 -0.63 -3.98 c0 -7.2 5.83 -13.03 13.03 -13.03 c5.23 0 9.73 3.09 11.8 7.54 l-1.18 0.3 l4.25 3.05 l2.28 -4.71 l-1.29 0.33 c-2.57 -6.23 -8.69 -10.62 -15.85 -10.62 c-9.47 0 -17.14 7.67 -17.14 17.14 c0 1.37 0.16 2.7 0.46 3.98 l4.27 0 z " style="fill:#231f20;"/><path d="M326.51 662.2 c-0.4 -1.25 -0.63 -2.59 -0.63 -3.98 c0 -7.2 5.83 -13.03 13.03 -13.03 c5.23 0 9.73 3.09 11.8 7.54 l-1.18 0.3 l4.25 3.05 l2.28 -4.71 l-1.29 0.33 c-2.57 -6.23 -8.69 -10.62 -15.85 -10.62 c-9.47 0 -17.14 7.67 -17.14 17.14 c0 1.37 0.16 2.7 0.46 3.98 l4.27 0 z " style="stroke:#231f20;stroke-width:1.00;"/><path d="M291.74 664.2 l3.22 -5.11 c0.77 -1.23 2.39 -1.6 3.62 -0.82 c1.23 0.77 1.59 2.39 0.82 3.62 l-0.69 1.1 c0.56 0.02 1.12 0.07 1.69 0.14 l1.6 -2.41 c1.05 -1.58 3.04 -2.1 4.45 -1.17 c1.41 0.93 1.7 2.97 0.65 4.55 l-0.5 0.75 c0.48 0.21 0.94 0.43 1.4 0.66 l1.78 -2.68 c1.05 -1.58 3.04 -2.1 4.45 -1.17 c1.41 0.93 1.7 2.98 0.65 4.55 l-1.81 2.73 c0.52 0.48 1 0.97 1.44 1.48 l7 -10.55 c1.05 -1.58 3.04 -2.1 4.45 -1.17 c1.41 0.94 1.7 2.98 0.65 4.56 l-9.82 14.79 c-0.64 1.3 -0.64 2.31 0.03 3.02 c4.04 1.07 7.44 2.49 7.81 4.31 c0.48 2.33 -3.01 3.52 -6.53 3.83 l-12.42 2.9 c-3.75 1.52 -7.39 0.69 -10.97 -1.23 c-0.18 -0.09 -0.35 -0.18 -0.5 -0.28 c-0.6 -0.34 -1.2 -0.71 -1.8 -1.11 c-1.6 -1.05 -12.22 -7.12 -3.81 -22.28 c0.63 -1.32 1.74 -2.31 3.14 -3.01 " style="fill:#ffffff;"/><path d="M291.74 664.2 l3.22 -5.11 c0.77 -1.23 2.39 -1.6 3.62 -0.82 c1.23 0.77 1.59 2.39 0.82 3.62 l-0.69 1.1 c0.56 0.02 1.12 0.07 1.69 0.14 l1.6 -2.41 c1.05 -1.58 3.04 -2.1 4.45 -1.17 c1.41 0.93 1.7 2.97 0.65 4.55 l-0.5 0.75 c0.48 0.21 0.94 0.43 1.4 0.66 l1.78 -2.68 c1.05 -1.58 3.04 -2.1 4.45 -1.17 c1.41 0.93 1.7 2.98 0.65 4.55 l-1.81 2.73 c0.52 0.48 1 0.97 1.44 1.48 l7 -10.55 c1.05 -1.58 3.04 -2.1 4.45 -1.17 c1.41 0.94 1.7 2.98 0.65 4.56 l-9.82 14.79 c-0.64 1.3 -0.64 2.31 0.03 3.02 c4.04 1.07 7.44 2.49 7.81 4.31 c0.48 2.33 -3.01 3.52 -6.53 3.83 l-12.42 2.9 c-3.75 1.52 -7.39 0.69 -10.97 -1.23 c-0.18 -0.09 -0.35 -0.18 -0.5 -0.28 c-0.6 -0.34 -1.2 -0.71 -1.8 -1.11 c-1.6 -1.05 -12.22 -7.12 -3.81 -22.28 c0.63 -1.32 1.74 -2.31 3.14 -3.01 z " style="stroke:#231f20;stroke-width:1.00;"/><path d="M234.02 653.47 c-3.54 -5.46 -10.09 -8.53 -16.81 -7.25 c-6.7 1.28 -11.65 6.52 -12.94 12.88 l4.32 -0.83 c1.42 -4.07 4.88 -7.28 9.38 -8.14 c4.91 -0.94 9.7 1.19 12.45 5.04 l-1.06 0.5 l4.54 2.14 l1.28 -4.88 l-1.15 0.54 z " style="fill:#231f20;"/><path d="M234.02 653.47 c-3.54 -5.46 -10.09 -8.53 -16.81 -7.25 c-6.7 1.28 -11.65 6.52 -12.94 12.88 l4.32 -0.83 c1.42 -4.07 4.88 -7.28 9.38 -8.14 c4.91 -0.94 9.7 1.19 12.45 5.04 l-1.06 0.5 l4.54 2.14 l1.28 -4.88 l-1.15 0.54 z " style="stroke:#231f20;stroke-width:1.00;"/><path d="M227.42 671.15 l0 -3.17 c-4.79 1.64 -9.88 0.23 -13.2 -3.18 l0.99 -0.65 l-4.89 -1.45 l-0.59 5.06 l1.09 -0.72 c4.36 4.91 11.4 6.99 17.99 4.7 c0.5 -0.18 0.99 -0.37 1.46 -0.59 l-2.85 0 z " style="fill:#231f20;"/><path d="M227.42 671.15 l0 -3.17 c-4.79 1.64 -9.88 0.23 -13.2 -3.18 l0.99 -0.65 l-4.89 -1.45 l-0.59 5.06 l1.09 -0.72 c4.36 4.91 11.4 6.99 17.99 4.7 c0.5 -0.18 0.99 -0.37 1.46 -0.59 l-2.85 0 z " style="stroke:#231f20;stroke-width:1.00;"/><path d="M258.11 675.38 l-2.49 -5.05 c-0.6 -1.21 -2.06 -1.71 -3.27 -1.11 c-1.21 0.59 -1.7 2.06 -1.11 3.27 l0.53 1.09 c-0.52 -0.03 -1.05 -0.04 -1.58 -0.03 l-1.25 -2.39 c-0.82 -1.57 -2.61 -2.24 -4.01 -1.51 c-1.4 0.73 -1.86 2.59 -1.04 4.16 l0.39 0.74 c-0.46 0.15 -0.92 0.31 -1.37 0.48 l-1.38 -2.65 c-0.82 -1.56 -2.61 -2.24 -4.01 -1.51 c-1.4 0.73 -1.86 2.59 -1.04 4.15 l1.41 2.7 c-0.53 0.39 -1.02 0.8 -1.48 1.23 l-5.46 -10.45 c-0.82 -1.57 -2.61 -2.25 -4.01 -1.52 c-1.39 0.73 -1.86 2.59 -1.05 4.15 l7.66 14.65 c0.46 1.26 0.37 2.2 -0.31 2.8 c-3.85 0.6 -7.14 1.58 -7.66 3.23 c-0.67 2.12 2.45 3.56 5.68 4.18 l11.22 3.89 c3.32 1.77 6.78 1.36 10.28 -0.07 c0.17 -0.06 0.34 -0.13 0.49 -0.21 c0.59 -0.26 1.19 -0.54 1.78 -0.85 c1.58 -0.82 12 -5.41 5.68 -20.26 c-0.45 -1.28 -1.38 -2.31 -2.62 -3.09 " style="fill:#ffffff;"/><path d="M258.11 675.38 l-2.49 -5.05 c-0.6 -1.21 -2.06 -1.71 -3.27 -1.11 c-1.21 0.59 -1.7 2.06 -1.11 3.27 l0.53 1.09 c-0.52 -0.03 -1.05 -0.04 -1.58 -0.03 l-1.25 -2.39 c-0.82 -1.57 -2.61 -2.24 -4.01 -1.51 c-1.4 0.73 -1.86 2.59 -1.04 4.16 l0.39 0.74 c-0.46 0.15 -0.92 0.31 -1.37 0.48 l-1.38 -2.65 c-0.82 -1.56 -2.61 -2.24 -4.01 -1.51 c-1.4 0.73 -1.86 2.59 -1.04 4.15 l1.41 2.7 c-0.53 0.39 -1.02 0.8 -1.48 1.23 l-5.46 -10.45 c-0.82 -1.57 -2.61 -2.25 -4.01 -1.52 c-1.39 0.73 -1.86 2.59 -1.05 4.15 l7.66 14.65 c0.46 1.26 0.37 2.2 -0.31 2.8 c-3.85 0.6 -7.14 1.58 -7.66 3.23 c-0.67 2.12 2.45 3.56 5.68 4.18 l11.22 3.89 c3.32 1.77 6.78 1.36 10.28 -0.07 c0.17 -0.06 0.34 -0.13 0.49 -0.21 c0.59 -0.26 1.19 -0.54 1.78 -0.85 c1.58 -0.82 12 -5.41 5.68 -20.26 c-0.45 -1.28 -1.38 -2.31 -2.62 -3.09 z " style="stroke:#231f20;stroke-width:1.00;"/><path d="M176.7 658.35 l2.97 -4.78 c0.71 -1.15 2.21 -1.5 3.36 -0.79 c1.14 0.71 1.49 2.22 0.78 3.36 l-0.64 1.03 c0.52 0.02 1.05 0.06 1.58 0.12 l1.48 -2.25 c0.97 -1.47 2.83 -1.97 4.14 -1.11 c1.32 0.86 1.6 2.76 0.63 4.24 l-0.46 0.7 c0.45 0.19 0.88 0.4 1.31 0.61 l1.64 -2.5 c0.97 -1.48 2.82 -1.97 4.14 -1.11 c1.32 0.87 1.6 2.76 0.63 4.24 l-1.67 2.55 c0.49 0.44 0.94 0.9 1.35 1.37 l6.47 -9.86 c0.97 -1.48 2.82 -1.98 4.14 -1.11 c1.31 0.86 1.6 2.76 0.63 4.24 l-9.07 13.82 c-0.58 1.21 -0.59 2.15 0.04 2.81 c3.77 0.98 6.95 2.28 7.3 3.97 c0.46 2.17 -2.78 3.3 -6.06 3.59 l-11.55 2.77 c-3.48 1.43 -6.88 0.68 -10.22 -1.09 c-0.17 -0.08 -0.32 -0.16 -0.46 -0.25 c-0.56 -0.31 -1.13 -0.66 -1.69 -1.02 c-1.49 -0.97 -11.41 -6.57 -3.66 -20.73 c0.58 -1.23 1.6 -2.16 2.91 -2.82 " style="fill:#ffffff;"/><path d="M176.7 658.35 l2.97 -4.78 c0.71 -1.15 2.21 -1.5 3.36 -0.79 c1.14 0.71 1.49 2.22 0.78 3.36 l-0.64 1.03 c0.52 0.02 1.05 0.06 1.58 0.12 l1.48 -2.25 c0.97 -1.47 2.83 -1.97 4.14 -1.11 c1.32 0.86 1.6 2.76 0.63 4.24 l-0.46 0.7 c0.45 0.19 0.88 0.4 1.31 0.61 l1.64 -2.5 c0.97 -1.48 2.82 -1.97 4.14 -1.11 c1.32 0.87 1.6 2.76 0.63 4.24 l-1.67 2.55 c0.49 0.44 0.94 0.9 1.35 1.37 l6.47 -9.86 c0.97 -1.48 2.82 -1.98 4.14 -1.11 c1.31 0.86 1.6 2.76 0.63 4.24 l-9.07 13.82 c-0.58 1.21 -0.59 2.15 0.04 2.81 c3.77 0.98 6.95 2.28 7.3 3.97 c0.46 2.17 -2.78 3.3 -6.06 3.59 l-11.55 2.77 c-3.48 1.43 -6.88 0.68 -10.22 -1.09 c-0.17 -0.08 -0.32 -0.16 -0.46 -0.25 c-0.56 -0.31 -1.13 -0.66 -1.69 -1.02 c-1.49 -0.97 -11.41 -6.57 -3.66 -20.73 c0.58 -1.23 1.6 -2.16 2.91 -2.82 z " style="stroke:#231f20;stroke-width:1.00;"/><text class="f98" font-size="10.00" style="fill:#444141"><tspan x="213.86" y="244.34" textLength="47.98">double tap</tspan></text><path d="M191.33 238.56 c0 3.37 -2.73 6.1 -6.1 6.1 c-3.37 0 -6.1 -2.73 -6.1 -6.1 c0 -3.37 2.73 -6.1 6.1 -6.1 c3.37 0 6.1 2.73 6.1 6.1 z " style="stroke:#231f20;stroke-width:1.00;"/><path d="M194.76 238.56 c0 5.26 -4.27 9.53 -9.53 9.53 c-5.27 0 -9.53 -4.27 -9.53 -9.53 c0 -5.27 4.27 -9.53 9.53 -9.53 c5.26 0 9.53 4.27 9.53 9.53 z " style="stroke:#231f20;stroke-width:2.00;"/><path d="M211.71 262.03 l0 -5.89 c0 -1.46 -1.18 -2.64 -2.63 -2.64 c-1.14 0 -2.11 0.73 -2.48 1.75 c-0.63 -0.43 -1.29 -0.83 -1.98 -1.2 l0 -2.42 c0 -1.91 -1.38 -3.46 -3.08 -3.46 c-1.7 0 -3.08 1.55 -3.08 3.46 l0 0.25 c-0.68 -0.13 -1.36 -0.24 -2.03 -0.31 l0 -2.98 c0 -1.91 -1.38 -3.45 -3.08 -3.45 c-1.7 0 -3.08 1.54 -3.08 3.45 l0 3.04 c-0.7 0.11 -1.38 0.25 -2.03 0.43 l0 -12.73 c0 -1.91 -1.38 -3.46 -3.08 -3.46 c-1.7 0 -3.08 1.55 -3.08 3.46 l0 17.85 c-0.19 1.44 -0.74 2.29 -1.7 2.52 c-3.98 -1.35 -7.62 -2.06 -8.94 -0.74 c-1.7 1.69 0.56 4.63 3.35 6.84 l8.8 9.34 c2.29 3.35 5.81 4.69 9.87 5.07 c0.2 0.03 0.39 0.04 0.57 0.05 c0.7 0.05 1.41 0.07 2.13 0.08 c1.92 0 14.19 0.82 15.58 -16.55 c0.08 -0.59 0.07 -1.18 -0.02 -1.76 " style="fill:#ffffff;"/><path d="M211.71 262.03 l0 -5.89 c0 -1.46 -1.18 -2.64 -2.63 -2.64 c-1.14 0 -2.11 0.73 -2.48 1.75 c-0.63 -0.43 -1.29 -0.83 -1.98 -1.2 l0 -2.42 c0 -1.91 -1.38 -3.46 -3.08 -3.46 c-1.7 0 -3.08 1.55 -3.08 3.46 l0 0.25 c-0.68 -0.13 -1.36 -0.24 -2.03 -0.31 l0 -2.98 c0 -1.91 -1.38 -3.45 -3.08 -3.45 c-1.7 0 -3.08 1.54 -3.08 3.45 l0 3.04 c-0.7 0.11 -1.38 0.25 -2.03 0.43 l0 -12.73 c0 -1.91 -1.38 -3.46 -3.08 -3.46 c-1.7 0 -3.08 1.55 -3.08 3.46 l0 17.85 c-0.19 1.44 -0.74 2.29 -1.7 2.52 c-3.98 -1.35 -7.62 -2.06 -8.94 -0.74 c-1.7 1.69 0.56 4.63 3.35 6.84 l8.8 9.34 c2.29 3.35 5.81 4.69 9.87 5.07 c0.2 0.03 0.39 0.04 0.57 0.05 c0.7 0.05 1.41 0.07 2.13 0.08 c1.92 0 14.19 0.82 15.58 -16.55 c0.08 -0.59 0.07 -1.18 -0.02 -1.76 z " style="stroke:#231f20;stroke-width:1.00;"/><path d="M189.74 306.98 c0 2.8 -2.27 5.07 -5.07 5.07 c-2.8 0 -5.06 -2.27 -5.06 -5.07 c0 -2.8 2.27 -5.07 5.06 -5.07 c2.8 0 5.07 2.27 5.07 5.07 " style="fill:#231f20;"/><path d="M189.74 306.98 c0 2.8 -2.27 5.07 -5.07 5.07 c-2.8 0 -5.06 -2.27 -5.06 -5.07 c0 -2.8 2.27 -5.07 5.06 -5.07 c2.8 0 5.07 2.27 5.07 5.07 z " style="stroke:#231f20;stroke-width:1.00;"/><path d="M210.21 329.5 l0 -5.68 c0 -1.4 -1.13 -2.54 -2.53 -2.54 c-1.1 0 -2.04 0.7 -2.39 1.69 c-0.6 -0.41 -1.24 -0.8 -1.91 -1.15 l0 -2.33 c0 -1.84 -1.33 -3.33 -2.96 -3.33 c-1.64 0 -2.97 1.49 -2.97 3.33 l0 0.25 c-0.66 -0.13 -1.31 -0.23 -1.96 -0.3 l0 -2.87 c0 -1.84 -1.33 -3.33 -2.96 -3.33 c-1.64 0 -2.96 1.49 -2.96 3.33 l0 2.93 c-0.68 0.1 -1.33 0.24 -1.96 0.41 l0 -12.26 c0 -1.84 -1.33 -3.33 -2.96 -3.33 c-1.64 0 -2.97 1.49 -2.97 3.33 l0 17.19 c-0.18 1.38 -0.72 2.21 -1.64 2.43 c-3.84 -1.3 -7.34 -1.98 -8.61 -0.71 c-1.63 1.63 0.54 4.46 3.22 6.59 l8.47 9 c2.21 3.23 5.59 4.52 9.51 4.88 c0.19 0.03 0.38 0.04 0.55 0.04 c0.67 0.05 1.35 0.07 2.05 0.07 c1.85 0.01 13.67 0.8 15 -15.95 c0.08 -0.57 0.07 -1.13 -0.02 -1.7 " style="fill:#ffffff;"/><path d="M210.21 329.5 l0 -5.68 c0 -1.4 -1.13 -2.54 -2.53 -2.54 c-1.1 0 -2.04 0.7 -2.39 1.69 c-0.6 -0.41 -1.24 -0.8 -1.91 -1.15 l0 -2.33 c0 -1.84 -1.33 -3.33 -2.96 -3.33 c-1.64 0 -2.97 1.49 -2.97 3.33 l0 0.25 c-0.66 -0.13 -1.31 -0.23 -1.96 -0.3 l0 -2.87 c0 -1.84 -1.33 -3.33 -2.96 -3.33 c-1.64 0 -2.96 1.49 -2.96 3.33 l0 2.93 c-0.68 0.1 -1.33 0.24 -1.96 0.41 l0 -12.26 c0 -1.84 -1.33 -3.33 -2.96 -3.33 c-1.64 0 -2.97 1.49 -2.97 3.33 l0 17.19 c-0.18 1.38 -0.72 2.21 -1.64 2.43 c-3.84 -1.3 -7.34 -1.98 -8.61 -0.71 c-1.63 1.63 0.54 4.46 3.22 6.59 l8.47 9 c2.21 3.23 5.59 4.52 9.51 4.88 c0.19 0.03 0.38 0.04 0.55 0.04 c0.67 0.05 1.35 0.07 2.05 0.07 c1.85 0.01 13.67 0.8 15 -15.95 c0.08 -0.57 0.07 -1.13 -0.02 -1.7 z " style="stroke:#231f20;stroke-width:1.00;"/><path d="M189.74 374.72 c0 2.8 -2.27 5.07 -5.07 5.07 c-2.8 0 -5.07 -2.27 -5.07 -5.07 c0 -2.8 2.27 -5.07 5.07 -5.07 c2.8 0 5.07 2.27 5.07 5.07 " style="fill:#231f20;"/><path d="M189.74 374.72 c0 2.8 -2.27 5.07 -5.07 5.07 c-2.8 0 -5.07 -2.27 -5.07 -5.07 c0 -2.8 2.27 -5.07 5.07 -5.07 c2.8 0 5.07 2.27 5.07 5.07 z " style="stroke:#231f20;stroke-width:1.00;"/><path d="M199.27 369.84 c0 3.27 -2.65 5.92 -5.92 5.92 c-3.27 0 -5.92 -2.65 -5.92 -5.92 c0 -3.27 2.65 -5.92 5.92 -5.92 c3.27 0 5.92 2.65 5.92 5.92 " style="fill:#ffffff;"/><path d="M199.27 369.84 c0 3.27 -2.65 5.92 -5.92 5.92 c-3.27 0 -5.92 -2.65 -5.92 -5.92 c0 -3.27 2.65 -5.92 5.92 -5.92 c3.27 0 5.92 2.65 5.92 5.92 z " style="stroke:#231f20;stroke-width:1.00;"/><path d="M210.21 397.23 l0 -5.68 c0 -1.4 -1.14 -3.39 -2.54 -3.39 c-1.1 0 -2.04 0.7 -2.39 1.69 l-1.06 -0.3 l0 -2.33 c0 -1.84 -1.32 -3.32 -2.96 -3.32 c-1.64 0 -2.97 1.49 -2.97 3.32 l0 0.25 c-0.66 -0.13 -1.31 -0.23 -1.96 -0.3 l0 -15.69 c0 -1.84 -1.33 -3.32 -2.96 -3.32 c-1.64 0 -2.97 1.49 -2.97 3.32 l0 15.75 c-0.67 0.1 -2.18 0.24 -2.81 0.42 l0 -12.26 c0 -1.84 -1.33 -3.33 -2.97 -3.33 c-1.64 0 -2.97 1.49 -2.97 3.33 l0 17.19 c-0.18 1.39 -0.72 2.21 -1.64 2.43 c-3.84 -1.3 -7.34 -1.98 -8.62 -0.71 c-1.63 1.63 0.54 4.46 3.23 6.59 l8.47 9 c2.21 3.23 5.59 4.52 9.51 4.88 c0.19 0.03 0.38 0.04 0.55 0.04 c0.67 0.05 1.35 0.07 2.05 0.07 c1.85 0 13.67 0.79 15 -15.95 c0.08 -0.57 0.07 -1.13 -0.02 -1.7 " style="fill:#ffffff;"/><path d="M210.21 397.23 l0 -5.68 c0 -1.4 -1.14 -3.39 -2.54 -3.39 c-1.1 0 -2.04 0.7 -2.39 1.69 l-1.06 -0.3 l0 -2.33 c0 -1.84 -1.32 -3.32 -2.96 -3.32 c-1.64 0 -2.97 1.49 -2.97 3.32 l0 0.25 c-0.66 -0.13 -1.31 -0.23 -1.96 -0.3 l0 -15.69 c0 -1.84 -1.33 -3.32 -2.96 -3.32 c-1.64 0 -2.97 1.49 -2.97 3.32 l0 15.75 c-0.67 0.1 -2.18 0.24 -2.81 0.42 l0 -12.26 c0 -1.84 -1.33 -3.33 -2.97 -3.33 c-1.64 0 -2.97 1.49 -2.97 3.33 l0 17.19 c-0.18 1.39 -0.72 2.21 -1.64 2.43 c-3.84 -1.3 -7.34 -1.98 -8.62 -0.71 c-1.63 1.63 0.54 4.46 3.23 6.59 l8.47 9 c2.21 3.23 5.59 4.52 9.51 4.88 c0.19 0.03 0.38 0.04 0.55 0.04 c0.67 0.05 1.35 0.07 2.05 0.07 c1.85 0 13.67 0.79 15 -15.95 c0.08 -0.57 0.07 -1.13 -0.02 -1.7 z " style="stroke:#231f20;stroke-width:1.00;"/><path d="M170.98 424.27 l387.3 0 " style="stroke:#a7a5a6;stroke-width:0.25;stroke-dasharray:2.0,2.0;"/><text class="f98" font-size="10.00" style="fill:#444141"><tspan x="354.01" y="447.57" textLength="184.44">Rapidly touch surface twice with fingertip</tspan>
<tspan x="213.86" y="448.24" textLength="47.98">double tap</tspan></text><path d="M191.33 442.47 c0 3.37 -2.73 6.1 -6.1 6.1 c-3.37 0 -6.1 -2.73 -6.1 -6.1 c0 -3.37 2.73 -6.1 6.1 -6.1 c3.37 0 6.1 2.73 6.1 6.1 z " style="stroke:#231f20;stroke-width:1.00;"/><path d="M194.76 442.47 c0 5.26 -4.27 9.53 -9.53 9.53 c-5.27 0 -9.53 -4.27 -9.53 -9.53 c0 -5.27 4.27 -9.54 9.53 -9.54 c5.26 0 9.53 4.27 9.53 9.54 z " style="stroke:#231f20;stroke-width:2.00;"/><path d="M211.71 465.93 l0 -5.89 c0 -1.46 -1.18 -2.64 -2.63 -2.64 c-1.14 0 -2.11 0.73 -2.48 1.75 c-0.63 -0.43 -1.29 -0.83 -1.98 -1.2 l0 -2.42 c0 -1.91 -1.38 -3.45 -3.08 -3.45 c-1.7 0 -3.08 1.55 -3.08 3.45 l0 0.25 c-0.68 -0.13 -1.36 -0.23 -2.03 -0.31 l0 -2.98 c0 -1.91 -1.38 -3.45 -3.08 -3.45 c-1.7 0 -3.08 1.55 -3.08 3.45 l0 3.04 c-0.7 0.11 -1.38 0.25 -2.03 0.43 l0 -12.73 c0 -1.91 -1.38 -3.46 -3.08 -3.46 c-1.7 0 -3.08 1.55 -3.08 3.46 l0 17.85 c-0.19 1.44 -0.74 2.29 -1.7 2.52 c-3.98 -1.35 -7.62 -2.06 -8.94 -0.74 c-1.7 1.69 0.56 4.63 3.35 6.84 l8.8 9.34 c2.29 3.35 5.81 4.69 9.87 5.07 c0.2 0.03 0.39 0.04 0.57 0.05 c0.7 0.05 1.41 0.07 2.13 0.08 c1.92 0 14.19 0.82 15.58 -16.55 c0.08 -0.59 0.07 -1.18 -0.02 -1.76 " style="fill:#ffffff;"/><path d="M211.71 465.93 l0 -5.89 c0 -1.46 -1.18 -2.64 -2.63 -2.64 c-1.14 0 -2.11 0.73 -2.48 1.75 c-0.63 -0.43 -1.29 -0.83 -1.98 -1.2 l0 -2.42 c0 -1.91 -1.38 -3.45 -3.08 -3.45 c-1.7 0 -3.08 1.55 -3.08 3.45 l0 0.25 c-0.68 -0.13 -1.36 -0.23 -2.03 -0.31 l0 -2.98 c0 -1.91 -1.38 -3.45 -3.08 -3.45 c-1.7 0 -3.08 1.55 -3.08 3.45 l0 3.04 c-0.7 0.11 -1.38 0.25 -2.03 0.43 l0 -12.73 c0 -1.91 -1.38 -3.46 -3.08 -3.46 c-1.7 0 -3.08 1.55 -3.08 3.46 l0 17.85 c-0.19 1.44 -0.74 2.29 -1.7 2.52 c-3.98 -1.35 -7.62 -2.06 -8.94 -0.74 c-1.7 1.69 0.56 4.63 3.35 6.84 l8.8 9.34 c2.29 3.35 5.81 4.69 9.87 5.07 c0.2 0.03 0.39 0.04 0.57 0.05 c0.7 0.05 1.41 0.07 2.13 0.08 c1.92 0 14.19 0.82 15.58 -16.55 c0.08 -0.59 0.07 -1.18 -0.02 -1.76 z " style="stroke:#231f20;stroke-width:1.00;"/><path d="M192.46 509.26 c0 3.93 -3.19 7.11 -7.11 7.11 c-3.93 0 -7.11 -3.19 -7.11 -7.11 c0 -3.93 3.18 -7.11 7.11 -7.11 c3.93 0 7.11 3.18 7.11 7.11 z " style="stroke:#231f20;stroke-width:2.00;"/><path d="M211.71 533.07 l0 -5.89 c0 -1.46 -1.18 -2.64 -2.63 -2.64 c-1.14 0 -2.11 0.73 -2.48 1.75 c-0.63 -0.43 -1.29 -0.83 -1.98 -1.2 l0 -2.42 c0 -1.91 -1.38 -3.46 -3.08 -3.46 c-1.7 0 -3.08 1.55 -3.08 3.46 l0 0.25 c-0.68 -0.13 -1.36 -0.24 -2.03 -0.31 l0 -2.98 c0 -1.91 -1.38 -3.45 -3.08 -3.45 c-1.7 0 -3.08 1.54 -3.08 3.45 l0 3.04 c-0.7 0.11 -1.38 0.25 -2.03 0.43 l0 -12.73 c0 -1.91 -1.38 -3.45 -3.08 -3.45 c-1.7 0 -3.08 1.55 -3.08 3.45 l0 17.85 c-0.19 1.44 -0.74 2.29 -1.7 2.52 c-3.98 -1.35 -7.62 -2.06 -8.94 -0.74 c-1.7 1.69 0.56 4.63 3.35 6.84 l8.79 9.34 c2.29 3.35 5.81 4.69 9.87 5.07 c0.2 0.03 0.39 0.04 0.57 0.05 c0.7 0.05 1.41 0.07 2.13 0.08 c1.92 0 14.19 0.82 15.58 -16.55 c0.08 -0.59 0.07 -1.18 -0.02 -1.76 " style="fill:#ffffff;"/><path d="M211.71 533.07 l0 -5.89 c0 -1.46 -1.18 -2.64 -2.63 -2.64 c-1.14 0 -2.11 0.73 -2.48 1.75 c-0.63 -0.43 -1.29 -0.83 -1.98 -1.2 l0 -2.42 c0 -1.91 -1.38 -3.46 -3.08 -3.46 c-1.7 0 -3.08 1.55 -3.08 3.46 l0 0.25 c-0.68 -0.13 -1.36 -0.24 -2.03 -0.31 l0 -2.98 c0 -1.91 -1.38 -3.45 -3.08 -3.45 c-1.7 0 -3.08 1.54 -3.08 3.45 l0 3.04 c-0.7 0.11 -1.38 0.25 -2.03 0.43 l0 -12.73 c0 -1.91 -1.38 -3.45 -3.08 -3.45 c-1.7 0 -3.08 1.55 -3.08 3.45 l0 17.85 c-0.19 1.44 -0.74 2.29 -1.7 2.52 c-3.98 -1.35 -7.62 -2.06 -8.94 -0.74 c-1.7 1.69 0.56 4.63 3.35 6.84 l8.79 9.34 c2.29 3.35 5.81 4.69 9.87 5.07 c0.2 0.03 0.39 0.04 0.57 0.05 c0.7 0.05 1.41 0.07 2.13 0.08 c1.92 0 14.19 0.82 15.58 -16.55 c0.08 -0.59 0.07 -1.18 -0.02 -1.76 z " style="stroke:#231f20;stroke-width:1.00;"/><path d="M170.98 493.48 l387.3 0 " style="stroke:#a7a5a6;stroke-width:0.25;stroke-dasharray:2.0,2.0;"/><text class="f98" font-size="10.00" style="fill:#444141"><tspan x="354.01" y="516.78" textLength="167.96">Touch specific corner of surface with </tspan>
<tspan x="354.01" y="528.78" textLength="39.26">fingertip </tspan>
<tspan x="213.86" y="517.45" textLength="45.93">corner tap</tspan></text><path d="M170.86 575.35 l5.64 -4.74 l0 1.93 l28.96 0 l5.46 0 l0 -1.93 l5.64 4.74 l-5.64 4.74 l0 -1.93 l-28.96 0 l-5.46 0 l0 1.93 l-5.64 -4.74 z " style="fill:#231f20;"/><path d="M170.86 575.35 l5.64 -4.74 l0 1.93 l28.96 0 l5.46 0 l0 -1.93 l5.64 4.74 l-5.64 4.74 l0 -1.93 l-28.96 0 l-5.46 0 l0 1.93 l-5.64 -4.74 z " style="stroke:#231f20;stroke-width:1.00;"/><path d="M213.23 603.43 l1.27 -9.04 c0.21 -1.52 -0.84 -2.92 -2.36 -3.13 c-1.51 -0.21 -2.92 0.84 -3.13 2.36 l-0.26 1.84 c-0.54 -0.49 -1.13 -0.96 -1.74 -1.4 l0.76 -5.4 c0.28 -1.98 -0.93 -3.8 -2.7 -4.04 c-1.77 -0.25 -3.43 1.16 -3.71 3.14 l-0.44 3.14 c-0.69 -0.24 -1.38 -0.44 -2.07 -0.62 l2.23 -15.9 c0.28 -1.98 -0.93 -3.8 -2.7 -4.04 c-1.77 -0.25 -3.43 1.16 -3.71 3.15 l-2.24 15.96 c-0.75 0.01 -1.47 0.06 -2.18 0.16 l1.86 -13.26 c0.28 -1.98 -0.93 -3.8 -2.7 -4.05 c-1.77 -0.25 -3.43 1.16 -3.71 3.15 l-2.61 18.55 c-0.06 0.21 -0.12 0.39 -0.19 0.57 c-0.95 0.04 -1.89 0.26 -2.74 0.64 c-3.28 1.44 -2.98 10.78 -1.38 13.03 c1.1 1.55 2.04 2.84 2.88 3.92 c2.16 5.23 6.98 7.2 12.68 8.02 c2 0.29 14.65 2.94 18.64 -14.95 c0.17 -0.59 0.24 -1.2 0.23 -1.81 " style="fill:#ffffff;"/><path d="M213.23 603.43 l1.27 -9.04 c0.21 -1.52 -0.84 -2.92 -2.36 -3.13 c-1.51 -0.21 -2.92 0.84 -3.13 2.36 l-0.26 1.84 c-0.54 -0.49 -1.13 -0.96 -1.74 -1.4 l0.76 -5.4 c0.28 -1.98 -0.93 -3.8 -2.7 -4.04 c-1.77 -0.25 -3.43 1.16 -3.71 3.14 l-0.44 3.14 c-0.69 -0.24 -1.38 -0.44 -2.07 -0.62 l2.23 -15.9 c0.28 -1.98 -0.93 -3.8 -2.7 -4.04 c-1.77 -0.25 -3.43 1.16 -3.71 3.15 l-2.24 15.96 c-0.75 0.01 -1.47 0.06 -2.18 0.16 l1.86 -13.26 c0.28 -1.98 -0.93 -3.8 -2.7 -4.05 c-1.77 -0.25 -3.43 1.16 -3.71 3.15 l-2.61 18.55 c-0.06 0.21 -0.12 0.39 -0.19 0.57 c-0.95 0.04 -1.89 0.26 -2.74 0.64 c-3.28 1.44 -2.98 10.78 -1.38 13.03 c1.1 1.55 2.04 2.84 2.88 3.92 c2.16 5.23 6.98 7.2 12.68 8.02 c2 0.29 14.65 2.94 18.64 -14.95 c0.17 -0.59 0.24 -1.2 0.23 -1.81 z " style="stroke:#231f20;stroke-width:1.00;"/><path d="M170.98 630.48 l387.3 0 " style="stroke:#a7a5a6;stroke-width:0.25;stroke-dasharray:2.0,2.0;"/><path d="M228.92 184.58 c-0.52 2.58 -3.09 4.27 -5.74 3.77 c-2.66 -0.5 -4.4 -3 -3.88 -5.58 c0.52 -2.58 3.09 -4.27 5.74 -3.77 c2.66 0.5 4.39 3 3.88 5.58 " style="fill:#231f20;"/><path d="M228.92 184.58 c-0.52 2.58 -3.09 4.27 -5.74 3.77 c-2.66 -0.5 -4.4 -3 -3.88 -5.58 c0.52 -2.58 3.09 -4.27 5.74 -3.77 c2.66 0.5 4.39 3 3.88 5.58 z " style="stroke:#231f20;stroke-width:1.00;"/><path d="M244.8 164.45 c-0.51 2.58 -3.09 4.27 -5.74 3.77 c-2.66 -0.5 -4.39 -3 -3.88 -5.58 c0.52 -2.58 3.09 -4.27 5.74 -3.77 c2.66 0.5 4.39 3 3.88 5.58 " style="fill:#231f20;"/><path d="M244.8 164.45 c-0.51 2.58 -3.09 4.27 -5.74 3.77 c-2.66 -0.5 -4.39 -3 -3.88 -5.58 c0.52 -2.58 3.09 -4.27 5.74 -3.77 c2.66 0.5 4.39 3 3.88 5.58 z " style="stroke:#231f20;stroke-width:1.00;"/><path d="M246.58 177.15 c0.13 1.47 -1.73 2.83 -4.16 3.03 c-2.43 0.21 -4.51 -0.82 -4.64 -2.29 c-0.13 -1.47 1.73 -2.83 4.16 -3.03 c2.43 -0.21 4.51 0.82 4.64 2.29 " style="fill:#ffffff;"/><path d="M246.58 177.15 c0.13 1.47 -1.73 2.83 -4.16 3.03 c-2.43 0.21 -4.51 -0.82 -4.64 -2.29 c-0.13 -1.47 1.73 -2.83 4.16 -3.03 c2.43 -0.21 4.51 0.82 4.64 2.29 z " style="stroke:#231f20;stroke-width:1.00;"/><path d="M255.38 181.78 c-0.33 -0.06 -0.66 -0.04 -0.97 0.02 c0.36 -1.38 -0.35 -2.85 -1.73 -3.45 c-0.77 -0.33 -1.61 -0.33 -2.34 -0.06 l-0.05 -1.83 c-0.01 -0.57 -0.92 -1.43 -1.97 -2.25 l0.99 -3.41 c0.45 -1.55 -4.27 -6.73 -4.27 -6.73 c-1.04 -1.54 -3.28 -2.23 -5.02 -1.53 c-1.74 0.7 -2.3 2.51 -1.26 4.05 l3.1 4.61 c0 0 -2.54 10.93 -4.24 12.53 c-1.39 1.31 -5.81 -0.25 -6.42 -0.59 c-3.5 -1.23 -6.69 -1.87 -7.9 -0.75 c-1.59 1.47 0.42 4.12 2.92 6.14 l5 5.4 c-0.42 7.04 3.97 10.2 9.76 12.14 c1.66 0.55 9.51 7.28 15.84 -6.94 c0.83 -4.78 0.5 -14.63 0.5 -14.63 c0.24 -1.28 -0.64 -2.49 -1.95 -2.72 " style="fill:#ffffff;"/><path d="M255.38 181.78 c-0.33 -0.06 -0.66 -0.04 -0.97 0.02 c0.36 -1.38 -0.35 -2.85 -1.73 -3.45 c-0.77 -0.33 -1.61 -0.33 -2.34 -0.06 l-0.05 -1.83 c-0.01 -0.57 -0.92 -1.43 -1.97 -2.25 l0.99 -3.41 c0.45 -1.55 -4.27 -6.73 -4.27 -6.73 c-1.04 -1.54 -3.28 -2.23 -5.02 -1.53 c-1.74 0.7 -2.3 2.51 -1.26 4.05 l3.1 4.61 c0 0 -2.54 10.93 -4.24 12.53 c-1.39 1.31 -5.81 -0.25 -6.42 -0.59 c-3.5 -1.23 -6.69 -1.87 -7.9 -0.75 c-1.59 1.47 0.42 4.12 2.92 6.14 l5 5.4 c-0.42 7.04 3.97 10.2 9.76 12.14 c1.66 0.55 9.51 7.28 15.84 -6.94 c0.83 -4.78 0.5 -14.63 0.5 -14.63 c0.24 -1.28 -0.64 -2.49 -1.95 -2.72 z " style="stroke:#231f20;stroke-width:1.00;"/><path d="M180.57 183.76 c-0.52 2.58 -3.09 4.27 -5.74 3.77 c-2.66 -0.5 -4.4 -3 -3.88 -5.58 c0.52 -2.58 3.09 -4.27 5.74 -3.77 c2.65 0.5 4.39 3 3.88 5.58 " style="fill:#231f20;"/><path d="M180.57 183.76 c-0.52 2.58 -3.09 4.27 -5.74 3.77 c-2.66 -0.5 -4.4 -3 -3.88 -5.58 c0.52 -2.58 3.09 -4.27 5.74 -3.77 c2.65 0.5 4.39 3 3.88 5.58 z " style="stroke:#231f20;stroke-width:1.00;"/><path d="M181.49 176.24 c-0.52 2.58 -3.09 4.27 -5.74 3.77 c-2.66 -0.5 -4.4 -3 -3.88 -5.58 c0.52 -2.58 3.09 -4.27 5.74 -3.77 c2.66 0.5 4.4 3 3.88 5.58 " style="fill:#231f20;"/><path d="M181.49 176.24 c-0.52 2.58 -3.09 4.27 -5.74 3.77 c-2.66 -0.5 -4.4 -3 -3.88 -5.58 c0.52 -2.58 3.09 -4.27 5.74 -3.77 c2.66 0.5 4.4 3 3.88 5.58 z " style="stroke:#231f20;stroke-width:1.00;"/><path d="M193.25 182.55 c0.69 1.08 0.03 2.7 -1.47 3.6 c-1.5 0.9 -3.28 0.75 -3.97 -0.34 c-0.69 -1.08 -0.03 -2.7 1.47 -3.6 c1.5 -0.9 3.28 -0.75 3.97 0.34 " style="fill:#ffffff;"/><path d="M193.25 182.55 c0.69 1.08 0.03 2.7 -1.47 3.6 c-1.5 0.9 -3.28 0.75 -3.97 -0.34 c-0.69 -1.08 -0.03 -2.7 1.47 -3.6 c1.5 -0.9 3.28 -0.75 3.97 0.34 z " style="stroke:#211d1d;stroke-width:1.00;"/><path d="M209.06 183.5 c-0.44 -0.22 -0.92 -0.29 -1.38 -0.24 c0.54 -1.36 0 -2.93 -1.34 -3.67 c-0.75 -0.41 -1.6 -0.49 -2.38 -0.27 c-0.22 -0.12 -0.52 -0.22 -0.87 -0.3 c-0.39 -0.74 -1.42 -3.38 -2.31 -3.6 c-0.47 -0.12 -4.02 0.37 -6.13 2.15 l-3.68 -4 c-0.65 -1.49 -10.59 -0.94 -10.59 -0.94 c-1.8 -0.57 -4 0.26 -4.9 1.85 c-0.9 1.6 -0.18 3.36 1.62 3.93 l7.61 0.19 l1.89 2.24 l-1.38 5.57 c-4.17 -6.77 -7.47 -6.62 -9.36 -5.36 c-1.81 1.2 -0.26 4.13 1.88 6.52 l5.13 8.45 c0.17 0.17 0.66 1.86 0.83 2.02 c1.15 6.24 6.75 8.06 12.49 8.98 c1.74 0.27 10.64 5.62 14.41 -9.44 c-0.02 -3.97 -0.39 -6.97 -1.36 -9.28 l0.86 -1.63 c0.61 -1.15 0.15 -2.56 -1.04 -3.15 " style="fill:#ffffff;"/><path d="M209.06 183.5 c-0.44 -0.22 -0.92 -0.29 -1.38 -0.24 c0.54 -1.36 0 -2.93 -1.34 -3.67 c-0.75 -0.41 -1.6 -0.49 -2.38 -0.27 c-0.22 -0.12 -0.52 -0.22 -0.87 -0.3 c-0.39 -0.74 -1.42 -3.38 -2.31 -3.6 c-0.47 -0.12 -4.02 0.37 -6.13 2.15 l-3.68 -4 c-0.65 -1.49 -10.59 -0.94 -10.59 -0.94 c-1.8 -0.57 -4 0.26 -4.9 1.85 c-0.9 1.6 -0.18 3.36 1.62 3.93 l7.61 0.19 l1.89 2.24 l-1.38 5.57 c-4.17 -6.77 -7.47 -6.62 -9.36 -5.36 c-1.81 1.2 -0.26 4.13 1.88 6.52 l5.13 8.45 c0.17 0.17 0.66 1.86 0.83 2.02 c1.15 6.24 6.75 8.06 12.49 8.98 c1.74 0.27 10.64 5.62 14.41 -9.44 c-0.02 -3.97 -0.39 -6.97 -1.36 -9.28 l0.86 -1.63 c0.61 -1.15 0.15 -2.56 -1.04 -3.15 z " style="stroke:#231f20;stroke-width:1.00;"/>
</svg>
