
<?xml-stylesheet href="css/stylesheet.css" type="text/css"?>
<svg class="crocodoc-1VEYgr crocodoc-page-svg" version="1.1"
    xmlns="http://www.w3.org/2000/svg"
    xmlns:xlink="http://www.w3.org/1999/xlink"
    xml:space="preserve" width="612pt" height="792pt" viewBox="0 0 612 792">
<defs>

</defs>
<path d="M558.27 124.09 l-501.72 0 l0 -23.33 l501.72 0 l0 23.33 z " style="fill:#d3d2d2;"/><text class="f317" font-size="21.00" style="fill:#a7a5a6"><tspan x="95.51" y="46.78" textLength="145.09" style="fill:#444141">touch gesture </tspan>
<tspan x="240.60" y="46.78" textLength="157.48">reference guide</tspan></text><text class="f316" font-size="10.00" style="fill:#444141"><tspan x="270.86" y="174.42" textLength="23.15">drag </tspan>
<tspan x="270.86" y="186.42" textLength="66.3">(across item or</tspan>
<tspan x="270.86" y="198.42" textLength="48.14">off-screen)</tspan>
<tspan x="65.56" y="174.39" textLength="30.73" class="f317" style="fill:#231f20">Delete</tspan></text><text class="f316" font-size="10.00" style="fill:#444141"><tspan x="270.86" y="243.43" textLength="14.45">tap</tspan>
<tspan x="270.86" y="255.43" textLength="52.6">(source and</tspan>
<tspan x="270.86" y="267.43" textLength="51.86">destination)</tspan>
<tspan x="65.56" y="243.40" textLength="45.35" class="f317" style="fill:#231f20">Duplicate</tspan></text><text class="f317" font-size="10.00" style="fill:#231f20"><tspan x="65.56" y="324.22" textLength="26.15" dx="0,0.01,0.01,0.01">Move</tspan></text><text class="f316" font-size="10.00" style="fill:#444141"><tspan x="270.86" y="504.01" textLength="17.96">flick</tspan></text><text class="f316" font-size="10.00" style="fill:#231f20"><tspan x="463.86" y="645.26" textLength="26.11" style="fill:#444141">rotate</tspan>
<tspan x="65.56" y="645.23" textLength="32.05" class="f317" dx="0,0.04,0.04,0.04,0.04,0.04">Rotate</tspan></text><path d="M57.03 32.57 c0 8.69 7.04 15.73 15.73 15.73 c8.69 0 15.73 -7.04 15.73 -15.73 c0 -5.62 -2.95 -10.55 -7.38 -13.33 l-16.69 0 c-4.43 2.78 -7.38 7.71 -7.38 13.33 " style="fill:#ffffff;"/><path d="M57.03 32.57 c0 8.69 7.04 15.73 15.73 15.73 c8.69 0 15.73 -7.04 15.73 -15.73 c0 -5.62 -2.95 -10.55 -7.38 -13.33 l-16.69 0 c-4.43 2.78 -7.38 7.71 -7.38 13.33 z " style="stroke:#7b7979;stroke-width:1.00;"/><path d="M84.21 32.57 c0 6.32 -5.13 11.45 -11.45 11.45 c-6.32 0 -11.45 -5.13 -11.45 -11.45 c0 -6.32 5.13 -11.45 11.45 -11.45 c6.32 0 11.45 5.13 11.45 11.45 " style="fill:#ffffff;"/><path d="M84.21 32.57 c0 6.32 -5.13 11.45 -11.45 11.45 c-6.32 0 -11.45 -5.13 -11.45 -11.45 c0 -6.32 5.13 -11.45 11.45 -11.45 c6.32 0 11.45 5.13 11.45 11.45 z " style="stroke:#4f4c4d;stroke-width:1.50;"/><path d="M79.96 32.57 c0 3.97 -3.22 7.2 -7.19 7.2 c-3.97 0 -7.2 -3.22 -7.2 -7.2 c0 -3.97 3.22 -7.2 7.2 -7.2 c3.97 0 7.19 3.22 7.19 7.2 " style="fill:#ffffff;"/><path d="M79.96 32.57 c0 3.97 -3.22 7.2 -7.19 7.2 c-3.97 0 -7.2 -3.22 -7.2 -7.2 c0 -3.97 3.22 -7.2 7.2 -7.2 c3.97 0 7.19 3.22 7.19 7.2 z " style="stroke:#231f20;stroke-width:2.00;"/><path d="M56.86 52.78 l28.09 0 c-0.01 -0.72 -0.39 -1.4 -1.07 -1.77 c-0.96 -0.53 -2.14 -0.21 -2.73 0.69 c-0.25 -0.49 -0.53 -0.97 -0.85 -1.45 l0.48 -0.86 c0.72 -1.31 0.36 -2.89 -0.81 -3.53 c-0.98 -0.54 -2.21 -0.24 -3.01 0.64 c-0.44 -0.37 -0.89 -0.72 -1.34 -1.04 l0.22 -0.4 c0.72 -1.31 0.36 -2.89 -0.81 -3.53 c-1.17 -0.64 -2.7 -0.1 -3.42 1.21 l-0.24 0.44 c-0.52 -0.19 -1.04 -0.35 -1.56 -0.47 l4.81 -8.74 c0.72 -1.31 0.36 -2.89 -0.81 -3.53 c-1.17 -0.64 -2.7 -0.1 -3.42 1.21 l-6.74 12.26 c-0.67 0.92 -1.38 1.29 -2.12 1.09 c-2.23 -2.43 -4.45 -4.29 -5.86 -3.88 c-1.8 0.52 -1.36 3.39 -0.29 5.96 l1.48 5.72 z " style="stroke:#231f20;stroke-width:1.00;"/><path d="M89.55 53.17 l-33.54 0 l0 -33.54 l33.54 0 l0 33.54 z " style="stroke:#4f4c4d;stroke-width:0.30;"/><path d="M56.86 53.02 l28.09 0 c-0.01 -0.72 -0.39 -1.4 -1.07 -1.77 c-0.96 -0.53 -2.14 -0.21 -2.73 0.69 c-0.25 -0.49 -0.53 -0.97 -0.85 -1.45 l0.48 -0.86 c0.72 -1.31 0.36 -2.89 -0.81 -3.53 c-0.98 -0.54 -2.21 -0.24 -3.01 0.64 c-0.44 -0.37 -0.89 -0.72 -1.34 -1.04 l0.22 -0.4 c0.72 -1.31 0.36 -2.89 -0.81 -3.53 c-1.17 -0.64 -2.7 -0.1 -3.42 1.21 l-0.24 0.44 c-0.52 -0.19 -1.04 -0.35 -1.56 -0.47 l4.81 -8.74 c0.72 -1.31 0.36 -2.89 -0.81 -3.53 c-1.17 -0.64 -2.7 -0.1 -3.42 1.21 l-6.74 12.26 c-0.67 0.92 -1.38 1.29 -2.12 1.09 c-2.23 -2.43 -4.45 -4.29 -5.86 -3.88 c-1.8 0.52 -1.36 3.39 -0.29 5.96 l1.48 5.72 z " style="fill:#231f20;"/><path d="M89.78 19.51 l-33.19 0 l0 -0.81 l33.19 0 l0 0.81 z " style="fill:#ffffff;"/><text class="f89" font-size="22.00" style="fill:#7b7979"><tspan x="539.35" y="48.71" textLength="18.92">&#59907;</tspan></text><path d="M56 53.28 l502.3 0 " style="stroke:#231f20;stroke-width:0.30;"/><text class="f316" font-size="8.00" style="fill:#656263"><tspan x="56.56" y="735.09" textLength="198.42">Supporting materials for this guide can be found online:</tspan>
<tspan x="56.56" y="747.09" textLength="145.73" class="f317" font-size="10.00" style="fill:#231f20">http://www.lukew.com/touch/ </tspan></text><path d="M56.56 100.66 l501.71 0 " style="stroke:#868484;stroke-width:0.25;"/><text class="f316" font-size="11.00" style="fill:#918f8f"><tspan x="65.56" y="140.73" textLength="54.4">user action</tspan>
<tspan x="170.86" y="140.73" textLength="36.87">gesture</tspan></text><path d="M56.56 149.97 l501.72 0 " style="stroke:#b2b1b1;stroke-width:1.50;"/><text class="f316" font-size="10.00" style="fill:#231f20"><tspan x="353.50" y="140.73" textLength="54.8" font-size="11.00" style="fill:#918f8f">description</tspan>
<tspan x="65.56" y="117.19" textLength="157.99" class="f317" dx="0,0.75,0.75,0.75,0.75,0.75,0.75,0.75,0.75,0.75,0.75,0.75,0.75,0.75,0.75,0.75,0.75,0.75,0.75,0.75,0.75,0.75,0.75">OBJECT-RELATED ACTIONS </tspan>
<tspan x="224.30" y="117.19" textLength="49.64">(continued)</tspan></text><path d="M56.56 124.14 l501.71 0 " style="stroke:#868484;stroke-width:0.25;"/><path d="M56.56 221.36 l501.72 0 " style="stroke:#a7a5a6;stroke-width:0.25;"/><path d="M56.56 301.76 l501.72 0 " style="stroke:#a7a5a6;stroke-width:0.25;"/><path d="M56.56 622.98 l501.72 0 " style="stroke:#a7a5a6;stroke-width:0.25;"/><path d="M56.56 710.15 l501.72 0 " style="stroke:#231f20;stroke-width:0.25;"/><text class="f316" font-size="10.00" style="fill:#444141"><tspan x="354.01" y="504.49" textLength="157.61">Quickly brush surface with fingertip</tspan></text><text class="f316" font-size="10.00" style="fill:#444141"><tspan x="354.01" y="575.01" textLength="193.91">With one finger on object, touch elsewhere </tspan>
<tspan x="354.01" y="587.01" textLength="132.04">on surface with second finger</tspan></text><path d="M246.13 168.66 l-4.13 -3.47 l0 1.41 l-53.28 0 l0 4.1 l53.28 0 l0 1.41 l4.13 -3.47 z " style="fill:#231f20;"/><path d="M246.13 168.66 l-4.13 -3.47 l0 1.41 l-53.28 0 l0 4.1 l53.28 0 l0 1.41 l4.13 -3.47 z " style="stroke:#231f20;stroke-width:1.00;"/><path d="M210.72 196.77 l1.11 -5.79 c0.27 -1.43 -0.66 -2.81 -2.09 -3.09 c-1.13 -0.22 -2.22 0.32 -2.77 1.25 c-0.53 -0.54 -1.11 -1.05 -1.72 -1.55 l0.46 -2.38 c0.36 -1.87 -0.71 -3.65 -2.37 -3.97 c-1.67 -0.32 -3.31 0.94 -3.67 2.81 l-0.04 0.25 c-0.65 -0.26 -1.29 -0.49 -1.94 -0.69 l0.56 -2.92 c0.36 -1.87 -0.71 -3.65 -2.38 -3.97 c-1.67 -0.32 -3.31 0.94 -3.67 2.81 l-0.57 2.99 c-0.71 -0.03 -1.4 -0.01 -2.08 0.04 l2.39 -12.51 c0.36 -1.87 -0.7 -3.65 -2.37 -3.97 c-1.67 -0.32 -3.31 0.94 -3.67 2.81 l-3.36 17.53 c-0.45 1.38 -1.16 2.11 -2.15 2.15 c-3.66 -2.08 -7.09 -3.45 -8.64 -2.41 c-1.99 1.34 -0.32 4.65 2 7.35 l6.88 10.83 c1.62 3.72 4.82 5.7 8.74 6.84 c0.19 0.06 0.38 0.12 0.55 0.15 c0.68 0.18 1.37 0.34 2.07 0.47 c1.89 0.37 13.78 3.48 18.41 -13.33 c0.19 -0.56 0.29 -1.14 0.31 -1.73 " style="fill:#ffffff;"/><path d="M210.72 196.77 l1.11 -5.79 c0.27 -1.43 -0.66 -2.81 -2.09 -3.09 c-1.13 -0.22 -2.22 0.32 -2.77 1.25 c-0.53 -0.54 -1.11 -1.05 -1.72 -1.55 l0.46 -2.38 c0.36 -1.87 -0.71 -3.65 -2.37 -3.97 c-1.67 -0.32 -3.31 0.94 -3.67 2.81 l-0.04 0.25 c-0.65 -0.26 -1.29 -0.49 -1.94 -0.69 l0.56 -2.92 c0.36 -1.87 -0.71 -3.65 -2.38 -3.97 c-1.67 -0.32 -3.31 0.94 -3.67 2.81 l-0.57 2.99 c-0.71 -0.03 -1.4 -0.01 -2.08 0.04 l2.39 -12.51 c0.36 -1.87 -0.7 -3.65 -2.37 -3.97 c-1.67 -0.32 -3.31 0.94 -3.67 2.81 l-3.36 17.53 c-0.45 1.38 -1.16 2.11 -2.15 2.15 c-3.66 -2.08 -7.09 -3.45 -8.64 -2.41 c-1.99 1.34 -0.32 4.65 2 7.35 l6.88 10.83 c1.62 3.72 4.82 5.7 8.74 6.84 c0.19 0.06 0.38 0.12 0.55 0.15 c0.68 0.18 1.37 0.34 2.07 0.47 c1.89 0.37 13.78 3.48 18.41 -13.33 c0.19 -0.56 0.29 -1.14 0.31 -1.73 z " style="stroke:#231f20;stroke-width:1.00;"/><path d="M256.75 196.77 l1.11 -5.79 c0.27 -1.43 -0.66 -2.81 -2.09 -3.09 c-1.13 -0.22 -2.22 0.32 -2.77 1.25 c-0.53 -0.54 -1.11 -1.05 -1.72 -1.55 l0.45 -2.38 c0.36 -1.87 -0.7 -3.65 -2.37 -3.97 c-1.67 -0.32 -3.31 0.94 -3.67 2.81 l-0.04 0.25 c-0.65 -0.26 -1.29 -0.49 -1.94 -0.69 l0.56 -2.92 c0.36 -1.87 -0.71 -3.65 -2.38 -3.97 c-1.67 -0.32 -3.31 0.94 -3.67 2.81 l-0.57 2.99 c-0.71 -0.03 -1.4 -0.01 -2.08 0.04 l2.4 -12.51 c0.36 -1.87 -0.71 -3.65 -2.37 -3.97 c-1.67 -0.32 -3.31 0.94 -3.67 2.81 l-3.36 17.53 c-0.45 1.38 -1.16 2.11 -2.15 2.15 c-3.66 -2.08 -7.1 -3.45 -8.64 -2.41 c-1.99 1.34 -0.32 4.65 2 7.35 l6.88 10.83 c1.62 3.72 4.82 5.7 8.74 6.83 c0.19 0.07 0.38 0.12 0.55 0.15 c0.67 0.18 1.37 0.34 2.07 0.48 c1.89 0.37 13.78 3.48 18.41 -13.33 c0.19 -0.56 0.29 -1.14 0.31 -1.73 " style="fill:#ffffff;"/><path d="M256.75 196.77 l1.11 -5.79 c0.27 -1.43 -0.66 -2.81 -2.09 -3.09 c-1.13 -0.22 -2.22 0.32 -2.77 1.25 c-0.53 -0.54 -1.11 -1.05 -1.72 -1.55 l0.45 -2.38 c0.36 -1.87 -0.7 -3.65 -2.37 -3.97 c-1.67 -0.32 -3.31 0.94 -3.67 2.81 l-0.04 0.25 c-0.65 -0.26 -1.29 -0.49 -1.94 -0.69 l0.56 -2.92 c0.36 -1.87 -0.71 -3.65 -2.38 -3.97 c-1.67 -0.32 -3.31 0.94 -3.67 2.81 l-0.57 2.99 c-0.71 -0.03 -1.4 -0.01 -2.08 0.04 l2.4 -12.51 c0.36 -1.87 -0.71 -3.65 -2.37 -3.97 c-1.67 -0.32 -3.31 0.94 -3.67 2.81 l-3.36 17.53 c-0.45 1.38 -1.16 2.11 -2.15 2.15 c-3.66 -2.08 -7.1 -3.45 -8.64 -2.41 c-1.99 1.34 -0.32 4.65 2 7.35 l6.88 10.83 c1.62 3.72 4.82 5.7 8.74 6.83 c0.19 0.07 0.38 0.12 0.55 0.15 c0.67 0.18 1.37 0.34 2.07 0.48 c1.89 0.37 13.78 3.48 18.41 -13.33 c0.19 -0.56 0.29 -1.14 0.31 -1.73 z " style="stroke:#231f20;stroke-width:1.00;"/><text class="f316" font-size="10.00" style="fill:#444141"><tspan x="354.01" y="173.96" textLength="160.56">Move fingertip over surface without </tspan>
<tspan x="354.01" y="185.96" textLength="62.97">losing contact</tspan></text><path d="M184.72 252.62 c1.24 3.73 -0.78 7.75 -4.5 9 c-3.73 1.24 -7.75 -0.77 -8.99 -4.5 c-1.24 -3.73 0.77 -7.75 4.5 -9 c3.73 -1.24 7.76 0.77 9 4.5 z " style="stroke:#231f20;stroke-width:2.00;"/><path d="M210.52 269.13 l-1.86 -5.59 c-0.46 -1.38 -1.95 -2.13 -3.33 -1.67 c-1.09 0.36 -1.78 1.36 -1.8 2.45 c-0.73 -0.21 -1.48 -0.38 -2.26 -0.51 l-0.76 -2.3 c-0.6 -1.81 -2.4 -2.84 -4.01 -2.3 c-1.62 0.54 -2.43 2.44 -1.83 4.25 l0.08 0.24 c-0.69 0.09 -1.37 0.21 -2.03 0.34 l-0.94 -2.82 c-0.6 -1.81 -2.4 -2.84 -4.01 -2.3 c-1.61 0.54 -2.43 2.44 -1.83 4.25 l0.96 2.89 c-0.63 0.32 -1.23 0.68 -1.79 1.05 l-4.02 -12.08 c-0.6 -1.81 -2.4 -2.84 -4.01 -2.3 c-1.61 0.54 -2.43 2.44 -1.83 4.25 l5.64 16.94 c0.28 1.42 0.02 2.41 -0.82 2.93 c-4.21 -0.02 -7.88 0.46 -8.72 2.12 c-1.08 2.14 2 4.21 5.34 5.43 l11.29 6.08 c3.24 2.46 6.99 2.62 10.97 1.69 c0.2 -0.04 0.38 -0.08 0.56 -0.13 c0.68 -0.17 1.36 -0.38 2.05 -0.6 c1.82 -0.6 13.72 -3.7 9.55 -20.63 c-0.1 -0.59 -0.3 -1.14 -0.58 -1.66 " style="fill:#ffffff;"/><path d="M210.52 269.13 l-1.86 -5.59 c-0.46 -1.38 -1.95 -2.13 -3.33 -1.67 c-1.09 0.36 -1.78 1.36 -1.8 2.45 c-0.73 -0.21 -1.48 -0.38 -2.26 -0.51 l-0.76 -2.3 c-0.6 -1.81 -2.4 -2.84 -4.01 -2.3 c-1.62 0.54 -2.43 2.44 -1.83 4.25 l0.08 0.24 c-0.69 0.09 -1.37 0.21 -2.03 0.34 l-0.94 -2.82 c-0.6 -1.81 -2.4 -2.84 -4.01 -2.3 c-1.61 0.54 -2.43 2.44 -1.83 4.25 l0.96 2.89 c-0.63 0.32 -1.23 0.68 -1.79 1.05 l-4.02 -12.08 c-0.6 -1.81 -2.4 -2.84 -4.01 -2.3 c-1.61 0.54 -2.43 2.44 -1.83 4.25 l5.64 16.94 c0.28 1.42 0.02 2.41 -0.82 2.93 c-4.21 -0.02 -7.88 0.46 -8.72 2.12 c-1.08 2.14 2 4.21 5.34 5.43 l11.29 6.08 c3.24 2.46 6.99 2.62 10.97 1.69 c0.2 -0.04 0.38 -0.08 0.56 -0.13 c0.68 -0.17 1.36 -0.38 2.05 -0.6 c1.82 -0.6 13.72 -3.7 9.55 -20.63 c-0.1 -0.59 -0.3 -1.14 -0.58 -1.66 z " style="stroke:#231f20;stroke-width:1.00;"/><text class="f316" font-size="8.00" style="fill:#231f20"><tspan x="215.05" y="290.03" textLength="4.45">1</tspan></text><path d="M248.54 240.72 c-1.43 3.66 -5.55 5.47 -9.21 4.05 c-3.66 -1.43 -5.47 -5.55 -4.04 -9.21 c1.43 -3.66 5.55 -5.47 9.21 -4.05 c3.66 1.43 5.47 5.55 4.05 9.21 z " style="stroke:#231f20;stroke-width:2.00;"/><path d="M257.85 269.9 l2.14 -5.49 c0.53 -1.36 -0.14 -2.89 -1.5 -3.42 c-1.07 -0.42 -2.24 -0.09 -2.95 0.73 c-0.43 -0.63 -0.9 -1.24 -1.41 -1.83 l0.88 -2.26 c0.69 -1.78 -0.03 -3.72 -1.61 -4.34 c-1.59 -0.62 -3.43 0.32 -4.12 2.1 l-0.09 0.24 c-0.59 -0.37 -1.18 -0.71 -1.78 -1.03 l1.08 -2.77 c0.69 -1.78 -0.03 -3.72 -1.62 -4.33 c-1.58 -0.62 -3.43 0.32 -4.12 2.1 l-1.1 2.84 c-0.69 -0.15 -1.38 -0.26 -2.05 -0.33 l4.62 -11.86 c0.69 -1.78 -0.03 -3.72 -1.61 -4.34 c-1.59 -0.62 -3.43 0.32 -4.12 2.1 l-6.48 16.63 c-0.7 1.27 -1.52 1.86 -2.5 1.73 c-3.22 -2.71 -6.35 -4.68 -8.06 -3.93 c-2.19 0.96 -1.16 4.51 0.64 7.59 l4.8 11.9 c0.92 3.96 3.71 6.48 7.36 8.31 c0.18 0.1 0.35 0.18 0.51 0.25 c0.63 0.3 1.28 0.58 1.96 0.84 c1.79 0.7 12.93 5.92 20.52 -9.77 c0.29 -0.52 0.49 -1.07 0.62 -1.65 " style="fill:#ffffff;"/><path d="M257.85 269.9 l2.14 -5.49 c0.53 -1.36 -0.14 -2.89 -1.5 -3.42 c-1.07 -0.42 -2.24 -0.09 -2.95 0.73 c-0.43 -0.63 -0.9 -1.24 -1.41 -1.83 l0.88 -2.26 c0.69 -1.78 -0.03 -3.72 -1.61 -4.34 c-1.59 -0.62 -3.43 0.32 -4.12 2.1 l-0.09 0.24 c-0.59 -0.37 -1.18 -0.71 -1.78 -1.03 l1.08 -2.77 c0.69 -1.78 -0.03 -3.72 -1.62 -4.33 c-1.58 -0.62 -3.43 0.32 -4.12 2.1 l-1.1 2.84 c-0.69 -0.15 -1.38 -0.26 -2.05 -0.33 l4.62 -11.86 c0.69 -1.78 -0.03 -3.72 -1.61 -4.34 c-1.59 -0.62 -3.43 0.32 -4.12 2.1 l-6.48 16.63 c-0.7 1.27 -1.52 1.86 -2.5 1.73 c-3.22 -2.71 -6.35 -4.68 -8.06 -3.93 c-2.19 0.96 -1.16 4.51 0.64 7.59 l4.8 11.9 c0.92 3.96 3.71 6.48 7.36 8.31 c0.18 0.1 0.35 0.18 0.51 0.25 c0.63 0.3 1.28 0.58 1.96 0.84 c1.79 0.7 12.93 5.92 20.52 -9.77 c0.29 -0.52 0.49 -1.07 0.62 -1.65 z " style="stroke:#231f20;stroke-width:1.00;"/><text class="f316" font-size="8.00" style="fill:#231f20"><tspan x="257.03" y="285.03" textLength="4.45">2</tspan></text><text class="f316" font-size="10.00" style="fill:#444141"><tspan x="354.01" y="242.96" textLength="162.62">Touch object, then touch elsewhere </tspan>
<tspan x="354.01" y="254.96" textLength="47.04">on surface</tspan></text><text class="f316" font-size="10.00" style="fill:#444141"><tspan x="270.86" y="324.22" textLength="20.37">drag</tspan>
<tspan x="270.86" y="336.22" textLength="45.75">(and drop)</tspan></text><path d="M170.98 370.15 l387.3 0 " style="stroke:#a7a5a6;stroke-width:0.25;stroke-dasharray:2.0,2.0;"/><path d="M246.13 316.39 l-4.13 -3.47 l0 1.41 l-53.28 0 l0 4.1 l53.28 0 l0 1.41 l4.13 -3.47 z " style="fill:#231f20;"/><path d="M246.13 316.39 l-4.13 -3.47 l0 1.41 l-53.28 0 l0 4.1 l53.28 0 l0 1.41 l4.13 -3.47 z " style="stroke:#231f20;stroke-width:1.00;"/><path d="M210.72 344.5 l1.11 -5.79 c0.27 -1.43 -0.66 -2.81 -2.09 -3.09 c-1.13 -0.21 -2.22 0.32 -2.77 1.25 c-0.53 -0.54 -1.11 -1.05 -1.72 -1.55 l0.46 -2.38 c0.36 -1.87 -0.71 -3.65 -2.37 -3.97 c-1.67 -0.32 -3.31 0.94 -3.67 2.81 l-0.05 0.25 c-0.65 -0.26 -1.29 -0.49 -1.94 -0.69 l0.56 -2.92 c0.36 -1.87 -0.71 -3.65 -2.38 -3.97 c-1.67 -0.32 -3.31 0.94 -3.67 2.81 l-0.57 2.99 c-0.71 -0.02 -1.4 -0.01 -2.08 0.05 l2.39 -12.51 c0.36 -1.87 -0.7 -3.65 -2.37 -3.97 c-1.67 -0.32 -3.31 0.94 -3.67 2.81 l-3.36 17.53 c-0.45 1.38 -1.16 2.11 -2.15 2.15 c-3.66 -2.08 -7.09 -3.45 -8.64 -2.41 c-1.99 1.34 -0.32 4.65 2 7.35 l6.88 10.83 c1.62 3.72 4.82 5.7 8.74 6.84 c0.19 0.06 0.38 0.12 0.55 0.15 c0.68 0.18 1.37 0.34 2.07 0.47 c1.89 0.37 13.78 3.48 18.41 -13.33 c0.19 -0.56 0.29 -1.14 0.31 -1.73 " style="fill:#ffffff;"/><path d="M210.72 344.5 l1.11 -5.79 c0.27 -1.43 -0.66 -2.81 -2.09 -3.09 c-1.13 -0.21 -2.22 0.32 -2.77 1.25 c-0.53 -0.54 -1.11 -1.05 -1.72 -1.55 l0.46 -2.38 c0.36 -1.87 -0.71 -3.65 -2.37 -3.97 c-1.67 -0.32 -3.31 0.94 -3.67 2.81 l-0.05 0.25 c-0.65 -0.26 -1.29 -0.49 -1.94 -0.69 l0.56 -2.92 c0.36 -1.87 -0.71 -3.65 -2.38 -3.97 c-1.67 -0.32 -3.31 0.94 -3.67 2.81 l-0.57 2.99 c-0.71 -0.02 -1.4 -0.01 -2.08 0.05 l2.39 -12.51 c0.36 -1.87 -0.7 -3.65 -2.37 -3.97 c-1.67 -0.32 -3.31 0.94 -3.67 2.81 l-3.36 17.53 c-0.45 1.38 -1.16 2.11 -2.15 2.15 c-3.66 -2.08 -7.09 -3.45 -8.64 -2.41 c-1.99 1.34 -0.32 4.65 2 7.35 l6.88 10.83 c1.62 3.72 4.82 5.7 8.74 6.84 c0.19 0.06 0.38 0.12 0.55 0.15 c0.68 0.18 1.37 0.34 2.07 0.47 c1.89 0.37 13.78 3.48 18.41 -13.33 c0.19 -0.56 0.29 -1.14 0.31 -1.73 z " style="stroke:#231f20;stroke-width:1.00;"/><path d="M256.75 344.5 l1.11 -5.79 c0.27 -1.43 -0.66 -2.81 -2.09 -3.09 c-1.13 -0.21 -2.22 0.32 -2.77 1.25 c-0.53 -0.54 -1.11 -1.05 -1.72 -1.55 l0.45 -2.38 c0.36 -1.87 -0.7 -3.65 -2.37 -3.97 c-1.67 -0.32 -3.31 0.94 -3.67 2.81 l-0.05 0.25 c-0.65 -0.26 -1.29 -0.49 -1.94 -0.69 l0.56 -2.92 c0.36 -1.87 -0.71 -3.65 -2.38 -3.97 c-1.67 -0.32 -3.32 0.94 -3.67 2.81 l-0.58 2.99 c-0.71 -0.02 -1.4 -0.01 -2.08 0.05 l2.4 -12.51 c0.36 -1.87 -0.71 -3.65 -2.37 -3.97 c-1.67 -0.32 -3.32 0.94 -3.67 2.81 l-3.36 17.53 c-0.45 1.38 -1.16 2.11 -2.15 2.15 c-3.66 -2.08 -7.1 -3.45 -8.64 -2.41 c-1.99 1.34 -0.32 4.65 2 7.35 l6.88 10.83 c1.62 3.72 4.82 5.7 8.74 6.84 c0.19 0.06 0.38 0.12 0.55 0.15 c0.67 0.18 1.37 0.34 2.07 0.47 c1.89 0.37 13.78 3.48 18.41 -13.33 c0.19 -0.56 0.29 -1.14 0.31 -1.73 " style="fill:#ffffff;"/><path d="M256.75 344.5 l1.11 -5.79 c0.27 -1.43 -0.66 -2.81 -2.09 -3.09 c-1.13 -0.21 -2.22 0.32 -2.77 1.25 c-0.53 -0.54 -1.11 -1.05 -1.72 -1.55 l0.45 -2.38 c0.36 -1.87 -0.7 -3.65 -2.37 -3.97 c-1.67 -0.32 -3.31 0.94 -3.67 2.81 l-0.05 0.25 c-0.65 -0.26 -1.29 -0.49 -1.94 -0.69 l0.56 -2.92 c0.36 -1.87 -0.71 -3.65 -2.38 -3.97 c-1.67 -0.32 -3.32 0.94 -3.67 2.81 l-0.58 2.99 c-0.71 -0.02 -1.4 -0.01 -2.08 0.05 l2.4 -12.51 c0.36 -1.87 -0.71 -3.65 -2.37 -3.97 c-1.67 -0.32 -3.32 0.94 -3.67 2.81 l-3.36 17.53 c-0.45 1.38 -1.16 2.11 -2.15 2.15 c-3.66 -2.08 -7.1 -3.45 -8.64 -2.41 c-1.99 1.34 -0.32 4.65 2 7.35 l6.88 10.83 c1.62 3.72 4.82 5.7 8.74 6.84 c0.19 0.06 0.38 0.12 0.55 0.15 c0.67 0.18 1.37 0.34 2.07 0.47 c1.89 0.37 13.78 3.48 18.41 -13.33 c0.19 -0.56 0.29 -1.14 0.31 -1.73 z " style="stroke:#231f20;stroke-width:1.00;"/><text class="f316" font-size="10.00" style="fill:#444141"><tspan x="354.01" y="323.96" textLength="160.56">Move fingertip over surface without </tspan>
<tspan x="354.01" y="335.96" textLength="62.97">losing contact</tspan></text><text class="f316" font-size="10.00" style="fill:#444141"><tspan x="281.86" y="394.22" textLength="50.75">multi-finger</tspan>
<tspan x="281.86" y="406.22" textLength="20.37">drag</tspan></text><path d="M170.98 479.15 l387.3 0 " style="stroke:#a7a5a6;stroke-width:0.25;stroke-dasharray:2.0,2.0;"/><text class="f316" font-size="10.00" style="fill:#444141"><tspan x="354.01" y="393.96" textLength="143.33">Move two to five fingertips over </tspan>
<tspan x="354.01" y="405.96" textLength="134.45">surface without losing contact</tspan></text><path d="M212.76 389.13 l-5.17 -4.35 l0 1.77 l-26.56 0 l-5 0 l0 -1.77 l-5.17 4.35 l5.17 4.35 l0 -1.77 l26.56 0 l5 0 l0 1.77 l5.17 -4.35 z " style="fill:#110f0d;"/><path d="M205.35 410.29 l1.16 -8.29 c0.19 -1.39 -0.77 -2.68 -2.16 -2.87 c-1.39 -0.19 -2.67 0.77 -2.87 2.16 l-0.24 1.69 c-0.5 -0.45 -1.03 -0.88 -1.59 -1.28 l0.69 -4.95 c0.26 -1.82 -0.85 -3.48 -2.48 -3.71 c-1.62 -0.23 -3.14 1.06 -3.4 2.88 l-0.4 2.88 c-0.64 -0.22 -1.27 -0.4 -1.9 -0.57 l2.05 -14.58 c0.26 -1.82 -0.85 -3.48 -2.47 -3.71 c-1.62 -0.23 -3.15 1.06 -3.4 2.88 l-2.06 14.64 c-0.68 0.01 -1.35 0.06 -2 0.14 l1.71 -12.16 c0.26 -1.82 -0.85 -3.48 -2.47 -3.71 c-1.62 -0.23 -3.15 1.06 -3.4 2.88 l-2.39 17.02 c-0.05 0.19 -0.11 0.36 -0.17 0.52 c-0.88 0.03 -1.73 0.24 -2.51 0.58 c-3.01 1.32 -2.73 9.88 -1.26 11.95 c1.01 1.42 1.88 2.61 2.64 3.6 c1.98 4.8 6.41 6.61 11.63 7.36 c1.83 0.26 13.44 2.69 17.09 -13.71 c0.16 -0.54 0.22 -1.09 0.21 -1.65 " style="fill:#ffffff;"/><path d="M205.35 410.29 l1.16 -8.29 c0.19 -1.39 -0.77 -2.68 -2.16 -2.87 c-1.39 -0.19 -2.67 0.77 -2.87 2.16 l-0.24 1.69 c-0.5 -0.45 -1.03 -0.88 -1.59 -1.28 l0.69 -4.95 c0.26 -1.82 -0.85 -3.48 -2.48 -3.71 c-1.62 -0.23 -3.14 1.06 -3.4 2.88 l-0.4 2.88 c-0.64 -0.22 -1.27 -0.4 -1.9 -0.57 l2.05 -14.58 c0.26 -1.82 -0.85 -3.48 -2.47 -3.71 c-1.62 -0.23 -3.15 1.06 -3.4 2.88 l-2.06 14.64 c-0.68 0.01 -1.35 0.06 -2 0.14 l1.71 -12.16 c0.26 -1.82 -0.85 -3.48 -2.47 -3.71 c-1.62 -0.23 -3.15 1.06 -3.4 2.88 l-2.39 17.02 c-0.05 0.19 -0.11 0.36 -0.17 0.52 c-0.88 0.03 -1.73 0.24 -2.51 0.58 c-3.01 1.32 -2.73 9.88 -1.26 11.95 c1.01 1.42 1.88 2.61 2.64 3.6 c1.98 4.8 6.41 6.61 11.63 7.36 c1.83 0.26 13.44 2.69 17.09 -13.71 c0.16 -0.54 0.22 -1.09 0.21 -1.65 z " style="stroke:#211d1d;stroke-width:1.00;"/><path d="M272.4 389.13 l-5.17 -4.35 l0 1.77 l-26.56 0 l-5 0 l0 -1.77 l-5.17 4.35 l5.17 4.35 l0 -1.77 l26.56 0 l5 0 l0 1.77 l5.17 -4.35 z " style="fill:#110f0d;"/><path d="M264.78 410.29 l1.01 -7.18 c0.17 -1.22 -0.82 -2.36 -2.2 -2.56 c-1.39 -0.2 -2.65 0.63 -2.82 1.85 l-0.08 0.59 c-0.5 -0.45 -1.03 -0.88 -1.6 -1.28 l1.98 -14.1 c0.26 -1.82 -0.85 -3.48 -2.47 -3.71 c-1.62 -0.23 -3.15 1.06 -3.4 2.88 l-1.69 12.03 c-0.64 -0.22 -1.27 -0.4 -1.9 -0.57 l2.05 -14.58 c0.26 -1.82 -0.85 -3.48 -2.47 -3.71 c-1.62 -0.23 -3.15 1.06 -3.4 2.88 l-2.06 14.64 c-0.68 0.01 -1.35 0.06 -2 0.14 l1.71 -12.16 c0.26 -1.82 -0.85 -3.48 -2.47 -3.71 c-1.62 -0.23 -3.15 1.06 -3.4 2.88 l-2.39 17.02 c-0.05 0.19 -0.11 0.36 -0.17 0.52 c-0.88 0.03 -1.73 0.24 -2.51 0.58 c-3.01 1.32 -2.73 9.88 -1.26 11.95 c1.01 1.42 1.88 2.61 2.64 3.6 c1.98 4.8 6.41 6.61 11.63 7.36 c1.83 0.26 13.44 2.69 17.09 -13.71 c0.16 -0.54 0.22 -1.1 0.21 -1.66 " style="fill:#ffffff;"/><path d="M264.78 410.29 l1.01 -7.18 c0.17 -1.22 -0.82 -2.36 -2.2 -2.56 c-1.39 -0.2 -2.65 0.63 -2.82 1.85 l-0.08 0.59 c-0.5 -0.45 -1.03 -0.88 -1.6 -1.28 l1.98 -14.1 c0.26 -1.82 -0.85 -3.48 -2.47 -3.71 c-1.62 -0.23 -3.15 1.06 -3.4 2.88 l-1.69 12.03 c-0.64 -0.22 -1.27 -0.4 -1.9 -0.57 l2.05 -14.58 c0.26 -1.82 -0.85 -3.48 -2.47 -3.71 c-1.62 -0.23 -3.15 1.06 -3.4 2.88 l-2.06 14.64 c-0.68 0.01 -1.35 0.06 -2 0.14 l1.71 -12.16 c0.26 -1.82 -0.85 -3.48 -2.47 -3.71 c-1.62 -0.23 -3.15 1.06 -3.4 2.88 l-2.39 17.02 c-0.05 0.19 -0.11 0.36 -0.17 0.52 c-0.88 0.03 -1.73 0.24 -2.51 0.58 c-3.01 1.32 -2.73 9.88 -1.26 11.95 c1.01 1.42 1.88 2.61 2.64 3.6 c1.98 4.8 6.41 6.61 11.63 7.36 c1.83 0.26 13.44 2.69 17.09 -13.71 c0.16 -0.54 0.22 -1.1 0.21 -1.66 z " style="stroke:#211d1d;stroke-width:1.00;"/><path d="M234.76 434.79 l-5.17 -4.35 l0 1.77 l-26.56 0 l-5 0 l0 -1.77 l-5.17 4.35 l5.17 4.35 l0 -1.77 l26.56 0 l5 0 l0 1.77 l5.17 -4.35 z " style="fill:#110f0d;"/><path d="M226.13 455.95 l1.78 -12.69 c0.2 -1.39 -0.77 -2.68 -2.16 -2.87 c-1.39 -0.2 -2.67 0.77 -2.87 2.17 l-0.86 6.1 c-0.5 -0.45 -1.03 -0.88 -1.59 -1.28 l1.98 -14.1 c0.26 -1.82 -0.85 -3.48 -2.47 -3.71 c-1.62 -0.23 -3.15 1.06 -3.4 2.88 l-1.69 12.02 c-0.64 -0.22 -1.27 -0.4 -1.9 -0.57 l2.05 -14.58 c0.26 -1.82 -0.85 -3.48 -2.47 -3.71 c-1.63 -0.23 -3.15 1.06 -3.4 2.88 l-2.06 14.64 c-0.68 0.01 -1.35 0.06 -2 0.14 l1.71 -12.16 c0.26 -1.82 -0.85 -3.48 -2.47 -3.71 c-1.62 -0.23 -3.15 1.06 -3.4 2.88 l-2.39 17.03 c-0.05 0.19 -0.11 0.35 -0.17 0.51 c-0.88 0.03 -1.73 0.24 -2.51 0.58 c-3.01 1.32 -2.73 9.88 -1.26 11.95 c1.01 1.43 1.88 2.61 2.65 3.6 c1.98 4.8 6.4 6.61 11.63 7.36 c1.83 0.26 13.44 2.69 17.09 -13.71 c0.16 -0.54 0.22 -1.1 0.21 -1.66 " style="fill:#ffffff;"/><path d="M226.13 455.95 l1.78 -12.69 c0.2 -1.39 -0.77 -2.68 -2.16 -2.87 c-1.39 -0.2 -2.67 0.77 -2.87 2.17 l-0.86 6.1 c-0.5 -0.45 -1.03 -0.88 -1.59 -1.28 l1.98 -14.1 c0.26 -1.82 -0.85 -3.48 -2.47 -3.71 c-1.62 -0.23 -3.15 1.06 -3.4 2.88 l-1.69 12.02 c-0.64 -0.22 -1.27 -0.4 -1.9 -0.57 l2.05 -14.58 c0.26 -1.82 -0.85 -3.48 -2.47 -3.71 c-1.63 -0.23 -3.15 1.06 -3.4 2.88 l-2.06 14.64 c-0.68 0.01 -1.35 0.06 -2 0.14 l1.71 -12.16 c0.26 -1.82 -0.85 -3.48 -2.47 -3.71 c-1.62 -0.23 -3.15 1.06 -3.4 2.88 l-2.39 17.03 c-0.05 0.19 -0.11 0.35 -0.17 0.51 c-0.88 0.03 -1.73 0.24 -2.51 0.58 c-3.01 1.32 -2.73 9.88 -1.26 11.95 c1.01 1.43 1.88 2.61 2.65 3.6 c1.98 4.8 6.4 6.61 11.63 7.36 c1.83 0.26 13.44 2.69 17.09 -13.71 c0.16 -0.54 0.22 -1.1 0.21 -1.66 z " style="stroke:#211d1d;stroke-width:1.00;"/><path d="M299.38 434.79 l-5.17 -4.35 l0 1.77 l-24.56 0 l-11.8 0 l0 -1.77 l-5.17 4.35 l5.17 4.35 l0 -1.77 l33.36 0 l3 0 l0 1.77 l5.17 -4.35 z " style="fill:#110f0d;"/><path d="M292.77 455.96 l1.78 -12.7 c0.2 -1.39 -0.77 -2.68 -2.16 -2.87 c-1.39 -0.2 -2.67 0.77 -2.87 2.17 l-0.86 6.1 c-0.5 -0.45 -1.03 -0.88 -1.6 -1.28 l1.98 -14.1 c0.26 -1.82 -0.85 -3.48 -2.48 -3.71 c-1.62 -0.23 -3.15 1.06 -3.4 2.88 l-1.69 12.02 c-0.63 -0.22 -1.27 -0.4 -1.89 -0.57 l2.05 -14.58 c0.26 -1.82 -0.85 -3.48 -2.48 -3.71 c-1.62 -0.23 -3.15 1.06 -3.4 2.88 l-2.06 14.64 c-0.68 0.01 -1.35 0.06 -2 0.14 l1.71 -12.16 c0.26 -1.82 -0.85 -3.48 -2.47 -3.71 c-1.62 -0.23 -3.15 1.06 -3.4 2.88 l-2.39 17.02 c-0.37 1.36 -1.02 2.1 -1.97 2.19 c-0.13 0.01 -0.25 0 -0.38 -0.01 c-3.8 -1.99 -7.46 -3.34 -8.98 -2.2 c-1.85 1.39 -0.08 4.49 2.28 6.98 l7.14 10.1 c0.54 0.51 1.05 0.96 1.54 1.4 c2.26 3.46 6.17 4.91 10.68 5.55 c1.83 0.26 13.44 2.69 17.09 -13.71 c0.16 -0.54 0.22 -1.09 0.21 -1.65 " style="fill:#ffffff;"/><path d="M292.77 455.96 l1.78 -12.7 c0.2 -1.39 -0.77 -2.68 -2.16 -2.87 c-1.39 -0.2 -2.67 0.77 -2.87 2.17 l-0.86 6.1 c-0.5 -0.45 -1.03 -0.88 -1.6 -1.28 l1.98 -14.1 c0.26 -1.82 -0.85 -3.48 -2.48 -3.71 c-1.62 -0.23 -3.15 1.06 -3.4 2.88 l-1.69 12.02 c-0.63 -0.22 -1.27 -0.4 -1.89 -0.57 l2.05 -14.58 c0.26 -1.82 -0.85 -3.48 -2.48 -3.71 c-1.62 -0.23 -3.15 1.06 -3.4 2.88 l-2.06 14.64 c-0.68 0.01 -1.35 0.06 -2 0.14 l1.71 -12.16 c0.26 -1.82 -0.85 -3.48 -2.47 -3.71 c-1.62 -0.23 -3.15 1.06 -3.4 2.88 l-2.39 17.02 c-0.37 1.36 -1.02 2.1 -1.97 2.19 c-0.13 0.01 -0.25 0 -0.38 -0.01 c-3.8 -1.99 -7.46 -3.34 -8.98 -2.2 c-1.85 1.39 -0.08 4.49 2.28 6.98 l7.14 10.1 c0.54 0.51 1.05 0.96 1.54 1.4 c2.26 3.46 6.17 4.91 10.68 5.55 c1.83 0.26 13.44 2.69 17.09 -13.71 c0.16 -0.54 0.22 -1.09 0.21 -1.65 z " style="stroke:#211d1d;stroke-width:1.00;"/><text class="f316" font-size="8.00" style="fill:#231f20"><tspan x="212.78" y="408.84" textLength="11.56">OR</tspan></text><text class="f316" font-size="8.00" style="fill:#231f20"><tspan x="174.97" y="455.05" textLength="11.56">OR</tspan>
<tspan x="235.44" y="455.05" textLength="11.56">OR</tspan></text><path d="M246.13 496.89 l-4.13 -3.47 l0 1.42 l-53.28 0 l0 4.1 l53.28 0 l0 1.41 l4.13 -3.47 z " style="fill:#231f20;"/><path d="M246.13 496.89 l-4.13 -3.47 l0 1.42 l-53.28 0 l0 4.1 l53.28 0 l0 1.41 l4.13 -3.47 z " style="stroke:#231f20;stroke-width:1.00;"/><path d="M227.07 525.28 c-0.88 -0.74 -2.09 -0.81 -3.03 -0.27 c-0.2 -0.73 -0.45 -1.46 -0.74 -2.19 l1.56 -1.85 c1.23 -1.46 1.18 -3.53 -0.12 -4.62 c-1.3 -1.1 -3.35 -0.81 -4.58 0.64 l-0.16 0.19 c-0.44 -0.54 -0.88 -1.06 -1.35 -1.55 l1.93 -2.27 c1.23 -1.45 1.18 -3.52 -0.12 -4.62 c-1.3 -1.1 -3.35 -0.81 -4.58 0.64 l-1.97 2.32 c-0.6 -0.37 -1.21 -0.7 -1.83 -0.98 l8.23 -9.71 c1.24 -1.46 1.18 -3.53 -0.11 -4.63 c-1.3 -1.1 -3.35 -0.81 -4.58 0.65 l-11.54 13.62 c-0.89 0.81 -1.71 1.14 -2.47 0.98 l0 23.36 l-4.3 0 c0.18 0.19 0.36 0.39 0.55 0.58 c0.13 0.15 0.27 0.28 0.41 0.4 c0.5 0.49 1.03 0.97 1.57 1.44 c1.46 1.24 10.3 9.8 22.59 -2.56 c0.44 -0.39 0.82 -0.85 1.12 -1.36 l3.81 -4.49 c0.94 -1.12 0.81 -2.78 -0.3 -3.72 " style="fill:#ffffff;"/><path d="M227.07 525.28 c-0.88 -0.74 -2.09 -0.81 -3.03 -0.27 c-0.2 -0.73 -0.45 -1.46 -0.74 -2.19 l1.56 -1.85 c1.23 -1.46 1.18 -3.53 -0.12 -4.62 c-1.3 -1.1 -3.35 -0.81 -4.58 0.64 l-0.16 0.19 c-0.44 -0.54 -0.88 -1.06 -1.35 -1.55 l1.93 -2.27 c1.23 -1.45 1.18 -3.52 -0.12 -4.62 c-1.3 -1.1 -3.35 -0.81 -4.58 0.64 l-1.97 2.32 c-0.6 -0.37 -1.21 -0.7 -1.83 -0.98 l8.23 -9.71 c1.24 -1.46 1.18 -3.53 -0.11 -4.63 c-1.3 -1.1 -3.35 -0.81 -4.58 0.65 l-11.54 13.62 c-0.89 0.81 -1.71 1.14 -2.47 0.98 l0 23.36 l-4.3 0 c0.18 0.19 0.36 0.39 0.55 0.58 c0.13 0.15 0.27 0.28 0.41 0.4 c0.5 0.49 1.03 0.97 1.57 1.44 c1.46 1.24 10.3 9.8 22.59 -2.56 c0.44 -0.39 0.82 -0.85 1.12 -1.36 l3.81 -4.49 c0.94 -1.12 0.81 -2.78 -0.3 -3.72 z " style="stroke:#231f20;stroke-width:1.00;"/><path d="M210.72 525 l1.11 -5.79 c0.27 -1.43 -0.66 -2.81 -2.09 -3.09 c-1.13 -0.21 -2.22 0.32 -2.77 1.25 c-0.53 -0.54 -1.11 -1.05 -1.72 -1.55 l0.46 -2.38 c0.36 -1.87 -0.71 -3.65 -2.37 -3.97 c-1.67 -0.32 -3.31 0.94 -3.67 2.81 l-0.05 0.25 c-0.65 -0.26 -1.29 -0.49 -1.94 -0.69 l0.56 -2.92 c0.36 -1.88 -0.71 -3.65 -2.38 -3.97 c-1.67 -0.32 -3.31 0.94 -3.67 2.81 l-0.57 2.99 c-0.71 -0.02 -1.4 -0.01 -2.08 0.05 l2.39 -12.51 c0.36 -1.88 -0.7 -3.65 -2.37 -3.97 c-1.67 -0.32 -3.31 0.94 -3.67 2.81 l-3.36 17.53 c-0.46 1.38 -1.16 2.11 -2.15 2.15 c-3.66 -2.08 -7.09 -3.45 -8.64 -2.41 c-1.98 1.34 -0.32 4.65 2 7.35 l6.88 10.83 c1.62 3.72 4.82 5.7 8.74 6.84 c0.19 0.06 0.38 0.11 0.55 0.15 c0.68 0.18 1.37 0.34 2.08 0.47 c1.89 0.37 13.78 3.48 18.41 -13.33 c0.19 -0.56 0.29 -1.14 0.31 -1.73 " style="fill:#ffffff;"/><path d="M210.72 525 l1.11 -5.79 c0.27 -1.43 -0.66 -2.81 -2.09 -3.09 c-1.13 -0.21 -2.22 0.32 -2.77 1.25 c-0.53 -0.54 -1.11 -1.05 -1.72 -1.55 l0.46 -2.38 c0.36 -1.87 -0.71 -3.65 -2.37 -3.97 c-1.67 -0.32 -3.31 0.94 -3.67 2.81 l-0.05 0.25 c-0.65 -0.26 -1.29 -0.49 -1.94 -0.69 l0.56 -2.92 c0.36 -1.88 -0.71 -3.65 -2.38 -3.97 c-1.67 -0.32 -3.31 0.94 -3.67 2.81 l-0.57 2.99 c-0.71 -0.02 -1.4 -0.01 -2.08 0.05 l2.39 -12.51 c0.36 -1.88 -0.7 -3.65 -2.37 -3.97 c-1.67 -0.32 -3.31 0.94 -3.67 2.81 l-3.36 17.53 c-0.46 1.38 -1.16 2.11 -2.15 2.15 c-3.66 -2.08 -7.09 -3.45 -8.64 -2.41 c-1.98 1.34 -0.32 4.65 2 7.35 l6.88 10.83 c1.62 3.72 4.82 5.7 8.74 6.84 c0.19 0.06 0.38 0.11 0.55 0.15 c0.68 0.18 1.37 0.34 2.08 0.47 c1.89 0.37 13.78 3.48 18.41 -13.33 c0.19 -0.56 0.29 -1.14 0.31 -1.73 z " style="stroke:#231f20;stroke-width:1.00;"/><path d="M201.41 569.5 c0 2.8 -2.27 5.07 -5.07 5.07 c-2.8 0 -5.06 -2.27 -5.06 -5.07 c0 -2.8 2.27 -5.07 5.06 -5.07 c2.8 0 5.07 2.27 5.07 5.07 " style="fill:#231f20;"/><path d="M201.41 569.5 c0 2.8 -2.27 5.07 -5.07 5.07 c-2.8 0 -5.06 -2.27 -5.06 -5.07 c0 -2.8 2.27 -5.07 5.06 -5.07 c2.8 0 5.07 2.27 5.07 5.07 z " style="stroke:#231f20;stroke-width:1.00;"/><path d="M170.94 595.01 l0 -5.68 c0 -1.4 1.13 -2.54 2.53 -2.54 c1.1 0 2.04 0.7 2.39 1.69 c0.6 -0.41 1.24 -0.8 1.91 -1.15 l0 -2.33 c0 -1.84 1.33 -3.32 2.96 -3.32 c1.64 0 2.97 1.49 2.97 3.32 l0 0.25 c0.66 -0.13 1.31 -0.23 1.96 -0.3 l0 -2.87 c0 -1.84 1.33 -3.33 2.96 -3.33 c1.64 0 2.96 1.49 2.96 3.33 l0 2.93 c0.68 0.1 1.33 0.24 1.96 0.41 l0 -12.26 c0 -1.84 1.33 -3.33 2.96 -3.33 c1.64 0 2.97 1.49 2.97 3.33 l0 17.19 c0.18 1.39 0.72 2.21 1.64 2.43 c3.84 -1.3 7.34 -1.98 8.61 -0.71 c1.63 1.63 -0.54 4.46 -3.22 6.59 l-8.47 9 c-2.21 3.23 -5.59 4.52 -9.51 4.88 c-0.19 0.03 -0.38 0.04 -0.55 0.04 c-0.67 0.05 -1.35 0.07 -2.05 0.07 c-1.85 0 -13.67 0.79 -15 -15.95 c-0.08 -0.57 -0.07 -1.13 0.02 -1.69 " style="fill:#ffffff;"/><path d="M170.94 595.01 l0 -5.68 c0 -1.4 1.13 -2.54 2.53 -2.54 c1.1 0 2.04 0.7 2.39 1.69 c0.6 -0.41 1.24 -0.8 1.91 -1.15 l0 -2.33 c0 -1.84 1.33 -3.32 2.96 -3.32 c1.64 0 2.97 1.49 2.97 3.32 l0 0.25 c0.66 -0.13 1.31 -0.23 1.96 -0.3 l0 -2.87 c0 -1.84 1.33 -3.33 2.96 -3.33 c1.64 0 2.96 1.49 2.96 3.33 l0 2.93 c0.68 0.1 1.33 0.24 1.96 0.41 l0 -12.26 c0 -1.84 1.33 -3.33 2.96 -3.33 c1.64 0 2.97 1.49 2.97 3.33 l0 17.19 c0.18 1.39 0.72 2.21 1.64 2.43 c3.84 -1.3 7.34 -1.98 8.61 -0.71 c1.63 1.63 -0.54 4.46 -3.22 6.59 l-8.47 9 c-2.21 3.23 -5.59 4.52 -9.51 4.88 c-0.19 0.03 -0.38 0.04 -0.55 0.04 c-0.67 0.05 -1.35 0.07 -2.05 0.07 c-1.85 0 -13.67 0.79 -15 -15.95 c-0.08 -0.57 -0.07 -1.13 0.02 -1.69 z " style="stroke:#231f20;stroke-width:1.00;"/><path d="M251.88 570.67 c-1.43 3.66 -5.55 5.47 -9.21 4.05 c-3.66 -1.42 -5.47 -5.55 -4.05 -9.21 c1.43 -3.66 5.55 -5.47 9.21 -4.05 c3.66 1.43 5.47 5.55 4.05 9.21 z " style="stroke:#231f20;stroke-width:2.00;"/><path d="M257.48 601.9 l2.56 -5.06 c0.63 -1.25 0.14 -2.78 -1.11 -3.41 c-0.98 -0.5 -2.13 -0.29 -2.89 0.43 c-0.35 -0.64 -0.75 -1.27 -1.19 -1.89 l1.05 -2.08 c0.83 -1.64 0.32 -3.57 -1.14 -4.31 c-1.46 -0.74 -3.32 -0.01 -4.15 1.63 l-0.11 0.22 c-0.53 -0.41 -1.07 -0.8 -1.61 -1.15 l1.3 -2.56 c0.83 -1.64 0.32 -3.57 -1.14 -4.31 c-1.46 -0.74 -3.32 -0.01 -4.15 1.63 l-1.33 2.62 c-0.65 -0.21 -1.29 -0.38 -1.93 -0.51 l5.54 -10.94 c0.83 -1.64 0.32 -3.56 -1.14 -4.31 c-1.46 -0.74 -3.32 -0.01 -4.15 1.63 l-7.77 15.34 c-0.79 1.15 -1.64 1.64 -2.56 1.42 c-2.83 -2.89 -5.65 -5.08 -7.36 -4.52 c-2.19 0.71 -1.53 4.22 -0.1 7.33 l3.49 11.86 c0.51 3.88 2.94 6.56 6.27 8.65 c0.16 0.11 0.32 0.21 0.47 0.29 c0.58 0.34 1.18 0.67 1.8 0.99 c1.65 0.84 11.83 6.89 20.59 -7.44 c0.33 -0.47 0.57 -0.98 0.75 -1.52 " style="fill:#ffffff;"/><path d="M257.48 601.9 l2.56 -5.06 c0.63 -1.25 0.14 -2.78 -1.11 -3.41 c-0.98 -0.5 -2.13 -0.29 -2.89 0.43 c-0.35 -0.64 -0.75 -1.27 -1.19 -1.89 l1.05 -2.08 c0.83 -1.64 0.32 -3.57 -1.14 -4.31 c-1.46 -0.74 -3.32 -0.01 -4.15 1.63 l-0.11 0.22 c-0.53 -0.41 -1.07 -0.8 -1.61 -1.15 l1.3 -2.56 c0.83 -1.64 0.32 -3.57 -1.14 -4.31 c-1.46 -0.74 -3.32 -0.01 -4.15 1.63 l-1.33 2.62 c-0.65 -0.21 -1.29 -0.38 -1.93 -0.51 l5.54 -10.94 c0.83 -1.64 0.32 -3.56 -1.14 -4.31 c-1.46 -0.74 -3.32 -0.01 -4.15 1.63 l-7.77 15.34 c-0.79 1.15 -1.64 1.64 -2.56 1.42 c-2.83 -2.89 -5.65 -5.08 -7.36 -4.52 c-2.19 0.71 -1.53 4.22 -0.1 7.33 l3.49 11.86 c0.51 3.88 2.94 6.56 6.27 8.65 c0.16 0.11 0.32 0.21 0.47 0.29 c0.58 0.34 1.18 0.67 1.8 0.99 c1.65 0.84 11.83 6.89 20.59 -7.44 c0.33 -0.47 0.57 -0.98 0.75 -1.52 z " style="stroke:#231f20;stroke-width:1.00;"/><path d="M170.98 550.95 l387.3 0 " style="stroke:#a7a5a6;stroke-width:0.25;stroke-dasharray:2.0,2.0;"/><text class="f316" font-size="10.00" style="fill:#444141"><tspan x="270.86" y="575.01" textLength="61.5">press and tap</tspan></text><path d="M413.54 651.76 c-0.52 0.46 -1.11 0.86 -1.76 1.18 c-4.03 1.98 -8.92 0.32 -10.9 -3.71 c-1.98 -4.04 -0.32 -8.92 3.71 -10.9 c3.73 -1.84 8.17 -0.54 10.39 2.85 l-2.04 1 l6.96 2.37 l2.38 -6.96 l-1.55 0.76 c-3.79 -6.55 -12.06 -9.13 -18.96 -5.74 c-7.19 3.54 -10.16 12.24 -6.62 19.43 c3.54 7.19 12.24 10.16 19.44 6.62 c0.64 -0.32 1.24 -0.68 1.81 -1.08 l-2.86 -5.82 z " style="fill:#231f20;"/><path d="M413.54 651.76 c-0.52 0.46 -1.11 0.86 -1.76 1.18 c-4.03 1.98 -8.92 0.32 -10.9 -3.71 c-1.98 -4.04 -0.32 -8.92 3.71 -10.9 c3.73 -1.84 8.17 -0.54 10.39 2.85 l-2.04 1 l6.96 2.37 l2.38 -6.96 l-1.55 0.76 c-3.79 -6.55 -12.06 -9.13 -18.96 -5.74 c-7.19 3.54 -10.16 12.24 -6.62 19.43 c3.54 7.19 12.24 10.16 19.44 6.62 c0.64 -0.32 1.24 -0.68 1.81 -1.08 l-2.86 -5.82 z " style="stroke:#231f20;stroke-width:1.00;"/><path d="M431.89 676.09 l0.14 -6.04 c0.03 -1.45 -1.11 -2.65 -2.56 -2.69 c-1.44 -0.04 -2.65 1.11 -2.68 2.56 l-0.03 1.3 c-0.48 -0.29 -0.98 -0.56 -1.49 -0.82 l0 -2.89 c0 -1.9 -1.37 -3.44 -3.06 -3.44 c-1.69 0 -3.06 1.54 -3.06 3.44 l0 0.9 c-0.52 -0.09 -1.03 -0.16 -1.54 -0.22 l0 -14.77 c0 -1.9 -1.37 -3.43 -3.06 -3.43 c-1.69 0 -3.06 1.54 -3.06 3.43 l0 14.83 c-0.69 0.11 -1.37 0.25 -2.02 0.43 l0 -12.66 c0 -1.9 -1.37 -3.44 -3.06 -3.44 c-1.69 0 -3.06 1.54 -3.06 3.44 l0 17.75 c-0.19 1.43 -0.74 2.28 -1.69 2.51 c-3.96 -1.34 -7.58 -2.05 -8.89 -0.73 c-1.69 1.68 0.56 4.6 3.33 6.8 l8.75 9.29 c2.28 3.34 5.77 4.67 9.82 5.04 c0.2 0.03 0.39 0.04 0.57 0.05 c0.69 0.05 1.4 0.07 2.12 0.08 c1.91 0.01 14.11 0.82 15.49 -16.47 c0.2 -1.44 -0.16 -2.88 -0.95 -4.25 " style="fill:#ffffff;"/><path d="M431.89 676.09 l0.14 -6.04 c0.03 -1.45 -1.11 -2.65 -2.56 -2.69 c-1.44 -0.04 -2.65 1.11 -2.68 2.56 l-0.03 1.3 c-0.48 -0.29 -0.98 -0.56 -1.49 -0.82 l0 -2.89 c0 -1.9 -1.37 -3.44 -3.06 -3.44 c-1.69 0 -3.06 1.54 -3.06 3.44 l0 0.9 c-0.52 -0.09 -1.03 -0.16 -1.54 -0.22 l0 -14.77 c0 -1.9 -1.37 -3.43 -3.06 -3.43 c-1.69 0 -3.06 1.54 -3.06 3.43 l0 14.83 c-0.69 0.11 -1.37 0.25 -2.02 0.43 l0 -12.66 c0 -1.9 -1.37 -3.44 -3.06 -3.44 c-1.69 0 -3.06 1.54 -3.06 3.44 l0 17.75 c-0.19 1.43 -0.74 2.28 -1.69 2.51 c-3.96 -1.34 -7.58 -2.05 -8.89 -0.73 c-1.69 1.68 0.56 4.6 3.33 6.8 l8.75 9.29 c2.28 3.34 5.77 4.67 9.82 5.04 c0.2 0.03 0.39 0.04 0.57 0.05 c0.69 0.05 1.4 0.07 2.12 0.08 c1.91 0.01 14.11 0.82 15.49 -16.47 c0.2 -1.44 -0.16 -2.88 -0.95 -4.25 z " style="stroke:#231f20;stroke-width:1.00;"/><text class="f316" font-size="8.00" style="fill:#231f20"><tspan x="266.51" y="669.80" textLength="11.56">OR</tspan>
<tspan x="373.48" y="669.80" textLength="11.56">OR</tspan></text><path d="M344.52 655.12 c0 3.09 -2.51 5.6 -5.6 5.6 c-3.09 0 -5.6 -2.51 -5.6 -5.6 c0 -3.1 2.51 -5.6 5.6 -5.6 c3.09 0 5.6 2.51 5.6 5.6 " style="fill:#231f20;"/><path d="M344.52 655.12 c0 3.09 -2.51 5.6 -5.6 5.6 c-3.09 0 -5.6 -2.51 -5.6 -5.6 c0 -3.1 2.51 -5.6 5.6 -5.6 c3.09 0 5.6 2.51 5.6 5.6 z " style="stroke:#231f20;stroke-width:1.00;"/><path d="M364.59 676.09 l0.14 -6.04 c0.04 -1.45 -1.11 -2.65 -2.56 -2.69 c-1.44 -0.04 -2.65 1.11 -2.68 2.56 l-0.03 1.3 c-0.48 -0.29 -0.98 -0.56 -1.49 -0.82 l0 -2.89 c0 -1.9 -1.37 -3.44 -3.06 -3.44 c-1.69 0 -3.06 1.54 -3.06 3.44 l0 0.9 c-0.52 -0.09 -1.03 -0.16 -1.54 -0.22 l0 -3.21 c0 -1.9 -1.37 -3.44 -3.06 -3.44 c-1.69 0 -3.06 1.54 -3.06 3.44 l0 3.27 c-0.69 0.11 -1.37 0.25 -2.02 0.43 l0 -12.66 c0 -1.9 -1.37 -3.44 -3.06 -3.44 c-1.69 0 -3.06 1.54 -3.06 3.44 l0 17.75 c-0.19 1.43 -0.74 2.28 -1.69 2.51 c-3.96 -1.34 -7.58 -2.05 -8.89 -0.73 c-1.69 1.68 0.56 4.6 3.33 6.8 l8.75 9.29 c2.28 3.34 5.78 4.67 9.82 5.04 c0.2 0.03 0.39 0.04 0.57 0.05 c0.69 0.05 1.4 0.07 2.12 0.08 c1.91 0.01 14.11 0.82 15.49 -16.47 c0.2 -1.44 -0.16 -2.88 -0.95 -4.25 " style="fill:#ffffff;"/><path d="M364.59 676.09 l0.14 -6.04 c0.04 -1.45 -1.11 -2.65 -2.56 -2.69 c-1.44 -0.04 -2.65 1.11 -2.68 2.56 l-0.03 1.3 c-0.48 -0.29 -0.98 -0.56 -1.49 -0.82 l0 -2.89 c0 -1.9 -1.37 -3.44 -3.06 -3.44 c-1.69 0 -3.06 1.54 -3.06 3.44 l0 0.9 c-0.52 -0.09 -1.03 -0.16 -1.54 -0.22 l0 -3.21 c0 -1.9 -1.37 -3.44 -3.06 -3.44 c-1.69 0 -3.06 1.54 -3.06 3.44 l0 3.27 c-0.69 0.11 -1.37 0.25 -2.02 0.43 l0 -12.66 c0 -1.9 -1.37 -3.44 -3.06 -3.44 c-1.69 0 -3.06 1.54 -3.06 3.44 l0 17.75 c-0.19 1.43 -0.74 2.28 -1.69 2.51 c-3.96 -1.34 -7.58 -2.05 -8.89 -0.73 c-1.69 1.68 0.56 4.6 3.33 6.8 l8.75 9.29 c2.28 3.34 5.78 4.67 9.82 5.04 c0.2 0.03 0.39 0.04 0.57 0.05 c0.69 0.05 1.4 0.07 2.12 0.08 c1.91 0.01 14.11 0.82 15.49 -16.47 c0.2 -1.44 -0.16 -2.88 -0.95 -4.25 z " style="stroke:#231f20;stroke-width:1.00;"/><path d="M326.51 657.96 c-0.4 -1.25 -0.63 -2.59 -0.63 -3.98 c0 -7.2 5.84 -13.03 13.03 -13.03 c5.23 0 9.73 3.09 11.8 7.54 l-1.18 0.3 l4.25 3.05 l2.28 -4.71 l-1.29 0.33 c-2.57 -6.23 -8.69 -10.62 -15.85 -10.62 c-9.47 0 -17.14 7.68 -17.14 17.14 c0 1.37 0.16 2.7 0.47 3.98 l4.27 0 z " style="fill:#231f20;"/><path d="M326.51 657.96 c-0.4 -1.25 -0.63 -2.59 -0.63 -3.98 c0 -7.2 5.84 -13.03 13.03 -13.03 c5.23 0 9.73 3.09 11.8 7.54 l-1.18 0.3 l4.25 3.05 l2.28 -4.71 l-1.29 0.33 c-2.57 -6.23 -8.69 -10.62 -15.85 -10.62 c-9.47 0 -17.14 7.68 -17.14 17.14 c0 1.37 0.16 2.7 0.47 3.98 l4.27 0 z " style="stroke:#231f20;stroke-width:1.00;"/><path d="M291.74 659.96 l3.22 -5.11 c0.77 -1.23 2.39 -1.6 3.61 -0.82 c1.22 0.77 1.59 2.39 0.82 3.62 l-0.69 1.1 c0.56 0.02 1.12 0.07 1.69 0.14 l1.6 -2.41 c1.05 -1.58 3.04 -2.1 4.45 -1.17 c1.41 0.93 1.7 2.97 0.65 4.55 l-0.5 0.75 c0.48 0.21 0.94 0.43 1.4 0.66 l1.78 -2.68 c1.05 -1.58 3.04 -2.1 4.45 -1.17 c1.41 0.93 1.7 2.98 0.65 4.55 l-1.81 2.73 c0.52 0.48 1 0.97 1.44 1.48 l7 -10.55 c1.05 -1.58 3.04 -2.1 4.45 -1.17 c1.41 0.94 1.7 2.98 0.65 4.56 l-9.82 14.79 c-0.64 1.29 -0.64 2.31 0.03 3.02 c4.04 1.07 7.44 2.49 7.81 4.31 c0.48 2.33 -3.01 3.52 -6.53 3.82 l-12.43 2.9 c-3.75 1.52 -7.39 0.69 -10.97 -1.23 c-0.18 -0.09 -0.35 -0.18 -0.5 -0.28 c-0.6 -0.34 -1.2 -0.71 -1.8 -1.11 c-1.6 -1.05 -12.22 -7.12 -3.81 -22.28 c0.63 -1.32 1.73 -2.31 3.14 -3.01 " style="fill:#ffffff;"/><path d="M291.74 659.96 l3.22 -5.11 c0.77 -1.23 2.39 -1.6 3.61 -0.82 c1.22 0.77 1.59 2.39 0.82 3.62 l-0.69 1.1 c0.56 0.02 1.12 0.07 1.69 0.14 l1.6 -2.41 c1.05 -1.58 3.04 -2.1 4.45 -1.17 c1.41 0.93 1.7 2.97 0.65 4.55 l-0.5 0.75 c0.48 0.21 0.94 0.43 1.4 0.66 l1.78 -2.68 c1.05 -1.58 3.04 -2.1 4.45 -1.17 c1.41 0.93 1.7 2.98 0.65 4.55 l-1.81 2.73 c0.52 0.48 1 0.97 1.44 1.48 l7 -10.55 c1.05 -1.58 3.04 -2.1 4.45 -1.17 c1.41 0.94 1.7 2.98 0.65 4.56 l-9.82 14.79 c-0.64 1.29 -0.64 2.31 0.03 3.02 c4.04 1.07 7.44 2.49 7.81 4.31 c0.48 2.33 -3.01 3.52 -6.53 3.82 l-12.43 2.9 c-3.75 1.52 -7.39 0.69 -10.97 -1.23 c-0.18 -0.09 -0.35 -0.18 -0.5 -0.28 c-0.6 -0.34 -1.2 -0.71 -1.8 -1.11 c-1.6 -1.05 -12.22 -7.12 -3.81 -22.28 c0.63 -1.32 1.73 -2.31 3.14 -3.01 z " style="stroke:#231f20;stroke-width:1.00;"/><path d="M234.02 649.23 c-3.54 -5.46 -10.09 -8.53 -16.81 -7.25 c-6.7 1.28 -11.65 6.52 -12.94 12.88 l4.31 -0.83 c1.42 -4.07 4.88 -7.28 9.38 -8.14 c4.91 -0.94 9.7 1.19 12.45 5.04 l-1.06 0.5 l4.54 2.14 l1.28 -4.88 l-1.15 0.54 z " style="fill:#231f20;"/><path d="M234.02 649.23 c-3.54 -5.46 -10.09 -8.53 -16.81 -7.25 c-6.7 1.28 -11.65 6.52 -12.94 12.88 l4.31 -0.83 c1.42 -4.07 4.88 -7.28 9.38 -8.14 c4.91 -0.94 9.7 1.19 12.45 5.04 l-1.06 0.5 l4.54 2.14 l1.28 -4.88 l-1.15 0.54 z " style="stroke:#231f20;stroke-width:1.00;"/><path d="M227.42 666.91 l0 -3.17 c-4.79 1.64 -9.88 0.23 -13.2 -3.18 l0.99 -0.65 l-4.89 -1.45 l-0.59 5.06 l1.09 -0.72 c4.36 4.91 11.4 6.99 17.98 4.7 c0.5 -0.17 0.99 -0.37 1.46 -0.59 l-2.85 0 z " style="fill:#231f20;"/><path d="M227.42 666.91 l0 -3.17 c-4.79 1.64 -9.88 0.23 -13.2 -3.18 l0.99 -0.65 l-4.89 -1.45 l-0.59 5.06 l1.09 -0.72 c4.36 4.91 11.4 6.99 17.98 4.7 c0.5 -0.17 0.99 -0.37 1.46 -0.59 l-2.85 0 z " style="stroke:#231f20;stroke-width:1.00;"/><path d="M258.11 671.14 l-2.49 -5.05 c-0.6 -1.21 -2.06 -1.71 -3.27 -1.11 c-1.21 0.59 -1.7 2.06 -1.11 3.27 l0.53 1.09 c-0.52 -0.03 -1.05 -0.04 -1.58 -0.03 l-1.25 -2.39 c-0.82 -1.57 -2.61 -2.24 -4.01 -1.51 c-1.4 0.73 -1.86 2.59 -1.05 4.16 l0.39 0.74 c-0.46 0.15 -0.92 0.31 -1.37 0.48 l-1.38 -2.65 c-0.82 -1.56 -2.61 -2.24 -4.01 -1.51 c-1.4 0.73 -1.86 2.59 -1.04 4.15 l1.41 2.7 c-0.53 0.39 -1.02 0.8 -1.48 1.23 l-5.46 -10.45 c-0.82 -1.57 -2.61 -2.25 -4.01 -1.52 c-1.4 0.73 -1.86 2.59 -1.05 4.15 l7.66 14.65 c0.46 1.26 0.37 2.2 -0.31 2.8 c-3.85 0.6 -7.13 1.58 -7.66 3.23 c-0.67 2.12 2.45 3.56 5.68 4.18 l11.22 3.89 c3.32 1.77 6.78 1.36 10.28 -0.07 c0.18 -0.06 0.34 -0.13 0.49 -0.21 c0.59 -0.26 1.19 -0.54 1.78 -0.85 c1.58 -0.82 12 -5.41 5.68 -20.27 c-0.45 -1.28 -1.38 -2.31 -2.61 -3.09 " style="fill:#ffffff;"/><path d="M258.11 671.14 l-2.49 -5.05 c-0.6 -1.21 -2.06 -1.71 -3.27 -1.11 c-1.21 0.59 -1.7 2.06 -1.11 3.27 l0.53 1.09 c-0.52 -0.03 -1.05 -0.04 -1.58 -0.03 l-1.25 -2.39 c-0.82 -1.57 -2.61 -2.24 -4.01 -1.51 c-1.4 0.73 -1.86 2.59 -1.05 4.16 l0.39 0.74 c-0.46 0.15 -0.92 0.31 -1.37 0.48 l-1.38 -2.65 c-0.82 -1.56 -2.61 -2.24 -4.01 -1.51 c-1.4 0.73 -1.86 2.59 -1.04 4.15 l1.41 2.7 c-0.53 0.39 -1.02 0.8 -1.48 1.23 l-5.46 -10.45 c-0.82 -1.57 -2.61 -2.25 -4.01 -1.52 c-1.4 0.73 -1.86 2.59 -1.05 4.15 l7.66 14.65 c0.46 1.26 0.37 2.2 -0.31 2.8 c-3.85 0.6 -7.13 1.58 -7.66 3.23 c-0.67 2.12 2.45 3.56 5.68 4.18 l11.22 3.89 c3.32 1.77 6.78 1.36 10.28 -0.07 c0.18 -0.06 0.34 -0.13 0.49 -0.21 c0.59 -0.26 1.19 -0.54 1.78 -0.85 c1.58 -0.82 12 -5.41 5.68 -20.27 c-0.45 -1.28 -1.38 -2.31 -2.61 -3.09 z " style="stroke:#231f20;stroke-width:1.00;"/><path d="M176.7 654.11 l2.97 -4.78 c0.71 -1.15 2.22 -1.5 3.36 -0.79 c1.14 0.71 1.49 2.22 0.78 3.36 l-0.64 1.03 c0.52 0.02 1.05 0.06 1.58 0.12 l1.48 -2.25 c0.97 -1.48 2.82 -1.98 4.14 -1.11 c1.32 0.86 1.6 2.76 0.63 4.24 l-0.46 0.7 c0.45 0.19 0.88 0.4 1.31 0.61 l1.64 -2.5 c0.97 -1.48 2.82 -1.97 4.14 -1.11 c1.32 0.87 1.6 2.76 0.63 4.24 l-1.67 2.55 c0.49 0.44 0.94 0.9 1.35 1.37 l6.47 -9.86 c0.97 -1.48 2.82 -1.98 4.14 -1.11 c1.31 0.86 1.6 2.76 0.63 4.24 l-9.07 13.82 c-0.58 1.21 -0.59 2.15 0.04 2.81 c3.77 0.98 6.95 2.28 7.3 3.97 c0.46 2.17 -2.78 3.3 -6.06 3.59 l-11.55 2.77 c-3.48 1.43 -6.88 0.68 -10.22 -1.09 c-0.17 -0.08 -0.32 -0.17 -0.46 -0.25 c-0.56 -0.31 -1.13 -0.66 -1.69 -1.02 c-1.49 -0.97 -11.41 -6.57 -3.66 -20.73 c0.58 -1.23 1.6 -2.17 2.91 -2.82 " style="fill:#ffffff;"/><path d="M176.7 654.11 l2.97 -4.78 c0.71 -1.15 2.22 -1.5 3.36 -0.79 c1.14 0.71 1.49 2.22 0.78 3.36 l-0.64 1.03 c0.52 0.02 1.05 0.06 1.58 0.12 l1.48 -2.25 c0.97 -1.48 2.82 -1.98 4.14 -1.11 c1.32 0.86 1.6 2.76 0.63 4.24 l-0.46 0.7 c0.45 0.19 0.88 0.4 1.31 0.61 l1.64 -2.5 c0.97 -1.48 2.82 -1.97 4.14 -1.11 c1.32 0.87 1.6 2.76 0.63 4.24 l-1.67 2.55 c0.49 0.44 0.94 0.9 1.35 1.37 l6.47 -9.86 c0.97 -1.48 2.82 -1.98 4.14 -1.11 c1.31 0.86 1.6 2.76 0.63 4.24 l-9.07 13.82 c-0.58 1.21 -0.59 2.15 0.04 2.81 c3.77 0.98 6.95 2.28 7.3 3.97 c0.46 2.17 -2.78 3.3 -6.06 3.59 l-11.55 2.77 c-3.48 1.43 -6.88 0.68 -10.22 -1.09 c-0.17 -0.08 -0.32 -0.17 -0.46 -0.25 c-0.56 -0.31 -1.13 -0.66 -1.69 -1.02 c-1.49 -0.97 -11.41 -6.57 -3.66 -20.73 c0.58 -1.23 1.6 -2.17 2.91 -2.82 z " style="stroke:#231f20;stroke-width:1.00;"/>
</svg>
