
<?xml-stylesheet href="css/stylesheet.css" type="text/css"?>
<svg class="crocodoc-1VEYgr crocodoc-page-svg" version="1.1"
    xmlns="http://www.w3.org/2000/svg"
    xmlns:xlink="http://www.w3.org/1999/xlink"
    xml:space="preserve" width="612pt" height="792pt" viewBox="0 0 612 792">
<defs>

</defs>
<path d="M558.27 405.79 l-501.72 0 l0 -23.32 l501.72 0 l0 23.32 z " style="fill:#d3d2d2;"/><path d="M558.27 145.09 l-501.72 0 l0 -23.33 l501.72 0 l0 23.33 z " style="fill:#d3d2d2;"/><path d="M189.74 191.13 c0 2.8 -2.27 5.07 -5.07 5.07 c-2.8 0 -5.07 -2.27 -5.07 -5.07 c0 -2.8 2.27 -5.07 5.07 -5.07 c2.8 0 5.07 2.27 5.07 5.07 " style="fill:#231f20;"/><path d="M189.74 191.13 c0 2.8 -2.27 5.07 -5.07 5.07 c-2.8 0 -5.07 -2.27 -5.07 -5.07 c0 -2.8 2.27 -5.07 5.07 -5.07 c2.8 0 5.07 2.27 5.07 5.07 z " style="stroke:#231f20;stroke-width:1.00;"/><path d="M210.21 213.64 l0 -5.68 c0 -1.4 -1.13 -2.54 -2.54 -2.54 c-1.1 0 -2.04 0.7 -2.39 1.69 c-0.6 -0.41 -1.24 -0.8 -1.91 -1.15 l0 -2.33 c0 -1.84 -1.33 -3.33 -2.96 -3.33 c-1.64 0 -2.97 1.49 -2.97 3.33 l0 0.25 c-0.66 -0.13 -1.31 -0.23 -1.96 -0.3 l0 -2.87 c0 -1.84 -1.33 -3.33 -2.97 -3.33 c-1.64 0 -2.96 1.49 -2.96 3.33 l0 2.93 c-0.68 0.1 -1.33 0.24 -1.96 0.42 l0 -12.26 c0 -1.84 -1.33 -3.33 -2.96 -3.33 c-1.64 0 -2.97 1.49 -2.97 3.33 l0 17.2 c-0.18 1.38 -0.72 2.21 -1.64 2.43 c-3.84 -1.3 -7.34 -1.98 -8.61 -0.71 c-1.63 1.63 0.54 4.46 3.23 6.59 l8.47 9 c2.21 3.23 5.59 4.52 9.51 4.88 c0.19 0.03 0.38 0.04 0.55 0.04 c0.67 0.05 1.35 0.07 2.05 0.07 c1.85 0.01 13.67 0.8 15 -15.95 c0.08 -0.57 0.07 -1.13 -0.02 -1.7 " style="fill:#ffffff;"/><path d="M210.21 213.64 l0 -5.68 c0 -1.4 -1.13 -2.54 -2.54 -2.54 c-1.1 0 -2.04 0.7 -2.39 1.69 c-0.6 -0.41 -1.24 -0.8 -1.91 -1.15 l0 -2.33 c0 -1.84 -1.33 -3.33 -2.96 -3.33 c-1.64 0 -2.97 1.49 -2.97 3.33 l0 0.25 c-0.66 -0.13 -1.31 -0.23 -1.96 -0.3 l0 -2.87 c0 -1.84 -1.33 -3.33 -2.97 -3.33 c-1.64 0 -2.96 1.49 -2.96 3.33 l0 2.93 c-0.68 0.1 -1.33 0.24 -1.96 0.42 l0 -12.26 c0 -1.84 -1.33 -3.33 -2.96 -3.33 c-1.64 0 -2.97 1.49 -2.97 3.33 l0 17.2 c-0.18 1.38 -0.72 2.21 -1.64 2.43 c-3.84 -1.3 -7.34 -1.98 -8.61 -0.71 c-1.63 1.63 0.54 4.46 3.23 6.59 l8.47 9 c2.21 3.23 5.59 4.52 9.51 4.88 c0.19 0.03 0.38 0.04 0.55 0.04 c0.67 0.05 1.35 0.07 2.05 0.07 c1.85 0.01 13.67 0.8 15 -15.95 c0.08 -0.57 0.07 -1.13 -0.02 -1.7 z " style="stroke:#231f20;stroke-width:1.00;"/><path d="M191.33 260.56 c0 3.37 -2.73 6.1 -6.1 6.1 c-3.37 0 -6.1 -2.73 -6.1 -6.1 c0 -3.37 2.73 -6.1 6.1 -6.1 c3.37 0 6.1 2.73 6.1 6.1 z " style="stroke:#231f20;stroke-width:1.00;"/><path d="M194.76 260.56 c0 5.26 -4.27 9.53 -9.53 9.53 c-5.27 0 -9.53 -4.27 -9.53 -9.53 c0 -5.27 4.27 -9.53 9.53 -9.53 c5.26 0 9.53 4.27 9.53 9.53 z " style="stroke:#231f20;stroke-width:2.00;"/><path d="M211.71 284.03 l0 -5.89 c0 -1.46 -1.18 -2.64 -2.63 -2.64 c-1.14 0 -2.11 0.73 -2.48 1.75 c-0.62 -0.43 -1.29 -0.83 -1.98 -1.2 l0 -2.42 c0 -1.91 -1.38 -3.46 -3.08 -3.46 c-1.7 0 -3.08 1.55 -3.08 3.46 l0 0.25 c-0.68 -0.13 -1.36 -0.24 -2.03 -0.31 l0 -2.98 c0 -1.91 -1.38 -3.45 -3.08 -3.45 c-1.7 0 -3.08 1.54 -3.08 3.45 l0 3.04 c-0.7 0.11 -1.38 0.25 -2.03 0.43 l0 -12.73 c0 -1.91 -1.38 -3.45 -3.08 -3.45 c-1.7 0 -3.08 1.55 -3.08 3.45 l0 17.85 c-0.19 1.44 -0.74 2.29 -1.7 2.52 c-3.98 -1.35 -7.62 -2.06 -8.94 -0.74 c-1.7 1.69 0.56 4.63 3.35 6.84 l8.8 9.34 c2.29 3.35 5.81 4.69 9.87 5.07 c0.2 0.03 0.39 0.04 0.57 0.05 c0.7 0.05 1.41 0.07 2.13 0.08 c1.92 0 14.19 0.82 15.58 -16.55 c0.08 -0.59 0.07 -1.18 -0.02 -1.76 " style="fill:#ffffff;"/><path d="M211.71 284.03 l0 -5.89 c0 -1.46 -1.18 -2.64 -2.63 -2.64 c-1.14 0 -2.11 0.73 -2.48 1.75 c-0.62 -0.43 -1.29 -0.83 -1.98 -1.2 l0 -2.42 c0 -1.91 -1.38 -3.46 -3.08 -3.46 c-1.7 0 -3.08 1.55 -3.08 3.46 l0 0.25 c-0.68 -0.13 -1.36 -0.24 -2.03 -0.31 l0 -2.98 c0 -1.91 -1.38 -3.45 -3.08 -3.45 c-1.7 0 -3.08 1.54 -3.08 3.45 l0 3.04 c-0.7 0.11 -1.38 0.25 -2.03 0.43 l0 -12.73 c0 -1.91 -1.38 -3.45 -3.08 -3.45 c-1.7 0 -3.08 1.55 -3.08 3.45 l0 17.85 c-0.19 1.44 -0.74 2.29 -1.7 2.52 c-3.98 -1.35 -7.62 -2.06 -8.94 -0.74 c-1.7 1.69 0.56 4.63 3.35 6.84 l8.8 9.34 c2.29 3.35 5.81 4.69 9.87 5.07 c0.2 0.03 0.39 0.04 0.57 0.05 c0.7 0.05 1.41 0.07 2.13 0.08 c1.92 0 14.19 0.82 15.58 -16.55 c0.08 -0.59 0.07 -1.18 -0.02 -1.76 z " style="stroke:#231f20;stroke-width:1.00;"/><path d="M192.46 330.03 c0 3.93 -3.19 7.11 -7.11 7.11 c-3.93 0 -7.11 -3.19 -7.11 -7.11 c0 -3.93 3.18 -7.11 7.11 -7.11 c3.93 0 7.11 3.18 7.11 7.11 z " style="stroke:#231f20;stroke-width:2.00;"/><path d="M211.71 353.84 l0 -5.89 c0 -1.46 -1.18 -2.64 -2.63 -2.64 c-1.14 0 -2.11 0.73 -2.48 1.75 c-0.63 -0.43 -1.29 -0.83 -1.98 -1.2 l0 -2.42 c0 -1.91 -1.38 -3.46 -3.08 -3.46 c-1.7 0 -3.08 1.55 -3.08 3.46 l0 0.25 c-0.68 -0.13 -1.36 -0.24 -2.03 -0.31 l0 -2.98 c0 -1.91 -1.38 -3.45 -3.08 -3.45 c-1.7 0 -3.08 1.55 -3.08 3.45 l0 3.04 c-0.7 0.11 -1.38 0.25 -2.03 0.44 l0 -12.73 c0 -1.91 -1.38 -3.45 -3.08 -3.45 c-1.7 0 -3.08 1.55 -3.08 3.45 l0 17.85 c-0.19 1.44 -0.74 2.29 -1.7 2.52 c-3.98 -1.35 -7.62 -2.06 -8.94 -0.74 c-1.7 1.69 0.56 4.63 3.35 6.84 l8.8 9.34 c2.29 3.35 5.81 4.69 9.87 5.07 c0.2 0.03 0.39 0.04 0.57 0.05 c0.7 0.05 1.41 0.07 2.13 0.08 c1.92 0.01 14.19 0.83 15.58 -16.55 c0.08 -0.59 0.07 -1.18 -0.02 -1.76 " style="fill:#ffffff;"/><path d="M211.71 353.84 l0 -5.89 c0 -1.46 -1.18 -2.64 -2.63 -2.64 c-1.14 0 -2.11 0.73 -2.48 1.75 c-0.63 -0.43 -1.29 -0.83 -1.98 -1.2 l0 -2.42 c0 -1.91 -1.38 -3.46 -3.08 -3.46 c-1.7 0 -3.08 1.55 -3.08 3.46 l0 0.25 c-0.68 -0.13 -1.36 -0.24 -2.03 -0.31 l0 -2.98 c0 -1.91 -1.38 -3.45 -3.08 -3.45 c-1.7 0 -3.08 1.55 -3.08 3.45 l0 3.04 c-0.7 0.11 -1.38 0.25 -2.03 0.44 l0 -12.73 c0 -1.91 -1.38 -3.45 -3.08 -3.45 c-1.7 0 -3.08 1.55 -3.08 3.45 l0 17.85 c-0.19 1.44 -0.74 2.29 -1.7 2.52 c-3.98 -1.35 -7.62 -2.06 -8.94 -0.74 c-1.7 1.69 0.56 4.63 3.35 6.84 l8.8 9.34 c2.29 3.35 5.81 4.69 9.87 5.07 c0.2 0.03 0.39 0.04 0.57 0.05 c0.7 0.05 1.41 0.07 2.13 0.08 c1.92 0.01 14.19 0.83 15.58 -16.55 c0.08 -0.59 0.07 -1.18 -0.02 -1.76 z " style="stroke:#231f20;stroke-width:1.00;"/><path d="M181.03 470.45 c0 2.81 -2.28 5.09 -5.09 5.09 c-2.81 0 -5.09 -2.28 -5.09 -5.09 c0 -2.81 2.28 -5.08 5.09 -5.08 c2.81 0 5.09 2.27 5.09 5.08 " style="fill:#211d1d;"/><path d="M181.03 470.45 c0 2.81 -2.28 5.09 -5.09 5.09 c-2.81 0 -5.09 -2.28 -5.09 -5.09 c0 -2.81 2.28 -5.08 5.09 -5.08 c2.81 0 5.09 2.27 5.09 5.08 " style="fill:#231f20;"/><path d="M181.03 470.45 c0 2.81 -2.28 5.09 -5.09 5.09 c-2.81 0 -5.09 -2.28 -5.09 -5.09 c0 -2.81 2.28 -5.08 5.09 -5.08 c2.81 0 5.09 2.27 5.09 5.08 z " style="stroke:#231f20;stroke-width:1.00;"/><path d="M202.9 449.98 l-4.13 -3.47 l0 1.41 l-18.72 0 l0 4.11 l18.72 0 l0 1.41 l4.13 -3.46 z " style="fill:#231f20;"/><path d="M202.9 449.98 l-4.13 -3.47 l0 1.41 l-18.72 0 l0 4.11 l18.72 0 l0 1.41 l4.13 -3.46 z " style="stroke:#231f20;stroke-width:1.00;"/><path d="M183.55 471.38 c-2.77 -0.43 -2.3 3.46 0.54 3.46 c6.91 0 8.29 -13.59 8.29 -13.59 c-0.88 0.29 -1.71 0.64 -2.48 1.03 l-4.94 -13.31 c-0.7 -1.88 -2.63 -2.9 -4.3 -2.28 c-1.68 0.62 -2.47 2.65 -1.77 4.54 l5.8 15.62 c0.47 2.47 0.13 4 -1.12 4.54 " style="fill:#ffffff;"/><path d="M183.55 471.38 c-2.77 -0.43 -2.3 3.46 0.54 3.46 c6.91 0 8.29 -13.59 8.29 -13.59 c-0.88 0.29 -1.71 0.64 -2.48 1.03 l-4.94 -13.31 c-0.7 -1.88 -2.63 -2.9 -4.3 -2.28 c-1.68 0.62 -2.47 2.65 -1.77 4.54 l5.8 15.62 c0.47 2.47 0.13 4 -1.12 4.54 z " style="stroke:#211d1d;stroke-width:1.00;stroke-dasharray:2.0,2.0;"/><path d="M216.02 469.99 l0 -5.77 c0 -1.53 -1.24 -2.78 -2.77 -2.78 c-1.53 0 -2.77 1.24 -2.77 2.78 c-0.29 -0.01 -0.59 -0.19 -0.9 -0.36 l0 -2.85 c0 -2.01 -1.45 -3.64 -3.24 -3.64 c-1.79 0 -3.24 1.63 -3.24 3.64 l0 0.45 c-0.08 -0.02 -0.16 -0.03 -0.24 -0.05 c-0.29 -0.06 -0.58 -0.1 -0.87 -0.15 l0 -2.58 c0 -2.01 -1.45 -3.64 -3.24 -3.64 c-1.79 0 -3.24 1.63 -3.24 3.64 l0 2.29 c-0.63 0.06 -0.72 0.14 -1.32 0.24 l3.04 -10.91 c0.62 -1.91 -0.25 -3.91 -1.96 -4.46 c-1.7 -0.55 -3.59 0.55 -4.2 2.46 l-4.07 14.61 l-1.79 6.56 c-0.14 0.07 -1.31 0.13 -1.48 0.17 c-4.19 -1.42 -8.02 -2.16 -9.41 -0.78 c-1.79 1.78 0.59 4.87 3.52 7.2 l9.26 9.84 c2.41 3.53 6.11 4.94 10.4 5.34 c0.21 0.03 0.41 0.05 0.6 0.05 c0.73 0.05 1.48 0.07 2.24 0.08 c2.02 0.01 14.94 0.87 16.4 -17.43 c0.19 -1.33 -0.08 -2.66 -0.71 -3.94 " style="fill:#ffffff;"/><path d="M216.02 469.99 l0 -5.77 c0 -1.53 -1.24 -2.78 -2.77 -2.78 c-1.53 0 -2.77 1.24 -2.77 2.78 c-0.29 -0.01 -0.59 -0.19 -0.9 -0.36 l0 -2.85 c0 -2.01 -1.45 -3.64 -3.24 -3.64 c-1.79 0 -3.24 1.63 -3.24 3.64 l0 0.45 c-0.08 -0.02 -0.16 -0.03 -0.24 -0.05 c-0.29 -0.06 -0.58 -0.1 -0.87 -0.15 l0 -2.58 c0 -2.01 -1.45 -3.64 -3.24 -3.64 c-1.79 0 -3.24 1.63 -3.24 3.64 l0 2.29 c-0.63 0.06 -0.72 0.14 -1.32 0.24 l3.04 -10.91 c0.62 -1.91 -0.25 -3.91 -1.96 -4.46 c-1.7 -0.55 -3.59 0.55 -4.2 2.46 l-4.07 14.61 l-1.79 6.56 c-0.14 0.07 -1.31 0.13 -1.48 0.17 c-4.19 -1.42 -8.02 -2.16 -9.41 -0.78 c-1.79 1.78 0.59 4.87 3.52 7.2 l9.26 9.84 c2.41 3.53 6.11 4.94 10.4 5.34 c0.21 0.03 0.41 0.05 0.6 0.05 c0.73 0.05 1.48 0.07 2.24 0.08 c2.02 0.01 14.94 0.87 16.4 -17.43 c0.19 -1.33 -0.08 -2.66 -0.71 -3.94 " style="stroke:#231f20;stroke-width:1.00;"/><path d="M216.02 469.99 l0 -5.77 c0 -1.53 -1.24 -2.78 -2.77 -2.78 c-1.53 0 -2.77 1.24 -2.77 2.78 c-0.29 -0.01 -0.59 -0.19 -0.9 -0.36 l0 -2.85 c0 -2.01 -1.45 -3.64 -3.24 -3.64 c-1.79 0 -3.24 1.63 -3.24 3.64 l0 0.45 c-0.08 -0.02 -0.16 -0.03 -0.24 -0.05 c-0.29 -0.06 -0.58 -0.1 -0.87 -0.15 l0 -2.58 c0 -2.01 -1.45 -3.64 -3.24 -3.64 c-1.79 0 -3.24 1.63 -3.24 3.64 l0 2.29 c-0.63 0.06 -0.72 0.14 -1.32 0.24 l3.04 -10.91 c0.62 -1.91 -0.25 -3.91 -1.96 -4.46 c-1.7 -0.55 -3.59 0.55 -4.2 2.46 l-4.07 14.61 l-1.79 6.56 c-0.14 0.07 -1.31 0.13 -1.48 0.17 c-4.19 -1.42 -8.02 -2.16 -9.41 -0.78 c-1.79 1.78 0.59 4.87 3.52 7.2 l9.26 9.84 c2.41 3.53 6.11 4.94 10.4 5.34 c0.21 0.03 0.41 0.05 0.6 0.05 c0.73 0.05 1.48 0.07 2.24 0.08 c2.02 0.01 14.94 0.87 16.4 -17.43 c0.19 -1.33 -0.08 -2.66 -0.71 -3.94 z " style="stroke:#211d1d;stroke-width:1.00;"/><path d="M292.79 470.33 l0 -4.89 l0 -13.83 l1.42 0 l-3.47 -4.13 l-3.47 4.13 l1.42 0 l0 13.83 l0 4.89 l0 13.83 l-1.42 0 l3.47 4.13 l3.47 -4.13 l-1.42 0 l0 -13.83 z " style="fill:#231f20;"/><path d="M292.79 470.33 l0 -4.89 l0 -13.83 l1.42 0 l-3.47 -4.13 l-3.47 4.13 l1.42 0 l0 13.83 l0 4.89 l0 13.83 l-1.42 0 l3.47 4.13 l3.47 -4.13 l-1.42 0 l0 -13.83 z " style="stroke:#231f20;stroke-width:1.00;"/><path d="M324.83 460.01 l-4.41 -4.38 c-1.06 -1.05 -2.77 -1.05 -3.81 0.01 c-1.05 1.05 -1.04 2.76 0.02 3.81 l0.95 0.95 c-0.55 0.15 -1.11 0.33 -1.66 0.54 l-2.16 -2.05 c-1.42 -1.34 -3.53 -1.4 -4.73 -0.14 c-1.19 1.26 -1.02 3.38 0.4 4.72 l0.67 0.63 c-0.43 0.32 -0.85 0.65 -1.25 0.99 l-2.4 -2.27 c-1.42 -1.34 -3.53 -1.4 -4.73 -0.14 c-1.19 1.26 -1.01 3.37 0.4 4.72 l2.45 2.31 c-0.41 0.6 -0.78 1.21 -1.11 1.82 l-9.46 -8.95 c-1.42 -1.34 -3.53 -1.4 -4.73 -0.14 c-1.2 1.26 -1.02 3.37 0.4 4.72 l13.26 12.55 c0.94 1.15 1.18 2.16 0.67 3.03 c-3.81 2.01 -6.88 4.22 -6.84 6.13 c0.06 2.45 3.83 2.84 7.43 2.32 l13.13 0.04 c4.1 0.65 7.57 -1.01 10.71 -3.77 c0.16 -0.13 0.31 -0.26 0.44 -0.39 c0.53 -0.48 1.04 -0.99 1.55 -1.53 c1.36 -1.42 10.59 -9.96 -1.35 -23.21 c-0.93 -1.17 -2.27 -1.92 -3.84 -2.29 " style="fill:#ffffff;"/><path d="M324.83 460.01 l-4.41 -4.38 c-1.06 -1.05 -2.77 -1.05 -3.81 0.01 c-1.05 1.05 -1.04 2.76 0.02 3.81 l0.95 0.95 c-0.55 0.15 -1.11 0.33 -1.66 0.54 l-2.16 -2.05 c-1.42 -1.34 -3.53 -1.4 -4.73 -0.14 c-1.19 1.26 -1.02 3.38 0.4 4.72 l0.67 0.63 c-0.43 0.32 -0.85 0.65 -1.25 0.99 l-2.4 -2.27 c-1.42 -1.34 -3.53 -1.4 -4.73 -0.14 c-1.19 1.26 -1.01 3.37 0.4 4.72 l2.45 2.31 c-0.41 0.6 -0.78 1.21 -1.11 1.82 l-9.46 -8.95 c-1.42 -1.34 -3.53 -1.4 -4.73 -0.14 c-1.2 1.26 -1.02 3.37 0.4 4.72 l13.26 12.55 c0.94 1.15 1.18 2.16 0.67 3.03 c-3.81 2.01 -6.88 4.22 -6.84 6.13 c0.06 2.45 3.83 2.84 7.43 2.32 l13.13 0.04 c4.1 0.65 7.57 -1.01 10.71 -3.77 c0.16 -0.13 0.31 -0.26 0.44 -0.39 c0.53 -0.48 1.04 -0.99 1.55 -1.53 c1.36 -1.42 10.59 -9.96 -1.35 -23.21 c-0.93 -1.17 -2.27 -1.92 -3.84 -2.29 " style="stroke:#231f20;stroke-width:1.00;"/><path d="M324.83 460.01 l-4.41 -4.38 c-1.06 -1.05 -2.77 -1.05 -3.81 0.01 c-1.05 1.05 -1.04 2.76 0.02 3.81 l0.95 0.95 c-0.55 0.15 -1.11 0.33 -1.66 0.54 l-2.16 -2.05 c-1.42 -1.34 -3.53 -1.4 -4.73 -0.14 c-1.19 1.26 -1.02 3.38 0.4 4.72 l0.67 0.63 c-0.43 0.32 -0.85 0.65 -1.25 0.99 l-2.4 -2.27 c-1.42 -1.34 -3.53 -1.4 -4.73 -0.14 c-1.19 1.26 -1.01 3.37 0.4 4.72 l2.45 2.31 c-0.41 0.6 -0.78 1.21 -1.11 1.82 l-9.46 -8.95 c-1.42 -1.34 -3.53 -1.4 -4.73 -0.14 c-1.2 1.26 -1.02 3.37 0.4 4.72 l13.26 12.55 c0.94 1.15 1.18 2.16 0.67 3.03 c-3.81 2.01 -6.88 4.22 -6.84 6.13 c0.06 2.45 3.83 2.84 7.43 2.32 l13.13 0.04 c4.1 0.65 7.57 -1.01 10.71 -3.77 c0.16 -0.13 0.31 -0.26 0.44 -0.39 c0.53 -0.48 1.04 -0.99 1.55 -1.53 c1.36 -1.42 10.59 -9.96 -1.35 -23.21 c-0.93 -1.17 -2.27 -1.92 -3.84 -2.29 z " style="stroke:#211d1d;stroke-width:1.00;"/><path d="M273.31 448.47 c0 2.81 -2.28 5.09 -5.08 5.09 c-2.81 0 -5.09 -2.28 -5.09 -5.09 c0 -2.81 2.28 -5.08 5.09 -5.08 c2.81 0 5.08 2.28 5.08 5.08 " style="fill:#211d1d;"/><path d="M273.31 448.47 c0 2.81 -2.28 5.09 -5.08 5.09 c-2.81 0 -5.09 -2.28 -5.09 -5.09 c0 -2.81 2.28 -5.08 5.09 -5.08 c2.81 0 5.08 2.28 5.08 5.08 " style="fill:#231f20;"/><path d="M273.31 448.47 c0 2.81 -2.28 5.09 -5.08 5.09 c-2.81 0 -5.09 -2.28 -5.09 -5.09 c0 -2.81 2.28 -5.08 5.09 -5.08 c2.81 0 5.08 2.28 5.08 5.08 z " style="stroke:#231f20;stroke-width:1.00;"/><path d="M242.22 470.04 l-0.14 -6.22 c-0.04 -1.49 1.14 -2.73 2.63 -2.76 c1.49 -0.03 2.72 1.15 2.75 2.64 l0.03 1.34 c0.49 -0.3 1 -0.57 1.53 -0.84 l0 -2.98 c0 -1.95 1.42 -3.53 3.15 -3.53 c1.74 0 3.15 1.59 3.14 3.54 l0 0.93 c0.53 -0.09 1.06 -0.16 1.58 -0.23 l0 -3.3 c0 -1.95 1.41 -3.53 3.16 -3.53 c1.74 0 3.14 1.59 3.14 3.54 l0 3.37 c0.72 0.11 1.41 0.26 2.08 0.45 l0.02 -13.03 c0 -1.95 1.41 -3.53 3.15 -3.53 c1.74 0 3.15 1.59 3.14 3.54 l-0.02 18.26 c0.19 1.47 0.76 2.35 1.74 2.58 c4.08 -1.38 7.8 -2.09 9.15 -0.75 c1.74 1.73 -0.58 4.73 -3.43 6.99 l-9.01 9.54 c-2.35 3.43 -5.95 4.79 -10.11 5.18 c-0.21 0.03 -0.4 0.04 -0.58 0.05 c-0.71 0.05 -1.44 0.07 -2.18 0.07 c-1.96 0 -14.52 0.83 -15.92 -16.95 c-0.21 -1.48 0.17 -2.97 0.98 -4.37 " style="fill:#ffffff;"/><path d="M242.22 470.04 l-0.14 -6.22 c-0.04 -1.49 1.14 -2.73 2.63 -2.76 c1.49 -0.03 2.72 1.15 2.75 2.64 l0.03 1.34 c0.49 -0.3 1 -0.57 1.53 -0.84 l0 -2.98 c0 -1.95 1.42 -3.53 3.15 -3.53 c1.74 0 3.15 1.59 3.14 3.54 l0 0.93 c0.53 -0.09 1.06 -0.16 1.58 -0.23 l0 -3.3 c0 -1.95 1.41 -3.53 3.16 -3.53 c1.74 0 3.14 1.59 3.14 3.54 l0 3.37 c0.72 0.11 1.41 0.26 2.08 0.45 l0.02 -13.03 c0 -1.95 1.41 -3.53 3.15 -3.53 c1.74 0 3.15 1.59 3.14 3.54 l-0.02 18.26 c0.19 1.47 0.76 2.35 1.74 2.58 c4.08 -1.38 7.8 -2.09 9.15 -0.75 c1.74 1.73 -0.58 4.73 -3.43 6.99 l-9.01 9.54 c-2.35 3.43 -5.95 4.79 -10.11 5.18 c-0.21 0.03 -0.4 0.04 -0.58 0.05 c-0.71 0.05 -1.44 0.07 -2.18 0.07 c-1.96 0 -14.52 0.83 -15.92 -16.95 c-0.21 -1.48 0.17 -2.97 0.98 -4.37 " style="stroke:#231f20;stroke-width:1.00;"/><path d="M242.22 470.04 l-0.14 -6.22 c-0.04 -1.49 1.14 -2.73 2.63 -2.76 c1.49 -0.03 2.72 1.15 2.75 2.64 l0.03 1.34 c0.49 -0.3 1 -0.57 1.53 -0.84 l0 -2.98 c0 -1.95 1.42 -3.53 3.15 -3.53 c1.74 0 3.15 1.59 3.14 3.54 l0 0.93 c0.53 -0.09 1.06 -0.16 1.58 -0.23 l0 -3.3 c0 -1.95 1.41 -3.53 3.16 -3.53 c1.74 0 3.14 1.59 3.14 3.54 l0 3.37 c0.72 0.11 1.41 0.26 2.08 0.45 l0.02 -13.03 c0 -1.95 1.41 -3.53 3.15 -3.53 c1.74 0 3.15 1.59 3.14 3.54 l-0.02 18.26 c0.19 1.47 0.76 2.35 1.74 2.58 c4.08 -1.38 7.8 -2.09 9.15 -0.75 c1.74 1.73 -0.58 4.73 -3.43 6.99 l-9.01 9.54 c-2.35 3.43 -5.95 4.79 -10.11 5.18 c-0.21 0.03 -0.4 0.04 -0.58 0.05 c-0.71 0.05 -1.44 0.07 -2.18 0.07 c-1.96 0 -14.52 0.83 -15.92 -16.95 c-0.21 -1.48 0.17 -2.97 0.98 -4.37 z " style="stroke:#211d1d;stroke-width:1.00;"/><text class="f316" font-size="8.00" style="fill:#110f0d"><tspan x="222.25" y="468.11" textLength="11.56">OR</tspan></text><text class="f316" font-size="8.00" style="fill:#110f0d"><tspan x="205.86" y="573.33" textLength="4.45">1</tspan></text><path d="M218.59 542.86 c0 2.98 -0.9 5.75 -2.45 8.06 l3.06 1.97 c1.92 -2.88 3.04 -6.33 3.04 -10.03 c0 -10.1 -8.27 -18.29 -18.48 -18.29 c-9.91 0 -17.97 7.73 -18.43 17.42 l2.06 0.87 l1.57 0.36 c0 -0.12 -0.02 -0.24 -0.02 -0.36 c0 -8.1 6.64 -14.68 14.82 -14.68 c8.19 0 14.82 6.57 14.82 14.68 " style="fill:#231f20;"/><path d="M218.59 542.86 c0 2.98 -0.9 5.75 -2.45 8.06 l3.06 1.97 c1.92 -2.88 3.04 -6.33 3.04 -10.03 c0 -10.1 -8.27 -18.29 -18.48 -18.29 c-9.91 0 -17.97 7.73 -18.43 17.42 l2.06 0.87 l1.57 0.36 c0 -0.12 -0.02 -0.24 -0.02 -0.36 c0 -8.1 6.64 -14.68 14.82 -14.68 c8.19 0 14.82 6.57 14.82 14.68 z " style="stroke:#231f20;stroke-width:1.00;"/><path d="M219.49 553.61 l-4.03 -2.78 l-0.28 0.41 l-1.39 -0.95 l0.63 6.39 l6.19 -1.72 l-1.39 -0.95 l0.27 -0.39 z " style="fill:#231f20;"/><path d="M219.49 553.61 l-4.03 -2.78 l-0.28 0.41 l-1.39 -0.95 l0.63 6.39 l6.19 -1.72 l-1.39 -0.95 l0.27 -0.39 z " style="stroke:#231f20;stroke-width:1.00;"/><path d="M204.77 563.5 l1.05 -4.92 c0.26 -1.22 -0.51 -2.42 -1.73 -2.68 c-0.96 -0.2 -1.9 0.24 -2.39 1.02 c-0.45 -0.47 -0.93 -0.92 -1.44 -1.35 l0.43 -2.02 c0.34 -1.6 -0.54 -3.14 -1.96 -3.44 c-1.42 -0.3 -2.85 0.74 -3.19 2.34 l-0.05 0.21 c-0.55 -0.23 -1.1 -0.44 -1.64 -0.63 l0.53 -2.49 c0.34 -1.59 -0.54 -3.13 -1.96 -3.43 c-1.42 -0.3 -2.85 0.74 -3.19 2.33 l-0.54 2.54 c-0.61 -0.03 -1.2 -0.03 -1.78 0 l2.28 -10.64 c0.34 -1.59 -0.53 -3.13 -1.96 -3.44 c-1.42 -0.3 -2.85 0.75 -3.19 2.34 l-3.19 14.92 c-0.41 1.17 -1.03 1.78 -1.87 1.8 c-3.09 -1.84 -6 -3.08 -7.34 -2.22 c-1.72 1.11 -0.36 3.97 1.58 6.32 l5.68 9.38 c1.32 3.21 4.02 4.96 7.35 6 c0.16 0.06 0.32 0.11 0.47 0.14 c0.57 0.17 1.16 0.31 1.77 0.44 c1.61 0.35 11.72 3.22 15.98 -11.06 c0.17 -0.48 0.27 -0.97 0.29 -1.48 " style="fill:#ffffff;"/><path d="M204.77 563.5 l1.05 -4.92 c0.26 -1.22 -0.51 -2.42 -1.73 -2.68 c-0.96 -0.2 -1.9 0.24 -2.39 1.02 c-0.45 -0.47 -0.93 -0.92 -1.44 -1.35 l0.43 -2.02 c0.34 -1.6 -0.54 -3.14 -1.96 -3.44 c-1.42 -0.3 -2.85 0.74 -3.19 2.34 l-0.05 0.21 c-0.55 -0.23 -1.1 -0.44 -1.64 -0.63 l0.53 -2.49 c0.34 -1.59 -0.54 -3.13 -1.96 -3.43 c-1.42 -0.3 -2.85 0.74 -3.19 2.33 l-0.54 2.54 c-0.61 -0.03 -1.2 -0.03 -1.78 0 l2.28 -10.64 c0.34 -1.59 -0.53 -3.13 -1.96 -3.44 c-1.42 -0.3 -2.85 0.75 -3.19 2.34 l-3.19 14.92 c-0.41 1.17 -1.03 1.78 -1.87 1.8 c-3.09 -1.84 -6 -3.08 -7.34 -2.22 c-1.72 1.11 -0.36 3.97 1.58 6.32 l5.68 9.38 c1.32 3.21 4.02 4.96 7.35 6 c0.16 0.06 0.32 0.11 0.47 0.14 c0.57 0.17 1.16 0.31 1.77 0.44 c1.61 0.35 11.72 3.22 15.98 -11.06 c0.17 -0.48 0.27 -0.97 0.29 -1.48 z " style="stroke:#231f20;stroke-width:1.00;"/><path d="M240.5 555.15 l5.39 0.13 l-0.88 -1.11 l20.61 -16.71 l-2.57 -3.21 l-20.61 16.71 l-0.88 -1.11 l-1.05 5.29 z " style="fill:#231f20;"/><path d="M240.5 555.15 l5.39 0.13 l-0.88 -1.11 l20.61 -16.71 l-2.57 -3.21 l-20.61 16.71 l-0.88 -1.11 l-1.05 5.29 z " style="stroke:#231f20;stroke-width:1.00;"/><path d="M293 546.91 l-1.74 -4.73 c-0.43 -1.17 -1.73 -1.77 -2.89 -1.34 c-0.92 0.34 -1.48 1.21 -1.47 2.14 c-0.63 -0.16 -1.28 -0.29 -1.94 -0.38 l-0.72 -1.94 c-0.56 -1.53 -2.13 -2.37 -3.49 -1.86 c-1.37 0.5 -2.01 2.15 -1.45 3.68 l0.07 0.2 c-0.59 0.1 -1.16 0.21 -1.72 0.35 l-0.88 -2.39 c-0.56 -1.53 -2.12 -2.36 -3.49 -1.86 c-1.36 0.5 -2.01 2.15 -1.45 3.68 l0.9 2.44 c-0.53 0.29 -1.03 0.61 -1.5 0.95 l-3.76 -10.22 c-0.56 -1.53 -2.13 -2.37 -3.49 -1.86 c-1.36 0.5 -2.01 2.15 -1.45 3.68 l5.27 14.32 c0.27 1.21 0.08 2.06 -0.62 2.53 c-3.59 0.09 -6.72 0.6 -7.39 2.05 c-0.86 1.86 1.82 3.55 4.71 4.5 l9.81 4.9 c2.83 2.02 6.05 2.05 9.42 1.15 c0.17 -0.04 0.33 -0.08 0.47 -0.13 c0.57 -0.17 1.15 -0.36 1.73 -0.57 c1.54 -0.56 11.63 -3.53 7.61 -17.88 c-0.1 -0.5 -0.29 -0.97 -0.54 -1.41 " style="fill:#ffffff;"/><path d="M293 546.91 l-1.74 -4.73 c-0.43 -1.17 -1.73 -1.77 -2.89 -1.34 c-0.92 0.34 -1.48 1.21 -1.47 2.14 c-0.63 -0.16 -1.28 -0.29 -1.94 -0.38 l-0.72 -1.94 c-0.56 -1.53 -2.13 -2.37 -3.49 -1.86 c-1.37 0.5 -2.01 2.15 -1.45 3.68 l0.07 0.2 c-0.59 0.1 -1.16 0.21 -1.72 0.35 l-0.88 -2.39 c-0.56 -1.53 -2.12 -2.36 -3.49 -1.86 c-1.36 0.5 -2.01 2.15 -1.45 3.68 l0.9 2.44 c-0.53 0.29 -1.03 0.61 -1.5 0.95 l-3.76 -10.22 c-0.56 -1.53 -2.13 -2.37 -3.49 -1.86 c-1.36 0.5 -2.01 2.15 -1.45 3.68 l5.27 14.32 c0.27 1.21 0.08 2.06 -0.62 2.53 c-3.59 0.09 -6.72 0.6 -7.39 2.05 c-0.86 1.86 1.82 3.55 4.71 4.5 l9.81 4.9 c2.83 2.02 6.05 2.05 9.42 1.15 c0.17 -0.04 0.33 -0.08 0.47 -0.13 c0.57 -0.17 1.15 -0.36 1.73 -0.57 c1.54 -0.56 11.63 -3.53 7.61 -17.88 c-0.1 -0.5 -0.29 -0.97 -0.54 -1.41 z " style="stroke:#231f20;stroke-width:1.00;"/><text class="f316" font-size="8.00" style="fill:#110f0d"><tspan x="293.00" y="573.34" textLength="4.45">2</tspan></text><text class="f317" font-size="21.00" style="fill:#a7a5a6"><tspan x="95.51" y="46.78" textLength="145.09" style="fill:#444141">touch gesture </tspan>
<tspan x="240.60" y="46.78" textLength="157.48">reference guide</tspan></text><text class="f316" font-size="10.00" style="fill:#231f20"><tspan x="213.86" y="195.42" textLength="24.63" style="fill:#444141">press</tspan>
<tspan x="65.56" y="195.39" textLength="66.66" class="f317">Change mode</tspan></text><text class="f316" font-size="10.00" style="fill:#231f20"><tspan x="213.86" y="263.43" textLength="47.98" style="fill:#444141">double tap</tspan>
<tspan x="65.56" y="263.40" textLength="25.56" class="f317">Open</tspan></text><text class="f316" font-size="10.00" style="fill:#231f20"><tspan x="213.86" y="334.22" textLength="14.45" style="fill:#444141">tap</tspan>
<tspan x="65.56" y="334.22" textLength="29.81" class="f317">Select</tspan></text><text class="f316" font-size="10.00" style="fill:#231f20"><tspan x="178.49" y="504.60" textLength="67.42" style="fill:#444141">press and drag</tspan>
<tspan x="65.62" y="456.91" textLength="30.56" class="f317">Adjust</tspan></text><text class="f316" font-size="10.00" style="fill:#444141"><tspan x="178.49" y="590.76" textLength="70.19">lasso and cross</tspan></text><text class="f316" font-size="10.00" style="fill:#444141"><tspan x="174.86" y="677.68" textLength="109.85">press and tap, then drag</tspan></text><path d="M184.49 623.79 c0 2.81 -2.28 5.09 -5.09 5.09 c-2.81 0 -5.09 -2.28 -5.09 -5.09 c0 -2.81 2.28 -5.09 5.09 -5.09 c2.81 0 5.09 2.28 5.09 5.09 " style="fill:#211d1d;"/><path d="M184.49 623.79 c0 2.81 -2.28 5.09 -5.09 5.09 c-2.81 0 -5.09 -2.28 -5.09 -5.09 c0 -2.81 2.28 -5.09 5.09 -5.09 c2.81 0 5.09 2.28 5.09 5.09 z " style="stroke:#211d1d;stroke-width:1.00;"/><path d="M197.31 616.54 c0 2.81 -2.28 5.09 -5.09 5.09 c-2.81 0 -5.09 -2.28 -5.09 -5.09 c0 -2.81 2.28 -5.09 5.09 -5.09 c2.81 0 5.09 2.28 5.09 5.09 " style="fill:#ffffff;"/><path d="M197.31 616.54 c0 2.81 -2.28 5.09 -5.09 5.09 c-2.81 0 -5.09 -2.28 -5.09 -5.09 c0 -2.81 2.28 -5.09 5.09 -5.09 c2.81 0 5.09 2.28 5.09 5.09 z " style="stroke:#211d1d;stroke-width:1.00;stroke-dasharray:2.0,2.0;"/><path d="M207.69 625.03 c0 2.81 -2.28 5.09 -5.09 5.09 c-2.81 0 -5.09 -2.28 -5.09 -5.09 c0 -2.81 2.28 -5.09 5.09 -5.09 c2.81 0 5.09 2.28 5.09 5.09 " style="fill:#ffffff;"/><path d="M207.69 625.03 c0 2.81 -2.28 5.09 -5.09 5.09 c-2.81 0 -5.09 -2.28 -5.09 -5.09 c0 -2.81 2.28 -5.09 5.09 -5.09 c2.81 0 5.09 2.28 5.09 5.09 z " style="stroke:#211d1d;stroke-width:1.00;stroke-dasharray:2.0,2.0;"/><path d="M208.99 642.5 l0 -4.29 c0 -1.4 -1.13 -2.53 -2.53 -2.53 c-1.32 0 -2.4 1 -2.52 2.29 c-0.22 -0.12 -0.43 -0.25 -0.66 -0.36 l0 -2.43 c0 -1.83 -1.32 -3.32 -2.96 -3.32 c-1.63 0 -2.96 1.49 -2.96 3.32 l0 0.35 c-0.7 -0.13 -1.38 -0.24 -2.07 -0.31 l-0.39 -14.8 c-0.05 -1.83 -1.41 -3.28 -3.04 -3.24 c-1.63 0.04 -2.92 1.56 -2.87 3.39 l0.38 14.74 c-0.92 0.15 -1.79 0.36 -2.62 0.64 l-4.16 -12.89 c-0.56 -1.75 -2.28 -2.75 -3.83 -2.25 c-1.55 0.5 -2.36 2.32 -1.8 4.07 l4.73 14.67 c-0.02 2.04 -0.57 3.23 -1.71 3.5 c-3.83 -1.3 -7.32 -1.97 -8.59 -0.71 c-1.63 1.62 0.54 4.44 3.22 6.57 l8.45 8.97 c2.2 3.22 5.58 4.51 9.48 4.87 c0.19 0.03 0.37 0.04 0.55 0.05 c0.67 0.05 1.35 0.07 2.04 0.07 c1.85 0 13.63 0.79 14.96 -15.9 c0.22 -1.52 -0.23 -3.04 -1.13 -4.45 " style="fill:#ffffff;"/><path d="M208.99 642.5 l0 -4.29 c0 -1.4 -1.13 -2.53 -2.53 -2.53 c-1.32 0 -2.4 1 -2.52 2.29 c-0.22 -0.12 -0.43 -0.25 -0.66 -0.36 l0 -2.43 c0 -1.83 -1.32 -3.32 -2.96 -3.32 c-1.63 0 -2.96 1.49 -2.96 3.32 l0 0.35 c-0.7 -0.13 -1.38 -0.24 -2.07 -0.31 l-0.39 -14.8 c-0.05 -1.83 -1.41 -3.28 -3.04 -3.24 c-1.63 0.04 -2.92 1.56 -2.87 3.39 l0.38 14.74 c-0.92 0.15 -1.79 0.36 -2.62 0.64 l-4.16 -12.89 c-0.56 -1.75 -2.28 -2.75 -3.83 -2.25 c-1.55 0.5 -2.36 2.32 -1.8 4.07 l4.73 14.67 c-0.02 2.04 -0.57 3.23 -1.71 3.5 c-3.83 -1.3 -7.32 -1.97 -8.59 -0.71 c-1.63 1.62 0.54 4.44 3.22 6.57 l8.45 8.97 c2.2 3.22 5.58 4.51 9.48 4.87 c0.19 0.03 0.37 0.04 0.55 0.05 c0.67 0.05 1.35 0.07 2.04 0.07 c1.85 0 13.63 0.79 14.96 -15.9 c0.22 -1.52 -0.23 -3.04 -1.13 -4.45 z " style="stroke:#211d1d;stroke-width:1.00;"/><text class="f316" font-size="8.00" style="fill:#110f0d"><tspan x="210.54" y="661.96" textLength="4.45">1</tspan></text><path d="M298.32 615.3 l-5.19 -4.36 l0 1.78 l-42.12 0 c-0.75 -0.91 -1.88 -1.5 -3.16 -1.5 c-2.25 0 -4.08 1.83 -4.08 4.08 c0 2.25 1.83 4.08 4.08 4.08 c1.27 0 2.41 -0.58 3.16 -1.5 l42.12 0 l0 1.78 l5.19 -4.36 z " style="fill:#211d1d;"/><path d="M298.32 615.3 l-5.19 -4.36 l0 1.78 l-42.12 0 c-0.75 -0.91 -1.88 -1.5 -3.16 -1.5 c-2.25 0 -4.08 1.83 -4.08 4.08 c0 2.25 1.83 4.08 4.08 4.08 c1.27 0 2.41 -0.58 3.16 -1.5 l42.12 0 l0 1.78 l5.19 -4.36 z " style="stroke:#211d1d;stroke-width:1.00;"/><path d="M308.16 628.53 l-5.19 -4.36 l0 1.78 l-41.81 0 c-0.75 -0.91 -1.88 -1.5 -3.16 -1.5 c-2.25 0 -4.08 1.82 -4.08 4.08 c0 2.25 1.83 4.08 4.08 4.08 c1.27 0 2.41 -0.58 3.15 -1.49 l41.81 0 l0 1.78 l5.19 -4.36 z " style="fill:#110f0d;"/><path d="M282.93 621.93 l-5.19 -4.36 l0 1.78 l-42.12 0 c-0.75 -0.91 -1.88 -1.49 -3.16 -1.49 c-2.25 0 -4.08 1.82 -4.08 4.08 c0 2.25 1.83 4.08 4.08 4.08 c1.27 0 2.41 -0.58 3.16 -1.49 l42.12 0 l0 1.78 l5.19 -4.36 z " style="fill:#110f0d;"/><path d="M262.27 642.62 l0.04 -4.29 c0.01 -1.4 -1.11 -2.55 -2.5 -2.56 c-1.31 -0.01 -2.41 0.99 -2.54 2.27 c-0.22 -0.13 -0.43 -0.25 -0.65 -0.37 l0.02 -2.43 c0.02 -1.83 -1.3 -3.33 -2.93 -3.35 c-1.63 -0.01 -2.97 1.46 -2.99 3.29 l0 0.35 c-0.69 -0.14 -1.38 -0.25 -2.06 -0.34 l-0.37 -2.39 c-0.03 -1.83 -1.38 -3.29 -3.01 -3.27 c-1.63 0.03 -2.93 1.54 -2.9 3.37 l0.36 2.33 c-0.92 0.14 -1.8 0.35 -2.63 0.62 l-4.04 -12.93 c-0.55 -1.75 -2.25 -2.77 -3.81 -2.29 c-1.56 0.49 -2.38 2.3 -1.83 4.05 l4.59 14.71 c-0.03 2.04 -0.59 3.23 -1.73 3.49 c-3.82 -1.33 -7.3 -2.04 -8.58 -0.79 c-1.64 1.61 0.5 4.45 3.16 6.6 l8.37 9.05 c2.17 3.24 5.54 4.56 9.44 4.96 c0.19 0.03 0.38 0.04 0.55 0.05 c0.67 0.05 1.35 0.08 2.04 0.09 c1.84 0.02 13.62 0.92 15.11 -15.76 c0.23 -1.52 -0.2 -3.04 -1.09 -4.46 " style="fill:#ffffff;"/><path d="M262.27 642.62 l0.04 -4.29 c0.01 -1.4 -1.11 -2.55 -2.5 -2.56 c-1.31 -0.01 -2.41 0.99 -2.54 2.27 c-0.22 -0.13 -0.43 -0.25 -0.65 -0.37 l0.02 -2.43 c0.02 -1.83 -1.3 -3.33 -2.93 -3.35 c-1.63 -0.01 -2.97 1.46 -2.99 3.29 l0 0.35 c-0.69 -0.14 -1.38 -0.25 -2.06 -0.34 l-0.37 -2.39 c-0.03 -1.83 -1.38 -3.29 -3.01 -3.27 c-1.63 0.03 -2.93 1.54 -2.9 3.37 l0.36 2.33 c-0.92 0.14 -1.8 0.35 -2.63 0.62 l-4.04 -12.93 c-0.55 -1.75 -2.25 -2.77 -3.81 -2.29 c-1.56 0.49 -2.38 2.3 -1.83 4.05 l4.59 14.71 c-0.03 2.04 -0.59 3.23 -1.73 3.49 c-3.82 -1.33 -7.3 -2.04 -8.58 -0.79 c-1.64 1.61 0.5 4.45 3.16 6.6 l8.37 9.05 c2.17 3.24 5.54 4.56 9.44 4.96 c0.19 0.03 0.38 0.04 0.55 0.05 c0.67 0.05 1.35 0.08 2.04 0.09 c1.84 0.02 13.62 0.92 15.11 -15.76 c0.23 -1.52 -0.2 -3.04 -1.09 -4.46 z " style="stroke:#211d1d;stroke-width:1.00;"/><text class="f316" font-size="8.00" style="fill:#231f20"><tspan x="263.68" y="661.96" textLength="4.45" style="fill:#110f0d">2</tspan>
<tspan x="65.56" y="628.44" textLength="33.33" class="f317" font-size="10.00">Bundle</tspan></text><path d="M57.03 32.57 c0 8.69 7.04 15.73 15.73 15.73 c8.69 0 15.73 -7.04 15.73 -15.73 c0 -5.62 -2.95 -10.55 -7.38 -13.33 l-16.69 0 c-4.43 2.78 -7.38 7.71 -7.38 13.33 " style="fill:#ffffff;"/><path d="M57.03 32.57 c0 8.69 7.04 15.73 15.73 15.73 c8.69 0 15.73 -7.04 15.73 -15.73 c0 -5.62 -2.95 -10.55 -7.38 -13.33 l-16.69 0 c-4.43 2.78 -7.38 7.71 -7.38 13.33 z " style="stroke:#7b7979;stroke-width:1.00;"/><path d="M84.21 32.57 c0 6.32 -5.13 11.45 -11.45 11.45 c-6.32 0 -11.45 -5.13 -11.45 -11.45 c0 -6.32 5.13 -11.45 11.45 -11.45 c6.32 0 11.45 5.13 11.45 11.45 " style="fill:#ffffff;"/><path d="M84.21 32.57 c0 6.32 -5.13 11.45 -11.45 11.45 c-6.32 0 -11.45 -5.13 -11.45 -11.45 c0 -6.32 5.13 -11.45 11.45 -11.45 c6.32 0 11.45 5.13 11.45 11.45 z " style="stroke:#4f4c4d;stroke-width:1.50;"/><path d="M79.96 32.57 c0 3.97 -3.22 7.2 -7.19 7.2 c-3.97 0 -7.2 -3.22 -7.2 -7.2 c0 -3.97 3.22 -7.2 7.2 -7.2 c3.97 0 7.19 3.22 7.19 7.2 " style="fill:#ffffff;"/><path d="M79.96 32.57 c0 3.97 -3.22 7.2 -7.19 7.2 c-3.97 0 -7.2 -3.22 -7.2 -7.2 c0 -3.97 3.22 -7.2 7.2 -7.2 c3.97 0 7.19 3.22 7.19 7.2 z " style="stroke:#231f20;stroke-width:2.00;"/><path d="M56.86 52.78 l28.09 0 c-0.01 -0.72 -0.39 -1.4 -1.07 -1.77 c-0.96 -0.53 -2.14 -0.21 -2.73 0.69 c-0.25 -0.49 -0.53 -0.97 -0.85 -1.45 l0.48 -0.86 c0.72 -1.31 0.36 -2.89 -0.81 -3.53 c-0.98 -0.54 -2.21 -0.24 -3.01 0.64 c-0.44 -0.37 -0.89 -0.72 -1.34 -1.04 l0.22 -0.4 c0.72 -1.31 0.36 -2.89 -0.81 -3.53 c-1.17 -0.64 -2.7 -0.1 -3.42 1.21 l-0.24 0.44 c-0.52 -0.19 -1.04 -0.35 -1.56 -0.47 l4.81 -8.74 c0.72 -1.31 0.36 -2.89 -0.81 -3.53 c-1.17 -0.64 -2.7 -0.1 -3.42 1.21 l-6.74 12.26 c-0.67 0.92 -1.38 1.29 -2.12 1.09 c-2.23 -2.43 -4.45 -4.29 -5.86 -3.88 c-1.8 0.52 -1.36 3.39 -0.29 5.96 l1.48 5.72 z " style="stroke:#231f20;stroke-width:1.00;"/><path d="M89.55 53.17 l-33.54 0 l0 -33.54 l33.54 0 l0 33.54 z " style="stroke:#4f4c4d;stroke-width:0.30;"/><path d="M56.86 53.02 l28.09 0 c-0.01 -0.72 -0.39 -1.4 -1.07 -1.77 c-0.96 -0.53 -2.14 -0.21 -2.73 0.69 c-0.25 -0.49 -0.53 -0.97 -0.85 -1.45 l0.48 -0.86 c0.72 -1.31 0.36 -2.89 -0.81 -3.53 c-0.98 -0.54 -2.21 -0.24 -3.01 0.64 c-0.44 -0.37 -0.89 -0.72 -1.34 -1.04 l0.22 -0.4 c0.72 -1.31 0.36 -2.89 -0.81 -3.53 c-1.17 -0.64 -2.7 -0.1 -3.42 1.21 l-0.24 0.44 c-0.52 -0.19 -1.04 -0.35 -1.56 -0.47 l4.81 -8.74 c0.72 -1.31 0.36 -2.89 -0.81 -3.53 c-1.17 -0.64 -2.7 -0.1 -3.42 1.21 l-6.74 12.26 c-0.67 0.92 -1.38 1.29 -2.12 1.09 c-2.23 -2.43 -4.45 -4.29 -5.86 -3.88 c-1.8 0.52 -1.36 3.39 -0.29 5.96 l1.48 5.72 z " style="fill:#231f20;"/><path d="M89.78 19.51 l-33.19 0 l0 -0.81 l33.19 0 l0 0.81 z " style="fill:#ffffff;"/><text class="f89" font-size="22.00" style="fill:#7b7979"><tspan x="539.35" y="48.71" textLength="18.92">r</tspan></text><path d="M56 53.28 l502.3 0 " style="stroke:#231f20;stroke-width:0.30;"/><text class="f316" font-size="8.00" style="fill:#656263"><tspan x="56.56" y="735.09" textLength="198.42">Supporting materials for this guide can be found online:</tspan>
<tspan x="56.56" y="747.09" textLength="145.73" class="f317" font-size="10.00" style="fill:#231f20">http://www.lukew.com/touch/ </tspan></text><text class="f316" font-size="11.00" style="fill:#231f20"><tspan x="56.56" y="95.16" textLength="128.32" class="f317" font-size="14.00">Major User Actions</tspan>
<tspan x="56.56" y="108.36" textLength="228.21" style="fill:#4f4c4d">Currently supported by touch gesture systems</tspan></text><path d="M56.56 121.66 l501.71 0 " style="stroke:#868484;stroke-width:0.25;"/><text class="f316" font-size="11.00" style="fill:#918f8f"><tspan x="65.56" y="161.73" textLength="54.4">user action</tspan>
<tspan x="170.86" y="161.73" textLength="36.87">gesture</tspan></text><path d="M56.56 170.97 l501.72 0 " style="stroke:#b2b1b1;stroke-width:1.50;"/><text class="f316" font-size="10.00" style="fill:#918f8f"><tspan x="353.50" y="161.73" textLength="54.8" font-size="11.00">description</tspan>
<tspan x="65.56" y="138.19" textLength="87.52" class="f317" style="fill:#231f20" dx="0,0.75,0.75,0.75,0.75,0.75,0.75,0.75,0.75,0.75,0.75,0.75,0.75">BASIC ACTIONS</tspan></text><path d="M56.56 145.14 l501.71 0 " style="stroke:#868484;stroke-width:0.25;"/><path d="M56.56 241.36 l501.72 0 " style="stroke:#a7a5a6;stroke-width:0.25;"/><path d="M56.56 311.76 l501.72 0 " style="stroke:#a7a5a6;stroke-width:0.25;"/><path d="M56.56 382.36 l501.71 0 " style="stroke:#868484;stroke-width:0.25;"/><text class="f316" font-size="11.00" style="fill:#918f8f"><tspan x="65.56" y="423.59" textLength="54.4">user action</tspan>
<tspan x="170.86" y="423.59" textLength="36.87">gesture</tspan></text><path d="M56.56 431.64 l501.72 0 " style="stroke:#b2b1b1;stroke-width:1.50;"/><text class="f316" font-size="10.00" style="fill:#918f8f"><tspan x="353.50" y="423.59" textLength="54.8" font-size="11.00">description</tspan>
<tspan x="65.56" y="398.43" textLength="154.46" class="f317" style="fill:#231f20" dx="0,0.75,0.75,0.75,0.75,0.75,0.75,0.75,0.75,0.75,0.75,0.75,0.75,0.75,0.75,0.75,0.75,0.75,0.75,0.75,0.75,0.75">OBJECT-RELATED ACTIONS</tspan></text><path d="M56.56 405.91 l501.71 0 " style="stroke:#868484;stroke-width:0.25;"/><path d="M170.98 515.81 l387.3 0 " style="stroke:#a7a5a6;stroke-width:0.25;stroke-dasharray:2.0,2.0;"/><path d="M56.56 601.98 l501.72 0 " style="stroke:#a7a5a6;stroke-width:0.25;"/><path d="M56.56 710.15 l501.72 0 " style="stroke:#231f20;stroke-width:0.25;"/><text class="f316" font-size="10.00" style="fill:#444141"><tspan x="354.01" y="455.49" textLength="179.46">Press surface with one finger and move </tspan>
<tspan x="354.01" y="467.49" textLength="157.41">second finger over surface without </tspan>
<tspan x="354.01" y="479.49" textLength="62.97">losing contact</tspan></text><text class="f316" font-size="10.00" style="fill:#444141"><tspan x="354.01" y="539.74" textLength="171.14">Make circular motion with finger, then </tspan>
<tspan x="354.01" y="551.74" textLength="117.78">cross over selected object</tspan></text><text class="f316" font-size="10.00" style="fill:#444141"><tspan x="354.01" y="627.01" textLength="170.19">Touch first object while second finger </tspan>
<tspan x="354.01" y="639.01" textLength="171.34">taps other objects, the move selected </tspan>
<tspan x="354.01" y="651.01" textLength="136.3">objects by dragging first finger</tspan></text><text class="f316" font-size="10.00" style="fill:#444141"><tspan x="354.01" y="195.46" textLength="187.99">Touch surface for extended period of time</tspan></text><text class="f316" font-size="10.00" style="fill:#444141"><tspan x="354.01" y="263.50" textLength="184.44">Rapidly touch surface twice with fingertip</tspan></text><text class="f316" font-size="10.00" style="fill:#444141"><tspan x="354.01" y="334.23" textLength="152.4">Briefly touch surface with fingertip</tspan></text>
</svg>
