
<?xml-stylesheet href="css/stylesheet.css" type="text/css"?>
<svg class="crocodoc-1VEYgr crocodoc-page-svg" version="1.1"
    xmlns="http://www.w3.org/2000/svg"
    xmlns:xlink="http://www.w3.org/1999/xlink"
    xml:space="preserve" width="612pt" height="792pt" viewBox="0 0 612 792">
<defs>

</defs>
<path d="M558.27 124.09 l-501.72 0 l0 -23.33 l501.72 0 l0 23.33 z " style="fill:#d3d2d2;"/><text class="f100" font-size="21.00" style="fill:#a7a5a6"><tspan x="95.51" y="46.78" textLength="145.09" style="fill:#444141">touch gesture </tspan>
<tspan x="240.60" y="46.78" textLength="157.48">reference guide</tspan></text><text class="f98" font-size="10.00" style="fill:#231f20"><tspan x="270.86" y="174.42" textLength="24.64" style="fill:#444141">pinch</tspan>
<tspan x="65.56" y="174.39" textLength="55.36" class="f100">Scale down</tspan></text><text class="f98" font-size="10.00" style="fill:#444141"><tspan x="270.86" y="244.43" textLength="37.4">squeeze</tspan></text><text class="f100" font-size="10.00" style="fill:#231f20"><tspan x="65.56" y="313.22" textLength="41.18" dx="0,0.01,0.01,0.01,0.01,0.01,0.01,0.01">Scale up</tspan></text><path d="M57.03 32.57 c0 8.69 7.04 15.73 15.73 15.73 c8.69 0 15.73 -7.04 15.73 -15.73 c0 -5.62 -2.95 -10.55 -7.38 -13.33 l-16.69 0 c-4.43 2.78 -7.38 7.71 -7.38 13.33 " style="fill:#ffffff;"/><path d="M57.03 32.57 c0 8.69 7.04 15.73 15.73 15.73 c8.69 0 15.73 -7.04 15.73 -15.73 c0 -5.62 -2.95 -10.55 -7.38 -13.33 l-16.69 0 c-4.43 2.78 -7.38 7.71 -7.38 13.33 z " style="stroke:#7b7979;stroke-width:1.00;"/><path d="M84.21 32.57 c0 6.32 -5.13 11.45 -11.45 11.45 c-6.32 0 -11.45 -5.13 -11.45 -11.45 c0 -6.32 5.13 -11.45 11.45 -11.45 c6.32 0 11.45 5.13 11.45 11.45 " style="fill:#ffffff;"/><path d="M84.21 32.57 c0 6.32 -5.13 11.45 -11.45 11.45 c-6.32 0 -11.45 -5.13 -11.45 -11.45 c0 -6.32 5.13 -11.45 11.45 -11.45 c6.32 0 11.45 5.13 11.45 11.45 z " style="stroke:#4f4c4d;stroke-width:1.50;"/><path d="M79.96 32.57 c0 3.97 -3.22 7.2 -7.19 7.2 c-3.97 0 -7.2 -3.22 -7.2 -7.2 c0 -3.97 3.22 -7.2 7.2 -7.2 c3.97 0 7.19 3.22 7.19 7.2 " style="fill:#ffffff;"/><path d="M79.96 32.57 c0 3.97 -3.22 7.2 -7.19 7.2 c-3.97 0 -7.2 -3.22 -7.2 -7.2 c0 -3.97 3.22 -7.2 7.2 -7.2 c3.97 0 7.19 3.22 7.19 7.2 z " style="stroke:#231f20;stroke-width:2.00;"/><path d="M56.86 52.78 l28.09 0 c-0.01 -0.72 -0.4 -1.4 -1.07 -1.77 c-0.96 -0.53 -2.14 -0.21 -2.73 0.69 c-0.25 -0.49 -0.54 -0.97 -0.85 -1.45 l0.47 -0.86 c0.72 -1.31 0.36 -2.89 -0.81 -3.53 c-0.98 -0.54 -2.21 -0.24 -3.01 0.64 c-0.45 -0.37 -0.89 -0.72 -1.34 -1.04 l0.22 -0.4 c0.72 -1.31 0.36 -2.89 -0.81 -3.53 c-1.17 -0.64 -2.7 -0.1 -3.42 1.21 l-0.24 0.44 c-0.52 -0.19 -1.04 -0.35 -1.56 -0.47 l4.81 -8.74 c0.72 -1.31 0.36 -2.89 -0.81 -3.53 c-1.17 -0.64 -2.7 -0.1 -3.42 1.21 l-6.74 12.26 c-0.67 0.92 -1.38 1.29 -2.12 1.09 c-2.23 -2.43 -4.45 -4.29 -5.86 -3.88 c-1.8 0.52 -1.36 3.39 -0.29 5.96 l1.48 5.72 z " style="stroke:#231f20;stroke-width:1.00;"/><path d="M89.55 53.17 l-33.54 0 l0 -33.54 l33.54 0 l0 33.54 z " style="stroke:#4f4c4d;stroke-width:0.30;"/><path d="M56.86 53.02 l28.09 0 c-0.01 -0.72 -0.4 -1.4 -1.07 -1.77 c-0.96 -0.53 -2.14 -0.21 -2.73 0.69 c-0.25 -0.49 -0.54 -0.97 -0.85 -1.45 l0.47 -0.86 c0.72 -1.31 0.36 -2.89 -0.81 -3.53 c-0.98 -0.54 -2.21 -0.24 -3.01 0.64 c-0.45 -0.37 -0.89 -0.72 -1.34 -1.04 l0.22 -0.4 c0.72 -1.31 0.36 -2.89 -0.81 -3.53 c-1.17 -0.64 -2.7 -0.1 -3.42 1.21 l-0.24 0.44 c-0.52 -0.19 -1.04 -0.35 -1.56 -0.47 l4.81 -8.74 c0.72 -1.31 0.36 -2.89 -0.81 -3.53 c-1.17 -0.64 -2.7 -0.1 -3.42 1.21 l-6.74 12.26 c-0.67 0.92 -1.38 1.29 -2.12 1.09 c-2.23 -2.43 -4.45 -4.29 -5.86 -3.88 c-1.8 0.52 -1.36 3.39 -0.29 5.96 l1.48 5.72 z " style="fill:#231f20;"/><path d="M89.78 19.51 l-33.19 0 l0 -0.81 l33.19 0 l0 0.81 z " style="fill:#ffffff;"/><text class="f89" font-size="22.00" style="fill:#7b7979"><tspan x="539.35" y="48.71" textLength="18.92">&#59908;</tspan></text><path d="M56 53.28 l502.3 0 " style="stroke:#231f20;stroke-width:0.30;"/><text class="f98" font-size="8.00" style="fill:#656263"><tspan x="56.56" y="735.09" textLength="198.42">Supporting materials for this guide can be found online:</tspan>
<tspan x="56.56" y="747.09" textLength="145.73" class="f100" font-size="10.00" style="fill:#231f20">http://www.lukew.com/touch/ </tspan></text><path d="M56.56 100.66 l501.71 0 " style="stroke:#868484;stroke-width:0.25;"/><text class="f98" font-size="11.00" style="fill:#918f8f"><tspan x="65.56" y="140.73" textLength="54.4">user action</tspan>
<tspan x="170.86" y="140.73" textLength="36.87">gesture</tspan></text><path d="M56.56 149.97 l501.72 0 " style="stroke:#b2b1b1;stroke-width:1.50;"/><text class="f98" font-size="10.00" style="fill:#231f20"><tspan x="353.50" y="140.73" textLength="54.8" font-size="11.00" style="fill:#918f8f">description</tspan>
<tspan x="65.56" y="117.19" textLength="157.99" class="f100" dx="0,0.75,0.75,0.75,0.75,0.75,0.75,0.75,0.75,0.75,0.75,0.75,0.75,0.75,0.75,0.75,0.75,0.75,0.75,0.75,0.75,0.75,0.75">OBJECT-RELATED ACTIONS </tspan>
<tspan x="224.30" y="117.19" textLength="49.64">(continued)</tspan></text><path d="M56.56 124.24 l501.71 0 " style="stroke:#868484;stroke-width:0.25;"/><path d="M170.98 222.36 l387.3 0 " style="stroke:#a7a5a6;stroke-width:0.25;stroke-dasharray:2.0,2.0;"/><path d="M56.56 290.76 l501.72 0 " style="stroke:#a7a5a6;stroke-width:0.25;"/><path d="M56.56 710.15 l501.72 0 " style="stroke:#231f20;stroke-width:0.25;"/><text class="f98" font-size="10.00" style="fill:#444141"><tspan x="354.01" y="173.96" textLength="159.63">Touch surface with two fingers and </tspan>
<tspan x="354.01" y="185.96" textLength="118.17">bring them closer together</tspan></text><text class="f98" font-size="10.00" style="fill:#444141"><tspan x="354.01" y="243.96" textLength="158.71">Touch surface with five fingers and </tspan>
<tspan x="354.01" y="255.96" textLength="118.17">bring them closer together</tspan></text><text class="f98" font-size="10.00" style="fill:#444141"><tspan x="270.86" y="313.22" textLength="30.93">spread</tspan></text><path d="M170.98 361.15 l387.3 0 " style="stroke:#a7a5a6;stroke-width:0.25;stroke-dasharray:2.0,2.0;"/><text class="f98" font-size="10.00" style="fill:#444141"><tspan x="354.01" y="312.96" textLength="159.63">Touch surface with two fingers and </tspan>
<tspan x="354.01" y="324.96" textLength="75.96">move them apart</tspan></text><text class="f98" font-size="10.00" style="fill:#444141"><tspan x="270.86" y="385.22" textLength="23.52">splay</tspan>
<tspan x="354.01" y="384.96" textLength="158.71">Touch surface with five fingers and </tspan>
<tspan x="354.01" y="396.96" textLength="75.96">move them apart</tspan></text><path d="M180.57 188.99 c-0.52 2.58 -3.09 4.27 -5.74 3.77 c-2.66 -0.5 -4.39 -3 -3.88 -5.58 c0.52 -2.58 3.09 -4.27 5.75 -3.77 c2.66 0.5 4.39 3 3.88 5.58 " style="fill:#231f20;"/><path d="M180.57 188.99 c-0.52 2.58 -3.09 4.27 -5.74 3.77 c-2.66 -0.5 -4.39 -3 -3.88 -5.58 c0.52 -2.58 3.09 -4.27 5.75 -3.77 c2.66 0.5 4.39 3 3.88 5.58 z " style="stroke:#231f20;stroke-width:1.00;"/><path d="M196.45 168.86 c-0.51 2.58 -3.09 4.27 -5.74 3.77 c-2.66 -0.5 -4.4 -3 -3.88 -5.58 c0.51 -2.58 3.09 -4.27 5.74 -3.77 c2.66 0.5 4.39 3 3.88 5.58 " style="fill:#231f20;"/><path d="M196.45 168.86 c-0.51 2.58 -3.09 4.27 -5.74 3.77 c-2.66 -0.5 -4.4 -3 -3.88 -5.58 c0.51 -2.58 3.09 -4.27 5.74 -3.77 c2.66 0.5 4.39 3 3.88 5.58 z " style="stroke:#231f20;stroke-width:1.00;"/><path d="M198.23 181.55 c0.13 1.47 -1.73 2.83 -4.16 3.03 c-2.43 0.21 -4.51 -0.82 -4.64 -2.29 c-0.13 -1.47 1.73 -2.83 4.16 -3.03 c2.43 -0.21 4.51 0.82 4.64 2.29 " style="fill:#ffffff;"/><path d="M198.23 181.55 c0.13 1.47 -1.73 2.83 -4.16 3.03 c-2.43 0.21 -4.51 -0.82 -4.64 -2.29 c-0.13 -1.47 1.73 -2.83 4.16 -3.03 c2.43 -0.21 4.51 0.82 4.64 2.29 z " style="stroke:#231f20;stroke-width:1.00;"/><path d="M207.04 186.19 c-0.33 -0.06 -0.66 -0.04 -0.97 0.02 c0.36 -1.38 -0.34 -2.85 -1.73 -3.45 c-0.77 -0.33 -1.61 -0.33 -2.34 -0.06 l-0.05 -1.83 c-0.01 -0.57 -0.92 -1.43 -1.97 -2.25 l1 -3.41 c0.45 -1.55 -4.27 -6.73 -4.27 -6.73 c-1.04 -1.54 -3.28 -2.23 -5.02 -1.53 c-1.74 0.7 -2.3 2.51 -1.27 4.05 l3.11 4.61 c0 0 -2.54 10.94 -4.24 12.54 c-1.39 1.31 -5.81 -0.25 -6.42 -0.59 c-3.5 -1.23 -6.69 -1.87 -7.9 -0.75 c-1.59 1.47 0.42 4.12 2.92 6.14 l5 5.4 c-0.42 7.04 3.97 10.2 9.76 12.14 c1.66 0.56 9.51 7.28 15.84 -6.94 c0.83 -4.78 0.5 -14.63 0.5 -14.63 c0.23 -1.28 -0.64 -2.49 -1.95 -2.72 " style="fill:#ffffff;"/><path d="M207.04 186.19 c-0.33 -0.06 -0.66 -0.04 -0.97 0.02 c0.36 -1.38 -0.34 -2.85 -1.73 -3.45 c-0.77 -0.33 -1.61 -0.33 -2.34 -0.06 l-0.05 -1.83 c-0.01 -0.57 -0.92 -1.43 -1.97 -2.25 l1 -3.41 c0.45 -1.55 -4.27 -6.73 -4.27 -6.73 c-1.04 -1.54 -3.28 -2.23 -5.02 -1.53 c-1.74 0.7 -2.3 2.51 -1.27 4.05 l3.11 4.61 c0 0 -2.54 10.94 -4.24 12.54 c-1.39 1.31 -5.81 -0.25 -6.42 -0.59 c-3.5 -1.23 -6.69 -1.87 -7.9 -0.75 c-1.59 1.47 0.42 4.12 2.92 6.14 l5 5.4 c-0.42 7.04 3.97 10.2 9.76 12.14 c1.66 0.56 9.51 7.28 15.84 -6.94 c0.83 -4.78 0.5 -14.63 0.5 -14.63 c0.23 -1.28 -0.64 -2.49 -1.95 -2.72 z " style="stroke:#231f20;stroke-width:1.00;"/><path d="M227.89 188.17 c-0.51 2.58 -3.09 4.27 -5.74 3.77 c-2.66 -0.5 -4.4 -3 -3.88 -5.58 c0.52 -2.58 3.09 -4.27 5.74 -3.77 c2.66 0.5 4.39 3 3.88 5.58 " style="fill:#231f20;"/><path d="M227.89 188.17 c-0.51 2.58 -3.09 4.27 -5.74 3.77 c-2.66 -0.5 -4.4 -3 -3.88 -5.58 c0.52 -2.58 3.09 -4.27 5.74 -3.77 c2.66 0.5 4.39 3 3.88 5.58 z " style="stroke:#231f20;stroke-width:1.00;"/><path d="M228.8 180.65 c-0.51 2.58 -3.09 4.27 -5.74 3.77 c-2.66 -0.5 -4.4 -3 -3.88 -5.58 c0.51 -2.58 3.09 -4.27 5.74 -3.77 c2.66 0.5 4.39 3 3.88 5.58 " style="fill:#231f20;"/><path d="M228.8 180.65 c-0.51 2.58 -3.09 4.27 -5.74 3.77 c-2.66 -0.5 -4.4 -3 -3.88 -5.58 c0.51 -2.58 3.09 -4.27 5.74 -3.77 c2.66 0.5 4.39 3 3.88 5.58 z " style="stroke:#231f20;stroke-width:1.00;"/><path d="M240.57 186.95 c0.69 1.08 0.03 2.7 -1.47 3.6 c-1.5 0.9 -3.28 0.75 -3.97 -0.34 c-0.69 -1.09 -0.03 -2.7 1.47 -3.6 c1.5 -0.9 3.28 -0.75 3.97 0.34 " style="fill:#ffffff;"/><path d="M240.57 186.95 c0.69 1.08 0.03 2.7 -1.47 3.6 c-1.5 0.9 -3.28 0.75 -3.97 -0.34 c-0.69 -1.09 -0.03 -2.7 1.47 -3.6 c1.5 -0.9 3.28 -0.75 3.97 0.34 z " style="stroke:#211d1d;stroke-width:1.00;"/><path d="M256.37 187.91 c-0.44 -0.22 -0.92 -0.29 -1.38 -0.24 c0.54 -1.36 0 -2.93 -1.34 -3.67 c-0.75 -0.41 -1.61 -0.49 -2.38 -0.27 c-0.22 -0.12 -0.52 -0.22 -0.87 -0.3 c-0.38 -0.74 -1.42 -3.38 -2.31 -3.6 c-0.47 -0.12 -4.02 0.37 -6.13 2.15 l-3.68 -4 c-0.65 -1.49 -10.59 -0.94 -10.59 -0.94 c-1.8 -0.57 -4 0.26 -4.9 1.86 c-0.9 1.6 -0.18 3.36 1.62 3.93 l7.61 0.19 l1.89 2.24 l-1.38 5.57 c-4.17 -6.77 -7.47 -6.62 -9.36 -5.36 c-1.81 1.2 -0.26 4.13 1.88 6.52 l5.13 8.45 c0.17 0.17 0.66 1.86 0.83 2.02 c1.14 6.24 6.75 8.06 12.49 8.97 c1.74 0.27 10.64 5.62 14.4 -9.44 c-0.01 -3.97 -0.39 -6.97 -1.36 -9.28 l0.86 -1.63 c0.61 -1.15 0.15 -2.56 -1.04 -3.15 " style="fill:#ffffff;"/><path d="M256.37 187.91 c-0.44 -0.22 -0.92 -0.29 -1.38 -0.24 c0.54 -1.36 0 -2.93 -1.34 -3.67 c-0.75 -0.41 -1.61 -0.49 -2.38 -0.27 c-0.22 -0.12 -0.52 -0.22 -0.87 -0.3 c-0.38 -0.74 -1.42 -3.38 -2.31 -3.6 c-0.47 -0.12 -4.02 0.37 -6.13 2.15 l-3.68 -4 c-0.65 -1.49 -10.59 -0.94 -10.59 -0.94 c-1.8 -0.57 -4 0.26 -4.9 1.86 c-0.9 1.6 -0.18 3.36 1.62 3.93 l7.61 0.19 l1.89 2.24 l-1.38 5.57 c-4.17 -6.77 -7.47 -6.62 -9.36 -5.36 c-1.81 1.2 -0.26 4.13 1.88 6.52 l5.13 8.45 c0.17 0.17 0.66 1.86 0.83 2.02 c1.14 6.24 6.75 8.06 12.49 8.97 c1.74 0.27 10.64 5.62 14.4 -9.44 c-0.01 -3.97 -0.39 -6.97 -1.36 -9.28 l0.86 -1.63 c0.61 -1.15 0.15 -2.56 -1.04 -3.15 z " style="stroke:#231f20;stroke-width:1.00;"/><path d="M237.55 254.27 c-0.55 2.83 -3.29 4.69 -6.13 4.14 c-2.84 -0.55 -4.69 -3.29 -4.14 -6.13 c0.55 -2.83 3.29 -4.69 6.13 -4.14 c2.84 0.55 4.69 3.29 4.14 6.13 " style="fill:#231f20;"/><path d="M237.55 254.27 c-0.55 2.83 -3.29 4.69 -6.13 4.14 c-2.84 -0.55 -4.69 -3.29 -4.14 -6.13 c0.55 -2.83 3.29 -4.69 6.13 -4.14 c2.84 0.55 4.69 3.29 4.14 6.13 z " style="stroke:#231f20;stroke-width:1.00;"/><path d="M238.52 246.01 c-0.55 2.83 -3.29 4.69 -6.13 4.14 c-2.84 -0.55 -4.69 -3.29 -4.14 -6.13 c0.55 -2.83 3.29 -4.69 6.13 -4.14 c2.83 0.55 4.69 3.29 4.14 6.13 " style="fill:#231f20;"/><path d="M238.52 246.01 c-0.55 2.83 -3.29 4.69 -6.13 4.14 c-2.84 -0.55 -4.69 -3.29 -4.14 -6.13 c0.55 -2.83 3.29 -4.69 6.13 -4.14 c2.83 0.55 4.69 3.29 4.14 6.13 z " style="stroke:#231f20;stroke-width:1.00;"/><path d="M251.07 252.93 c0.74 1.19 0.03 2.96 -1.57 3.95 c-1.6 0.99 -3.5 0.82 -4.23 -0.37 c-0.74 -1.19 -0.03 -2.96 1.57 -3.95 c1.6 -0.99 3.5 -0.82 4.23 0.37 " style="fill:#ffffff;"/><path d="M251.07 252.93 c0.74 1.19 0.03 2.96 -1.57 3.95 c-1.6 0.99 -3.5 0.82 -4.23 -0.37 c-0.74 -1.19 -0.03 -2.96 1.57 -3.95 c1.6 -0.99 3.5 -0.82 4.23 0.37 z " style="stroke:#211d1d;stroke-width:1.00;"/><path d="M267.93 253.99 c-0.47 -0.24 -0.98 -0.32 -1.47 -0.27 c0.57 -1.49 0 -3.22 -1.43 -4.03 c-0.8 -0.46 -1.71 -0.53 -2.54 -0.3 c-0.23 -0.13 -0.55 -0.24 -0.93 -0.34 c-0.41 -0.81 -1.51 -3.71 -2.46 -3.95 c-0.5 -0.13 -4.29 0.41 -6.54 2.36 l-3.92 -4.39 c-0.69 -1.63 -11.29 -1.04 -11.29 -1.04 c-1.92 -0.63 -4.26 0.28 -5.23 2.04 c-0.97 1.75 -0.19 3.69 1.73 4.31 l8.12 0.2 l2.02 2.46 l-1.48 6.12 c-4.45 -7.44 -7.97 -7.27 -9.98 -5.89 c-1.93 1.32 -0.28 4.54 2 7.16 l5.47 9.28 c0.18 0.19 0.71 2.04 0.89 2.22 c1.22 6.85 7.2 8.85 13.32 9.85 c1.85 0.3 11.35 6.17 15.36 -10.37 c-0.02 -4.35 -0.42 -7.65 -1.45 -10.19 l0.92 -1.78 c0.65 -1.26 0.15 -2.82 -1.11 -3.47 " style="fill:#ffffff;"/><path d="M267.93 253.99 c-0.47 -0.24 -0.98 -0.32 -1.47 -0.27 c0.57 -1.49 0 -3.22 -1.43 -4.03 c-0.8 -0.46 -1.71 -0.53 -2.54 -0.3 c-0.23 -0.13 -0.55 -0.24 -0.93 -0.34 c-0.41 -0.81 -1.51 -3.71 -2.46 -3.95 c-0.5 -0.13 -4.29 0.41 -6.54 2.36 l-3.92 -4.39 c-0.69 -1.63 -11.29 -1.04 -11.29 -1.04 c-1.92 -0.63 -4.26 0.28 -5.23 2.04 c-0.97 1.75 -0.19 3.69 1.73 4.31 l8.12 0.2 l2.02 2.46 l-1.48 6.12 c-4.45 -7.44 -7.97 -7.27 -9.98 -5.89 c-1.93 1.32 -0.28 4.54 2 7.16 l5.47 9.28 c0.18 0.19 0.71 2.04 0.89 2.22 c1.22 6.85 7.2 8.85 13.32 9.85 c1.85 0.3 11.35 6.17 15.36 -10.37 c-0.02 -4.35 -0.42 -7.65 -1.45 -10.19 l0.92 -1.78 c0.65 -1.26 0.15 -2.82 -1.11 -3.47 z " style="stroke:#231f20;stroke-width:1.00;"/><path d="M180.51 262.6 c-0.51 2.64 -3.07 4.37 -5.71 3.86 c-2.64 -0.51 -4.37 -3.07 -3.85 -5.71 c0.51 -2.64 3.07 -4.37 5.71 -3.86 c2.64 0.51 4.37 3.07 3.85 5.71 " style="fill:#231f20;"/><path d="M180.51 262.6 c-0.51 2.64 -3.07 4.37 -5.71 3.86 c-2.64 -0.51 -4.37 -3.07 -3.85 -5.71 c0.51 -2.64 3.07 -4.37 5.71 -3.86 c2.64 0.51 4.37 3.07 3.85 5.71 z " style="stroke:#231f20;stroke-width:1.00;"/><path d="M191.78 244.41 c-0.51 2.64 -3.07 4.37 -5.71 3.86 c-2.64 -0.51 -4.37 -3.07 -3.85 -5.71 c0.51 -2.64 3.07 -4.37 5.71 -3.86 c2.64 0.51 4.37 3.07 3.85 5.71 " style="fill:#231f20;"/><path d="M191.78 244.41 c-0.51 2.64 -3.07 4.37 -5.71 3.86 c-2.64 -0.51 -4.37 -3.07 -3.85 -5.71 c0.51 -2.64 3.07 -4.37 5.71 -3.86 c2.64 0.51 4.37 3.07 3.85 5.71 z " style="stroke:#231f20;stroke-width:1.00;"/><path d="M198.75 240.83 c-0.51 2.64 -3.06 4.37 -5.71 3.86 c-2.64 -0.51 -4.37 -3.07 -3.85 -5.71 c0.51 -2.64 3.07 -4.37 5.71 -3.85 c2.64 0.51 4.37 3.07 3.85 5.71 " style="fill:#231f20;"/><path d="M198.75 240.83 c-0.51 2.64 -3.06 4.37 -5.71 3.86 c-2.64 -0.51 -4.37 -3.07 -3.85 -5.71 c0.51 -2.64 3.07 -4.37 5.71 -3.85 c2.64 0.51 4.37 3.07 3.85 5.71 z " style="stroke:#231f20;stroke-width:1.00;"/><path d="M205.9 244.41 c-0.51 2.64 -3.07 4.37 -5.71 3.86 c-2.64 -0.51 -4.37 -3.07 -3.85 -5.71 c0.51 -2.64 3.07 -4.37 5.71 -3.86 c2.64 0.51 4.37 3.07 3.85 5.71 " style="fill:#231f20;"/><path d="M205.9 244.41 c-0.51 2.64 -3.07 4.37 -5.71 3.86 c-2.64 -0.51 -4.37 -3.07 -3.85 -5.71 c0.51 -2.64 3.07 -4.37 5.71 -3.86 c2.64 0.51 4.37 3.07 3.85 5.71 z " style="stroke:#231f20;stroke-width:1.00;"/><path d="M213.91 252.85 c-0.51 2.64 -3.07 4.37 -5.71 3.86 c-2.64 -0.51 -4.37 -3.07 -3.85 -5.71 c0.51 -2.64 3.07 -4.37 5.71 -3.85 c2.64 0.51 4.37 3.07 3.85 5.71 " style="fill:#231f20;"/><path d="M213.91 252.85 c-0.51 2.64 -3.07 4.37 -5.71 3.86 c-2.64 -0.51 -4.37 -3.07 -3.85 -5.71 c0.51 -2.64 3.07 -4.37 5.71 -3.85 c2.64 0.51 4.37 3.07 3.85 5.71 z " style="stroke:#231f20;stroke-width:1.00;"/><path d="M210.28 263.68 l0.32 -11.82 c0.04 -1.29 -0.98 -2.37 -2.27 -2.41 c-1.29 -0.04 -2.37 0.99 -2.4 2.28 l-0.16 5.68 c-0.5 -0.36 -1.04 -0.7 -1.59 -1.01 l0.35 -13.12 c0.05 -1.7 -1.14 -3.1 -2.65 -3.14 c-1.51 -0.04 -2.77 1.3 -2.82 2.99 l-0.3 11.19 c-0.61 -0.13 -1.2 -0.24 -1.8 -0.32 l0.36 -13.57 c0.05 -1.7 -1.14 -3.1 -2.65 -3.14 c-1.51 -0.04 -2.77 1.3 -2.82 3 l-0.37 13.62 c-0.63 0.08 -1.23 0.19 -1.81 0.34 l0.3 -11.31 c0.05 -1.7 -1.14 -3.1 -2.65 -3.14 c-1.51 -0.04 -2.77 1.3 -2.82 2.99 l-0.43 15.84 c-0.2 1.28 -0.72 2.03 -1.57 2.21 c-0.12 0.03 -0.23 0.03 -0.35 0.03 c-3.69 -1.43 -7.19 -2.29 -8.46 -1.09 c-1.55 1.46 0.39 4.12 2.81 6.16 l7.59 8.51 c0.55 0.41 1.06 0.77 1.56 1.12 c2.43 2.94 6.16 3.85 10.36 3.98 c1.71 0.05 12.59 1.07 14.24 -14.33 c0.08 -0.51 0.09 -1.03 0.02 -1.54 " style="fill:#ffffff;"/><path d="M210.28 263.68 l0.32 -11.82 c0.04 -1.29 -0.98 -2.37 -2.27 -2.41 c-1.29 -0.04 -2.37 0.99 -2.4 2.28 l-0.16 5.68 c-0.5 -0.36 -1.04 -0.7 -1.59 -1.01 l0.35 -13.12 c0.05 -1.7 -1.14 -3.1 -2.65 -3.14 c-1.51 -0.04 -2.77 1.3 -2.82 2.99 l-0.3 11.19 c-0.61 -0.13 -1.2 -0.24 -1.8 -0.32 l0.36 -13.57 c0.05 -1.7 -1.14 -3.1 -2.65 -3.14 c-1.51 -0.04 -2.77 1.3 -2.82 3 l-0.37 13.62 c-0.63 0.08 -1.23 0.19 -1.81 0.34 l0.3 -11.31 c0.05 -1.7 -1.14 -3.1 -2.65 -3.14 c-1.51 -0.04 -2.77 1.3 -2.82 2.99 l-0.43 15.84 c-0.2 1.28 -0.72 2.03 -1.57 2.21 c-0.12 0.03 -0.23 0.03 -0.35 0.03 c-3.69 -1.43 -7.19 -2.29 -8.46 -1.09 c-1.55 1.46 0.39 4.12 2.81 6.16 l7.59 8.51 c0.55 0.41 1.06 0.77 1.56 1.12 c2.43 2.94 6.16 3.85 10.36 3.98 c1.71 0.05 12.59 1.07 14.24 -14.33 c0.08 -0.51 0.09 -1.03 0.02 -1.54 z " style="stroke:#231f20;stroke-width:1.00;"/><path d="M228.92 327.71 c-0.52 2.58 -3.09 4.27 -5.74 3.77 c-2.66 -0.5 -4.4 -3 -3.88 -5.58 c0.52 -2.58 3.09 -4.27 5.74 -3.77 c2.66 0.5 4.39 3 3.88 5.58 " style="fill:#231f20;"/><path d="M228.92 327.71 c-0.52 2.58 -3.09 4.27 -5.74 3.77 c-2.66 -0.5 -4.4 -3 -3.88 -5.58 c0.52 -2.58 3.09 -4.27 5.74 -3.77 c2.66 0.5 4.39 3 3.88 5.58 z " style="stroke:#231f20;stroke-width:1.00;"/><path d="M244.8 307.59 c-0.51 2.58 -3.09 4.27 -5.74 3.77 c-2.66 -0.5 -4.39 -3 -3.88 -5.58 c0.51 -2.58 3.09 -4.27 5.74 -3.77 c2.66 0.5 4.39 3 3.88 5.58 " style="fill:#231f20;"/><path d="M244.8 307.59 c-0.51 2.58 -3.09 4.27 -5.74 3.77 c-2.66 -0.5 -4.39 -3 -3.88 -5.58 c0.51 -2.58 3.09 -4.27 5.74 -3.77 c2.66 0.5 4.39 3 3.88 5.58 z " style="stroke:#231f20;stroke-width:1.00;"/><path d="M246.58 320.28 c0.13 1.47 -1.73 2.83 -4.16 3.03 c-2.43 0.21 -4.51 -0.82 -4.64 -2.29 c-0.13 -1.47 1.73 -2.83 4.16 -3.03 c2.43 -0.21 4.51 0.82 4.64 2.29 " style="fill:#ffffff;"/><path d="M246.58 320.28 c0.13 1.47 -1.73 2.83 -4.16 3.03 c-2.43 0.21 -4.51 -0.82 -4.64 -2.29 c-0.13 -1.47 1.73 -2.83 4.16 -3.03 c2.43 -0.21 4.51 0.82 4.64 2.29 z " style="stroke:#231f20;stroke-width:1.00;"/><path d="M255.38 324.91 c-0.33 -0.06 -0.66 -0.05 -0.97 0.02 c0.36 -1.38 -0.34 -2.85 -1.73 -3.45 c-0.77 -0.33 -1.61 -0.33 -2.34 -0.06 l-0.05 -1.83 c-0.01 -0.57 -0.92 -1.43 -1.97 -2.25 l0.99 -3.41 c0.45 -1.55 -4.27 -6.73 -4.27 -6.73 c-1.04 -1.54 -3.28 -2.23 -5.02 -1.53 c-1.74 0.7 -2.3 2.51 -1.27 4.05 l3.1 4.61 c0 0 -2.54 10.93 -4.24 12.54 c-1.39 1.31 -5.81 -0.25 -6.42 -0.59 c-3.5 -1.23 -6.68 -1.87 -7.9 -0.75 c-1.59 1.47 0.42 4.12 2.92 6.14 l5 5.4 c-0.42 7.04 3.97 10.2 9.76 12.14 c1.66 0.56 9.51 7.29 15.84 -6.94 c0.83 -4.78 0.5 -14.63 0.5 -14.63 c0.24 -1.28 -0.64 -2.49 -1.95 -2.72 " style="fill:#ffffff;"/><path d="M255.38 324.91 c-0.33 -0.06 -0.66 -0.05 -0.97 0.02 c0.36 -1.38 -0.34 -2.85 -1.73 -3.45 c-0.77 -0.33 -1.61 -0.33 -2.34 -0.06 l-0.05 -1.83 c-0.01 -0.57 -0.92 -1.43 -1.97 -2.25 l0.99 -3.41 c0.45 -1.55 -4.27 -6.73 -4.27 -6.73 c-1.04 -1.54 -3.28 -2.23 -5.02 -1.53 c-1.74 0.7 -2.3 2.51 -1.27 4.05 l3.1 4.61 c0 0 -2.54 10.93 -4.24 12.54 c-1.39 1.31 -5.81 -0.25 -6.42 -0.59 c-3.5 -1.23 -6.68 -1.87 -7.9 -0.75 c-1.59 1.47 0.42 4.12 2.92 6.14 l5 5.4 c-0.42 7.04 3.97 10.2 9.76 12.14 c1.66 0.56 9.51 7.29 15.84 -6.94 c0.83 -4.78 0.5 -14.63 0.5 -14.63 c0.24 -1.28 -0.64 -2.49 -1.95 -2.72 z " style="stroke:#231f20;stroke-width:1.00;"/><path d="M180.57 326.89 c-0.51 2.58 -3.09 4.27 -5.74 3.77 c-2.66 -0.5 -4.4 -3 -3.88 -5.58 c0.52 -2.58 3.09 -4.27 5.74 -3.77 c2.66 0.5 4.4 3 3.88 5.58 " style="fill:#231f20;"/><path d="M180.57 326.89 c-0.51 2.58 -3.09 4.27 -5.74 3.77 c-2.66 -0.5 -4.4 -3 -3.88 -5.58 c0.52 -2.58 3.09 -4.27 5.74 -3.77 c2.66 0.5 4.4 3 3.88 5.58 z " style="stroke:#231f20;stroke-width:1.00;"/><path d="M181.49 319.38 c-0.52 2.58 -3.09 4.27 -5.74 3.77 c-2.66 -0.5 -4.4 -3 -3.88 -5.58 c0.52 -2.58 3.09 -4.27 5.74 -3.77 c2.66 0.5 4.4 3 3.88 5.58 " style="fill:#231f20;"/><path d="M181.49 319.38 c-0.52 2.58 -3.09 4.27 -5.74 3.77 c-2.66 -0.5 -4.4 -3 -3.88 -5.58 c0.52 -2.58 3.09 -4.27 5.74 -3.77 c2.66 0.5 4.4 3 3.88 5.58 z " style="stroke:#231f20;stroke-width:1.00;"/><path d="M193.25 325.68 c0.69 1.08 0.03 2.7 -1.47 3.6 c-1.5 0.9 -3.28 0.75 -3.97 -0.34 c-0.69 -1.09 -0.03 -2.7 1.47 -3.6 c1.5 -0.9 3.28 -0.75 3.97 0.34 " style="fill:#ffffff;"/><path d="M193.25 325.68 c0.69 1.08 0.03 2.7 -1.47 3.6 c-1.5 0.9 -3.28 0.75 -3.97 -0.34 c-0.69 -1.09 -0.03 -2.7 1.47 -3.6 c1.5 -0.9 3.28 -0.75 3.97 0.34 z " style="stroke:#211d1d;stroke-width:1.00;"/><path d="M209.06 326.64 c-0.44 -0.22 -0.92 -0.3 -1.38 -0.24 c0.54 -1.36 0 -2.93 -1.34 -3.67 c-0.75 -0.41 -1.6 -0.49 -2.38 -0.27 c-0.22 -0.12 -0.52 -0.22 -0.87 -0.3 c-0.39 -0.74 -1.42 -3.38 -2.31 -3.6 c-0.47 -0.12 -4.03 0.37 -6.13 2.15 l-3.68 -4 c-0.64 -1.49 -10.59 -0.94 -10.59 -0.94 c-1.8 -0.57 -4 0.26 -4.9 1.85 c-0.9 1.6 -0.18 3.36 1.62 3.93 l7.61 0.19 l1.89 2.24 l-1.38 5.57 c-4.17 -6.77 -7.47 -6.62 -9.36 -5.36 c-1.81 1.2 -0.26 4.13 1.88 6.52 l5.13 8.44 c0.17 0.17 0.66 1.86 0.83 2.02 c1.15 6.24 6.75 8.06 12.49 8.97 c1.74 0.27 10.64 5.62 14.41 -9.44 c-0.02 -3.96 -0.39 -6.97 -1.36 -9.28 l0.86 -1.63 c0.61 -1.15 0.15 -2.56 -1.04 -3.15 " style="fill:#ffffff;"/><path d="M209.06 326.64 c-0.44 -0.22 -0.92 -0.3 -1.38 -0.24 c0.54 -1.36 0 -2.93 -1.34 -3.67 c-0.75 -0.41 -1.6 -0.49 -2.38 -0.27 c-0.22 -0.12 -0.52 -0.22 -0.87 -0.3 c-0.39 -0.74 -1.42 -3.38 -2.31 -3.6 c-0.47 -0.12 -4.03 0.37 -6.13 2.15 l-3.68 -4 c-0.64 -1.49 -10.59 -0.94 -10.59 -0.94 c-1.8 -0.57 -4 0.26 -4.9 1.85 c-0.9 1.6 -0.18 3.36 1.62 3.93 l7.61 0.19 l1.89 2.24 l-1.38 5.57 c-4.17 -6.77 -7.47 -6.62 -9.36 -5.36 c-1.81 1.2 -0.26 4.13 1.88 6.52 l5.13 8.44 c0.17 0.17 0.66 1.86 0.83 2.02 c1.15 6.24 6.75 8.06 12.49 8.97 c1.74 0.27 10.64 5.62 14.41 -9.44 c-0.02 -3.96 -0.39 -6.97 -1.36 -9.28 l0.86 -1.63 c0.61 -1.15 0.15 -2.56 -1.04 -3.15 z " style="stroke:#231f20;stroke-width:1.00;"/><path d="M181.22 390.16 c-0.55 2.83 -3.29 4.69 -6.13 4.14 c-2.84 -0.55 -4.69 -3.29 -4.14 -6.13 c0.55 -2.83 3.29 -4.69 6.13 -4.14 c2.84 0.55 4.69 3.29 4.14 6.13 " style="fill:#231f20;"/><path d="M181.22 390.16 c-0.55 2.83 -3.29 4.69 -6.13 4.14 c-2.84 -0.55 -4.69 -3.29 -4.14 -6.13 c0.55 -2.83 3.29 -4.69 6.13 -4.14 c2.84 0.55 4.69 3.29 4.14 6.13 z " style="stroke:#231f20;stroke-width:1.00;"/><path d="M182.2 381.9 c-0.55 2.83 -3.29 4.69 -6.13 4.14 c-2.84 -0.55 -4.69 -3.29 -4.14 -6.13 c0.55 -2.83 3.29 -4.69 6.13 -4.14 c2.83 0.55 4.69 3.29 4.14 6.13 " style="fill:#231f20;"/><path d="M182.2 381.9 c-0.55 2.83 -3.29 4.69 -6.13 4.14 c-2.84 -0.55 -4.69 -3.29 -4.14 -6.13 c0.55 -2.83 3.29 -4.69 6.13 -4.14 c2.83 0.55 4.69 3.29 4.14 6.13 z " style="stroke:#231f20;stroke-width:1.00;"/><path d="M194.74 388.82 c0.74 1.19 0.03 2.96 -1.57 3.95 c-1.6 0.99 -3.5 0.82 -4.23 -0.37 c-0.74 -1.19 -0.03 -2.96 1.57 -3.95 c1.6 -0.99 3.5 -0.82 4.23 0.37 " style="fill:#ffffff;"/><path d="M194.74 388.82 c0.74 1.19 0.03 2.96 -1.57 3.95 c-1.6 0.99 -3.5 0.82 -4.23 -0.37 c-0.74 -1.19 -0.03 -2.96 1.57 -3.95 c1.6 -0.99 3.5 -0.82 4.23 0.37 z " style="stroke:#211d1d;stroke-width:1.00;"/><path d="M211.6 389.88 c-0.47 -0.24 -0.98 -0.32 -1.47 -0.27 c0.57 -1.49 0 -3.22 -1.43 -4.03 c-0.8 -0.46 -1.71 -0.54 -2.54 -0.3 c-0.23 -0.13 -0.55 -0.24 -0.93 -0.34 c-0.41 -0.81 -1.51 -3.71 -2.46 -3.95 c-0.5 -0.13 -4.29 0.41 -6.54 2.36 l-3.92 -4.39 c-0.69 -1.63 -11.29 -1.04 -11.29 -1.04 c-1.92 -0.63 -4.26 0.28 -5.23 2.04 c-0.97 1.75 -0.19 3.69 1.73 4.31 l8.12 0.2 l2.02 2.46 l-1.48 6.12 c-4.45 -7.44 -7.97 -7.27 -9.98 -5.89 c-1.93 1.32 -0.28 4.54 2 7.16 l5.47 9.28 c0.18 0.19 0.71 2.04 0.89 2.22 c1.22 6.85 7.2 8.86 13.32 9.85 c1.85 0.3 11.35 6.17 15.37 -10.37 c-0.02 -4.36 -0.42 -7.65 -1.45 -10.19 l0.92 -1.78 c0.65 -1.27 0.15 -2.82 -1.11 -3.46 " style="fill:#ffffff;"/><path d="M211.6 389.88 c-0.47 -0.24 -0.98 -0.32 -1.47 -0.27 c0.57 -1.49 0 -3.22 -1.43 -4.03 c-0.8 -0.46 -1.71 -0.54 -2.54 -0.3 c-0.23 -0.13 -0.55 -0.24 -0.93 -0.34 c-0.41 -0.81 -1.51 -3.71 -2.46 -3.95 c-0.5 -0.13 -4.29 0.41 -6.54 2.36 l-3.92 -4.39 c-0.69 -1.63 -11.29 -1.04 -11.29 -1.04 c-1.92 -0.63 -4.26 0.28 -5.23 2.04 c-0.97 1.75 -0.19 3.69 1.73 4.31 l8.12 0.2 l2.02 2.46 l-1.48 6.12 c-4.45 -7.44 -7.97 -7.27 -9.98 -5.89 c-1.93 1.32 -0.28 4.54 2 7.16 l5.47 9.28 c0.18 0.19 0.71 2.04 0.89 2.22 c1.22 6.85 7.2 8.86 13.32 9.85 c1.85 0.3 11.35 6.17 15.37 -10.37 c-0.02 -4.36 -0.42 -7.65 -1.45 -10.19 l0.92 -1.78 c0.65 -1.27 0.15 -2.82 -1.11 -3.46 z " style="stroke:#231f20;stroke-width:1.00;"/><path d="M230.26 398.49 c-0.51 2.64 -3.06 4.37 -5.71 3.86 c-2.64 -0.51 -4.37 -3.07 -3.85 -5.71 c0.51 -2.64 3.07 -4.37 5.71 -3.86 c2.64 0.51 4.37 3.07 3.85 5.71 " style="fill:#231f20;"/><path d="M230.26 398.49 c-0.51 2.64 -3.06 4.37 -5.71 3.86 c-2.64 -0.51 -4.37 -3.07 -3.85 -5.71 c0.51 -2.64 3.07 -4.37 5.71 -3.86 c2.64 0.51 4.37 3.07 3.85 5.71 z " style="stroke:#231f20;stroke-width:1.00;"/><path d="M241.53 380.3 c-0.51 2.64 -3.07 4.37 -5.71 3.85 c-2.64 -0.51 -4.37 -3.06 -3.85 -5.71 c0.51 -2.64 3.07 -4.37 5.71 -3.86 c2.64 0.51 4.37 3.07 3.85 5.71 " style="fill:#231f20;"/><path d="M241.53 380.3 c-0.51 2.64 -3.07 4.37 -5.71 3.85 c-2.64 -0.51 -4.37 -3.06 -3.85 -5.71 c0.51 -2.64 3.07 -4.37 5.71 -3.86 c2.64 0.51 4.37 3.07 3.85 5.71 z " style="stroke:#231f20;stroke-width:1.00;"/><path d="M248.5 376.72 c-0.51 2.64 -3.07 4.37 -5.71 3.86 c-2.64 -0.51 -4.37 -3.07 -3.85 -5.71 c0.51 -2.64 3.07 -4.37 5.71 -3.86 c2.64 0.51 4.37 3.07 3.85 5.71 " style="fill:#231f20;"/><path d="M248.5 376.72 c-0.51 2.64 -3.07 4.37 -5.71 3.86 c-2.64 -0.51 -4.37 -3.07 -3.85 -5.71 c0.51 -2.64 3.07 -4.37 5.71 -3.86 c2.64 0.51 4.37 3.07 3.85 5.71 z " style="stroke:#231f20;stroke-width:1.00;"/><path d="M255.65 380.3 c-0.51 2.64 -3.07 4.37 -5.71 3.85 c-2.64 -0.51 -4.37 -3.07 -3.85 -5.71 c0.51 -2.64 3.07 -4.37 5.71 -3.86 c2.64 0.51 4.37 3.07 3.86 5.71 " style="fill:#231f20;"/><path d="M255.65 380.3 c-0.51 2.64 -3.07 4.37 -5.71 3.85 c-2.64 -0.51 -4.37 -3.07 -3.85 -5.71 c0.51 -2.64 3.07 -4.37 5.71 -3.86 c2.64 0.51 4.37 3.07 3.86 5.71 z " style="stroke:#231f20;stroke-width:1.00;"/><path d="M263.66 388.74 c-0.51 2.64 -3.07 4.37 -5.71 3.86 c-2.64 -0.51 -4.37 -3.07 -3.86 -5.71 c0.51 -2.64 3.07 -4.37 5.71 -3.86 c2.64 0.51 4.37 3.07 3.86 5.71 " style="fill:#231f20;"/><path d="M263.66 388.74 c-0.51 2.64 -3.07 4.37 -5.71 3.86 c-2.64 -0.51 -4.37 -3.07 -3.86 -5.71 c0.51 -2.64 3.07 -4.37 5.71 -3.86 c2.64 0.51 4.37 3.07 3.86 5.71 z " style="stroke:#231f20;stroke-width:1.00;"/><path d="M260.03 399.57 l0.32 -11.82 c0.04 -1.3 -0.98 -2.37 -2.28 -2.41 c-1.29 -0.04 -2.37 0.99 -2.4 2.28 l-0.15 5.68 c-0.51 -0.36 -1.04 -0.7 -1.6 -1.01 l0.35 -13.12 c0.05 -1.69 -1.14 -3.1 -2.65 -3.14 c-1.51 -0.04 -2.77 1.3 -2.82 2.99 l-0.3 11.19 c-0.61 -0.13 -1.2 -0.24 -1.8 -0.32 l0.37 -13.57 c0.05 -1.7 -1.14 -3.1 -2.65 -3.15 c-1.51 -0.04 -2.77 1.3 -2.82 3 l-0.37 13.62 c-0.63 0.08 -1.23 0.2 -1.81 0.34 l0.3 -11.31 c0.05 -1.7 -1.14 -3.1 -2.65 -3.14 c-1.51 -0.04 -2.77 1.3 -2.82 2.99 l-0.43 15.84 c-0.2 1.28 -0.71 2.03 -1.57 2.21 c-0.12 0.03 -0.23 0.03 -0.35 0.03 c-3.69 -1.43 -7.19 -2.29 -8.46 -1.09 c-1.55 1.46 0.39 4.12 2.81 6.16 l7.59 8.51 c0.55 0.41 1.06 0.77 1.56 1.12 c2.43 2.94 6.16 3.85 10.36 3.98 c1.71 0.05 12.59 1.07 14.24 -14.33 c0.09 -0.51 0.09 -1.03 0.02 -1.54 " style="fill:#ffffff;"/><path d="M260.03 399.57 l0.32 -11.82 c0.04 -1.3 -0.98 -2.37 -2.28 -2.41 c-1.29 -0.04 -2.37 0.99 -2.4 2.28 l-0.15 5.68 c-0.51 -0.36 -1.04 -0.7 -1.6 -1.01 l0.35 -13.12 c0.05 -1.69 -1.14 -3.1 -2.65 -3.14 c-1.51 -0.04 -2.77 1.3 -2.82 2.99 l-0.3 11.19 c-0.61 -0.13 -1.2 -0.24 -1.8 -0.32 l0.37 -13.57 c0.05 -1.7 -1.14 -3.1 -2.65 -3.15 c-1.51 -0.04 -2.77 1.3 -2.82 3 l-0.37 13.62 c-0.63 0.08 -1.23 0.2 -1.81 0.34 l0.3 -11.31 c0.05 -1.7 -1.14 -3.1 -2.65 -3.14 c-1.51 -0.04 -2.77 1.3 -2.82 2.99 l-0.43 15.84 c-0.2 1.28 -0.71 2.03 -1.57 2.21 c-0.12 0.03 -0.23 0.03 -0.35 0.03 c-3.69 -1.43 -7.19 -2.29 -8.46 -1.09 c-1.55 1.46 0.39 4.12 2.81 6.16 l7.59 8.51 c0.55 0.41 1.06 0.77 1.56 1.12 c2.43 2.94 6.16 3.85 10.36 3.98 c1.71 0.05 12.59 1.07 14.24 -14.33 c0.09 -0.51 0.09 -1.03 0.02 -1.54 z " style="stroke:#231f20;stroke-width:1.00;"/><text class="f100" font-size="10.00" style="fill:#231f20"><tspan x="65.56" y="501.59" textLength="55.0">Adjust view</tspan>
<tspan x="65.56" y="513.59" textLength="34.44">(rotate)</tspan></text><text class="f100" font-size="10.00" style="fill:#231f20"><tspan x="270.95" y="587.63" textLength="24.64" class="f98" style="fill:#444141">pinch</tspan>
<tspan x="65.56" y="587.60" textLength="55.0">Adjust view</tspan>
<tspan x="65.56" y="599.60" textLength="43.68">(zoom in)</tspan></text><text class="f98" font-size="10.00" style="fill:#444141"><tspan x="213.86" y="660.42" textLength="47.98">double tap</tspan></text><text class="f98" font-size="11.00" style="fill:#918f8f"><tspan x="170.86" y="469.92" textLength="36.87">gesture</tspan>
<tspan x="353.50" y="469.92" textLength="54.8">description</tspan></text><path d="M558.27 451.29 l-501.71 0 l0 -23.33 l501.71 0 l0 23.33 z " style="fill:#d3d2d2;"/><path d="M56.56 427.85 l501.71 0 " style="stroke:#868484;stroke-width:0.25;"/><text class="f98" font-size="11.00" style="fill:#918f8f"><tspan x="65.56" y="467.92" textLength="54.4">user action</tspan></text><path d="M56.56 477.16 l501.71 0 " style="stroke:#b2b1b1;stroke-width:1.50;"/><text class="f100" font-size="10.00" style="fill:#231f20"><tspan x="65.56" y="444.38" textLength="122.54" dx="0,0.75,0.75,0.75,0.75,0.75,0.75,0.75,0.75,0.75,0.75,0.75,0.75,0.75,0.75,0.75,0.75,0.75">NAVIGATING ACTIONS</tspan></text><path d="M56.56 451.44 l501.71 0 " style="stroke:#868484;stroke-width:0.25;"/><path d="M56.56 561.56 l501.71 0 " style="stroke:#a7a5a6;stroke-width:0.25;"/><text class="f98" font-size="10.00" style="fill:#444141"><tspan x="353.85" y="587.57" textLength="159.63">Touch surface with two fingers and </tspan>
<tspan x="353.85" y="599.57" textLength="118.17">bring them closer together</tspan></text><text class="f98" font-size="10.00" style="fill:#444141"><tspan x="353.85" y="660.34" textLength="184.44">Rapidly touch surface twice with fingertip</tspan></text><text class="f98" font-size="10.00" style="fill:#444141"><tspan x="452.63" y="502.49" textLength="26.11">rotate</tspan></text><path d="M413.54 508 c-0.52 0.46 -1.11 0.86 -1.76 1.18 c-4.04 1.98 -8.92 0.32 -10.9 -3.71 c-1.98 -4.04 -0.32 -8.92 3.71 -10.9 c3.73 -1.84 8.17 -0.54 10.39 2.85 l-2.04 1 l6.96 2.37 l2.38 -6.96 l-1.55 0.76 c-3.79 -6.55 -12.06 -9.13 -18.96 -5.74 c-7.19 3.54 -10.16 12.24 -6.62 19.43 c3.54 7.19 12.24 10.16 19.44 6.62 c0.64 -0.31 1.24 -0.68 1.81 -1.08 l-2.86 -5.82 z " style="fill:#231f20;"/><path d="M413.54 508 c-0.52 0.46 -1.11 0.86 -1.76 1.18 c-4.04 1.98 -8.92 0.32 -10.9 -3.71 c-1.98 -4.04 -0.32 -8.92 3.71 -10.9 c3.73 -1.84 8.17 -0.54 10.39 2.85 l-2.04 1 l6.96 2.37 l2.38 -6.96 l-1.55 0.76 c-3.79 -6.55 -12.06 -9.13 -18.96 -5.74 c-7.19 3.54 -10.16 12.24 -6.62 19.43 c3.54 7.19 12.24 10.16 19.44 6.62 c0.64 -0.31 1.24 -0.68 1.81 -1.08 l-2.86 -5.82 z " style="stroke:#231f20;stroke-width:1.00;"/><path d="M431.89 532.32 l0.14 -6.04 c0.04 -1.45 -1.11 -2.65 -2.56 -2.68 c-1.45 -0.04 -2.65 1.11 -2.68 2.56 l-0.03 1.3 c-0.48 -0.29 -0.98 -0.56 -1.49 -0.82 l0 -2.89 c0 -1.9 -1.37 -3.44 -3.06 -3.44 c-1.69 0 -3.06 1.54 -3.06 3.44 l0 0.9 c-0.52 -0.09 -1.03 -0.16 -1.54 -0.22 l0 -14.77 c0 -1.9 -1.37 -3.43 -3.06 -3.43 c-1.69 0 -3.06 1.54 -3.06 3.43 l0 14.83 c-0.69 0.11 -1.37 0.25 -2.02 0.43 l0 -12.67 c0 -1.9 -1.37 -3.43 -3.06 -3.43 c-1.69 0 -3.06 1.54 -3.06 3.43 l0 17.75 c-0.19 1.43 -0.74 2.28 -1.69 2.51 c-3.96 -1.34 -7.58 -2.04 -8.89 -0.73 c-1.69 1.68 0.56 4.6 3.33 6.8 l8.75 9.29 c2.28 3.34 5.77 4.67 9.82 5.04 c0.2 0.03 0.39 0.04 0.57 0.05 c0.69 0.05 1.4 0.07 2.12 0.07 c1.91 0.01 14.11 0.82 15.49 -16.47 c0.2 -1.44 -0.16 -2.88 -0.95 -4.24 " style="fill:#ffffff;"/><path d="M431.89 532.32 l0.14 -6.04 c0.04 -1.45 -1.11 -2.65 -2.56 -2.68 c-1.45 -0.04 -2.65 1.11 -2.68 2.56 l-0.03 1.3 c-0.48 -0.29 -0.98 -0.56 -1.49 -0.82 l0 -2.89 c0 -1.9 -1.37 -3.44 -3.06 -3.44 c-1.69 0 -3.06 1.54 -3.06 3.44 l0 0.9 c-0.52 -0.09 -1.03 -0.16 -1.54 -0.22 l0 -14.77 c0 -1.9 -1.37 -3.43 -3.06 -3.43 c-1.69 0 -3.06 1.54 -3.06 3.43 l0 14.83 c-0.69 0.11 -1.37 0.25 -2.02 0.43 l0 -12.67 c0 -1.9 -1.37 -3.43 -3.06 -3.43 c-1.69 0 -3.06 1.54 -3.06 3.43 l0 17.75 c-0.19 1.43 -0.74 2.28 -1.69 2.51 c-3.96 -1.34 -7.58 -2.04 -8.89 -0.73 c-1.69 1.68 0.56 4.6 3.33 6.8 l8.75 9.29 c2.28 3.34 5.77 4.67 9.82 5.04 c0.2 0.03 0.39 0.04 0.57 0.05 c0.69 0.05 1.4 0.07 2.12 0.07 c1.91 0.01 14.11 0.82 15.49 -16.47 c0.2 -1.44 -0.16 -2.88 -0.95 -4.24 z " style="stroke:#231f20;stroke-width:1.00;"/><text class="f98" font-size="8.00" style="fill:#231f20"><tspan x="266.51" y="526.04" textLength="11.56">OR</tspan>
<tspan x="373.48" y="526.04" textLength="11.56">OR</tspan></text><path d="M344.52 511.35 c0 3.09 -2.51 5.6 -5.6 5.6 c-3.09 0 -5.6 -2.51 -5.6 -5.6 c0 -3.1 2.51 -5.6 5.6 -5.6 c3.09 0 5.6 2.51 5.6 5.6 " style="fill:#231f20;"/><path d="M344.52 511.35 c0 3.09 -2.51 5.6 -5.6 5.6 c-3.09 0 -5.6 -2.51 -5.6 -5.6 c0 -3.1 2.51 -5.6 5.6 -5.6 c3.09 0 5.6 2.51 5.6 5.6 z " style="stroke:#231f20;stroke-width:1.00;"/><path d="M364.59 532.32 l0.14 -6.04 c0.04 -1.45 -1.11 -2.65 -2.56 -2.68 c-1.45 -0.04 -2.65 1.11 -2.68 2.56 l-0.03 1.3 c-0.48 -0.29 -0.98 -0.56 -1.49 -0.82 l0 -2.89 c0 -1.9 -1.37 -3.44 -3.06 -3.44 c-1.69 0 -3.06 1.54 -3.06 3.44 l0 0.9 c-0.52 -0.09 -1.03 -0.16 -1.54 -0.22 l0 -3.21 c0 -1.9 -1.37 -3.44 -3.06 -3.44 c-1.69 0 -3.06 1.54 -3.06 3.44 l0 3.27 c-0.69 0.11 -1.37 0.25 -2.02 0.43 l0 -12.67 c0 -1.9 -1.37 -3.43 -3.06 -3.43 c-1.69 0 -3.06 1.54 -3.06 3.43 l0 17.75 c-0.19 1.43 -0.74 2.28 -1.69 2.51 c-3.96 -1.34 -7.58 -2.04 -8.89 -0.73 c-1.69 1.68 0.56 4.6 3.33 6.8 l8.75 9.29 c2.28 3.34 5.78 4.67 9.82 5.04 c0.2 0.03 0.39 0.04 0.57 0.05 c0.69 0.05 1.4 0.07 2.12 0.07 c1.91 0.01 14.11 0.82 15.49 -16.47 c0.2 -1.44 -0.16 -2.88 -0.95 -4.24 " style="fill:#ffffff;"/><path d="M364.59 532.32 l0.14 -6.04 c0.04 -1.45 -1.11 -2.65 -2.56 -2.68 c-1.45 -0.04 -2.65 1.11 -2.68 2.56 l-0.03 1.3 c-0.48 -0.29 -0.98 -0.56 -1.49 -0.82 l0 -2.89 c0 -1.9 -1.37 -3.44 -3.06 -3.44 c-1.69 0 -3.06 1.54 -3.06 3.44 l0 0.9 c-0.52 -0.09 -1.03 -0.16 -1.54 -0.22 l0 -3.21 c0 -1.9 -1.37 -3.44 -3.06 -3.44 c-1.69 0 -3.06 1.54 -3.06 3.44 l0 3.27 c-0.69 0.11 -1.37 0.25 -2.02 0.43 l0 -12.67 c0 -1.9 -1.37 -3.43 -3.06 -3.43 c-1.69 0 -3.06 1.54 -3.06 3.43 l0 17.75 c-0.19 1.43 -0.74 2.28 -1.69 2.51 c-3.96 -1.34 -7.58 -2.04 -8.89 -0.73 c-1.69 1.68 0.56 4.6 3.33 6.8 l8.75 9.29 c2.28 3.34 5.78 4.67 9.82 5.04 c0.2 0.03 0.39 0.04 0.57 0.05 c0.69 0.05 1.4 0.07 2.12 0.07 c1.91 0.01 14.11 0.82 15.49 -16.47 c0.2 -1.44 -0.16 -2.88 -0.95 -4.24 z " style="stroke:#231f20;stroke-width:1.00;"/><path d="M326.51 514.2 c-0.4 -1.25 -0.63 -2.59 -0.63 -3.98 c0 -7.2 5.83 -13.03 13.03 -13.03 c5.23 0 9.73 3.09 11.8 7.54 l-1.18 0.3 l4.25 3.06 l2.28 -4.71 l-1.29 0.33 c-2.57 -6.23 -8.69 -10.62 -15.85 -10.62 c-9.47 0 -17.14 7.68 -17.14 17.14 c0 1.37 0.16 2.7 0.46 3.98 l4.27 0 z " style="fill:#231f20;"/><path d="M326.51 514.2 c-0.4 -1.25 -0.63 -2.59 -0.63 -3.98 c0 -7.2 5.83 -13.03 13.03 -13.03 c5.23 0 9.73 3.09 11.8 7.54 l-1.18 0.3 l4.25 3.06 l2.28 -4.71 l-1.29 0.33 c-2.57 -6.23 -8.69 -10.62 -15.85 -10.62 c-9.47 0 -17.14 7.68 -17.14 17.14 c0 1.37 0.16 2.7 0.46 3.98 l4.27 0 z " style="stroke:#231f20;stroke-width:1.00;"/><path d="M291.74 516.2 l3.22 -5.11 c0.77 -1.23 2.39 -1.6 3.62 -0.82 c1.23 0.77 1.59 2.39 0.82 3.62 l-0.69 1.1 c0.56 0.02 1.12 0.07 1.69 0.14 l1.6 -2.41 c1.05 -1.58 3.04 -2.1 4.45 -1.17 c1.41 0.93 1.7 2.97 0.65 4.55 l-0.5 0.75 c0.48 0.21 0.94 0.43 1.4 0.66 l1.78 -2.68 c1.05 -1.58 3.04 -2.1 4.45 -1.17 c1.41 0.93 1.7 2.97 0.65 4.55 l-1.81 2.73 c0.52 0.48 1 0.97 1.44 1.48 l7 -10.55 c1.05 -1.58 3.04 -2.1 4.45 -1.17 c1.41 0.94 1.7 2.98 0.65 4.56 l-9.82 14.79 c-0.64 1.29 -0.64 2.31 0.03 3.02 c4.04 1.07 7.44 2.49 7.81 4.31 c0.48 2.33 -3.01 3.52 -6.53 3.82 l-12.42 2.9 c-3.75 1.52 -7.39 0.69 -10.97 -1.23 c-0.18 -0.09 -0.35 -0.18 -0.5 -0.28 c-0.6 -0.34 -1.2 -0.71 -1.8 -1.11 c-1.6 -1.05 -12.22 -7.12 -3.81 -22.28 c0.63 -1.32 1.74 -2.31 3.14 -3.01 " style="fill:#ffffff;"/><path d="M291.74 516.2 l3.22 -5.11 c0.77 -1.23 2.39 -1.6 3.62 -0.82 c1.23 0.77 1.59 2.39 0.82 3.62 l-0.69 1.1 c0.56 0.02 1.12 0.07 1.69 0.14 l1.6 -2.41 c1.05 -1.58 3.04 -2.1 4.45 -1.17 c1.41 0.93 1.7 2.97 0.65 4.55 l-0.5 0.75 c0.48 0.21 0.94 0.43 1.4 0.66 l1.78 -2.68 c1.05 -1.58 3.04 -2.1 4.45 -1.17 c1.41 0.93 1.7 2.97 0.65 4.55 l-1.81 2.73 c0.52 0.48 1 0.97 1.44 1.48 l7 -10.55 c1.05 -1.58 3.04 -2.1 4.45 -1.17 c1.41 0.94 1.7 2.98 0.65 4.56 l-9.82 14.79 c-0.64 1.29 -0.64 2.31 0.03 3.02 c4.04 1.07 7.44 2.49 7.81 4.31 c0.48 2.33 -3.01 3.52 -6.53 3.82 l-12.42 2.9 c-3.75 1.52 -7.39 0.69 -10.97 -1.23 c-0.18 -0.09 -0.35 -0.18 -0.5 -0.28 c-0.6 -0.34 -1.2 -0.71 -1.8 -1.11 c-1.6 -1.05 -12.22 -7.12 -3.81 -22.28 c0.63 -1.32 1.74 -2.31 3.14 -3.01 z " style="stroke:#231f20;stroke-width:1.00;"/><path d="M234.02 505.47 c-3.54 -5.46 -10.09 -8.53 -16.81 -7.25 c-6.7 1.28 -11.65 6.52 -12.94 12.88 l4.32 -0.83 c1.42 -4.07 4.88 -7.28 9.38 -8.14 c4.91 -0.94 9.7 1.19 12.45 5.04 l-1.06 0.5 l4.54 2.14 l1.28 -4.88 l-1.15 0.54 z " style="fill:#231f20;"/><path d="M234.02 505.47 c-3.54 -5.46 -10.09 -8.53 -16.81 -7.25 c-6.7 1.28 -11.65 6.52 -12.94 12.88 l4.32 -0.83 c1.42 -4.07 4.88 -7.28 9.38 -8.14 c4.91 -0.94 9.7 1.19 12.45 5.04 l-1.06 0.5 l4.54 2.14 l1.28 -4.88 l-1.15 0.54 z " style="stroke:#231f20;stroke-width:1.00;"/><path d="M227.42 523.15 l0 -3.17 c-4.79 1.64 -9.88 0.23 -13.2 -3.18 l0.99 -0.65 l-4.89 -1.45 l-0.59 5.06 l1.09 -0.72 c4.36 4.91 11.4 6.99 17.99 4.7 c0.5 -0.18 0.99 -0.37 1.46 -0.59 l-2.85 0 z " style="fill:#231f20;"/><path d="M227.42 523.15 l0 -3.17 c-4.79 1.64 -9.88 0.23 -13.2 -3.18 l0.99 -0.65 l-4.89 -1.45 l-0.59 5.06 l1.09 -0.72 c4.36 4.91 11.4 6.99 17.99 4.7 c0.5 -0.18 0.99 -0.37 1.46 -0.59 l-2.85 0 z " style="stroke:#231f20;stroke-width:1.00;"/><path d="M258.11 527.38 l-2.49 -5.05 c-0.6 -1.21 -2.06 -1.71 -3.27 -1.11 c-1.21 0.59 -1.7 2.06 -1.11 3.27 l0.53 1.09 c-0.52 -0.03 -1.05 -0.04 -1.58 -0.03 l-1.25 -2.39 c-0.82 -1.57 -2.61 -2.24 -4.01 -1.52 c-1.4 0.73 -1.86 2.59 -1.04 4.16 l0.39 0.74 c-0.46 0.15 -0.92 0.31 -1.37 0.48 l-1.38 -2.65 c-0.82 -1.56 -2.61 -2.24 -4.01 -1.51 c-1.4 0.73 -1.86 2.59 -1.04 4.15 l1.41 2.7 c-0.53 0.39 -1.02 0.8 -1.48 1.23 l-5.46 -10.45 c-0.82 -1.57 -2.61 -2.25 -4.01 -1.52 c-1.39 0.73 -1.86 2.59 -1.05 4.15 l7.66 14.65 c0.46 1.26 0.37 2.2 -0.31 2.8 c-3.85 0.6 -7.14 1.58 -7.66 3.23 c-0.67 2.12 2.45 3.56 5.68 4.18 l11.22 3.89 c3.32 1.77 6.78 1.36 10.28 -0.07 c0.17 -0.06 0.34 -0.13 0.49 -0.21 c0.59 -0.26 1.19 -0.54 1.78 -0.85 c1.58 -0.82 12 -5.41 5.68 -20.27 c-0.45 -1.28 -1.38 -2.31 -2.62 -3.09 " style="fill:#ffffff;"/><path d="M258.11 527.38 l-2.49 -5.05 c-0.6 -1.21 -2.06 -1.71 -3.27 -1.11 c-1.21 0.59 -1.7 2.06 -1.11 3.27 l0.53 1.09 c-0.52 -0.03 -1.05 -0.04 -1.58 -0.03 l-1.25 -2.39 c-0.82 -1.57 -2.61 -2.24 -4.01 -1.52 c-1.4 0.73 -1.86 2.59 -1.04 4.16 l0.39 0.74 c-0.46 0.15 -0.92 0.31 -1.37 0.48 l-1.38 -2.65 c-0.82 -1.56 -2.61 -2.24 -4.01 -1.51 c-1.4 0.73 -1.86 2.59 -1.04 4.15 l1.41 2.7 c-0.53 0.39 -1.02 0.8 -1.48 1.23 l-5.46 -10.45 c-0.82 -1.57 -2.61 -2.25 -4.01 -1.52 c-1.39 0.73 -1.86 2.59 -1.05 4.15 l7.66 14.65 c0.46 1.26 0.37 2.2 -0.31 2.8 c-3.85 0.6 -7.14 1.58 -7.66 3.23 c-0.67 2.12 2.45 3.56 5.68 4.18 l11.22 3.89 c3.32 1.77 6.78 1.36 10.28 -0.07 c0.17 -0.06 0.34 -0.13 0.49 -0.21 c0.59 -0.26 1.19 -0.54 1.78 -0.85 c1.58 -0.82 12 -5.41 5.68 -20.27 c-0.45 -1.28 -1.38 -2.31 -2.62 -3.09 z " style="stroke:#231f20;stroke-width:1.00;"/><path d="M176.7 510.35 l2.97 -4.78 c0.71 -1.15 2.21 -1.5 3.36 -0.79 c1.14 0.71 1.49 2.22 0.78 3.36 l-0.64 1.03 c0.52 0.02 1.05 0.06 1.58 0.12 l1.48 -2.25 c0.97 -1.47 2.83 -1.97 4.14 -1.11 c1.32 0.86 1.6 2.76 0.63 4.24 l-0.46 0.7 c0.45 0.19 0.88 0.4 1.31 0.61 l1.64 -2.5 c0.97 -1.48 2.82 -1.97 4.14 -1.11 c1.32 0.87 1.6 2.76 0.63 4.24 l-1.67 2.55 c0.49 0.44 0.94 0.9 1.35 1.37 l6.47 -9.86 c0.97 -1.48 2.82 -1.97 4.14 -1.11 c1.31 0.86 1.6 2.76 0.63 4.24 l-9.07 13.82 c-0.58 1.21 -0.59 2.15 0.04 2.82 c3.77 0.98 6.95 2.28 7.3 3.97 c0.46 2.17 -2.78 3.3 -6.06 3.59 l-11.55 2.77 c-3.48 1.43 -6.88 0.68 -10.22 -1.09 c-0.17 -0.08 -0.32 -0.17 -0.46 -0.25 c-0.56 -0.31 -1.13 -0.66 -1.69 -1.02 c-1.49 -0.97 -11.41 -6.57 -3.66 -20.73 c0.58 -1.23 1.6 -2.16 2.91 -2.82 " style="fill:#ffffff;"/><path d="M176.7 510.35 l2.97 -4.78 c0.71 -1.15 2.21 -1.5 3.36 -0.79 c1.14 0.71 1.49 2.22 0.78 3.36 l-0.64 1.03 c0.52 0.02 1.05 0.06 1.58 0.12 l1.48 -2.25 c0.97 -1.47 2.83 -1.97 4.14 -1.11 c1.32 0.86 1.6 2.76 0.63 4.24 l-0.46 0.7 c0.45 0.19 0.88 0.4 1.31 0.61 l1.64 -2.5 c0.97 -1.48 2.82 -1.97 4.14 -1.11 c1.32 0.87 1.6 2.76 0.63 4.24 l-1.67 2.55 c0.49 0.44 0.94 0.9 1.35 1.37 l6.47 -9.86 c0.97 -1.48 2.82 -1.97 4.14 -1.11 c1.31 0.86 1.6 2.76 0.63 4.24 l-9.07 13.82 c-0.58 1.21 -0.59 2.15 0.04 2.82 c3.77 0.98 6.95 2.28 7.3 3.97 c0.46 2.17 -2.78 3.3 -6.06 3.59 l-11.55 2.77 c-3.48 1.43 -6.88 0.68 -10.22 -1.09 c-0.17 -0.08 -0.32 -0.17 -0.46 -0.25 c-0.56 -0.31 -1.13 -0.66 -1.69 -1.02 c-1.49 -0.97 -11.41 -6.57 -3.66 -20.73 c0.58 -1.23 1.6 -2.16 2.91 -2.82 z " style="stroke:#231f20;stroke-width:1.00;"/><path d="M180.57 599.92 c-0.52 2.58 -3.09 4.27 -5.74 3.77 c-2.66 -0.5 -4.39 -3 -3.88 -5.58 c0.52 -2.58 3.09 -4.27 5.75 -3.77 c2.66 0.5 4.39 3 3.88 5.58 " style="fill:#231f20;"/><path d="M180.57 599.92 c-0.52 2.58 -3.09 4.27 -5.74 3.77 c-2.66 -0.5 -4.39 -3 -3.88 -5.58 c0.52 -2.58 3.09 -4.27 5.75 -3.77 c2.66 0.5 4.39 3 3.88 5.58 z " style="stroke:#231f20;stroke-width:1.00;"/><path d="M196.45 579.79 c-0.52 2.58 -3.09 4.27 -5.74 3.77 c-2.66 -0.5 -4.4 -3 -3.88 -5.58 c0.51 -2.58 3.09 -4.27 5.74 -3.77 c2.66 0.5 4.39 3 3.88 5.58 " style="fill:#231f20;"/><path d="M196.45 579.79 c-0.52 2.58 -3.09 4.27 -5.74 3.77 c-2.66 -0.5 -4.4 -3 -3.88 -5.58 c0.51 -2.58 3.09 -4.27 5.74 -3.77 c2.66 0.5 4.39 3 3.88 5.58 z " style="stroke:#231f20;stroke-width:1.00;"/><path d="M198.23 592.49 c0.13 1.47 -1.73 2.83 -4.16 3.03 c-2.43 0.21 -4.51 -0.82 -4.64 -2.29 c-0.13 -1.47 1.73 -2.83 4.16 -3.03 c2.43 -0.21 4.51 0.82 4.64 2.29 " style="fill:#ffffff;"/><path d="M198.23 592.49 c0.13 1.47 -1.73 2.83 -4.16 3.03 c-2.43 0.21 -4.51 -0.82 -4.64 -2.29 c-0.13 -1.47 1.73 -2.83 4.16 -3.03 c2.43 -0.21 4.51 0.82 4.64 2.29 z " style="stroke:#231f20;stroke-width:1.00;"/><path d="M207.04 597.12 c-0.33 -0.06 -0.66 -0.04 -0.97 0.02 c0.36 -1.38 -0.34 -2.85 -1.72 -3.45 c-0.77 -0.33 -1.61 -0.33 -2.34 -0.06 l-0.05 -1.83 c-0.01 -0.57 -0.92 -1.43 -1.97 -2.25 l1 -3.41 c0.45 -1.55 -4.27 -6.73 -4.27 -6.73 c-1.04 -1.54 -3.28 -2.23 -5.02 -1.53 c-1.74 0.7 -2.3 2.51 -1.27 4.05 l3.11 4.61 c0 0 -2.54 10.93 -4.24 12.54 c-1.39 1.31 -5.81 -0.25 -6.42 -0.59 c-3.5 -1.23 -6.69 -1.87 -7.9 -0.75 c-1.59 1.47 0.42 4.12 2.92 6.14 l5 5.4 c-0.42 7.04 3.97 10.2 9.76 12.14 c1.66 0.56 9.51 7.28 15.84 -6.94 c0.82 -4.78 0.49 -14.63 0.49 -14.63 c0.24 -1.28 -0.64 -2.49 -1.95 -2.72 " style="fill:#ffffff;"/><path d="M207.04 597.12 c-0.33 -0.06 -0.66 -0.04 -0.97 0.02 c0.36 -1.38 -0.34 -2.85 -1.72 -3.45 c-0.77 -0.33 -1.61 -0.33 -2.34 -0.06 l-0.05 -1.83 c-0.01 -0.57 -0.92 -1.43 -1.97 -2.25 l1 -3.41 c0.45 -1.55 -4.27 -6.73 -4.27 -6.73 c-1.04 -1.54 -3.28 -2.23 -5.02 -1.53 c-1.74 0.7 -2.3 2.51 -1.27 4.05 l3.11 4.61 c0 0 -2.54 10.93 -4.24 12.54 c-1.39 1.31 -5.81 -0.25 -6.42 -0.59 c-3.5 -1.23 -6.69 -1.87 -7.9 -0.75 c-1.59 1.47 0.42 4.12 2.92 6.14 l5 5.4 c-0.42 7.04 3.97 10.2 9.76 12.14 c1.66 0.56 9.51 7.28 15.84 -6.94 c0.82 -4.78 0.49 -14.63 0.49 -14.63 c0.24 -1.28 -0.64 -2.49 -1.95 -2.72 z " style="stroke:#231f20;stroke-width:1.00;"/><path d="M227.89 599.1 c-0.52 2.58 -3.09 4.27 -5.74 3.77 c-2.66 -0.5 -4.4 -3 -3.88 -5.58 c0.52 -2.58 3.09 -4.27 5.74 -3.77 c2.65 0.5 4.39 3 3.88 5.58 " style="fill:#231f20;"/><path d="M227.89 599.1 c-0.52 2.58 -3.09 4.27 -5.74 3.77 c-2.66 -0.5 -4.4 -3 -3.88 -5.58 c0.52 -2.58 3.09 -4.27 5.74 -3.77 c2.65 0.5 4.39 3 3.88 5.58 z " style="stroke:#231f20;stroke-width:1.00;"/><path d="M228.8 591.58 c-0.52 2.58 -3.09 4.27 -5.74 3.77 c-2.66 -0.5 -4.4 -3 -3.88 -5.58 c0.51 -2.58 3.09 -4.27 5.74 -3.77 c2.66 0.5 4.4 3 3.88 5.58 " style="fill:#231f20;"/><path d="M228.8 591.58 c-0.52 2.58 -3.09 4.27 -5.74 3.77 c-2.66 -0.5 -4.4 -3 -3.88 -5.58 c0.51 -2.58 3.09 -4.27 5.74 -3.77 c2.66 0.5 4.4 3 3.88 5.58 z " style="stroke:#231f20;stroke-width:1.00;"/><path d="M240.57 597.89 c0.69 1.08 0.03 2.7 -1.47 3.6 c-1.5 0.9 -3.28 0.75 -3.97 -0.34 c-0.69 -1.09 -0.03 -2.7 1.47 -3.6 c1.5 -0.9 3.28 -0.75 3.97 0.34 " style="fill:#ffffff;"/><path d="M240.57 597.89 c0.69 1.08 0.03 2.7 -1.47 3.6 c-1.5 0.9 -3.28 0.75 -3.97 -0.34 c-0.69 -1.09 -0.03 -2.7 1.47 -3.6 c1.5 -0.9 3.28 -0.75 3.97 0.34 z " style="stroke:#211d1d;stroke-width:1.00;"/><path d="M256.37 598.85 c-0.44 -0.22 -0.92 -0.3 -1.38 -0.24 c0.54 -1.36 0 -2.93 -1.34 -3.67 c-0.75 -0.41 -1.6 -0.49 -2.38 -0.27 c-0.22 -0.12 -0.52 -0.22 -0.88 -0.3 c-0.38 -0.74 -1.42 -3.38 -2.31 -3.6 c-0.47 -0.12 -4.02 0.37 -6.13 2.15 l-3.68 -4 c-0.64 -1.49 -10.59 -0.94 -10.59 -0.94 c-1.8 -0.57 -4 0.26 -4.9 1.86 c-0.9 1.6 -0.18 3.36 1.62 3.93 l7.61 0.18 l1.89 2.24 l-1.38 5.57 c-4.17 -6.77 -7.47 -6.62 -9.36 -5.36 c-1.81 1.2 -0.26 4.13 1.88 6.52 l5.13 8.45 c0.17 0.17 0.66 1.86 0.83 2.02 c1.15 6.24 6.75 8.06 12.49 8.97 c1.74 0.27 10.64 5.62 14.4 -9.44 c-0.01 -3.96 -0.39 -6.97 -1.36 -9.28 l0.86 -1.63 c0.61 -1.15 0.15 -2.56 -1.04 -3.15 " style="fill:#ffffff;"/><path d="M256.37 598.85 c-0.44 -0.22 -0.92 -0.3 -1.38 -0.24 c0.54 -1.36 0 -2.93 -1.34 -3.67 c-0.75 -0.41 -1.6 -0.49 -2.38 -0.27 c-0.22 -0.12 -0.52 -0.22 -0.88 -0.3 c-0.38 -0.74 -1.42 -3.38 -2.31 -3.6 c-0.47 -0.12 -4.02 0.37 -6.13 2.15 l-3.68 -4 c-0.64 -1.49 -10.59 -0.94 -10.59 -0.94 c-1.8 -0.57 -4 0.26 -4.9 1.86 c-0.9 1.6 -0.18 3.36 1.62 3.93 l7.61 0.18 l1.89 2.24 l-1.38 5.57 c-4.17 -6.77 -7.47 -6.62 -9.36 -5.36 c-1.81 1.2 -0.26 4.13 1.88 6.52 l5.13 8.45 c0.17 0.17 0.66 1.86 0.83 2.02 c1.15 6.24 6.75 8.06 12.49 8.97 c1.74 0.27 10.64 5.62 14.4 -9.44 c-0.01 -3.96 -0.39 -6.97 -1.36 -9.28 l0.86 -1.63 c0.61 -1.15 0.15 -2.56 -1.04 -3.15 z " style="stroke:#231f20;stroke-width:1.00;"/><path d="M191.33 658.65 c0 3.37 -2.73 6.1 -6.1 6.1 c-3.37 0 -6.1 -2.73 -6.1 -6.1 c0 -3.37 2.73 -6.1 6.1 -6.1 c3.37 0 6.1 2.73 6.1 6.1 z " style="stroke:#231f20;stroke-width:1.00;"/><path d="M194.76 658.65 c0 5.26 -4.27 9.53 -9.53 9.53 c-5.27 0 -9.53 -4.27 -9.53 -9.53 c0 -5.27 4.27 -9.53 9.53 -9.53 c5.26 0 9.53 4.27 9.53 9.53 z " style="stroke:#231f20;stroke-width:2.00;"/><path d="M211.71 682.11 l0 -5.89 c0 -1.46 -1.18 -2.64 -2.63 -2.64 c-1.14 0 -2.11 0.73 -2.48 1.75 c-0.63 -0.43 -1.29 -0.83 -1.98 -1.2 l0 -2.42 c0 -1.91 -1.38 -3.46 -3.08 -3.46 c-1.7 0 -3.08 1.55 -3.08 3.46 l0 0.25 c-0.68 -0.13 -1.36 -0.24 -2.03 -0.31 l0 -2.98 c0 -1.91 -1.38 -3.45 -3.08 -3.45 c-1.7 0 -3.08 1.54 -3.08 3.45 l0 3.04 c-0.7 0.11 -1.38 0.25 -2.03 0.43 l0 -12.73 c0 -1.91 -1.38 -3.46 -3.08 -3.46 c-1.7 0 -3.08 1.55 -3.08 3.46 l0 17.85 c-0.19 1.44 -0.74 2.29 -1.7 2.52 c-3.98 -1.35 -7.62 -2.06 -8.94 -0.74 c-1.7 1.69 0.56 4.63 3.35 6.84 l8.8 9.34 c2.29 3.35 5.81 4.69 9.87 5.07 c0.2 0.03 0.39 0.04 0.57 0.05 c0.7 0.05 1.41 0.07 2.13 0.08 c1.92 0 14.19 0.82 15.58 -16.55 c0.08 -0.59 0.07 -1.18 -0.02 -1.76 " style="fill:#ffffff;"/><path d="M211.71 682.11 l0 -5.89 c0 -1.46 -1.18 -2.64 -2.63 -2.64 c-1.14 0 -2.11 0.73 -2.48 1.75 c-0.63 -0.43 -1.29 -0.83 -1.98 -1.2 l0 -2.42 c0 -1.91 -1.38 -3.46 -3.08 -3.46 c-1.7 0 -3.08 1.55 -3.08 3.46 l0 0.25 c-0.68 -0.13 -1.36 -0.24 -2.03 -0.31 l0 -2.98 c0 -1.91 -1.38 -3.45 -3.08 -3.45 c-1.7 0 -3.08 1.54 -3.08 3.45 l0 3.04 c-0.7 0.11 -1.38 0.25 -2.03 0.43 l0 -12.73 c0 -1.91 -1.38 -3.46 -3.08 -3.46 c-1.7 0 -3.08 1.55 -3.08 3.46 l0 17.85 c-0.19 1.44 -0.74 2.29 -1.7 2.52 c-3.98 -1.35 -7.62 -2.06 -8.94 -0.74 c-1.7 1.69 0.56 4.63 3.35 6.84 l8.8 9.34 c2.29 3.35 5.81 4.69 9.87 5.07 c0.2 0.03 0.39 0.04 0.57 0.05 c0.7 0.05 1.41 0.07 2.13 0.08 c1.92 0 14.19 0.82 15.58 -16.55 c0.08 -0.59 0.07 -1.18 -0.02 -1.76 z " style="stroke:#231f20;stroke-width:1.00;"/><path d="M170.98 634.23 l387.3 0 " style="stroke:#a7a5a6;stroke-width:0.25;stroke-dasharray:2.0,2.0;"/>
</svg>
